<?xml version="1.0" encoding="UTF-8" standalone="no"?>
<!-- Created with Inkscape (http://www.inkscape.org/) -->

<svg
   xmlns:dc="http://purl.org/dc/elements/1.1/"
   xmlns:cc="http://creativecommons.org/ns#"
   xmlns:rdf="http://www.w3.org/1999/02/22-rdf-syntax-ns#"
   xmlns:svg="http://www.w3.org/2000/svg"
   xmlns="http://www.w3.org/2000/svg"
   xmlns:xlink="http://www.w3.org/1999/xlink"
   xmlns:sodipodi="http://sodipodi.sourceforge.net/DTD/sodipodi-0.dtd"
   xmlns:inkscape="http://www.inkscape.org/namespaces/inkscape"
   width="218.54326"
   height="102.97999"
   id="svg2"
   version="1.1"
   inkscape:version="0.48.5 r10040"
   sodipodi:docname="fatiando-logo.svg"
   inkscape:export-filename="fatiando-logo-stars.png"
   inkscape:export-xdpi="450"
   inkscape:export-ydpi="450">
  <sodipodi:namedview
     id="base"
     pagecolor="#ffffff"
     bordercolor="#666666"
     borderopacity="1.0"
     inkscape:pageopacity="0"
     inkscape:pageshadow="2"
     inkscape:zoom="0.3693744"
     inkscape:cx="688.47424"
     inkscape:cy="168.59416"
     inkscape:document-units="px"
     inkscape:current-layer="layer1"
     showgrid="false"
     inkscape:window-width="1366"
     inkscape:window-height="743"
     inkscape:window-x="0"
     inkscape:window-y="6"
     inkscape:window-maximized="1"
     showguides="true"
     inkscape:guide-bbox="true"
     fit-margin-top="0"
     fit-margin-left="0"
     fit-margin-right="0"
     fit-margin-bottom="0" />
  <defs
     id="defs4"
     style="stroke-linecap:butt;stroke-linejoin:round;stroke-miterlimit:100000">
    <linearGradient
       id="linearGradient4355">
      <stop
         id="stop4363"
         offset="0"
         style="stop-color:#000000;stop-opacity:0.53225809;" />
      <stop
         style="stop-color:#000000;stop-opacity:0;"
         offset="1"
         id="stop4359" />
    </linearGradient>
    <linearGradient
       id="linearGradient7964">
      <stop
         style="stop-color:#000000;stop-opacity:0.69354838;"
         offset="0"
         id="stop7966" />
      <stop
         id="stop7968"
         offset="0.6391145"
         style="stop-color:#212121;stop-opacity:0.26612905;" />
      <stop
         style="stop-color:#000000;stop-opacity:0;"
         offset="1"
         id="stop7970" />
    </linearGradient>
    <linearGradient
       id="linearGradient7952">
      <stop
         id="stop7954"
         offset="0"
         style="stop-color:#ffffff;stop-opacity:0.90322578;" />
      <stop
         style="stop-color:#ffffff;stop-opacity:0.45161289;"
         offset="0.78048778"
         id="stop7956" />
      <stop
         id="stop7958"
         offset="1"
         style="stop-color:#8c8c8c;stop-opacity:0;" />
    </linearGradient>
    <linearGradient
       id="linearGradient7047">
      <stop
         style="stop-color:#162d50;stop-opacity:1;"
         offset="0"
         id="stop7049" />
      <stop
         id="stop7055"
         offset="0.97560978"
         style="stop-color:#162d50;stop-opacity:1;" />
      <stop
         style="stop-color:#162d50;stop-opacity:0;"
         offset="1"
         id="stop7051" />
    </linearGradient>
    <linearGradient
       id="linearGradient6983">
      <stop
         style="stop-color:#131313;stop-opacity:0.31451613;"
         offset="0"
         id="stop6985" />
      <stop
         id="stop7035"
         offset="0.86585367"
         style="stop-color:#070f1a;stop-opacity:0.49803922;" />
      <stop
         style="stop-color:#000000;stop-opacity:0;"
         offset="1"
         id="stop6987" />
    </linearGradient>
    <clipPath
       id="p47e16dad32">
      <rect
         height="558"
         width="558"
         x="90"
         y="72"
         id="rect3287" />
    </clipPath>
    <style
       type="text/css"
       id="style3002">
*{stroke-linecap:butt;stroke-linejoin:round;stroke-miterlimit:100000;}
  </style>
    <clipPath
       clipPathUnits="userSpaceOnUse"
       id="clipPath3492">
      <path
         d="m 900,900 5580,0 0,5580 -5580,0 0,-5580 z"
         id="path3494"
         inkscape:connector-curvature="0"
         style="stroke-linecap:butt;stroke-linejoin:round;stroke-miterlimit:100000" />
    </clipPath>
    <clipPath
       id="clipPath4635"
       clipPathUnits="userSpaceOnUse">
      <path
         sodipodi:nodetypes="ccccc"
         inkscape:connector-curvature="0"
         id="path4637"
         d="M -8.7940731,946.36218 50,946.73717 l 0,111.25003 -58.7940731,-0.375 z"
         style="fill:none;stroke:#000000;stroke-width:0.10879931;stroke-linecap:butt;stroke-linejoin:round;stroke-miterlimit:100" />
    </clipPath>
    <clipPath
       id="clipPath4730"
       clipPathUnits="userSpaceOnUse">
      <path
         sodipodi:nodetypes="ccccc"
         inkscape:connector-curvature="0"
         id="path4732"
         d="M 63.153185,946.36218 50,946.73717 l 0,111.25003 13.153185,-0.375 z"
         style="fill:none;stroke:#000000;stroke-width:0.05146059;stroke-linecap:butt;stroke-linejoin:round;stroke-miterlimit:100" />
    </clipPath>
    <clipPath
       id="clipPath4767"
       clipPathUnits="userSpaceOnUse">
      <path
         sodipodi:nodetypes="ccccc"
         inkscape:connector-curvature="0"
         id="path4769"
         d="m 76.40318,946.36218 -13.15318,0.37499 0,111.25003 13.15319,-0.375 z"
         style="fill:none;stroke:#000000;stroke-width:0.05146059;stroke-linecap:butt;stroke-linejoin:round;stroke-miterlimit:100" />
    </clipPath>
    <clipPath
       id="clipPath4798"
       clipPathUnits="userSpaceOnUse">
      <path
         sodipodi:nodetypes="ccccc"
         inkscape:connector-curvature="0"
         id="path4800"
         d="m 89.40318,946.36218 -13.15318,0.37499 0,111.25003 13.15319,-0.375 z"
         style="fill:none;stroke:#000000;stroke-width:0.05146059;stroke-linecap:butt;stroke-linejoin:round;stroke-miterlimit:100" />
    </clipPath>
    <clipPath
       id="clipPath4865"
       clipPathUnits="userSpaceOnUse">
      <path
         sodipodi:nodetypes="cccc"
         inkscape:connector-curvature="0"
         id="path4867"
         d="m 107.33231,968.32203 c -4.59619,1.41421 -57.6292,35.35537 -57.6292,35.35537 l 57.98276,41.7193 z"
         style="fill:none;stroke:#000000;stroke-width:1px;stroke-linecap:butt;stroke-linejoin:miter;stroke-miterlimit:100000;stroke-opacity:1" />
    </clipPath>
    <clipPath
       id="clipPath3114"
       clipPathUnits="userSpaceOnUse">
      <rect
         y="937.87701"
         x="0.027363511"
         height="135.24303"
         width="49.8288"
         id="rect3116"
         style="fill:none;stroke:#000000;stroke-width:0.17120032;stroke-linecap:butt;stroke-linejoin:round;stroke-miterlimit:100;stroke-dasharray:none" />
    </clipPath>
    <radialGradient
       inkscape:collect="always"
       xlink:href="#linearGradient6983"
       id="radialGradient6989"
       cx="24.40625"
       cy="46.4375"
       fx="24.40625"
       fy="46.4375"
       r="79.46875"
       gradientTransform="matrix(1,0,0,0.8863547,0,5.2774037)"
       gradientUnits="userSpaceOnUse" />
    <radialGradient
       inkscape:collect="always"
       xlink:href="#linearGradient6983-0"
       id="radialGradient6989-7"
       cx="24.40625"
       cy="46.4375"
       fx="24.40625"
       fy="46.4375"
       r="79.46875"
       gradientTransform="matrix(1,0,0,0.8863547,0,5.2774037)"
       gradientUnits="userSpaceOnUse" />
    <linearGradient
       id="linearGradient6983-0">
      <stop
         style="stop-color:#4e4e4e;stop-opacity:0.31451613;"
         offset="0"
         id="stop6985-5" />
      <stop
         id="stop7035-1"
         offset="0.597561"
         style="stop-color:#0d1c31;stop-opacity:0.63709676;" />
      <stop
         style="stop-color:#000000;stop-opacity:0;"
         offset="1"
         id="stop6987-1" />
    </linearGradient>
    <linearGradient
       id="linearGradient6983-0-3">
      <stop
         style="stop-color:#000000;stop-opacity:0.31451613;"
         offset="0"
         id="stop6985-5-4" />
      <stop
         id="stop7960"
         offset="0.2987805"
         style="stop-color:#000000;stop-opacity:0.65490196;" />
      <stop
         id="stop7035-1-6"
         offset="0.597561"
         style="stop-color:#525252;stop-opacity:1;" />
      <stop
         style="stop-color:#000000;stop-opacity:0;"
         offset="1"
         id="stop6987-1-1" />
    </linearGradient>
    <radialGradient
       inkscape:collect="always"
       xlink:href="#linearGradient6983-0-3-2"
       id="radialGradient6989-7-3-7"
       cx="24.40625"
       cy="46.4375"
       fx="24.40625"
       fy="46.4375"
       r="79.46875"
       gradientTransform="matrix(1,0,0,0.8863547,0,5.2774037)"
       gradientUnits="userSpaceOnUse" />
    <linearGradient
       id="linearGradient6983-0-3-2">
      <stop
         style="stop-color:#4e4e4e;stop-opacity:0.31451613;"
         offset="0"
         id="stop6985-5-4-3" />
      <stop
         id="stop7035-1-6-7"
         offset="0.597561"
         style="stop-color:#0d1c31;stop-opacity:0.63709676;" />
      <stop
         style="stop-color:#000000;stop-opacity:0;"
         offset="1"
         id="stop6987-1-1-2" />
    </linearGradient>
    <radialGradient
       inkscape:collect="always"
       xlink:href="#linearGradient6983-0-3-0"
       id="radialGradient6989-7-3-8"
       cx="24.40625"
       cy="46.4375"
       fx="24.40625"
       fy="46.4375"
       r="79.46875"
       gradientTransform="matrix(1,0,0,0.8863547,0,5.2774037)"
       gradientUnits="userSpaceOnUse" />
    <linearGradient
       id="linearGradient6983-0-3-0">
      <stop
         style="stop-color:#4e4e4e;stop-opacity:0.31451613;"
         offset="0"
         id="stop6985-5-4-2" />
      <stop
         id="stop7035-1-6-4"
         offset="0.597561"
         style="stop-color:#0d1c31;stop-opacity:0.63709676;" />
      <stop
         style="stop-color:#000000;stop-opacity:0;"
         offset="1"
         id="stop6987-1-1-9" />
    </linearGradient>
    <radialGradient
       inkscape:collect="always"
       xlink:href="#linearGradient6983-0-3-1"
       id="radialGradient6989-7-3-80"
       cx="24.40625"
       cy="46.4375"
       fx="24.40625"
       fy="46.4375"
       r="79.46875"
       gradientTransform="matrix(1,0,0,0.8863547,0,5.2774037)"
       gradientUnits="userSpaceOnUse" />
    <linearGradient
       id="linearGradient6983-0-3-1">
      <stop
         style="stop-color:#000000;stop-opacity:0.31451613;"
         offset="0"
         id="stop6985-5-4-7" />
      <stop
         id="stop7035-1-6-9"
         offset="0.597561"
         style="stop-color:#000000;stop-opacity:1;" />
      <stop
         style="stop-color:#000000;stop-opacity:0;"
         offset="1"
         id="stop6987-1-1-1" />
    </linearGradient>
    <radialGradient
       r="79.46875"
       fy="44.948509"
       fx="-97.388268"
       cy="44.948509"
       cx="-97.388268"
       gradientTransform="matrix(0.22679314,-0.14704017,0.87296275,1.0561222,-38.133867,20.650302)"
       gradientUnits="userSpaceOnUse"
       id="radialGradient7923"
       xlink:href="#linearGradient7952"
       inkscape:collect="always" />
    <radialGradient
       inkscape:collect="always"
       xlink:href="#linearGradient7964"
       id="radialGradient7962"
       gradientUnits="userSpaceOnUse"
       gradientTransform="matrix(0.69390209,-0.47055973,0.66121649,0.76480682,50.96095,-20.003874)"
       cx="-164.54355"
       cy="47.635624"
       fx="-164.54355"
       fy="47.635624"
       r="79.46875" />
    <radialGradient
       inkscape:collect="always"
       xlink:href="#linearGradient6983-0-3-3"
       id="radialGradient6989-7-3-4"
       cx="24.40625"
       cy="46.4375"
       fx="24.40625"
       fy="46.4375"
       r="79.46875"
       gradientTransform="matrix(1,0,0,0.8863547,0,5.2774037)"
       gradientUnits="userSpaceOnUse" />
    <linearGradient
       id="linearGradient6983-0-3-3">
      <stop
         style="stop-color:#000000;stop-opacity:0.31451613;"
         offset="0"
         id="stop6985-5-4-72" />
      <stop
         id="stop7960-7"
         offset="0.2987805"
         style="stop-color:#000000;stop-opacity:0.65490196;" />
      <stop
         id="stop7035-1-6-3"
         offset="0.597561"
         style="stop-color:#525252;stop-opacity:1;" />
      <stop
         style="stop-color:#000000;stop-opacity:0;"
         offset="1"
         id="stop6987-1-1-3" />
    </linearGradient>
    <radialGradient
       inkscape:collect="always"
       xlink:href="#linearGradient6983-0-3-7"
       id="radialGradient6989-7-3-2"
       cx="24.40625"
       cy="46.4375"
       fx="24.40625"
       fy="46.4375"
       r="79.46875"
       gradientTransform="matrix(1,0,0,0.8863547,0,5.2774037)"
       gradientUnits="userSpaceOnUse" />
    <linearGradient
       id="linearGradient6983-0-3-7">
      <stop
         style="stop-color:#000000;stop-opacity:0.31451613;"
         offset="0"
         id="stop6985-5-4-29" />
      <stop
         id="stop7960-0"
         offset="0.2987805"
         style="stop-color:#000000;stop-opacity:0.65490196;" />
      <stop
         id="stop7035-1-6-5"
         offset="0.597561"
         style="stop-color:#525252;stop-opacity:1;" />
      <stop
         style="stop-color:#000000;stop-opacity:0;"
         offset="1"
         id="stop6987-1-1-0" />
    </linearGradient>
    <linearGradient
       id="linearGradient6983-0-3-6">
      <stop
         style="stop-color:#000000;stop-opacity:0.31451613;"
         offset="0"
         id="stop6985-5-4-36" />
      <stop
         id="stop7960-8"
         offset="0.2987805"
         style="stop-color:#000000;stop-opacity:0.65490196;" />
      <stop
         id="stop7035-1-6-46"
         offset="0.597561"
         style="stop-color:#525252;stop-opacity:1;" />
      <stop
         style="stop-color:#000000;stop-opacity:0;"
         offset="1"
         id="stop6987-1-1-6" />
    </linearGradient>
    <radialGradient
       inkscape:collect="always"
       xlink:href="#linearGradient6983-0-3-5"
       id="radialGradient6989-7-3-1"
       cx="24.40625"
       cy="46.4375"
       fx="24.40625"
       fy="46.4375"
       r="79.46875"
       gradientTransform="matrix(1,0,0,0.8863547,0,5.2774037)"
       gradientUnits="userSpaceOnUse" />
    <linearGradient
       id="linearGradient6983-0-3-5">
      <stop
         style="stop-color:#000000;stop-opacity:0.31451613;"
         offset="0"
         id="stop6985-5-4-9" />
      <stop
         id="stop7960-9"
         offset="0.2987805"
         style="stop-color:#000000;stop-opacity:0.65490196;" />
      <stop
         id="stop7035-1-6-1"
         offset="0.597561"
         style="stop-color:#525252;stop-opacity:1;" />
      <stop
         style="stop-color:#000000;stop-opacity:0;"
         offset="1"
         id="stop6987-1-1-62" />
    </linearGradient>
    <radialGradient
       inkscape:collect="always"
       xlink:href="#linearGradient6983-0-3-5-5"
       id="radialGradient6989-7-3-1-8"
       cx="24.40625"
       cy="46.4375"
       fx="24.40625"
       fy="46.4375"
       r="79.46875"
       gradientTransform="matrix(1,0,0,0.8863547,0,5.2774037)"
       gradientUnits="userSpaceOnUse" />
    <linearGradient
       id="linearGradient6983-0-3-5-5">
      <stop
         style="stop-color:#000000;stop-opacity:0.31451613;"
         offset="0"
         id="stop6985-5-4-9-1" />
      <stop
         id="stop7960-9-2"
         offset="0.2987805"
         style="stop-color:#000000;stop-opacity:0.65490196;" />
      <stop
         id="stop7035-1-6-1-9"
         offset="0.597561"
         style="stop-color:#525252;stop-opacity:1;" />
      <stop
         style="stop-color:#000000;stop-opacity:0;"
         offset="1"
         id="stop6987-1-1-62-7" />
    </linearGradient>
    <linearGradient
       id="linearGradient6983-0-3-0-4">
      <stop
         style="stop-color:#4e4e4e;stop-opacity:0.31451613;"
         offset="0"
         id="stop6985-5-4-2-6" />
      <stop
         id="stop7035-1-6-4-0"
         offset="0.597561"
         style="stop-color:#0d1c31;stop-opacity:0.63709676;" />
      <stop
         style="stop-color:#000000;stop-opacity:0;"
         offset="1"
         id="stop6987-1-1-9-7" />
    </linearGradient>
    <radialGradient
       inkscape:collect="always"
       xlink:href="#linearGradient6983-0-3-5-5-3"
       id="radialGradient6989-7-3-1-8-4"
       cx="24.40625"
       cy="46.4375"
       fx="24.40625"
       fy="46.4375"
       r="79.46875"
       gradientTransform="matrix(1,0,0,0.8863547,0,5.2774037)"
       gradientUnits="userSpaceOnUse" />
    <linearGradient
       id="linearGradient6983-0-3-5-5-3">
      <stop
         style="stop-color:#000000;stop-opacity:0.31451613;"
         offset="0"
         id="stop6985-5-4-9-1-7" />
      <stop
         id="stop7960-9-2-9"
         offset="0.2987805"
         style="stop-color:#000000;stop-opacity:0.65490196;" />
      <stop
         id="stop7035-1-6-1-9-0"
         offset="0.597561"
         style="stop-color:#525252;stop-opacity:1;" />
      <stop
         style="stop-color:#000000;stop-opacity:0;"
         offset="1"
         id="stop6987-1-1-62-7-0" />
    </linearGradient>
    <radialGradient
       inkscape:collect="always"
       xlink:href="#linearGradient6983-0-3-5-2"
       id="radialGradient6989-7-3-1-2"
       cx="24.40625"
       cy="46.4375"
       fx="24.40625"
       fy="46.4375"
       r="79.46875"
       gradientTransform="matrix(1,0,0,0.8863547,0,5.2774037)"
       gradientUnits="userSpaceOnUse" />
    <linearGradient
       id="linearGradient6983-0-3-5-2">
      <stop
         style="stop-color:#000000;stop-opacity:0.31451613;"
         offset="0"
         id="stop6985-5-4-9-6" />
      <stop
         id="stop7960-9-9"
         offset="0.2987805"
         style="stop-color:#000000;stop-opacity:0.65490196;" />
      <stop
         id="stop7035-1-6-1-0"
         offset="0.597561"
         style="stop-color:#525252;stop-opacity:1;" />
      <stop
         style="stop-color:#000000;stop-opacity:0;"
         offset="1"
         id="stop6987-1-1-62-3" />
    </linearGradient>
    <radialGradient
       inkscape:collect="always"
       xlink:href="#linearGradient6983-0-3-7-5"
       id="radialGradient6989-7-3-2-5"
       cx="24.40625"
       cy="46.4375"
       fx="24.40625"
       fy="46.4375"
       r="79.46875"
       gradientTransform="matrix(1,0,0,0.8863547,0,5.2774037)"
       gradientUnits="userSpaceOnUse" />
    <linearGradient
       id="linearGradient6983-0-3-7-5">
      <stop
         style="stop-color:#000000;stop-opacity:0.31451613;"
         offset="0"
         id="stop6985-5-4-29-8" />
      <stop
         id="stop7960-0-7"
         offset="0.2987805"
         style="stop-color:#000000;stop-opacity:0.65490196;" />
      <stop
         id="stop7035-1-6-5-1"
         offset="0.597561"
         style="stop-color:#525252;stop-opacity:1;" />
      <stop
         style="stop-color:#000000;stop-opacity:0;"
         offset="1"
         id="stop6987-1-1-0-7" />
    </linearGradient>
    <radialGradient
       inkscape:collect="always"
       xlink:href="#linearGradient6983-0-3-5-5-3-1"
       id="radialGradient6989-7-3-1-8-4-0"
       cx="24.40625"
       cy="46.4375"
       fx="24.40625"
       fy="46.4375"
       r="79.46875"
       gradientTransform="matrix(1,0,0,0.8863547,0,5.2774037)"
       gradientUnits="userSpaceOnUse" />
    <linearGradient
       id="linearGradient6983-0-3-5-5-3-1">
      <stop
         style="stop-color:#000000;stop-opacity:0.31451613;"
         offset="0"
         id="stop6985-5-4-9-1-7-4" />
      <stop
         id="stop7960-9-2-9-5"
         offset="0.2987805"
         style="stop-color:#000000;stop-opacity:0.65490196;" />
      <stop
         id="stop7035-1-6-1-9-0-7"
         offset="0.597561"
         style="stop-color:#525252;stop-opacity:1;" />
      <stop
         style="stop-color:#000000;stop-opacity:0;"
         offset="1"
         id="stop6987-1-1-62-7-0-0" />
    </linearGradient>
    <radialGradient
       inkscape:collect="always"
       xlink:href="#linearGradient6983-0-3-5-5-9"
       id="radialGradient6989-7-3-1-8-8"
       cx="24.40625"
       cy="46.4375"
       fx="24.40625"
       fy="46.4375"
       r="79.46875"
       gradientTransform="matrix(1,0,0,0.8863547,0,5.2774037)"
       gradientUnits="userSpaceOnUse" />
    <linearGradient
       id="linearGradient6983-0-3-5-5-9">
      <stop
         style="stop-color:#000000;stop-opacity:0.31451613;"
         offset="0"
         id="stop6985-5-4-9-1-9" />
      <stop
         id="stop7960-9-2-3"
         offset="0.2987805"
         style="stop-color:#000000;stop-opacity:0.65490196;" />
      <stop
         id="stop7035-1-6-1-9-9"
         offset="0.597561"
         style="stop-color:#525252;stop-opacity:1;" />
      <stop
         style="stop-color:#000000;stop-opacity:0;"
         offset="1"
         id="stop6987-1-1-62-7-4" />
    </linearGradient>
    <radialGradient
       r="79.46875"
       fy="46.4375"
       fx="24.40625"
       cy="46.4375"
       cx="24.40625"
       gradientTransform="matrix(1,0,0,0.8863547,0,5.2774037)"
       gradientUnits="userSpaceOnUse"
       id="radialGradient9268"
       xlink:href="#linearGradient6983-0-3-5-5-9"
       inkscape:collect="always" />
    <linearGradient
       id="linearGradient6983-0-3-5-5-9-5">
      <stop
         style="stop-color:#000000;stop-opacity:0.31451613;"
         offset="0"
         id="stop6985-5-4-9-1-9-5" />
      <stop
         id="stop7960-9-2-3-5"
         offset="0.2987805"
         style="stop-color:#000000;stop-opacity:0.65490196;" />
      <stop
         id="stop7035-1-6-1-9-9-6"
         offset="0.597561"
         style="stop-color:#525252;stop-opacity:1;" />
      <stop
         style="stop-color:#000000;stop-opacity:0;"
         offset="1"
         id="stop6987-1-1-62-7-4-0" />
    </linearGradient>
    <radialGradient
       inkscape:collect="always"
       xlink:href="#linearGradient6983-0-3-5-5-9-5"
       id="radialGradient9394"
       gradientUnits="userSpaceOnUse"
       gradientTransform="matrix(1,0,0,0.8863547,0,5.2774037)"
       cx="24.40625"
       cy="46.4375"
       fx="24.40625"
       fy="46.4375"
       r="79.46875" />
    <radialGradient
       inkscape:collect="always"
       xlink:href="#linearGradient6983-0-3-5-2-3"
       id="radialGradient6989-7-3-1-2-9"
       cx="24.40625"
       cy="46.4375"
       fx="24.40625"
       fy="46.4375"
       r="79.46875"
       gradientTransform="matrix(1,0,0,0.8863547,0,5.2774037)"
       gradientUnits="userSpaceOnUse" />
    <linearGradient
       id="linearGradient6983-0-3-5-2-3">
      <stop
         style="stop-color:#000000;stop-opacity:0.31451613;"
         offset="0"
         id="stop6985-5-4-9-6-0" />
      <stop
         id="stop7960-9-9-8"
         offset="0.2987805"
         style="stop-color:#000000;stop-opacity:0.65490196;" />
      <stop
         id="stop7035-1-6-1-0-7"
         offset="0.597561"
         style="stop-color:#525252;stop-opacity:1;" />
      <stop
         style="stop-color:#000000;stop-opacity:0;"
         offset="1"
         id="stop6987-1-1-62-3-6" />
    </linearGradient>
    <radialGradient
       inkscape:collect="always"
       xlink:href="#linearGradient6983-0-3-0-0"
       id="radialGradient6989-7-3-8-7"
       cx="24.40625"
       cy="46.4375"
       fx="24.40625"
       fy="46.4375"
       r="79.46875"
       gradientTransform="matrix(1,0,0,0.8863547,0,5.2774037)"
       gradientUnits="userSpaceOnUse" />
    <linearGradient
       id="linearGradient6983-0-3-0-0">
      <stop
         style="stop-color:#4e4e4e;stop-opacity:0.31451613;"
         offset="0"
         id="stop6985-5-4-2-4" />
      <stop
         id="stop7035-1-6-4-9"
         offset="0.597561"
         style="stop-color:#0d1c31;stop-opacity:0.63709676;" />
      <stop
         style="stop-color:#000000;stop-opacity:0;"
         offset="1"
         id="stop6987-1-1-9-6" />
    </linearGradient>
    <radialGradient
       inkscape:collect="always"
       xlink:href="#linearGradient4355-7"
       id="radialGradient4361-9"
       cx="-3.5932889"
       cy="1028.7412"
       fx="-3.5932889"
       fy="1028.7412"
       r="49.875"
       gradientTransform="matrix(0.9711094,-0.78408146,1.5936614,1.9754072,-1629.6492,-996.9733)"
       gradientUnits="userSpaceOnUse" />
    <linearGradient
       id="linearGradient4355-7">
      <stop
         id="stop4363-1"
         offset="0"
         style="stop-color:#000000;stop-opacity:0.53225809;" />
      <stop
         style="stop-color:#000000;stop-opacity:0;"
         offset="1"
         id="stop4359-3" />
    </linearGradient>
    <radialGradient
       r="49.875"
       fy="1028.7412"
       fx="-3.5932889"
       cy="1028.7412"
       cx="-3.5932889"
       gradientTransform="matrix(0.9711094,-0.78408146,1.5936614,1.9754072,-1629.6492,-996.9733)"
       gradientUnits="userSpaceOnUse"
       id="radialGradient4380"
       xlink:href="#linearGradient4355-7"
       inkscape:collect="always" />
    <radialGradient
       inkscape:collect="always"
       xlink:href="#linearGradient6983-0-3-5-5-3-5"
       id="radialGradient6989-7-3-1-8-4-7"
       cx="24.40625"
       cy="46.4375"
       fx="24.40625"
       fy="46.4375"
       r="79.46875"
       gradientTransform="matrix(1,0,0,0.8863547,0,5.2774037)"
       gradientUnits="userSpaceOnUse" />
    <linearGradient
       id="linearGradient6983-0-3-5-5-3-5">
      <stop
         style="stop-color:#000000;stop-opacity:0.31451613;"
         offset="0"
         id="stop6985-5-4-9-1-7-9" />
      <stop
         id="stop7960-9-2-9-2"
         offset="0.2987805"
         style="stop-color:#000000;stop-opacity:0.65490196;" />
      <stop
         id="stop7035-1-6-1-9-0-2"
         offset="0.597561"
         style="stop-color:#525252;stop-opacity:1;" />
      <stop
         style="stop-color:#000000;stop-opacity:0;"
         offset="1"
         id="stop6987-1-1-62-7-0-8" />
    </linearGradient>
    <radialGradient
       r="79.46875"
       fy="46.4375"
       fx="24.40625"
       cy="46.4375"
       cx="24.40625"
       gradientTransform="matrix(1,0,0,0.8863547,0,5.2774037)"
       gradientUnits="userSpaceOnUse"
       id="radialGradient3561-3"
       xlink:href="#linearGradient6983-0-3-5-5-3-5-6"
       inkscape:collect="always" />
    <linearGradient
       id="linearGradient6983-0-3-5-5-3-5-6">
      <stop
         style="stop-color:#000000;stop-opacity:0.31451613;"
         offset="0"
         id="stop6985-5-4-9-1-7-9-1" />
      <stop
         id="stop7960-9-2-9-2-0"
         offset="0.2987805"
         style="stop-color:#000000;stop-opacity:0.65490196;" />
      <stop
         id="stop7035-1-6-1-9-0-2-6"
         offset="0.597561"
         style="stop-color:#525252;stop-opacity:1;" />
      <stop
         style="stop-color:#000000;stop-opacity:0;"
         offset="1"
         id="stop6987-1-1-62-7-0-8-3" />
    </linearGradient>
    <radialGradient
       r="79.46875"
       fy="46.4375"
       fx="24.40625"
       cy="46.4375"
       cx="24.40625"
       gradientTransform="matrix(1,0,0,0.8863547,0,5.2774037)"
       gradientUnits="userSpaceOnUse"
       id="radialGradient3561-1"
       xlink:href="#linearGradient6983-0-3-5-5-3-5-2"
       inkscape:collect="always" />
    <linearGradient
       id="linearGradient6983-0-3-5-5-3-5-2">
      <stop
         style="stop-color:#000000;stop-opacity:0.31451613;"
         offset="0"
         id="stop6985-5-4-9-1-7-9-9" />
      <stop
         id="stop7960-9-2-9-2-3"
         offset="0.2987805"
         style="stop-color:#000000;stop-opacity:0.65490196;" />
      <stop
         id="stop7035-1-6-1-9-0-2-1"
         offset="0.597561"
         style="stop-color:#525252;stop-opacity:1;" />
      <stop
         style="stop-color:#000000;stop-opacity:0;"
         offset="1"
         id="stop6987-1-1-62-7-0-8-9" />
    </linearGradient>
    <radialGradient
       r="79.46875"
       fy="46.4375"
       fx="24.40625"
       cy="46.4375"
       cx="24.40625"
       gradientTransform="matrix(1,0,0,0.8863547,0,5.2774037)"
       gradientUnits="userSpaceOnUse"
       id="radialGradient3561-1-2"
       xlink:href="#linearGradient6983-0-3-5-5-3-5-2-7"
       inkscape:collect="always" />
    <linearGradient
       id="linearGradient6983-0-3-5-5-3-5-2-7">
      <stop
         style="stop-color:#000000;stop-opacity:0.31451613;"
         offset="0"
         id="stop6985-5-4-9-1-7-9-9-2" />
      <stop
         id="stop7960-9-2-9-2-3-2"
         offset="0.2987805"
         style="stop-color:#000000;stop-opacity:0.65490196;" />
      <stop
         id="stop7035-1-6-1-9-0-2-1-6"
         offset="0.597561"
         style="stop-color:#525252;stop-opacity:1;" />
      <stop
         style="stop-color:#000000;stop-opacity:0;"
         offset="1"
         id="stop6987-1-1-62-7-0-8-9-1" />
    </linearGradient>
    <radialGradient
       r="79.46875"
       fy="46.4375"
       fx="24.40625"
       cy="46.4375"
       cx="24.40625"
       gradientTransform="matrix(1,0,0,0.8863547,0,5.2774037)"
       gradientUnits="userSpaceOnUse"
       id="radialGradient3561-1-1"
       xlink:href="#linearGradient6983-0-3-5-5-3-5-2-0"
       inkscape:collect="always" />
    <linearGradient
       id="linearGradient6983-0-3-5-5-3-5-2-0">
      <stop
         style="stop-color:#000000;stop-opacity:0.31451613;"
         offset="0"
         id="stop6985-5-4-9-1-7-9-9-3" />
      <stop
         id="stop7960-9-2-9-2-3-0"
         offset="0.2987805"
         style="stop-color:#000000;stop-opacity:0.65490196;" />
      <stop
         id="stop7035-1-6-1-9-0-2-1-4"
         offset="0.597561"
         style="stop-color:#525252;stop-opacity:1;" />
      <stop
         style="stop-color:#000000;stop-opacity:0;"
         offset="1"
         id="stop6987-1-1-62-7-0-8-9-4" />
    </linearGradient>
    <radialGradient
       r="79.46875"
       fy="46.4375"
       fx="24.40625"
       cy="46.4375"
       cx="24.40625"
       gradientTransform="matrix(1,0,0,0.8863547,0,5.2774037)"
       gradientUnits="userSpaceOnUse"
       id="radialGradient3561-1-1-5"
       xlink:href="#linearGradient6983-0-3-5-5-3-5-2-0-4"
       inkscape:collect="always" />
    <linearGradient
       id="linearGradient6983-0-3-5-5-3-5-2-0-4">
      <stop
         style="stop-color:#000000;stop-opacity:0.31451613;"
         offset="0"
         id="stop6985-5-4-9-1-7-9-9-3-0" />
      <stop
         id="stop7960-9-2-9-2-3-0-5"
         offset="0.2987805"
         style="stop-color:#000000;stop-opacity:0.65490196;" />
      <stop
         id="stop7035-1-6-1-9-0-2-1-4-9"
         offset="0.597561"
         style="stop-color:#525252;stop-opacity:1;" />
      <stop
         style="stop-color:#000000;stop-opacity:0;"
         offset="1"
         id="stop6987-1-1-62-7-0-8-9-4-4" />
    </linearGradient>
    <linearGradient
       id="linearGradient6983-0-3-5-5-3-5-2-0-4-1">
      <stop
         style="stop-color:#000000;stop-opacity:0.31451613;"
         offset="0"
         id="stop6985-5-4-9-1-7-9-9-3-0-0" />
      <stop
         id="stop7960-9-2-9-2-3-0-5-3"
         offset="0.2987805"
         style="stop-color:#000000;stop-opacity:0.65490196;" />
      <stop
         id="stop7035-1-6-1-9-0-2-1-4-9-4"
         offset="0.597561"
         style="stop-color:#525252;stop-opacity:1;" />
      <stop
         style="stop-color:#000000;stop-opacity:0;"
         offset="1"
         id="stop6987-1-1-62-7-0-8-9-4-4-0" />
    </linearGradient>
    <linearGradient
       id="linearGradient6983-0-3-5-5-3-5-2-0-9">
      <stop
         style="stop-color:#000000;stop-opacity:0.31451613;"
         offset="0"
         id="stop6985-5-4-9-1-7-9-9-3-1" />
      <stop
         id="stop7960-9-2-9-2-3-0-9"
         offset="0.2987805"
         style="stop-color:#000000;stop-opacity:0.65490196;" />
      <stop
         id="stop7035-1-6-1-9-0-2-1-4-6"
         offset="0.597561"
         style="stop-color:#525252;stop-opacity:1;" />
      <stop
         style="stop-color:#000000;stop-opacity:0;"
         offset="1"
         id="stop6987-1-1-62-7-0-8-9-4-9" />
    </linearGradient>
    <radialGradient
       r="79.46875"
       fy="46.4375"
       fx="24.40625"
       cy="46.4375"
       cx="24.40625"
       gradientTransform="matrix(1,0,0,0.8863547,0,5.2774037)"
       gradientUnits="userSpaceOnUse"
       id="radialGradient3561-1-2-3"
       xlink:href="#linearGradient6983-0-3-5-5-3-5-2-7-3"
       inkscape:collect="always" />
    <linearGradient
       id="linearGradient6983-0-3-5-5-3-5-2-7-3">
      <stop
         style="stop-color:#000000;stop-opacity:0.31451613;"
         offset="0"
         id="stop6985-5-4-9-1-7-9-9-2-8" />
      <stop
         id="stop7960-9-2-9-2-3-2-0"
         offset="0.2987805"
         style="stop-color:#000000;stop-opacity:0.65490196;" />
      <stop
         id="stop7035-1-6-1-9-0-2-1-6-5"
         offset="0.597561"
         style="stop-color:#525252;stop-opacity:1;" />
      <stop
         style="stop-color:#000000;stop-opacity:0;"
         offset="1"
         id="stop6987-1-1-62-7-0-8-9-1-6" />
    </linearGradient>
    <radialGradient
       r="79.46875"
       fy="46.4375"
       fx="24.40625"
       cy="46.4375"
       cx="24.40625"
       gradientTransform="matrix(1,0,0,0.8863547,0,5.2774037)"
       gradientUnits="userSpaceOnUse"
       id="radialGradient3561-1-6"
       xlink:href="#linearGradient6983-0-3-5-5-3-5-2-4"
       inkscape:collect="always" />
    <linearGradient
       id="linearGradient6983-0-3-5-5-3-5-2-4">
      <stop
         style="stop-color:#000000;stop-opacity:0.31451613;"
         offset="0"
         id="stop6985-5-4-9-1-7-9-9-0" />
      <stop
         id="stop7960-9-2-9-2-3-04"
         offset="0.2987805"
         style="stop-color:#000000;stop-opacity:0.65490196;" />
      <stop
         id="stop7035-1-6-1-9-0-2-1-62"
         offset="0.597561"
         style="stop-color:#525252;stop-opacity:1;" />
      <stop
         style="stop-color:#000000;stop-opacity:0;"
         offset="1"
         id="stop6987-1-1-62-7-0-8-9-6" />
    </linearGradient>
    <radialGradient
       inkscape:collect="always"
       xlink:href="#linearGradient6983-0-3-5-5-3-5-2-0-9"
       id="radialGradient5944"
       gradientUnits="userSpaceOnUse"
       gradientTransform="matrix(1,0,0,0.8863547,0,5.2774037)"
       cx="24.40625"
       cy="46.4375"
       fx="24.40625"
       fy="46.4375"
       r="79.46875" />
    <radialGradient
       inkscape:collect="always"
       xlink:href="#linearGradient6983-0-3-5-5-3-5-2-0-4-1"
       id="radialGradient5965"
       gradientUnits="userSpaceOnUse"
       gradientTransform="matrix(1,0,0,0.8863547,0,5.2774037)"
       cx="24.40625"
       cy="46.4375"
       fx="24.40625"
       fy="46.4375"
       r="79.46875" />
  </defs>
  <metadata
     id="metadata7">
    <rdf:RDF>
      <cc:Work
         rdf:about="">
        <dc:format>image/svg+xml</dc:format>
        <dc:type
           rdf:resource="http://purl.org/dc/dcmitype/StillImage" />
        <dc:title />
      </cc:Work>
    </rdf:RDF>
  </metadata>
  <g
     transform="translate(288.9987,-980.35823)"
     id="layer1"
     inkscape:groupmode="layer"
     inkscape:label="Layer 1"
     style="stroke-linecap:butt;stroke-linejoin:round;stroke-miterlimit:100000">
    <path
       transform="matrix(0.99928796,0,0,1.0006431,-289.02993,27.245674)"
       d="m 49.90625,952.5 c -13.225297,0 -25.898318,5.27329 -35.25,14.625 -9.3516819,9.35161 -14.625,22.02464 -14.625,35.25 0,13.2253 5.2733511,25.9296 14.625,35.2812 9.351682,9.3518 22.024703,14.625 35.25,14.625 13.225298,0 25.89833,-5.2732 35.25,-14.625 9.351657,-9.3516 14.625,-22.0559 14.625,-35.2812 0,-13.22536 -5.27331,-25.89839 -14.625,-35.25 -9.35167,-9.35171 -22.024702,-14.625 -35.25,-14.625 z"
       id="path4363-5"
       style="fill:#aa8f8f;fill-opacity:1;fill-rule:nonzero;stroke:none"
       inkscape:original="M 49.90625 952.46875 C 36.669755 952.46875 23.984572 957.73415 14.625 967.09375 C 5.265428 976.45325 0 989.13844 0 1002.375 C 0 1015.6115 5.265428 1028.3279 14.625 1037.6875 C 23.984572 1047.0471 36.669755 1052.3125 49.90625 1052.3125 C 63.142746 1052.3125 75.82794 1047.0471 85.1875 1037.6875 C 94.54708 1028.3279 99.8125 1015.6115 99.8125 1002.375 C 99.8125 989.13844 94.54708 976.45325 85.1875 967.09375 C 75.82794 957.73415 63.142746 952.46875 49.90625 952.46875 z "
       inkscape:radius="-0.042225514"
       sodipodi:type="inkscape:offset" />
    <path
       d="m 49.90625,956.4375 c -12.193551,0 -23.873818,4.8738 -32.5,13.5 -8.6261691,8.6261 -13.5,20.30642 -13.5,32.5 0,12.1936 4.8768435,23.9083 13.5,32.5313 8.626176,8.6263 20.306437,13.5 32.5,13.5 12.193565,0 23.873839,-4.8737 32.5,-13.5 8.623163,-8.623 13.5,-20.3377 13.5,-32.5313 0,-12.19359 -4.873824,-23.8739 -13.5,-32.5 -8.626167,-8.6262 -20.306447,-13.5 -32.5,-13.5 z"
       id="path3264-0"
       style="fill:#db7e7e;fill-opacity:1;fill-rule:nonzero;stroke:none"
       inkscape:original="M 49.90625 954.75 C 37.263464 954.75 25.157618 959.81111 16.21875 968.75 C 7.2798891 977.68879 2.21875 989.79468 2.21875 1002.4375 C 2.21875 1015.0805 7.2814546 1027.2191 16.21875 1036.1562 C 25.157617 1045.0952 37.263462 1050.1562 49.90625 1050.1562 C 62.54904 1050.1562 74.654897 1045.0952 83.59375 1036.1562 C 92.531053 1027.2191 97.59375 1015.0805 97.59375 1002.4375 C 97.59375 989.79467 92.532618 977.68879 83.59375 968.75 C 74.654896 959.81111 62.549038 954.75 49.90625 954.75 z "
       inkscape:radius="-1.6833005"
       sodipodi:type="inkscape:offset"
       transform="translate(-289.10098,27.922444)" />
    <path
       d="m 49.90625,974.90625 c -7.295136,0 -14.280717,2.87445 -19.46875,8.0625 -5.187948,5.18791 -8.0625,12.17361 -8.0625,19.46875 0,7.2908 2.895656,14.3333 8.0625,19.5 5.188011,5.1882 12.17358,8.0625 19.46875,8.0625 7.295173,0 14.280769,-2.8744 19.46875,-8.0625 5.166846,-5.1667 8.0625,-12.2092 8.0625,-19.5 0,-7.29516 -2.874545,-14.28084 -8.0625,-19.46875 -5.188005,-5.18803 -12.173615,-8.0625 -19.46875,-8.0625 z"
       id="path4220-3"
       style="fill:#ffdd57;fill-opacity:1;fill-rule:nonzero;stroke:none"
       inkscape:original="M 49.90625 968.40625 C 40.898132 968.40625 32.247057 971.97167 25.84375 978.375 C 19.440497 984.7782 15.875 993.42935 15.875 1002.4375 C 15.875 1011.4467 19.452124 1020.1397 25.84375 1026.5312 C 32.247069 1032.9347 40.898152 1036.5 49.90625 1036.5 C 58.914351 1036.5 67.565452 1032.9347 73.96875 1026.5312 C 80.360379 1020.1397 83.9375 1011.4467 83.9375 1002.4375 C 83.9375 993.42933 80.372007 984.7782 73.96875 978.375 C 67.565467 971.97169 58.914375 968.40625 49.90625 968.40625 z "
       inkscape:radius="-6.4918342"
       sodipodi:type="inkscape:offset"
       transform="translate(-289.10098,27.922444)" />
    <path
       d="m 49.90625,988.8125 c -3.573892,0 -6.988864,1.42636 -9.59375,4.03125 -2.604751,2.60473 -4.03125,6.01987 -4.03125,9.59375 0,3.5687 1.459032,7.0528 4.03125,9.625 2.604918,2.6049 6.019912,4.0313 9.59375,4.0313 3.573842,0 6.988872,-1.4264 9.59375,-4.0313 2.572213,-2.5722 4.03125,-6.0563 4.03125,-9.625 0,-3.57391 -1.426495,-6.98902 -4.03125,-9.59375 -2.604847,-2.60486 -6.019855,-4.03125 -9.59375,-4.03125 z"
       id="path3234-5-6"
       style="fill:#ffeeaa;fill-opacity:1;fill-rule:nonzero;stroke:none"
       inkscape:original="M 49.90625 956.21875 C 37.651419 956.21875 25.917909 961.11332 17.25 969.78125 C 8.5821036 978.44908 3.6875 990.18264 3.6875 1002.4375 C 3.6875 1014.6923 8.5849938 1026.46 17.25 1035.125 C 25.917909 1043.7929 37.651419 1048.6875 49.90625 1048.6875 C 62.161083 1048.6875 73.894606 1043.7929 82.5625 1035.125 C 91.227513 1026.46 96.125 1014.6923 96.125 1002.4375 C 96.125 990.18263 91.230403 978.44908 82.5625 969.78125 C 73.894606 961.11332 62.161083 956.21875 49.90625 956.21875 z "
       inkscape:radius="-32.602489"
       sodipodi:type="inkscape:offset"
       transform="translate(-289.10098,27.922444)" />
    <path
       transform="matrix(0.99928796,0,0,1.0006431,-170.16564,30.370674)"
       d="m 49.90625,952.5 c -13.225297,0 -25.898318,5.27329 -35.25,14.625 -9.3516819,9.35161 -14.625,22.02464 -14.625,35.25 0,13.2253 5.2733511,25.9296 14.625,35.2812 9.351682,9.3518 22.024703,14.625 35.25,14.625 13.225298,0 25.89833,-5.2732 35.25,-14.625 9.351657,-9.3516 14.625,-22.0559 14.625,-35.2812 0,-13.22536 -5.27331,-25.89839 -14.625,-35.25 -9.35167,-9.35171 -22.024702,-14.625 -35.25,-14.625 z"
       id="path4363-2-8-7-5-3-9"
       style="fill:#1b50a2;fill-opacity:1;fill-rule:nonzero;stroke:none"
       inkscape:original="M 49.90625 952.46875 C 36.669755 952.46875 23.984572 957.73415 14.625 967.09375 C 5.265428 976.45325 0 989.13844 0 1002.375 C 0 1015.6115 5.265428 1028.3279 14.625 1037.6875 C 23.984572 1047.0471 36.669755 1052.3125 49.90625 1052.3125 C 63.142746 1052.3125 75.82794 1047.0471 85.1875 1037.6875 C 94.54708 1028.3279 99.8125 1015.6115 99.8125 1002.375 C 99.8125 989.13844 94.54708 976.45325 85.1875 967.09375 C 75.82794 957.73415 63.142746 952.46875 49.90625 952.46875 z "
       inkscape:radius="-0.042225514"
       sodipodi:type="inkscape:offset" />
    <path
       inkscape:connector-curvature="0"
       d="m -126.17845,985.76372 c -1.39546,0.9172 -3.01195,1.5639 -4.1875,2.75 -1.02922,1.0384 -2.74434,2.2729 -2.375,3.6875 0.29193,1.1181 1.96434,1.2651 3.0625,1.625 1.50066,0.4919 3.26882,1.3812 4.6875,0.6875 1.29069,-0.6312 1.47969,-2.4663 2.125,-3.75 0.87977,-1.7501 3.14726,-3.5749 2.375,-5.375 -0.46245,-1.078 -2.1478,-1.3266 -3.3125,-1.1875 -0.94095,0.1123 -1.58312,1.042 -2.375,1.5625 z m -4.125,85.71888 c -0.22244,0.035 -0.20304,0.2051 -0.375,0.8437 -0.22929,0.8515 1.37248,2.9979 0.65625,4.1563 -0.71615,1.1582 -3.14482,0.2073 -3.8125,1.1875 -0.66764,0.9801 -0.89528,2.0493 0.21875,3.1562 0.52107,0.5177 0.59683,0.84 1.05619,0.9808 1.25165,0.3837 3.01258,0.6683 4.53756,0.8942 2.03575,0.3015 4.08643,0.5476 6.14334,0.6134 2.20427,0.071 4.41693,-0.022 6.61202,-0.2352 2.3262,-0.2257 4.65103,-0.5592 6.92417,-1.1023 2.44681,-0.5846 4.68671,-1.1625 7.18458,-2.3106 1.10377,-0.5073 -1.39536,-1.7778 -1.64536,-3.2778 -0.25,-1.5 -5.91851,0.1165 -8.875,0.25 -4.35814,0.1969 -8.54397,1.9844 -13.0625,0.8125 -1.23092,-0.3662 -1.3585,-0.6577 -2.0625,-1.3125 -0.70395,-0.6547 -1.47326,-1.8768 -2,-2.6562 -0.52679,-0.7795 -0.61684,-1.96 -1.1875,-2 -0.14267,-0.01 -0.23836,-0.012 -0.3125,0 z"
       style="fill:#fafafa;fill-opacity:1;stroke-linecap:butt;stroke-linejoin:round;stroke-miterlimit:100000"
       id="path4574-9-8-6-7-3" />
    <path
       inkscape:connector-curvature="0"
       d="m -107.44482,986.13942 c -0.5694,0.159 -1.0804,0.9598 -0.90598,1.5247 0.13903,0.4503 0.82075,0.4984 1.28163,0.5966 0.4611,0.098 0.94885,-0.098 1.41421,-0.022 0.72432,0.1177 1.34714,0.6546 2.07713,0.7292 0.38447,0.039 1.08072,0.2257 1.14905,-0.1546 0.1136,-0.6325 -1.13442,-0.6038 -1.70148,-0.906 -1.10505,-0.5889 -2.10854,-2.1046 -3.31456,-1.7678 z m 7.516369,31.24928 c 0.85055,0.3803 1.82987,0.3537 2.75,0.5 0.91367,0.1453 1.82495,0.3617 2.75,0.375 1.17322,0.017 2.35095,-0.6125 3.5,-0.375 1.07803,0.2229 2.13364,0.8112 2.875,1.625 0.89179,0.9789 1.20115,2.3705 1.625,3.625 0.87669,2.5948 1.84182,5.2613 1.875,8.0001 0.0345,2.8518 -1.45678,5.5382 -1.75,8.375 -0.28274,2.7354 0.24455,5.5109 0,8.25 -0.18825,2.1084 -2.31034,4.4962 -1.125,6.25 0.69095,1.0223 2.4365,1.0817 3.625,0.75 3.06695,-0.856 5.11131,-3.9365 7,-6.5 2.05607,-2.7907 3.5167,-6.051 4.5,-9.375 1.09037,-3.6859 1.55232,-7.5946 1.46875,-11.4376 -0.0492,-2.2617 -0.58701,-4.4981 -1.15625,-6.6875 -0.65697,-2.5269 -1.50559,-5.0174 -2.59375,-7.3906 -1.54039,-3.3596 -3.31684,-6.7146 -5.53125,-9.6094 -2.36194,-3.0877 -5.04142,-6.14158 -8.0625,-8.68748 -2.87405,-2.422 -6.13938,-4.461 -9.44508,-6.1585 -2.438779,-1.2523 -7.248119,-3.3602 -7.746859,-3.0505 -1.37686,0.855 4.13663,1.3774 3.94194,3.0215 -0.0965,0.815 -2.08928,0.1951 -2.25,1 -0.21355,1.0694 2.75083,1.4063 2.25,2.375 -0.54124,1.0469 -2.7058,-1.3707 -3.5,-0.5 -0.60615,0.6645 0.0113,1.9674 0.625,2.625 0.95304,1.0213 2.60336,1.278 4,1.25 0.619299,-0.012 1.328069,-0.1715 1.749999,-0.625 0.53022,-0.5699 -0.0288,-1.8276 0.625,-2.25 0.92066,-0.5948 2.25173,0.047 3.25,0.5 1.23901,0.5617 1.92618,1.9819 3.125,2.625 0.65064,0.349 1.49883,0.2338 2.125,0.625 1.10056,0.6876 1.54447,2.1563 2.625,2.875 1.03152,0.68608 2.49083,0.5315 3.5,1.24998 0.82694,0.5888 2.0478,1.3698 1.90625,2.375 -0.0302,0.2146 -0.31501,0.3599 -0.53125,0.375 -1.54299,0.1074 -2.75552,-1.4061 -4.125,-2.125 -1.79902,-0.9445 -3.55165,-1.97838 -5.375,-2.87498 -1.64008,-0.8065 -3.21305,-1.8665 -5,-2.25 -1.58881,-0.341 -3.35025,-0.5619 -4.874999,0 -1.74712,0.6439 -3.24294,2.0588 -4.25,3.625 -0.98436,1.53088 -1.37301,3.43438 -1.5,5.24998 -0.12622,1.8046 0.0961,3.6883 0.75,5.375 0.63919,1.6487 1.7877,3.0877 3,4.375 0.97712,1.0375 2.07391,2.0433 3.374999,2.625 z m 28.1875,24.3751 c -0.68273,-0.2235 -0.68867,1.2616 -1.0625,1.875 -0.33679,0.5526 -0.76176,1.052 -1.0625,1.625 -0.51238,0.9763 -0.8623,2.0303 -1.25,3.0625 -0.24789,0.6599 -0.52233,1.3147 -0.6875,2 -0.10355,0.4296 -0.37519,0.9124 -0.1875,1.3125 0.13505,0.2879 0.51912,0.6227 0.8125,0.5 0.25642,-0.1072 0.0675,-0.5618 0.1875,-0.8125 0.16013,-0.3346 0.49429,-0.5584 0.6875,-0.875 0.28648,-0.4695 0.48565,-0.9883 0.6875,-1.5 0.21759,-0.5515 0.3299,-1.1421 0.5625,-1.6875 0.17547,-0.4114 0.41705,-0.7915 0.625,-1.1875 0.22959,-0.4373 0.585,-0.8294 0.6875,-1.3125 0.1343,-0.6331 -0.14205,-1.2905 -0.125,-1.9375 0.009,-0.3565 0.46391,-0.9516 0.125,-1.0625 z m -63.705739,-55.70418 c -2.74534,0.1884 -6.42838,2.3525 -8.62031,3.4704 -3.9893,2.0346 -6.26187,3.8924 -9.62341,6.8471 -1.93453,1.7004 -3.69788,3.417 -5.32893,5.40888 -1.49947,1.8313 -3.10538,4.2386 -4.07506,6.0343 -0.96967,1.7956 -1.90847,3.1045 -1.78675,4.8148 0.0577,0.8107 0.45266,1.7535 1.15982,2.1573 0.7518,0.4293 1.79998,-0.4209 2.60177,-0.094 1.52451,0.622 1.8719,2.9162 3.38543,3.5643 1.04743,-0.1016 2.04629,0.1877 2.78985,0.5315 0.78994,1.3995 -0.64586,3.1679 -0.90905,4.7523 -0.34505,2.0772 -1.3419,4.1991 -0.8777,6.2531 0.67731,2.9971 2.86187,5.5266 5.07815,7.6601 0.78103,0.7519 2.15617,0.8406 2.78985,1.7196 1.32327,1.8356 1.07842,4.3827 1.53598,6.597 0.63711,3.0832 0.8476,6.2528 1.69272,9.2858 0.70076,2.515 1.30744,5.175 2.7585,7.3474 0.81964,1.2271 1.96934,2.2605 3.2287,3.0327 1.35152,0.8287 3.56346,2.8843 4.48256,1.5946 0.9346,-1.3115 -2.35891,-2.2936 -3.04062,-3.7519 -0.92533,-1.9795 -1.71313,-4.3052 -1.25386,-6.4406 0.52117,-2.4234 2.99471,-3.9532 4.29448,-6.0655 1.23641,-2.0094 2.25467,-4.1499 3.32274,-6.2531 0.49473,-0.9742 0.69252,-2.1428 1.44195,-2.939 1.07975,-1.147 3.15091,-1.0617 4.1064,-2.3136 1.56572,-2.0514 0.76012,-5.1804 1.8808,-7.5037 0.6187,-1.2827 2.24182,-2.0306 2.60177,-3.408 0.31947,-1.2225 0.19983,-2.7214 -0.53289,-3.7518 -1.01191,-1.4231 -3.03008,-1.8022 -4.67065,-2.4075 -2.21412,-0.8168 -4.95233,-0.2898 -6.89625,-1.6258 -2.35883,-4.0987 -6.0804,-5.942 -10.56381,-6.7846 -2.26103,-0.4147 -4.79143,-0.8283 -6.89625,0.094 -1.31484,0.5761 -1.51295,3.0428 -2.94658,3.1266 -0.78001,0.046 -2.20456,0.5731 -3.13467,0.2814 -1.28281,-0.4024 0.98248,-2.9746 0.15674,-4.0333 -0.54288,-0.6959 -2.18869,0.2639 -2.57042,-0.5315 -0.56498,-1.1771 2.24551,-2.2482 1.78675,-3.4704 -0.1691,-0.4505 -0.88033,-0.6808 -1.3479,-0.5628 -1.35628,0.3422 -1.4514,3.8579 -2.69581,3.2203 -1.37189,-0.7029 0.40191,-3.1311 1.15982,-4.4709 0.84034,-1.4855 2.19906,-2.687 3.60486,-3.6581 1.09896,-0.7591 2.47665,-2.2001 3.66756,-1.5945 0.626,0.3184 -0.25567,1.957 0.43885,2.0635 0.47579,0.073 0.48827,-0.8303 0.72097,-1.2506 0.49068,-0.8863 0.78137,-1.9202 1.44195,-2.6888 0.87429,-1.01738 2.1955,-1.51468 3.19735,-2.40748 1.07095,-0.9543 1.91779,-2.1603 2.97793,-3.1265 0.78476,-0.7153 1.56947,-1.4712 2.50773,-1.9697 0.94158,-0.5003 2.06942,-0.5602 3.04062,-1.0005 0.79235,-0.3593 2.24757,-0.4453 2.22561,-1.3132 -0.0128,-0.506 -1.40152,-0.2157 -1.34791,-0.7191 0.22958,-2.1556 5.82756,0.3404 6.26932,-1.7821 0.21988,-1.0564 -1.03521,-1.6867 -2.10022,-1.8759 -0.34625,-0.062 -0.73628,-0.089 -1.12848,-0.062 z m -18.4318,20.35368 c -0.82361,0.03 -1.8716,0.2294 -2.351,0.5003 -0.63919,0.3612 -0.42989,0.7101 -0.4075,0.8441 0.0224,0.134 0.37615,0.043 0.62693,-0.031 0.25078,-0.074 0.42353,-0.3911 0.81501,-0.469 0.39148,-0.078 1.08657,0.065 1.44194,0.1876 0.35538,0.1221 0.58093,0.1825 0.68963,0.4065 0.1087,0.224 -0.34085,0.4672 -0.094,0.6878 0.24681,0.2206 1.14191,-0.268 1.25386,-0.3126 0.11196,-0.045 1.08179,-0.349 1.09714,-0.7191 0.0154,-0.3701 -0.63141,-0.5182 -0.72098,-0.5628 -0.0896,-0.045 -0.85185,-0.3784 -1.63002,-0.5003 -0.19454,-0.03 -0.44644,-0.041 -0.72097,-0.031 z m 5.48565,0.8754 c -0.27373,0.024 -0.67216,0.037 -1.00309,0.1564 -0.33092,0.1196 -0.61085,0.3547 -0.9404,0.5627 -0.32954,0.2081 -0.85563,0.4417 -1.03443,0.6879 -0.17881,0.2462 -0.29446,0.3747 -0.15674,0.5628 0.13773,0.1881 0.5538,0.097 0.81502,0.031 0.26121,-0.066 0.39548,-0.3408 0.68962,-0.4065 0.29415,-0.066 0.91353,0.1161 1.00309,0.094 0.0896,-0.022 0.81949,-0.5136 1.06579,-0.6253 0.24629,-0.1117 0.92586,-0.6105 0.65828,-0.7504 -0.26758,-0.1399 -0.8234,-0.3365 -1.09714,-0.3126 z"
       style="fill:#6abb33;fill-opacity:1;stroke:#000000;stroke-width:0;stroke-linecap:butt;stroke-linejoin:miter;stroke-miterlimit:100;stroke-opacity:1;stroke-dasharray:none"
       id="path4576-7-4-2-5-1" />
  </g>
</svg>
