<?xml version="1.0" encoding="UTF-8" standalone="no"?>
<!-- Created with Inkscape (http://www.inkscape.org/) -->

<svg
   xmlns:dc="http://purl.org/dc/elements/1.1/"
   xmlns:cc="http://creativecommons.org/ns#"
   xmlns:rdf="http://www.w3.org/1999/02/22-rdf-syntax-ns#"
   xmlns:svg="http://www.w3.org/2000/svg"
   xmlns="http://www.w3.org/2000/svg"
   xmlns:sodipodi="http://sodipodi.sourceforge.net/DTD/sodipodi-0.dtd"
   xmlns:inkscape="http://www.inkscape.org/namespaces/inkscape"
   width="100"
   height="100"
   id="svg2"
   version="1.1"
   inkscape:version="0.48.4 r9939"
   sodipodi:docname="fatiando-logo.svg"
   inkscape:export-filename="/home/leo/src/fatiando-logo/fatiando-logo.png"
   inkscape:export-xdpi="150"
   inkscape:export-ydpi="150">
  <defs
     id="defs4" />
  <sodipodi:namedview
     id="base"
     pagecolor="#ffffff"
     bordercolor="#666666"
     borderopacity="1.0"
     inkscape:pageopacity="0.0"
     inkscape:pageshadow="2"
     inkscape:zoom="1.979899"
     inkscape:cx="49.798205"
     inkscape:cy="-11.751542"
     inkscape:document-units="px"
     inkscape:current-layer="layer1"
     showgrid="false"
     inkscape:window-width="1366"
     inkscape:window-height="719"
     inkscape:window-x="0"
     inkscape:window-y="25"
     inkscape:window-maximized="1" />
  <metadata
     id="metadata7">
    <rdf:RDF>
      <cc:Work
         rdf:about="">
        <dc:format>image/svg+xml</dc:format>
        <dc:type
           rdf:resource="http://purl.org/dc/dcmitype/StillImage" />
        <dc:title />
      </cc:Work>
    </rdf:RDF>
  </metadata>
  <g
     inkscape:label="Layer 1"
     inkscape:groupmode="layer"
     id="layer1"
     transform="translate(0,-952.36218)">
    <g
       id="g3037">
      <g
         id="g3676"
         transform="matrix(1.2745835,0,0,1.2745835,-234.64181,320.87399)">
        <path
           style="color:#000000;fill:#b3b3b3;fill-opacity:1;fill-rule:nonzero;stroke:#b3b3b3;stroke-width:0.78457004;stroke-miterlimit:4;stroke-dasharray:none;marker:none;visibility:visible;display:inline;overflow:visible;enable-background:accumulate"
           d="m 211.48641,545.08078 c -0.91774,-0.80519 -5.74164,-10.58875 -7.46836,-13.71593 -1.09703,-1.98677 -2.19579,-3.37542 -3.6386,-5.3122 -1.07441,-1.44225 -2.51408,-3.36172 -3.19927,-4.32362 -0.6852,-0.96192 -1.55043,-2.09723 -1.73955,-2.34859 -0.39814,-0.52914 0.0653,-0.98637 0.37668,-1.10007 0.34427,-0.12575 0.89845,0.18138 1.1633,0.6447 0.13241,0.23164 1.16652,1.30595 2.29802,2.38737 2.19266,2.09562 2.94886,2.9438 4.81081,5.39593 2.23864,2.94822 2.91922,4.02089 3.82257,6.02471 0.83561,1.85353 4.10398,10.892 4.10615,11.86254 0.003,1.39019 0.30595,1.2202 -0.53175,0.48516 z"
           id="path4036-2-4"
           inkscape:connector-curvature="0"
           sodipodi:nodetypes="cssssssssscc" />
        <path
           style="color:#000000;fill:#003380;fill-opacity:1;fill-rule:nonzero;stroke:#003380;stroke-width:0.78457004;stroke-miterlimit:4;stroke-dasharray:none;marker:none;visibility:visible;display:inline;overflow:visible;enable-background:accumulate"
           d="m 219.01201,523.7357 c -0.27945,-0.34873 -0.56505,-0.9051 -0.63465,-1.23635 -0.1215,-0.57822 -0.16582,-0.60229 -1.10871,-0.60229 -1.09485,0 -2.4306,-0.54697 -2.75807,-1.12937 -0.33059,-0.58797 -0.23936,-1.86785 0.1903,-2.66947 0.47421,-0.88476 0.63621,-0.99272 1.72589,-1.15011 0.82754,-0.11954 0.84382,-0.11075 1.25878,0.6801 0.54572,1.04008 2.21389,5.81632 2.21389,6.33875 0,0.57696 -0.30306,0.49799 -0.88743,-0.23126 l 0,0 z"
           id="path4020-0-9"
           inkscape:connector-curvature="0" />
        <path
           style="color:#000000;fill:#003380;fill-opacity:1;fill-rule:nonzero;stroke:#003380;stroke-width:0.78555071;stroke-miterlimit:4;stroke-dasharray:none;marker:none;visibility:visible;display:inline;overflow:visible;enable-background:accumulate"
           d="m 211.69165,569.27519 c -2.15975,-0.29796 -3.07299,-0.60652 -6.21739,-2.10048 -3.85921,-1.83371 -6.35306,-3.62296 -8.49014,-6.09124 -0.62174,-0.71815 -2.02065,-2.26545 -3.1087,-3.43851 -4.08922,-4.40859 -5.0334,-6.14529 -3.88079,-7.13815 0.6916,-0.59576 2.90382,-1.52294 3.65071,-1.53009 0.9681,-0.2469 6.2008,4.60608 9.25786,7.53484 1.09358,1.04769 2.33099,1.64212 2.49891,1.58556 0.5357,-0.18052 0.26033,-2.61431 -0.39063,-3.45234 -0.32835,-0.4227 -4.21372,-5.4529 -4.88056,-6.81991 -0.66685,-1.36702 -1.5793,-3.03019 -2.02768,-3.69594 -0.71063,-1.05515 -0.8169,-1.47252 -0.82819,-3.25265 -0.0114,-1.78988 -0.11843,-2.20512 -0.86714,-3.3624 -0.67721,-1.04682 -1.21345,-1.48751 -2.58828,-2.12727 -1.50486,-0.70032 -1.9212,-1.07369 -3.14944,-2.82448 -1.48914,-2.12266 -2.95597,-4.77946 -3.60402,-6.52773 -0.35773,-0.96508 -0.33054,-1.17783 0.36939,-2.89021 0.92497,-2.26295 2.915,-5.71421 3.63806,-5.84238 1.01532,-0.17997 2.14922,0.86466 4.99291,4.46976 3.79374,4.80959 6.29444,8.40661 8.34325,12.00105 3.17535,5.57073 8.2667,15.56239 8.61621,15.56239 1.08266,0 -2.93007,-17.98829 -4.72408,-22.50465 -0.4001,-1.00724 -1.29716,-2.78701 -1.99348,-3.95506 -0.69632,-1.16804 -2.22953,-3.97538 -3.40715,-6.23852 -1.17761,-2.26315 -2.40407,-4.38236 -2.72546,-4.70937 -0.7721,-0.78558 -0.56018,-2.43245 0.48006,-3.73058 0.72156,-0.90045 7.01914,-6.59986 7.57822,-6.79918 0.14736,-0.0526 -0.91103,1.51561 -1.61796,2.49843 -2.0105,2.79519 -2.5668,4.86873 -2.5668,9.56738 0,4.30611 0.2191,5.02703 2.17077,7.14279 2.18419,2.36784 10.21394,7.47418 12.73004,8.09541 0.80228,0.19809 1.54211,0.4517 1.64407,0.5636 0.69536,0.76316 1.19516,3.04844 1.52536,6.97454 -0.17652,1.19144 0.34112,1.87448 0.86969,1.98988 0.53032,0.11587 1.07166,-0.3396 0.93392,-1.42625 -0.0658,-1.71053 1.46339,1.56922 3.61465,2.77001 3.18933,1.78014 4.89314,6.20271 4.56252,12.0703 -0.0797,1.41486 -0.084,2.95634 -0.009,3.4254 0.19033,1.19757 1.03662,1.97157 2.15568,1.97157 1.5504,0 2.23437,-0.99906 3.55646,-5.19508 1.52218,-4.83114 2.03525,-6.03547 3.37035,-7.91207 0.60775,-0.85421 1.51842,-2.33992 2.02372,-3.30159 0.50528,-0.96167 1.38937,-2.41423 1.96462,-3.22798 1.81593,-2.5686 2.11098,-4.13844 1.13757,-6.05238 -0.65751,-1.29283 -1.96927,-2.08463 -4.18555,-2.5265 -1.9798,-0.39471 -4.92642,-1.61337 -6.75415,-2.79336 -0.80979,-0.52281 -1.97182,-1.03087 -2.5823,-1.12904 -1.38429,-0.22261 -3.16343,0.21642 -4.19883,1.03614 -1.51597,1.20016 -2.9096,1.36045 -3.70413,1.55334 -3.81869,0.92707 0.13488,-2.28459 0.36055,-6.09338 0.14899,-2.51509 0.27269,-5.48683 0.27489,-6.51824 0.002,-1.13692 0.80399,-3.10669 1.06505,-3.60061 0.23683,-0.44807 1.76608,-0.9234 3.2271,-2.25493 2.63321,-2.39983 2.65636,-2.43221 2.65299,-3.71091 -0.005,-1.71999 -0.98403,-2.7576 -2.35169,-2.49122 -2.31798,0.45151 -2.29847,0.46305 -2.47395,-1.46424 -0.0876,-0.96165 -0.53268,-2.05454 -0.60055,-2.26424 -0.24577,-0.75932 1.84916,-0.81521 4.40924,-0.30383 l 2.36451,0.4723 c 1.84209,0.56492 0.0756,1.12984 0.11338,1.69476 0.0884,1.3212 0.31325,2.00082 1.02017,3.08323 0.7728,1.18326 0.90681,1.64139 0.90681,3.09984 0,2.06059 0.39334,2.55681 2.02671,2.55681 0.91797,0 1.32464,-0.17717 2.09938,-0.91458 0.91397,-0.86994 0.96087,-1.00869 0.96087,-2.84214 0,-1.92619 0.31324,-2.96816 0.8923,-2.96816 0.45898,0 3.83061,2.67202 4.62933,3.66875 0.38267,0.47756 0.69577,1.06088 0.69577,1.2963 0,0.23543 -0.50869,1.19469 -1.13043,2.13174 -1.53864,2.3189 -1.5165,3.14 0.13073,4.84775 1.13971,1.18158 1.34843,1.29088 2.16734,1.13499 0.49839,-0.0949 1.55234,-0.63773 2.34209,-1.20634 1.96463,-1.41451 2.37707,-1.51907 3.17552,-0.80511 0.36442,0.32587 0.66258,0.80292 0.66258,1.06011 0,0.25721 -0.76304,1.2053 -1.69565,2.10686 -1.91672,1.85294 -2.04771,2.38808 -1.27536,5.21047 0.70898,2.59084 1.79822,3.90343 4.66667,5.62353 3.63378,2.17905 4.94541,6.55316 3.28163,10.94376 -0.37121,0.97958 -1.07211,3.17307 -1.55758,4.8745 -0.56083,4.44645 -2.33172,7.50098 -3.45977,10.07374 -3.56868,5.35997 -2.0844,4.03734 -6.02643,7.1896 -5.45579,4.36279 -5.04185,4.25627 -6.70239,4.25627 -2.72465,0 -4.79467,-1.33065 -6.29362,-4.04575 -0.56846,-1.0297 -1.14932,-1.8722 -1.29081,-1.8722 -0.42807,0 -0.79927,0.90283 -1.00392,2.44173 -0.35554,2.67346 -1.34611,4.28243 -2.63768,4.28431 -0.99334,0 -8.71826,1.24824 -9.77686,1.57794 -0.4663,0.14533 -1.4513,0.34101 -2.18887,0.43488 -0.80388,0.10228 -1.66925,0.43355 -2.16036,0.82679 -0.91366,0.73182 -1.10328,0.74188 -4.68239,0.24792 z"
           id="path4018-4-5"
           inkscape:connector-curvature="0"
           sodipodi:nodetypes="csssscsssssssssssssssssssssssssccscsscsssssssssssscssssssscsssssssssssssssssssccssssscssscc" />
        <path
           style="color:#000000;fill:#217821;fill-opacity:1;fill-rule:nonzero;stroke:#1a1a1a;stroke-width:0.78457004;stroke-miterlimit:4;stroke-dasharray:none;marker:none;visibility:visible;display:inline;overflow:visible;enable-background:accumulate"
           d="m 195.38845,540.08452 c -0.15364,-0.12844 -0.39945,-0.49011 -0.77038,-1.13355 -0.37381,-0.64847 -0.3479,-0.61422 -0.7609,-1.00519 -0.19789,-0.18728 -0.40852,-0.41367 -0.46808,-0.50307 -0.30322,-0.45507 0.0556,-0.54305 0.80824,-0.19796 0.7574,0.34714 1.33515,0.87055 1.52782,1.38407 0.0698,0.18617 0.0712,0.21799 0.0304,0.74925 -0.0418,0.54533 -0.0981,0.76812 -0.2017,0.79852 -0.0224,0.008 -0.0969,-0.0346 -0.16538,-0.0921 z"
           id="path4032-0-0"
           inkscape:connector-curvature="0" />
        <path
           style="color:#000000;fill:#b3b3b3;fill-opacity:1;fill-rule:nonzero;stroke:#b3b3b3;stroke-width:0.78457004;stroke-miterlimit:4;stroke-dasharray:none;marker:none;visibility:visible;display:inline;overflow:visible;enable-background:accumulate"
           d="m 204.00397,556.1876 c -2.0037,-1.06183 -10.62462,-9.49424 -11.7864,-10.68341 -0.49828,-0.50998 -1.65152,-1.5286 -2.56276,-2.26356 -1.59381,-1.28548 -2.43769,-2.12413 -2.80883,-2.79138 -0.0961,-0.17274 -0.14586,-0.34163 -0.1106,-0.37518 0.0937,-0.0892 1.7133,0.5114 2.85559,1.05892 1.49907,0.71863 2.40473,1.44235 5.80079,4.6357 2.27446,2.13866 8.88832,9.46031 9.21282,10.0248 0.25967,0.45177 0.37413,0.77236 0.27523,0.77086 -0.0931,0 -0.48726,-0.17085 -0.87584,-0.37675 z"
           id="path4034-9-5"
           inkscape:connector-curvature="0"
           sodipodi:nodetypes="sssssssscs" />
        <path
           style="color:#000000;fill:#b3b3b3;fill-opacity:1;fill-rule:nonzero;stroke:#b3b3b3;stroke-width:0.78457004;stroke-miterlimit:4;stroke-dasharray:none;marker:none;visibility:visible;display:inline;overflow:visible;enable-background:accumulate"
           d="m 220.34064,521.15456 c -1.93513,-6.31744 -3.40624,-9.24226 -4.08255,-10.3903 -0.50546,-0.85805 -1.68925,-2.84162 -2.70898,-4.47169 -0.41648,-0.66576 -1.96876,-2.33119 -1.65586,-2.91766 l 0.20046,-0.37572 0.40622,0.0953 c 1.48156,0.34737 3.06412,3.57532 5.01034,6.70463 1.39271,2.2393 3.3182,5.60756 3.86176,6.95646 0.20317,0.5042 0.59826,1.70137 0.85011,2.37834 0.34559,5.77338 1.27108,10.11791 0.92116,11.71559 -1.21227,0.0907 -1.35871,-4.72787 -2.80266,-9.6949 z"
           id="path4038-9-5"
           inkscape:connector-curvature="0"
           sodipodi:nodetypes="cssscssscccc" />
        <path
           style="color:#000000;fill:#b3b3b3;fill-opacity:1;fill-rule:nonzero;stroke:none;stroke-width:0.98399234;marker:none;visibility:visible;display:inline;overflow:visible;enable-background:accumulate"
           d="m 223.76698,527.36456 c 0.003,-1.14659 -0.0111,-0.22456 0.0517,-0.63142 0.076,-0.49273 0.0671,-1.09797 -0.0563,-1.81573 -0.96806,-5.63181 -0.39232,-9.85805 -0.15553,-13.94762 0.0374,-0.64667 -0.0211,-2.05304 0.0436,-3.62121 0.13478,-3.26326 0.97529,-5.43801 1.13592,-5.99303 0.35223,-1.21706 1.17019,-0.50142 0.9608,0.40349 -0.0719,0.31047 -0.37253,5.60183 -0.41535,8.33886 -0.0445,2.84206 -0.16284,5.69749 -0.27601,6.65763 -0.31606,2.6815 -0.43334,3.08643 -0.49023,7.12838 0.29389,7.78801 1.92945,5.55019 -0.7986,3.48065 z"
           id="path4040-6-8"
           inkscape:connector-curvature="0"
           sodipodi:nodetypes="csssssssscc" />
        <path
           style="color:#000000;fill:#ffffff;fill-opacity:1;fill-rule:nonzero;stroke:none;stroke-width:0.5;marker:none;visibility:visible;display:inline;overflow:visible;enable-background:accumulate"
           d="m 237.93375,508.06802 c -0.0844,-0.25597 -0.13519,-1.26296 -0.11594,-2.29984 0.0395,-2.12835 -0.0655,-2.39504 -1.16373,-2.95608 -0.66293,-0.33866 -0.80804,-0.55495 -0.82366,-1.22766 -0.0156,-0.67278 0.33229,-1.0469 0.97355,-1.0469 0.75447,0 1.95527,0.47515 2.57287,1.01808 0.48989,0.43065 0.50798,0.47716 0.367,0.94335 -0.0816,0.26969 -0.27023,1.37942 -0.41926,2.46608 -0.35035,2.55473 -0.49222,3.16086 -0.7909,3.37927 -0.35855,0.26217 -0.43375,0.22753 -0.59993,-0.27631 z"
           id="path4062-1-1"
           inkscape:connector-curvature="0" />
        <path
           style="color:#000000;fill:#ffffff;fill-opacity:1;fill-rule:nonzero;stroke:#1a1a1a;stroke-width:0.39228502;marker:none;visibility:visible;display:inline;overflow:visible;enable-background:accumulate"
           d="m 220.51195,570.71613 c -1.41391,-0.20692 -2.38747,-0.55146 -2.1708,-0.76811 0.1539,-0.15389 2.73146,-0.89396 4.11401,-1.18132 0.70137,-0.14564 2.97102,-0.46088 5.04366,-0.70039 4.06595,-0.47 6.15558,-0.85507 6.49586,-1.1971 0.16728,-0.16827 0.21472,-0.56277 0.21472,-1.78595 0,-0.86348 0.0494,-1.70504 0.10971,-1.87008 0.13572,-0.37118 0.66085,-0.54706 0.66085,-0.22137 0,0.50432 0.611,1.44541 1.23631,1.90425 0.36029,0.26442 1.23882,0.73221 1.95229,1.03983 0.71348,0.30747 1.46759,0.67071 1.67579,0.80716 l 0.37857,0.248 -1.04062,0.47321 c -3.68049,1.67377 -7.91453,2.76247 -12.42222,3.19429 -2.35126,0.22529 -4.93984,0.24909 -6.24813,0.0573 z"
           id="path4064-9-9"
           inkscape:connector-curvature="0" />
        <path
           style="fill:#1a1a1a"
           d="m 218.89331,572.24104 c -4.22945,-0.89883 -8.72379,-1.10441 -12.53023,-3.21612 -6.60441,-2.07205 -10.66677,-7.78065 -15.02657,-12.58099 -2.35852,-2.64291 -3.49086,-5.89627 -5.01234,-9.01278 -0.93889,-2.48768 -4.33328,-8.56667 -0.3069,-8.59856 3.62076,0.64666 7.34291,3.8272 9.29133,4.38156 -1.58764,-3.41769 -3.74122,-6.53507 -5.68862,-9.76636 -0.98904,-3.17828 -5.39969,-6.0668 -4.06374,-9.18515 1.53327,-3.12301 2.63902,-6.57738 5.44195,-8.87025 0.35938,-0.2392 0.96769,-0.3829 1.50739,-0.21431 4.91272,1.79359 8.32489,5.9706 11.53945,9.78204 0.81856,1.10001 3.83219,5.7246 2.3237,1.78164 -1.667,-2.98883 -2.64339,-6.25294 -4.34752,-9.20804 -0.68088,-2.93709 -2.53828,-4.60175 -3.31676,-6.48418 -0.24279,-0.44538 -0.0126,-1.65283 0.11858,-2.02796 0.12743,-0.94393 6.83741,-7.58821 9.54789,-9.02103 0.67557,-0.42057 1.44402,-0.37711 1.97982,-0.11705 2.01343,0.87866 4.38064,3.91531 5.97156,5.86194 3.76401,5.40271 5.69983,10.62176 6.07958,10.65331 0.17345,-4.91785 -0.32553,-13.2187 1.48355,-17.49054 1.15668,-2.30249 5.59499,-1.96198 7.83044,-1.71691 4.60147,0.73203 8.88703,2.74233 12.52678,5.50892 4.40679,2.77083 7.74258,6.04495 11.50372,10.21722 1.90887,1.98133 2.52275,3.59895 3.63094,5.68152 0.97485,2.15368 2.00902,4.47426 2.29086,6.64917 0.0978,2.88549 0.57695,4.10464 0.88176,8.22535 -0.26974,8.19424 -5.03204,19.83367 -7.41316,23.11444 -2.61627,4.11055 -6.57907,6.8101 -10.39948,9.73973 -3.02414,2.11572 -6.55984,3.52154 -10.27626,4.41204 -5.01329,1.46199 -10.35458,1.78501 -15.56768,1.50135 z m 7.38112,-1.44675 c 4.89592,-0.38406 9.70156,-1.63292 14.05899,-3.76373 -1.00891,-1.29726 -5.03835,-1.27998 -5.32462,-4.31597 -2.08299,-0.011 0.35189,3.96004 -1.61647,4.39515 -4.4517,1.11046 -9.15363,0.75177 -13.64747,2.26498 -4.29692,0.90299 1.59297,1.67684 3.20601,1.55264 1.10963,0.0353 2.21904,-0.0377 3.32356,-0.13307 z m -9.9086,-1.62499 c 1.50423,-1.39695 3.56416,-0.55908 5.4113,-1.60818 2.48786,-0.14179 5.50012,-1.01847 8.2533,-1.23669 1.64041,0.24611 2.44911,-0.69537 2.98005,-2.71125 0.28645,-2.01895 0.52673,-6.26697 2.14908,-2.36954 1.03523,3.25305 6.46191,5.91638 9.27221,3.4609 0.871,-3.44189 11.30331,-13.90283 11.50771,-14.55115 1.95846,-4.07834 2.40718,-8.60602 4.27448,-12.72128 0.79821,-3.84299 -0.68965,-8.39788 -4.73447,-9.99154 -3.00867,-1.58517 -4.15314,-4.78685 -4.34976,-7.87275 0.59771,-2.34206 5.76488,-3.84842 2.68399,-5.90448 -2.34214,-1.6916 -5.11776,5.13181 -7.73386,0.9492 -2.8788,-2.17988 0.36658,-4.29309 1.30931,-6.32378 0.52116,-1.29698 -3.20677,-4.08897 -5.2912,-5.52697 -1.27989,-0.48011 -1.55125,2.39147 -1.30451,3.39734 0.50668,1.97619 -1.62272,3.82898 -3.62323,3.47437 -2.29576,-0.49757 -0.34228,-3.27394 -1.42808,-4.66807 -1.45351,-1.84533 -2.38748,-3.81045 -1.47359,-5.69066 -1.92983,-0.46751 -6.59341,-1.8395 -7.45751,-0.10062 1.6747,0.87601 -0.35163,4.45573 1.81245,4.13929 3.20022,-2.24502 5.22926,2.50493 2.61916,4.3314 -2.43769,2.38474 -5.63731,2.57669 -5.76159,7.3719 -0.24477,3.07966 -0.20752,4.4406 -0.43239,7.39982 0.13072,1.3695 -0.44457,3.68558 0.0881,4.53942 0.57038,0.91429 2.27764,0.28548 3.29143,-0.78641 2.55262,-1.94129 5.61015,-1.48684 7.83399,0.73214 3.42185,1.40796 3.60905,1.72899 7.25714,2.3934 3.69318,1.01756 4.0892,5.11004 1.74969,7.61688 -1.6645,1.9173 -2.27645,4.45871 -3.81764,6.40829 -2.25505,2.68038 -2.37419,4.13106 -3.49723,7.48528 -1.02542,2.31455 -0.81841,6.12549 -3.92461,6.15872 -2.93349,-0.38869 -1.5518,-4.48314 -1.81551,-6.43531 0.21812,-3.5353 -0.63262,-7.35873 -3.00699,-10.14555 -2.13788,-1.19639 -5.60131,-3.93333 -4.74057,0.57935 -2.1758,3.1008 -2.11296,-4.14245 -2.25355,-5.6009 0.0177,-2.26702 -0.43574,-4.56047 -1.62011,-6.5355 -2.9882,0.0738 -5.15885,-2.11056 -7.67811,-3.30536 -3.04465,-2.47496 -7.26159,-4.17363 -8.54098,-8.10004 -0.98348,-4.21096 -0.33203,-8.87947 1.73888,-12.72004 0.94916,-0.91586 4.07988,-5.0173 0.95586,-2.3421 -2.57574,2.52228 -8.41773,5.42735 -7.52179,9.08921 1.37734,1.34899 1.7927,2.34205 2.55413,4.08415 1.79677,3.27454 3.41986,6.62909 5.48178,9.74674 2.23518,5.17587 4.60943,14.98949 5.30506,20.4808 0.48779,1.23127 0.55677,4.04849 -1.55085,1.7081 -2.00124,-2.77338 -6.44394,-8.58921 -7.99226,-14.8054 -1.86701,-3.16497 -3.94185,-6.00039 -6.17674,-8.97555 -2.00154,-1.9636 -3.7701,-7.10861 -6.3459,-6.4176 -1.74388,2.40042 -3.72832,4.99515 -4.30192,7.85681 1.16222,3.48234 3.27174,7.0054 5.66934,9.74638 3.54996,0.65955 6.27273,4.37104 4.81745,7.74003 1.83451,2.58438 7.50251,10.61311 8.88759,13.44289 1.42813,1.02727 2.03358,5.46634 -0.34936,2.96907 -2.55192,-1.58155 -9.10127,-9.7336 -12.12536,-10.32606 -2.81971,0.8839 -6.03781,2.25956 -2.91693,5.11967 1.92709,3.28352 5.17394,5.59657 7.44852,8.64553 1.85801,1.50355 3.53431,3.21322 5.82113,4.13224 2.72634,1.19655 5.38015,2.96953 8.50884,2.82484 1.22957,-0.0377 3.30792,1.13111 4.08464,-0.25138 z m 22.51041,-24.71641 c 2.54672,-1.90653 3.23391,-5.00137 5.07882,-7.40657 1.26434,-1.66238 2.77086,-4.39679 0.41463,-5.91875 -3.75626,-1.35919 -4.46856,-1.04799 -8.11397,-2.83137 -2.48455,-2.27902 -5.6389,-3.13196 -8.29754,-0.55229 -3.52083,0.77821 -1.75314,3.94101 -2.68195,6.25628 -1.83089,3.44378 3.41066,4.08534 5.12251,5.94615 3.27148,4.06758 3.30618,9.47822 2.74914,14.32177 0.65401,1.95806 2.16782,1.10433 2.45309,0.26049 1.13483,-3.35697 1.88115,-7.28371 3.27527,-10.07571 z m -34.10861,12.06409 c -1.27923,-2.89538 -9.56485,-10.80768 -11.77066,-13.06677 -1.71205,-1.86545 -4.16886,-2.89664 -6.5944,-3.64055 0.9382,2.47409 4.81041,4.17182 6.57058,6.62274 1.72319,1.20488 10.86727,10.31451 11.79448,10.08458 z m -15.76783,-6.97553 c 4.42338,-0.65326 3.15329,-4.28007 -0.0674,-5.41959 -1.38469,-0.97267 -5.04034,-4.58448 -3.46523,-0.68626 0.90217,2.03968 1.53176,4.77536 3.1266,6.23201 z m 6.75607,-10.2109 c 0.69399,-1.82916 -4.60868,-3.60497 -1.54669,-1.03112 0.39244,0.55193 1.60568,3.2679 1.54669,1.03112 z m 16.07362,6.06154 c 0.29676,-2.54243 -3.83171,-12.35215 -4.59543,-14.34594 -1.0993,-2.12522 -2.59599,-3.5144 -4.17571,-5.8554 -1.60173,-2.02383 -3.59289,-3.93211 -5.59233,-5.6569 -1.1007,-2.36398 -3.10396,-1.43855 -1.03991,0.3943 1.98401,3.01276 4.1674,5.71072 6.25388,8.58983 1.55228,2.70459 7.51144,15.22799 9.1495,16.87411 z m 12.95072,-42.84967 c -0.94577,-0.31131 -1.06983,5.66387 -1.11715,7.68614 -0.12289,3.14341 -0.31787,2.5218 -0.16183,2.88346 0.14638,0.33926 0.34754,3.22729 0.44494,2.95643 0.54806,-1.52402 0.63729,-10.46462 0.83404,-13.52603 z m 35.94082,26.47927 c -1.03153,-4.15285 -1.89561,-8.56664 -4.45614,-12.15376 -1.78892,-0.0438 -2.13308,2.65204 -2.37228,4.07099 0.0242,2.48564 1.12334,5.29433 3.87877,6.05133 1.14032,0.0861 2.1975,2.51928 2.94965,2.03144 z m -39.94254,-1.24396 c -0.88292,-2.02647 -3.17932,-3.3989 -4.85094,-4.81525 -2.17625,-0.28499 -3.38497,-2.45117 -3.05409,-4.39735 -0.68432,-2.74734 10.2659,-4.21306 3.81265,-1.64612 -1.42295,-0.50345 -2.5295,1.24617 -2.53399,2.41278 -0.53025,2.04046 2.17946,3.1239 3.93276,2.55704 0.11913,2.08931 3.00154,4.28813 1.67023,0.80274 -1.02807,-2.04265 -1.04175,-4.02932 -2.34262,-5.69215 -0.2279,-2.54377 -1.32208,-5.93348 -3.1041,-8.09954 -1.64462,-1.98594 -2.34099,-4.62367 -4.27528,-6.42707 -1.93331,2.33761 -4.14171,4.71354 -4.52335,7.81369 -0.73828,2.6442 -0.53714,5.5823 0.80081,8.01074 1.14479,2.36151 4.15442,3.48563 6.0125,5.3357 2.50147,1.73532 6.02079,4.0821 8.5206,4.54485 l -0.0344,-0.211 -0.0307,-0.18906 z m 1.66356,-8.59455 c -1.08877,-2.64385 -3.36138,-7.08161 -5.40216,-10.32134 -1.39253,-1.89032 -3.31801,-6.44372 -5.43613,-6.40988 0.57419,2.91515 2.77555,6.36915 4.89125,8.92395 2.48707,4.45213 5.76819,14.69148 6.3941,19.47402 0.38818,-1.71254 -0.31412,-10.21698 -0.44706,-11.66675 z m 27.89918,-5.99867 c 3.35103,-1.11108 0.67816,-4.93768 -1.26134,-4.72836 0.35547,1.87177 -2.5147,2.56826 -1.58179,4.49402 0.57539,1.94696 1.71425,1.68047 2.84313,0.23434 z m -21.5628,-4.84393 c 2.69096,-0.81883 3.17734,-5.72721 -0.49725,-3.87635 -2.47145,-0.0273 -2.23462,4.65207 -1.34031,5.11271 0.56864,-0.35629 1.31989,-0.81845 1.83756,-1.23636 z m 10.0923,-0.15874 c 0.5283,-1.92747 0.47356,-4.47191 1.10003,-6.23251 -1.3456,-1.56662 -5.25814,-2.72005 -3.99327,0.64181 3.29643,0.89299 0.95025,4.03619 2.04127,5.93209 0.3239,0.0856 0.67693,-0.0781 0.85197,-0.34139 z"
           id="path2996-2-2"
           inkscape:connector-curvature="0"
           sodipodi:nodetypes="cccccccccccccccccccccccccccccccccccccccccccccccccccccccccccccsccccccccccccccccccccccccccccccccccccccccccsccccccccccccccccccccccccssccccccccccccccccccccccccccccccccccccccccccc" />
        <path
           style="color:#000000;fill:#5aa02c;fill-opacity:1;fill-rule:nonzero;stroke:#1a1a1a;stroke-width:1.17832601;stroke-miterlimit:4;stroke-dasharray:none;marker:none;visibility:visible;display:inline;overflow:visible;enable-background:accumulate"
           d="m 233.84078,555.01595 c -0.34839,-0.33166 -0.42452,-1.1392 -0.39932,-4.23608 0.0563,-6.91214 -1.65459,-10.30053 -5.61187,-12.50031 -2.65847,-1.47793 -3.00929,-1.8993 -2.76578,-3.32264 0.10814,-0.63214 0.54001,-2.17651 0.66005,-3.38919 0.12004,-1.21268 0.37357,-2.383 0.5634,-2.60072 0.18983,-0.2177 1.20427,-0.88992 2.25431,-1.49381 1.38843,-0.79849 2.21287,-1.09635 3.02261,-1.09205 1.14862,0.006 3.29542,0.78231 3.64265,1.31707 0.34916,0.53773 3.33025,1.81018 6.25175,2.6685 1.66107,0.48801 3.07049,1.07211 3.38489,1.40279 0.93792,0.98646 0.69929,2.31105 -0.89742,4.98129 -0.78988,1.32098 -1.86106,3.12359 -2.38039,4.00592 -0.51934,0.88233 -1.35632,2.03834 -1.85995,2.5689 -1.10692,1.16631 -1.78539,2.74959 -3.09522,7.22354 -0.54717,1.86898 -1.06044,3.61007 -1.1406,3.86915 -0.23364,0.75507 -1.12153,1.08076 -1.62911,0.59764 z"
           id="path3248-6-5"
           inkscape:connector-curvature="0"
           sodipodi:nodetypes="cscsssscssscscsccc" />
        <path
           style="color:#000000;fill:#5aa02c;fill-opacity:1;fill-rule:nonzero;stroke:#1a1a1a;stroke-width:1.17832601;stroke-miterlimit:4;stroke-dasharray:none;marker:none;visibility:visible;display:inline;overflow:visible;enable-background:accumulate"
           d="m 217.96472,526.88107 c -2.14506,-1.28359 -5.0875,-3.01918 -8.16479,-5.39541 -1.97844,-1.5277 -2.71581,-2.2927 -3.3192,-3.44351 -2.14075,-4.08293 -1.4337,-8.90324 1.95347,-13.31792 l 1.57274,-2.04983 0.61076,0.54613 c 0.33592,0.30039 1.04936,1.36743 1.58544,2.37123 0.53607,1.00379 1.58721,2.7917 2.33586,3.97313 1.6461,2.59767 3.10389,5.31645 2.50444,6.11543 -0.14766,0.1968 -0.94116,0.20349 -1.18274,0.20576 -0.24158,0.002 -1.03642,0.36459 -1.76631,0.80517 -1.30692,0.78891 -1.32706,0.82258 -1.32663,2.21921 6.2e-4,1.99891 0.68827,3.16444 2.29952,3.89754 0.72096,0.32803 2.22075,1.425 3.32066,2.44966 3.15136,2.93577 3.34666,3.87928 -0.42322,1.62341 z"
           id="path4022-9-7"
           inkscape:connector-curvature="0"
           sodipodi:nodetypes="sssscsssscsssss" />
        <path
           style="color:#000000;fill:#5aa02c;fill-opacity:1;fill-rule:nonzero;stroke:#1a1a1a;stroke-width:1.17832601;stroke-miterlimit:4;stroke-dasharray:none;marker:none;visibility:visible;display:inline;overflow:visible;enable-background:accumulate"
           d="m 187.58476,547.78716 c -0.65332,-0.91226 -2.07083,-4.79595 -2.23051,-5.42407 -0.27096,-1.06576 0.43878,-0.47966 2.07323,0.80589 0.83666,0.65798 1.90673,1.37613 2.37121,1.60017 3.10872,1.4993 2.8121,3.65768 -0.6886,5.06877 -0.66193,0.26677 -1.07929,-1.20197 -1.52533,-2.05076 z"
           id="path4024-9-0"
           inkscape:connector-curvature="0"
           sodipodi:nodetypes="cssssc" />
        <path
           style="color:#000000;fill:#5aa02c;fill-opacity:1;fill-rule:nonzero;stroke:#1a1a1a;stroke-width:1.17832601;stroke-miterlimit:4;stroke-dasharray:none;marker:none;visibility:visible;display:inline;overflow:visible;enable-background:accumulate"
           d="m 247.95428,513.47316 c -0.60166,-1.10742 -0.53152,-1.5898 0.42692,-2.93609 0.46348,-0.65105 0.84268,-1.34707 0.84268,-1.54674 0,-1.05819 2.18184,0.71658 2.43633,1.9818 0.1546,0.7686 0.0412,0.97909 -1.01472,1.88297 -1.71239,1.46585 -2.17313,1.57167 -2.69121,0.61806 l 0,0 z"
           id="path4026-8-1"
           inkscape:connector-curvature="0" />
        <path
           style="color:#000000;fill:#5aa02c;fill-opacity:1;fill-rule:nonzero;stroke:#1a1a1a;stroke-width:1.17832601;stroke-miterlimit:4;stroke-dasharray:none;marker:none;visibility:visible;display:inline;overflow:visible;enable-background:accumulate"
           d="m 226.14935,508.461 c -0.14947,-3.13059 0.55205,-4.48809 3.03551,-4.27625 1.02183,0.0872 1.54609,0.10504 1.82362,0.61109 0.50368,0.91832 -0.94012,2.78404 -2.43957,3.70539 -0.54485,0.33478 -1.62463,1.4988 -1.85123,1.63238 -0.447,0.26351 -0.53121,-0.8953 -0.56833,-1.67261 z"
           id="path4028-1-3"
           inkscape:connector-curvature="0"
           sodipodi:nodetypes="ssssss" />
        <path
           style="color:#000000;fill:#5aa02c;fill-opacity:1;fill-rule:nonzero;stroke:#1a1a1a;stroke-width:1.17832601;stroke-miterlimit:4;stroke-dasharray:none;marker:none;visibility:visible;display:inline;overflow:visible;enable-background:accumulate"
           d="m 259.42069,528.02559 c -0.31945,-0.42701 -1.06945,-0.96249 -1.66667,-1.18994 -2.49418,-0.9499 -4.09577,-4.12455 -3.4863,-6.91052 0.31079,-1.42063 1.03148,-2.68971 1.63645,-2.88165 0.67046,-0.21272 2.66705,4.30295 3.77176,8.53054 0.32862,1.25756 0.66339,2.49831 0.74394,2.75721 0.22799,0.73278 -0.35596,0.55415 -0.99918,-0.30565 z"
           id="path4030-9-3"
           inkscape:connector-curvature="0" />
      </g>
    </g>
  </g>
</svg>
