<?xml version="1.0" encoding="UTF-8" standalone="no"?>
<!-- Created with Inkscape (http://www.inkscape.org/) -->

<svg
   xmlns:dc="http://purl.org/dc/elements/1.1/"
   xmlns:cc="http://creativecommons.org/ns#"
   xmlns:rdf="http://www.w3.org/1999/02/22-rdf-syntax-ns#"
   xmlns:svg="http://www.w3.org/2000/svg"
   xmlns="http://www.w3.org/2000/svg"
   xmlns:sodipodi="http://sodipodi.sourceforge.net/DTD/sodipodi-0.dtd"
   xmlns:inkscape="http://www.inkscape.org/namespaces/inkscape"
   width="100"
   height="100"
   id="svg2"
   version="1.1"
   inkscape:version="0.48.4 r9939"
   sodipodi:docname="fatiando-logo.svg"
   inkscape:export-filename="/home/leo/src/fatiando-logo/fatiando-logo.png"
   inkscape:export-xdpi="150"
   inkscape:export-ydpi="150">
  <defs
     id="defs4" />
  <sodipodi:namedview
     id="base"
     pagecolor="#ffffff"
     bordercolor="#666666"
     borderopacity="1.0"
     inkscape:pageopacity="0.0"
     inkscape:pageshadow="2"
     inkscape:zoom="1.979899"
     inkscape:cx="46.131805"
     inkscape:cy="8.801501"
     inkscape:document-units="px"
     inkscape:current-layer="layer1"
     showgrid="false"
     inkscape:window-width="1366"
     inkscape:window-height="719"
     inkscape:window-x="0"
     inkscape:window-y="25"
     inkscape:window-maximized="1" />
  <metadata
     id="metadata7">
    <rdf:RDF>
      <cc:Work
         rdf:about="">
        <dc:format>image/svg+xml</dc:format>
        <dc:type
           rdf:resource="http://purl.org/dc/dcmitype/StillImage" />
        <dc:title></dc:title>
      </cc:Work>
    </rdf:RDF>
  </metadata>
  <g
     inkscape:label="Layer 1"
     inkscape:groupmode="layer"
     id="layer1"
     transform="translate(0,-952.36218)">
    <g
       id="g4214"
       transform="matrix(0.99875157,0,0,0.99875157,322.5165,35.494273)">
      <path
         sodipodi:nodetypes="cssssssssscc"
         inkscape:connector-curvature="0"
         id="path4036"
         d="m -287.94186,981.33929 c -1.16973,-1.0263 -7.3182,-13.49631 -9.51905,-17.48212 -1.39826,-2.53232 -2.79871,-4.30227 -4.6377,-6.77085 -1.36942,-1.83826 -3.2044,-4.2848 -4.07774,-5.51082 -0.87334,-1.22604 -1.97615,-2.67309 -2.2172,-2.99346 -0.50746,-0.67444 0.0833,-1.25722 0.48012,-1.40215 0.4388,-0.16027 1.14515,0.23119 1.48272,0.82173 0.16876,0.29525 1.48682,1.66455 2.92902,3.04291 2.79473,2.67104 3.75856,3.75211 6.13178,6.87756 2.85333,3.75775 3.72079,5.12495 4.87218,7.67899 1.06506,2.36251 5.23086,13.8828 5.23363,15.11981 0.004,1.7719 0.38996,1.5552 -0.67776,0.6184 z"
         style="color:#000000;fill:#b3b3b3;fill-opacity:1;fill-rule:nonzero;stroke:#b3b3b3;stroke-width:1;stroke-miterlimit:4;stroke-dasharray:none;marker:none;visibility:visible;display:inline;overflow:visible;enable-background:accumulate" />
      <path
         inkscape:connector-curvature="0"
         id="path4020"
         d="m -278.34985,954.13318 c -0.35619,-0.44449 -0.7202,-1.15363 -0.80892,-1.57584 -0.15486,-0.73698 -0.21135,-0.76767 -1.41314,-0.76767 -1.39548,0 -3.098,-0.69715 -3.51539,-1.43948 -0.42137,-0.74941 -0.30508,-2.38073 0.24255,-3.40246 0.60442,-1.12769 0.81091,-1.26529 2.19979,-1.46591 1.05477,-0.15237 1.07552,-0.14115 1.60442,0.86685 0.69557,1.32566 2.82179,7.41338 2.82179,8.07926 0,0.73539 -0.38627,0.63474 -1.1311,-0.29475 l 0,0 z"
         style="color:#000000;fill:#3771c8;fill-opacity:1;fill-rule:nonzero;stroke:#3771c8;stroke-width:1;stroke-miterlimit:4;stroke-dasharray:none;marker:none;visibility:visible;display:inline;overflow:visible;enable-background:accumulate" />
      <path
         sodipodi:nodetypes="csssscsssssssssssssssssssssssssccscsscsssssssssssscssssssscsssssssssssssssssssccssssscsssc"
         inkscape:connector-curvature="0"
         id="path4018"
         d="m -287.68026,1012.1771 c -2.75279,-0.3798 -3.91679,-0.7731 -7.92459,-2.6773 -4.91888,-2.3372 -8.0975,-4.6177 -10.82139,-7.7638 -0.79246,-0.9153 -2.57549,-2.88752 -3.9623,-4.38261 -5.21205,-5.6192 -6.41549,-7.8327 -4.94639,-9.0982 0.8815,-0.7593 3.70117,-1.9411 4.65314,-1.9502 1.23392,-0.3147 7.90344,5.8708 11.79991,9.6038 1.39386,1.3353 2.97105,2.093 3.18507,2.0209 0.6828,-0.2301 0.33181,-3.33221 -0.49789,-4.4003 -0.41851,-0.53881 -5.37074,-6.9502 -6.22068,-8.6926 -0.84995,-1.7423 -2.01295,-3.8622 -2.58445,-4.7107 -0.90576,-1.3449 -1.04121,-1.8769 -1.0556,-4.1458 -0.0145,-2.2814 -0.15094,-2.8106 -1.10524,-4.2857 -0.86316,-1.3342 -1.54664,-1.8959 -3.29898,-2.7114 -1.91807,-0.8926 -2.44872,-1.36851 -4.01422,-3.6 -1.89803,-2.70551 -3.76763,-6.09181 -4.59362,-8.32014 -0.45596,-1.23006 -0.4213,-1.50123 0.47082,-3.68381 1.17895,-2.88432 3.7154,-7.28323 4.637,-7.44659 1.29412,-0.2294 2.73937,1.10207 6.36388,5.69708 4.83545,6.13022 8.02279,10.71492 10.63418,15.29635 4.04725,7.1004 10.53659,19.8355 10.98208,19.8355 1.37993,0 -3.73462,-22.92752 -6.02124,-28.684 -0.50996,-1.28381 -1.65334,-3.55228 -2.54086,-5.04105 -0.88751,-1.48877 -2.84172,-5.06696 -4.34269,-7.95152 -1.50096,-2.88457 -3.06419,-5.58568 -3.47383,-6.00248 -0.98411,-1.00129 -0.71399,-3.10037 0.61188,-4.75495 0.91968,-1.14769 8.94648,-8.41206 9.65907,-8.66612 0.18782,-0.067 -1.16118,1.93177 -2.06222,3.18447 -2.56255,3.56269 -3.27161,6.20559 -3.27161,12.19442 0,5.48849 0.27926,6.40737 2.76683,9.10408 2.78394,3.018 13.01852,9.52647 16.2255,10.31828 1.02258,0.25247 1.96555,0.57573 2.0955,0.71834 0.8863,0.97272 1.52334,3.8855 1.94421,8.88964 -0.22499,1.5186 0.43478,2.38919 1.10849,2.53629 0.67594,0.1477 1.36592,-0.4329 1.19035,-1.8179 -0.0839,-2.1802 1.86522,2.0001 4.60718,3.53061 4.06507,2.2689 6.23672,7.9059 5.81531,15.3846 -0.10162,1.8034 -0.10702,3.7681 -0.012,4.36599 0.24259,1.5264 1.32126,2.5129 2.74759,2.5129 1.97612,0 2.84789,-1.2734 4.53301,-6.62159 1.94015,-6.15761 2.5941,-7.6927 4.29579,-10.08451 0.77463,-1.0888 1.93536,-2.9825 2.5794,-4.2082 0.64403,-1.2257 1.77087,-3.0771 2.50408,-4.1143 2.31455,-3.2739 2.69062,-5.2748 1.44992,-7.7143 -0.83805,-1.64781 -2.51,-2.65702 -5.33483,-3.22023 -2.52342,-0.50309 -6.27913,-2.05637 -8.60873,-3.56037 -1.03214,-0.66636 -2.51325,-1.31393 -3.29136,-1.43906 -1.76439,-0.28373 -4.03205,0.27586 -5.35176,1.32065 -1.93222,1.52971 -2.54175,1.69004 -3.11408,0.81915 -0.42542,-0.64735 -0.45308,-1.75119 -0.16549,-6.6058 0.1899,-3.20571 0.34756,-6.90415 0.35036,-8.21876 0.003,-1.4491 0.22118,-2.79903 0.55393,-3.42857 0.30186,-0.57111 2.07244,-2.42695 3.93463,-4.12409 3.35625,-3.05879 3.38576,-3.10006 3.38146,-4.72987 -0.006,-2.19226 -1.25423,-3.5148 -2.99742,-3.17526 -2.95446,0.57548 -2.92959,0.59019 -3.15326,-1.8663 -0.11161,-1.22571 -0.67894,-2.61868 -0.76545,-2.88596 -0.31325,-0.96782 2.35691,-1.03906 5.61994,-0.38727 l 3.01377,0.60199 0.14451,2.16011 c 0.11266,1.68398 0.39927,2.55021 1.3003,3.92984 0.98499,1.50817 1.1558,2.09209 1.1558,3.95101 0,2.62639 0.50134,3.25886 2.58321,3.25886 1.17003,0 1.68837,-0.22581 2.67584,-1.16571 1.16493,-1.10881 1.22471,-1.28565 1.22471,-3.62254 0,-2.45509 0.39925,-3.78317 1.13731,-3.78317 0.585,0 4.88243,3.40572 5.90046,4.67612 0.48775,0.60869 0.88682,1.35219 0.88682,1.65225 0,0.30007 -0.64837,1.52274 -1.44083,2.71708 -1.96112,2.95563 -1.9329,4.0022 0.16663,6.17886 1.45266,1.50603 1.71869,1.64534 2.76246,1.44665 0.63524,-0.12093 1.97858,-0.81285 2.98519,-1.53759 2.50408,-1.8029 3.02977,-1.93618 4.04746,-1.02617 0.46448,0.41534 0.84452,1.02339 0.84452,1.3512 0,0.32782 -0.97256,1.53624 -2.16125,2.68537 -2.44302,2.36172 -2.60998,3.0438 -1.62556,6.64117 0.90366,3.30224 2.29199,4.97525 5.94806,7.16766 4.63156,2.77738 6.30334,8.35255 4.18271,13.94875 -0.47313,1.2485 -1.36649,4.0443 -1.98526,6.2129 -0.71483,5.6674 -2.97197,9.5607 -4.40976,12.8399 -4.54858,6.8317 -2.65675,5.1459 -7.6812,9.16372 -6.95385,5.5607 -6.42625,5.425 -8.54275,5.425 -3.47279,0 -6.11121,-1.6961 -8.02175,-5.1567 -0.72454,-1.3124 -1.4649,-2.38621 -1.64524,-2.38621 -0.54561,0 -1.01873,1.15071 -1.27958,3.11211 -0.45316,3.4076 -1.71573,5.4583 -3.36194,5.4607 -1.2661,0 -11.11215,1.591 -12.46143,2.0113 -0.59434,0.1852 -1.8498,0.4346 -2.7899,0.5542 -1.0246,0.1304 -2.12759,0.5526 -2.75356,1.0539 -1.16453,0.9327 -1.40622,0.9455 -5.96809,0.316 z"
         style="color:#000000;fill:#3771c8;fill-opacity:1;fill-rule:nonzero;stroke:#3771c8;stroke-width:0.89999998;stroke-miterlimit:4;stroke-dasharray:none;marker:none;visibility:visible;display:inline;overflow:visible;enable-background:accumulate" />
      <path
         sodipodi:nodetypes="cscsssscssscscsccc"
         inkscape:connector-curvature="0"
         id="path3248"
         d="m -259.44935,994.00248 c -0.44405,-0.4227 -0.54108,-1.452 -0.50896,-5.3993 0.0717,-8.81 -2.10892,-13.12886 -7.1528,-15.93266 -3.38844,-1.8837 -3.83559,-2.4208 -3.52522,-4.235 0.13783,-0.8057 0.68829,-2.7741 0.84129,-4.31977 0.153,-1.54566 0.47614,-3.03733 0.7181,-3.31483 0.24195,-0.27749 1.53494,-1.13429 2.87331,-1.90399 1.76967,-1.01774 2.82048,-1.39739 3.85257,-1.39192 1.46401,0.008 4.20029,0.99713 4.64286,1.67873 0.44503,0.68538 4.24468,2.30722 7.96838,3.40122 2.11717,0.62201 3.91359,1.36649 4.31432,1.78797 1.19546,1.25733 0.8913,2.94565 -1.14384,6.34905 -1.00676,1.6837 -2.37207,3.9813 -3.034,5.1059 -0.66194,1.1246 -1.72875,2.598 -2.37067,3.2743 -1.41085,1.4865 -2.27562,3.5046 -3.94511,9.207 -0.69741,2.3822 -1.35162,4.6013 -1.45379,4.9315 -0.2978,0.9624 -1.42948,1.3776 -2.07644,0.7618 z"
         style="color:#000000;fill:#217821;fill-opacity:1;fill-rule:nonzero;stroke:#333333;stroke-width:1;stroke-miterlimit:4;stroke-dasharray:none;marker:none;visibility:visible;display:inline;overflow:visible;enable-background:accumulate" />
      <path
         sodipodi:nodetypes="sssscsssscsssss"
         inkscape:connector-curvature="0"
         id="path4022"
         d="m -279.68471,958.14221 c -2.73406,-1.63604 -6.48444,-3.84819 -10.40671,-6.8769 -2.52168,-1.94719 -3.46153,-2.92224 -4.23059,-4.38904 -2.72857,-5.20404 -1.82738,-11.34792 2.48986,-16.97481 l 2.00458,-2.61268 0.77847,0.6961 c 0.42816,0.38287 1.3375,1.7429 2.02077,3.02232 0.68327,1.27942 2.02303,3.55827 2.97725,5.06409 2.09809,3.31095 3.95617,6.77626 3.19212,7.79463 -0.1882,0.25083 -1.19959,0.25936 -1.5075,0.26225 -0.30792,0.003 -1.321,0.46471 -2.25131,1.02627 -1.66578,1.00552 -1.69145,1.04845 -1.6909,2.82857 7.9e-4,2.54777 0.87726,4.03333 2.93093,4.96773 0.91892,0.4181 2.83053,1.81629 4.23246,3.1223 4.01667,3.74189 4.2656,4.94446 -0.53943,2.06917 z"
         style="color:#000000;fill:#217821;fill-opacity:1;fill-rule:nonzero;stroke:#333333;stroke-width:1;stroke-miterlimit:4;stroke-dasharray:none;marker:none;visibility:visible;display:inline;overflow:visible;enable-background:accumulate" />
      <path
         sodipodi:nodetypes="cssssc"
         inkscape:connector-curvature="0"
         id="path4024"
         d="m -318.40651,984.78879 c -0.83271,-1.16279 -2.63944,-6.11281 -2.84297,-6.91341 -0.34536,-1.3584 0.55926,-0.6114 2.64251,1.0271 1.06639,0.8387 2.43028,1.75407 3.0223,2.0396 3.96233,1.91102 3.58426,4.66204 -0.87768,6.46055 -0.84368,0.34006 -1.37564,-1.53204 -1.94416,-2.61384 z"
         style="color:#000000;fill:#217821;fill-opacity:1;fill-rule:nonzero;stroke:#333333;stroke-width:1;stroke-miterlimit:4;stroke-dasharray:none;marker:none;visibility:visible;display:inline;overflow:visible;enable-background:accumulate" />
      <path
         inkscape:connector-curvature="0"
         id="path4026"
         d="m -241.46051,941.05272 c -0.76687,-1.41151 -0.67747,-2.02634 0.54414,-3.74231 0.59074,-0.82981 1.07407,-1.71695 1.07407,-1.97144 0,-1.34875 2.78094,0.91334 3.10531,2.52597 0.19705,0.97964 0.0525,1.24793 -1.29335,2.4 -2.18258,1.86834 -2.76984,2.00322 -3.43017,0.78778 l 0,0 z"
         style="color:#000000;fill:#217821;fill-opacity:1;fill-rule:nonzero;stroke:#333333;stroke-width:1;stroke-miterlimit:4;stroke-dasharray:none;marker:none;visibility:visible;display:inline;overflow:visible;enable-background:accumulate" />
      <path
         sodipodi:nodetypes="ssssss"
         inkscape:connector-curvature="0"
         id="path4028"
         d="m -268.43196,934.79057 c -0.59962,-2.91711 0.17538,-5.00125 2.89042,-5.26104 1.30118,-0.12451 1.56024,-0.11862 1.91398,0.52634 0.64198,1.17048 -0.63005,3.48537 -2.54122,4.6597 -0.69446,0.42671 -1.34471,1.21584 -1.63351,1.38612 -0.56961,0.33584 -0.45007,-0.43737 -0.62967,-1.31112 z"
         style="color:#000000;fill:#217821;fill-opacity:1;fill-rule:nonzero;stroke:#333333;stroke-width:1;stroke-miterlimit:4;stroke-dasharray:none;marker:none;visibility:visible;display:inline;overflow:visible;enable-background:accumulate" />
      <path
         inkscape:connector-curvature="0"
         id="path4030"
         d="m -226.84561,959.60099 c -0.40717,-0.54426 -1.36311,-1.22677 -2.12431,-1.51667 -3.17905,-1.21073 -5.22041,-5.25708 -4.44358,-8.80804 0.39612,-1.81071 1.3147,-3.42826 2.08579,-3.6729 0.85455,-0.27113 3.39938,5.48447 4.80742,10.87289 0.41885,1.60286 0.84554,3.1843 0.94821,3.51429 0.29059,0.93399 -0.4537,0.70631 -1.27353,-0.38958 z"
         style="color:#000000;fill:#217821;fill-opacity:1;fill-rule:nonzero;stroke:#333333;stroke-width:1;stroke-miterlimit:4;stroke-dasharray:none;marker:none;visibility:visible;display:inline;overflow:visible;enable-background:accumulate" />
      <path
         inkscape:connector-curvature="0"
         id="path4032"
         d="m -308.46005,974.97109 c -0.19583,-0.1637 -0.50913,-0.6247 -0.98192,-1.4448 -0.47645,-0.8265 -0.44343,-0.78291 -0.96983,-1.2812 -0.25222,-0.2387 -0.52069,-0.5272 -0.5966,-0.64121 -0.38648,-0.58 0.0709,-0.6921 1.03016,-0.2523 0.96537,0.4425 1.70177,1.1096 1.94734,1.7641 0.089,0.2373 0.0907,0.27791 0.0387,0.95501 -0.0533,0.6951 -0.12505,0.979 -0.25709,1.01779 -0.0286,0.01 -0.12348,-0.044 -0.21079,-0.11739 z"
         style="color:#000000;fill:#217821;fill-opacity:1;fill-rule:nonzero;stroke:#333333;stroke-width:1;stroke-miterlimit:4;stroke-dasharray:none;marker:none;visibility:visible;display:inline;overflow:visible;enable-background:accumulate" />
      <path
         sodipodi:nodetypes="sssssssscs"
         inkscape:connector-curvature="0"
         id="path4034"
         d="m -297.47886,995.49579 c -2.55388,-1.3533 -13.54196,-12.1012 -15.02275,-13.6169 -0.63509,-0.65 -2.10499,-1.9483 -3.26645,-2.8851 -2.03144,-1.6384 -3.10703,-2.7073 -3.58008,-3.5578 -0.12248,-0.2202 -0.18592,-0.4354 -0.14098,-0.4782 0.11948,-0.1137 2.18375,0.6518 3.6397,1.3497 1.91068,0.91589 3.06502,1.8384 7.39359,5.9086 2.89899,2.7259 11.3289,12.0579 11.7425,12.77739 0.33097,0.57581 0.47687,0.98441 0.35081,0.9826 -0.1187,0 -0.62106,-0.21779 -1.11634,-0.48029 z"
         style="color:#000000;fill:#b3b3b3;fill-opacity:1;fill-rule:nonzero;stroke:#b3b3b3;stroke-width:1;stroke-miterlimit:4;stroke-dasharray:none;marker:none;visibility:visible;display:inline;overflow:visible;enable-background:accumulate" />
      <path
         sodipodi:nodetypes="cssscsssccc"
         inkscape:connector-curvature="0"
         id="path4038"
         d="m -276.6564,950.8433 c -2.46649,-8.05211 -4.34154,-11.78004 -5.20355,-13.24332 -0.64426,-1.09365 -2.1531,-3.62187 -3.45282,-5.69953 -0.53084,-0.84857 -2.50936,-2.9713 -2.11054,-3.7188 l 0.25551,-0.47889 0.51776,0.1214 c 1.88837,0.44275 3.90547,4.55705 6.3861,8.54562 1.77512,2.85417 4.22932,7.1473 4.92213,8.86659 0.25896,0.64264 0.76253,2.16854 1.08353,3.03139 0.44049,7.35865 1.84771,15.85498 1.4017,17.89132 -1.54513,0.1157 -1.95939,-8.98489 -3.79982,-15.31578 z"
         style="color:#000000;fill:#b3b3b3;fill-opacity:1;fill-rule:nonzero;stroke:#b3b3b3;stroke-width:1;stroke-miterlimit:4;stroke-dasharray:none;marker:none;visibility:visible;display:inline;overflow:visible;enable-background:accumulate" />
      <path
         sodipodi:nodetypes="cssssssssssc"
         inkscape:connector-curvature="0"
         id="path4040"
         d="m -272.28925,961.4328 c 0.004,-1.46142 -0.0142,-2.96056 0.0659,-3.47914 0.0969,-0.62802 0.0855,-1.39945 -0.0718,-2.31429 -1.23387,-7.17823 -0.50004,-12.56491 -0.19824,-17.77742 0.0477,-0.82423 -0.0269,-2.61676 0.0556,-4.61553 0.17179,-4.15929 1.24309,-6.93119 1.44782,-7.63862 0.44895,-1.55124 1.49151,-0.63909 1.22462,0.51429 -0.0916,0.39572 -0.47482,7.14 -0.52939,10.62857 -0.0567,3.62244 -0.20755,7.26192 -0.3518,8.48571 -0.40285,3.4178 -0.55233,3.93391 -0.62484,9.08571 -0.11009,7.82294 -0.094,9.69325 -0.49208,9.96462 -0.32587,0.22218 -1.18072,0.32614 -0.52582,-2.85391 z"
         style="color:#000000;fill:#b3b3b3;fill-opacity:1;fill-rule:nonzero;stroke:none;stroke-width:0.98399234;marker:none;visibility:visible;display:inline;overflow:visible;enable-background:accumulate" />
      <path
         inkscape:connector-curvature="0"
         id="path4062"
         d="m -254.23251,934.1634 c -0.1076,-0.32625 -0.17231,-1.60974 -0.14778,-2.93133 0.0504,-2.71276 -0.0835,-3.05268 -1.48327,-3.76777 -0.84496,-0.43165 -1.02992,-0.70733 -1.04983,-1.56475 -0.0199,-0.85752 0.42353,-1.33437 1.24088,-1.33437 0.96163,0 2.49215,0.60562 3.27934,1.29763 0.6244,0.5489 0.64746,0.60818 0.46776,1.20237 -0.10396,0.34375 -0.34442,1.7582 -0.53437,3.14323 -0.44656,3.25622 -0.62738,4.02878 -1.00808,4.30716 -0.45699,0.33416 -0.55285,0.29001 -0.76465,-0.35218 z"
         style="color:#000000;fill:#ffffff;fill-opacity:1;fill-rule:nonzero;stroke:none;stroke-width:0.5;marker:none;visibility:visible;display:inline;overflow:visible;enable-background:accumulate" />
      <path
         inkscape:connector-curvature="0"
         id="path4064"
         d="m -276.43806,1014.0137 c -1.80214,-0.2638 -3.04303,-0.7029 -2.76686,-0.9791 0.19616,-0.1961 3.48148,-1.1394 5.24365,-1.5056 0.89395,-0.1857 3.78681,-0.5875 6.42857,-0.8928 5.18239,-0.599 7.8458,-1.0898 8.27951,-1.5258 0.21321,-0.2144 0.27368,-0.7173 0.27368,-2.2763 0,-1.1006 0.0629,-2.1732 0.13984,-2.3836 0.17298,-0.4731 0.8423,-0.6973 0.8423,-0.2821 0,0.6428 0.77878,1.8423 1.57579,2.4271 0.45921,0.337 1.57897,0.9333 2.48835,1.3253 0.90939,0.3919 1.87056,0.8549 2.13594,1.0288 l 0.48251,0.3161 -1.32636,0.6032 c -4.69109,2.1333 -10.08773,3.521 -15.83315,4.0714 -2.99688,0.2871 -6.29624,0.3175 -7.96377,0.073 z"
         style="color:#000000;fill:#ffffff;fill-opacity:1;fill-rule:nonzero;stroke:#333333;stroke-width:0.5;marker:none;visibility:visible;display:inline;overflow:visible;enable-background:accumulate" />
      <path
         sodipodi:nodetypes="cccccccccccccccccccccccccccccccccccccccccccccccccccccccccccccccccccccccccccccccccccccccccccccccccccccccsccccccccccccccccccccccccccccccccccccccccccccccccccccccccccccccccccccccc"
         inkscape:connector-curvature="0"
         id="path2996"
         d="m -278.50114,1015.9573 c -5.39079,-1.1457 -11.11921,-1.4077 -15.97083,-4.0992 -8.41787,-2.641 -13.59569,-9.9171 -19.15262,-16.03552 -3.00613,-3.3686 -4.44939,-7.5153 -6.38864,-11.4876 -1.1967,-3.1707 -5.52313,-10.9189 -0.39118,-10.9596 4.61497,0.8243 9.35916,4.8781 11.84258,5.5847 -2.02358,-4.3561 -4.76849,-8.3295 -7.25062,-12.448 -1.26062,-4.05102 -6.88236,-7.73268 -5.17958,-11.70728 1.95428,-3.98054 3.36366,-8.38341 6.93622,-11.30587 0.45806,-0.30488 1.23341,-0.48804 1.9213,-0.27316 6.26167,2.28608 10.61076,7.61003 14.70799,12.46803 1.04333,1.40205 4.88445,7.29648 2.96175,2.27085 -2.12473,-3.80952 -3.36922,-7.96989 -5.54128,-11.73642 -0.86783,-3.74357 -3.23525,-5.86532 -4.22749,-8.26463 -0.30945,-0.56767 -0.0161,-2.10666 0.15114,-2.5848 0.16242,-1.20312 8.71486,-9.6718 12.16959,-11.49805 0.86107,-0.53606 1.84052,-0.48066 2.52345,-0.1492 2.56628,1.11993 5.58349,4.99039 7.61125,7.47153 4.79754,6.88621 7.26491,13.53832 7.74893,13.57854 0.22108,-6.26821 -0.41492,-16.84833 1.89091,-22.29315 1.47428,-2.93472 7.13128,-2.50071 9.98055,-2.18835 5.86496,0.93303 11.32726,3.49532 15.96643,7.02158 5.61682,3.53165 9.86856,7.70479 14.66245,13.0227 2.43301,2.52536 3.21545,4.58716 4.62793,7.24157 1.24253,2.74505 2.56067,5.70281 2.91989,8.47492 0.12471,3.6778 0.73538,5.2317 1.12388,10.48389 -0.34381,10.4442 -6.41375,25.2797 -9.44869,29.4613 -3.33465,5.23922 -8.38557,8.68002 -13.25501,12.41412 -3.85451,2.6966 -8.36106,4.4885 -13.09795,5.6235 -6.38986,1.8634 -13.19777,2.2751 -19.8423,1.9136 z m 9.40785,-1.844 c 6.24026,-0.4895 12.36545,-2.0813 17.91935,-4.7972 -1.28593,-1.6535 -6.42179,-1.6314 -6.78667,-5.5011 -2.65494,-0.014 0.44852,5.0474 -2.06033,5.602 -5.67406,1.4154 -11.66706,0.9582 -17.39483,2.8869 -5.47679,1.151 2.03037,2.1373 4.08632,1.979 1.41432,0.045 2.82835,-0.048 4.23616,-0.1696 z m -12.62934,-2.0712 c 1.91727,-1.7805 4.54282,-0.7126 6.89715,-2.0498 3.17099,-0.1807 7.01036,-1.2981 10.51952,-1.5762 2.09084,0.3137 3.1216,-0.8863 3.79833,-3.4558 0.3651,-2.5733 0.67136,-7.98772 2.73918,-3.0201 1.31949,4.1463 8.23624,7.5409 11.81821,4.4112 1.11015,-4.387 14.40701,-17.72032 14.66753,-18.54662 2.49622,-5.1982 3.06815,-10.9691 5.44818,-16.2144 1.01739,-4.8982 -0.87901,-10.70378 -6.03448,-12.73504 -3.83479,-2.02043 -5.29352,-6.10124 -5.54413,-10.03448 0.76183,-2.98515 7.34783,-4.90513 3.42097,-7.52575 -2.98525,-2.15608 -6.52301,6.54092 -9.85745,1.20983 -3.66927,-2.77843 0.46724,-5.47189 1.66883,-8.06018 0.66426,-1.65311 -4.0873,-5.21173 -6.74408,-7.04459 -1.63132,-0.61194 -1.9772,3.04814 -1.66271,4.3302 0.64581,2.51882 -2.06829,4.88035 -4.6181,4.42838 -2.92614,-0.63421 -0.43627,-4.17291 -1.82021,-5.94985 -1.85262,-2.35203 -3.04305,-4.85675 -1.87821,-7.25323 -2.45973,-0.59588 -8.40386,-2.34459 -9.50523,-0.12825 2.13455,1.11656 -0.44818,5.67921 2.31012,5.27588 4.07895,-2.86147 6.66513,3.19274 3.33834,5.52073 -3.10704,3.03955 -7.74082,4.60698 -6.28983,9.75324 -0.31197,3.92528 -1.05044,7.80279 -0.71205,11.75312 -0.72641,3.16822 0.91572,4.74707 3.41462,2.10495 3.25353,-2.47433 7.1506,-1.8951 9.98507,0.93317 4.36144,1.79457 4.60004,2.20375 9.24983,3.0506 4.70727,1.29696 5.21203,6.51317 2.23013,9.70837 -2.12155,2.4437 -2.90153,5.683 -4.8659,8.1679 -2.87425,3.4163 -3.0261,5.2654 -4.45751,9.5406 -1.30699,2.9501 -1.04313,7.80741 -5.00225,7.84981 -3.73897,-0.4954 -1.9779,-5.7142 -2.31402,-8.2024 0.27802,-4.506 -0.77472,-9.4109 -3.80105,-12.9629 -2.72491,-1.5249 -7.17094,-4.9818 -6.07386,0.77 -2.77324,3.9523 -2.69314,-5.2799 -2.87234,-7.1388 0.0226,-2.8895 -0.55538,-5.81269 -2.06496,-8.33003 -3.80871,0.094 -6.57539,-2.69009 -9.7864,-4.21296 -3.88065,-3.15454 -9.2555,-5.31964 -10.88619,-10.32418 -1.25352,-5.36721 -0.4232,-11.31762 2.21635,-16.21275 1.20978,-1.16734 5.20015,-6.39497 1.21833,-2.9852 -3.283,3.21485 -10.7291,6.91761 -9.58715,11.58495 1.75553,1.7194 2.28494,2.98514 3.25545,5.20559 2.29013,4.17368 4.3589,8.44933 6.98699,12.42304 2.84892,6.59708 5.8751,19.10534 6.76173,26.10454 0.62174,1.56929 0.70966,5.1601 -1.97668,2.17703 -2.55075,-3.53483 -8.21334,-10.94758 -10.1868,-18.87068 -2.37967,-4.03403 -5.02422,-7.648 -7.87278,-11.44009 -2.55112,-2.50278 -4.8053,-9.06052 -8.08838,-8.17976 -2.22271,3.05953 -4.75205,6.36672 -5.48315,10.01415 1.48135,4.43854 4.1701,8.92898 7.22605,12.42255 4.52471,0.8407 7.99512,5.5713 6.14024,9.8653 2.33823,3.2941 9.56257,13.5273 11.32797,17.1341 1.82027,1.3094 2.59197,6.96731 -0.44529,3.7844 -3.25263,-2.0159 -11.60033,-12.4063 -15.45478,-13.1615 -3.59395,1.1266 -7.69569,2.88 -3.71787,6.5255 2.45624,4.1851 6.59462,7.1333 9.49376,11.01941 2.36819,1.9164 4.50478,4.0955 7.41952,5.2669 3.47495,1.5251 6.85745,3.7849 10.84522,3.6005 1.5672,-0.048 4.21623,1.4417 5.20622,-0.3204 z m 28.6914,-31.50312 c 3.24601,-2.4301 4.12188,-6.3747 6.47338,-9.4403 1.6115,-2.1188 3.53169,-5.60408 0.52848,-7.54395 -4.78767,-1.73241 -5.69556,-1.33575 -10.34193,-3.60882 -3.16677,-2.9048 -7.18725,-3.99194 -10.57591,-0.70394 -4.4876,0.9919 -2.23452,5.02314 -3.41837,7.97411 -2.33362,4.3894 4.34717,5.2071 6.52907,7.5789 4.16977,5.1845 4.214,12.0808 3.504,18.2543 0.8336,2.4957 2.76307,1.4076 3.12667,0.332 1.44644,-4.2787 2.39769,-9.2837 4.17461,-12.8423 z m -43.47428,15.3767 c -1.63048,-3.6904 -12.1912,-13.7753 -15.00268,-16.6547 -2.18215,-2.3777 -5.31357,-3.692 -8.40512,-4.6402 1.19582,3.1534 6.13127,5.3173 8.37475,8.4412 2.19635,1.5357 13.85125,13.1467 15.03305,12.8537 z m -20.09741,-8.8909 c 5.63797,-0.8327 4.01913,-5.4553 -0.0859,-6.9077 -1.7649,-1.2398 -6.42433,-5.8433 -4.41672,-0.8747 1.14989,2.5997 1.95235,6.0866 3.98511,7.9432 z m 8.61117,-13.0147 c 0.88455,-2.3314 -5.87414,-4.5948 -1.97138,-1.3142 0.5002,0.7035 2.04657,4.1652 1.97138,1.3142 z m 20.48717,7.726 c 0.37825,-3.2406 -4.88383,-15.7439 -5.85726,-18.28513 -1.40115,-2.70877 -3.3088,-4.47939 -5.32229,-7.4632 -2.04153,-2.57954 -4.57943,-5.0118 -7.12789,-7.21019 -1.40293,-3.01308 -3.95625,-1.83355 -1.32545,0.50258 2.52879,3.84001 5.3117,7.27878 7.97109,10.94845 1.97851,3.44722 9.57396,19.40939 11.6618,21.50749 z m 15.95194,-18.57184 c 0.47885,-6.44244 -0.10439,-12.79074 0.97181,-19.27599 -0.28993,-4.87303 0.20183,-10.07796 0.62915,-14.99734 -1.74525,-0.8766 -2.48221,5.38429 -2.47002,8.02628 -0.0697,7.1095 -0.66892,13.49537 0.46001,20.00882 -0.5253,2.37525 -0.10562,4.96348 -0.31663,7.07998 0.41801,0.85448 0.77416,-0.71884 0.72568,-0.84175 z m 46.36441,-2.29363 c -1.31477,-5.29315 -2.41611,-10.91889 -5.67971,-15.49098 -2.28014,-0.0559 -2.7188,3.38025 -3.02368,5.18882 0.0309,3.16815 1.43179,6.74806 4.94382,7.71292 1.45343,0.10975 2.8009,3.21103 3.75957,2.58924 z m -50.9101,-1.58553 c -1.12535,-2.58291 -4.0523,-4.33218 -6.18292,-6.13744 -2.77382,-0.36325 -4.31443,-3.12423 -3.8927,-5.60479 -0.87222,-3.50171 13.08475,-5.3699 4.85954,-2.09812 -1.81367,-0.64169 -3.22405,1.58835 -3.22978,3.07529 -0.67585,2.60073 2.77791,3.98167 5.01263,3.25917 0.15184,2.66299 3.82571,5.46557 2.12885,1.02315 -1.31036,-2.60353 -1.3278,-5.13571 -2.98586,-7.25512 -0.29048,-3.24224 -1.6851,-7.56272 -3.95644,-10.32354 -2.09621,-2.53124 -2.98379,-5.89325 -5.4492,-8.19184 -2.46417,2.97948 -5.27895,6.0078 -5.76539,9.9592 -0.941,3.37026 -0.68463,7.11511 1.0207,10.21036 1.45913,3.00994 5.29515,4.44273 7.66344,6.8008 3.18833,2.2118 7.674,5.20298 10.86021,5.79279 l -0.0438,-0.26894 -0.0392,-0.24097 z m 2.13722,-3.02369 c -0.28239,-3.13223 -0.0858,-6.29641 -1.22393,-9.29879 -1.38772,-3.3698 -3.0773,-7.6581 -5.67845,-11.7874 -1.77489,-2.40938 -3.74625,-7.5693 -6.44597,-7.52617 2.4646,3.19578 3.7947,6.93847 6.31477,10.24774 3.16998,5.6746 5.15173,10.1357 5.9495,16.23144 -0.0202,-0.009 1.11333,3.251 1.08408,2.13318 z m 35.54297,-15.57659 c 4.27116,-1.41616 0.86436,-6.29349 -1.60769,-6.02669 0.45308,2.38573 -3.2052,3.27346 -2.01612,5.728 0.73338,2.48157 2.18495,2.14191 3.62381,0.29869 z m -27.48359,-6.17399 c 3.42985,-1.04366 4.04978,-7.29981 -0.63379,-4.94074 -3.15007,-0.0347 -2.53254,5.89788 -1.39266,6.48502 0.72478,-0.45413 1.36663,-1.01162 2.02645,-1.54428 z m 12.86348,-0.20232 c 0.67336,-2.45673 0.60359,-5.69983 1.40208,-7.94386 -1.71508,-1.99679 -6.70194,-3.46694 -5.08976,0.81803 4.20157,1.1382 1.21117,5.14446 2.60177,7.56095 0.41283,0.10904 0.8628,-0.0995 1.08591,-0.43512 z"
         style="fill:#333333;stroke:#333333;stroke-width:0.1;stroke-miterlimit:4;stroke-dasharray:none" />
    </g>
  </g>
</svg>
