<?xml version="1.0" encoding="UTF-8" standalone="no"?>
<!-- Created with Inkscape (http://www.inkscape.org/) -->

<svg
   xmlns:dc="http://purl.org/dc/elements/1.1/"
   xmlns:cc="http://creativecommons.org/ns#"
   xmlns:rdf="http://www.w3.org/1999/02/22-rdf-syntax-ns#"
   xmlns:svg="http://www.w3.org/2000/svg"
   xmlns="http://www.w3.org/2000/svg"
   xmlns:sodipodi="http://sodipodi.sourceforge.net/DTD/sodipodi-0.dtd"
   xmlns:inkscape="http://www.inkscape.org/namespaces/inkscape"
   width="100"
   height="100"
   id="svg2"
   version="1.1"
   inkscape:version="0.48.4 r9939"
   sodipodi:docname="fatiando-logo-noborder.svg"
   inkscape:export-filename="fatiando-logo-noborder.png"
   inkscape:export-xdpi="150"
   inkscape:export-ydpi="150">
  <defs
     id="defs4" />
  <sodipodi:namedview
     id="base"
     pagecolor="#ffffff"
     bordercolor="#666666"
     borderopacity="1.0"
     inkscape:pageopacity="0.0"
     inkscape:pageshadow="2"
     inkscape:zoom="2.8"
     inkscape:cx="-5.5526013"
     inkscape:cy="27.84478"
     inkscape:document-units="px"
     inkscape:current-layer="layer1"
     showgrid="false"
     inkscape:window-width="1366"
     inkscape:window-height="719"
     inkscape:window-x="0"
     inkscape:window-y="25"
     inkscape:window-maximized="1" />
  <metadata
     id="metadata7">
    <rdf:RDF>
      <cc:Work
         rdf:about="">
        <dc:format>image/svg+xml</dc:format>
        <dc:type
           rdf:resource="http://purl.org/dc/dcmitype/StillImage" />
        <dc:title></dc:title>
      </cc:Work>
    </rdf:RDF>
  </metadata>
  <g
     inkscape:label="Layer 1"
     inkscape:groupmode="layer"
     id="layer1"
     transform="translate(0,-952.36218)">
    <path
       style="color:#000000;fill:#b3b3b3;fill-opacity:1;fill-rule:nonzero;stroke:#b3b3b3;stroke-width:1;stroke-miterlimit:4;stroke-dasharray:none;marker:none;visibility:visible;display:inline;overflow:visible;enable-background:accumulate"
       d="m 36.367377,1018.608 c -1.16974,-1.0263 -8.391487,-16.7793 -10.592337,-20.7651 -1.39826,-2.5323 -2.79872,-4.30225 -4.6377,-6.77084 -1.36943,-1.83827 -3.709486,-3.84286 -4.582816,-5.06888 -0.87334,-1.22604 -5.069742,-5.45101 -5.310792,-5.77139 -0.50746,-0.67443 -0.61128,-0.94154 -0.21437,-1.08646 0.4388,-0.16028 4.617549,2.31462 4.955119,2.90516 0.16877,0.29525 2.307579,1.60141 3.749769,2.97977 2.79473,2.67105 3.75857,3.75212 6.13178,6.87757 2.85333,3.75775 3.72079,5.12496 4.87218,7.67899 1.06506,2.36248 6.304157,17.16568 6.306917,18.40278 0.004,1.7719 0.38996,1.5552 -0.67775,0.6184 z"
       id="path4036-2-4"
       inkscape:connector-curvature="0"
       sodipodi:nodetypes="cssssssssscc" />
    <path
       style="color:#000000;fill:#164184;fill-opacity:1;fill-rule:nonzero;stroke:#164184;stroke-width:1;stroke-miterlimit:4;stroke-dasharray:none;marker:none;visibility:visible;display:inline;overflow:visible;enable-background:accumulate"
       d="m 41.146173,986.93612 c -1.39547,0 -3.098,-1.94716 -3.51539,-2.68947 -0.42136,-0.74942 -0.126509,-3.80931 0.421131,-4.83104 0.60442,-1.1277 2.328757,-1.08673 3.717647,-1.28734 1.05477,-0.15236 1.968378,-1.56973 2.497278,-0.56172 0.69556,1.32566 3.625351,14.46695 3.625351,15.13283 -2.04863,-1.67312 -4.71089,-5.66359 -6.746017,-5.76326 z"
       id="path4020-0-9"
       inkscape:connector-curvature="0"
       sodipodi:nodetypes="cccsscc" />
    <path
       style="color:#000000;fill:#164184;fill-opacity:1;fill-rule:nonzero;stroke:#164184;stroke-width:1.00125003;stroke-miterlimit:4;stroke-dasharray:none;marker:none;visibility:visible;display:inline;overflow:visible;enable-background:accumulate"
       d="m 35.55568,1046.1628 c -2.75278,-0.3798 -3.91678,-0.7731 -7.92458,-2.6773 -4.91889,-2.3372 -8.09751,-4.6177 -10.82139,-7.7638 -0.79246,-0.9153 -2.57549,-2.8875 -3.9623,-4.3826 -5.21205,-5.6192 -8.3351329,-11.4488 -6.8660329,-12.7143 0.8815,-0.7594 5.8886599,0.5143 6.8406299,0.5052 1.23393,-0.3147 7.635583,7.0315 11.532063,10.7644 1.39386,1.3354 2.97104,2.0931 3.18507,2.021 0.68279,-0.2301 0.33181,-3.3322 -0.49789,-4.4003 -0.41851,-0.5388 -4.924311,-6.9056 -5.774261,-8.648 -0.84995,-1.7424 -2.459369,-3.9068 -3.030869,-4.7554 -0.90576,-1.3448 -1.04121,-1.8768 -1.0556,-4.1457 -0.0145,-2.2814 -0.15095,-2.8106 -1.10524,-4.2857 -0.86316,-1.3342 -1.54665,-1.8959 -3.29898,-2.7114 -1.91807,-0.8926 -2.44873,-1.3685 -4.01423,-3.59997 -1.89803,-2.7055 -3.76763,-6.09182 -4.59362,-8.32013 -0.45596,-1.23008 -0.4213,-1.50125 0.47082,-3.68382 1.17895,-2.88432 3.71541,-7.28324 4.63701,-7.4466 1.29411,-0.22939 2.73936,1.10208 6.36388,5.69708 4.83544,6.13023 8.401597,10.33612 11.012977,14.91754 4.04725,7.1003 10.157793,20.2143 10.603273,20.2143 1.37994,0 -3.73462,-22.92751 -6.02124,-28.68399 -0.50996,-1.28381 -1.65333,-3.55227 -2.54085,-5.04105 -0.88752,-1.48876 -2.84172,-5.06695 -4.3427,-7.95151 -1.50096,-2.88458 -3.06419,-5.58569 -3.47383,-6.00249 -0.9841,-1.00129 -0.71399,-3.10036 0.61188,-4.75494 0.91969,-1.14769 11.267909,-9.4835 11.980499,-9.73755 0.18783,-0.067 0.179194,1.48797 -0.721846,2.74066 -2.56255,3.5627 -5.418174,7.34202 -5.418174,13.33084 0,5.4885 0.910605,5.27095 3.398175,7.96767 2.78393,3.01801 12.134637,9.40019 15.341617,10.192 1.02257,0.25248 2.660019,1.33334 2.032365,1.85478 0.88629,0.97271 2.028407,-3.94319 2.449277,1.06087 -0.22499,1.5186 2.139412,-1.65135 2.813122,-1.50425 0.67594,0.1476 0.103229,13.14106 -0.07233,11.75606 -0.0839,-2.1802 0.611493,0.1755 3.353453,1.706 4.06507,2.2689 7.48672,7.5488 7.06532,15.0275 -0.10159,1.8034 0.160787,3.5895 0.256357,4.1874 0.24259,1.5264 -1.000178,0.37 0.426162,0.37 1.97611,0 1.240747,1.4052 2.925857,-3.943 1.94015,-6.1577 2.236957,-7.782 3.938657,-10.1739 0.77463,-1.0887 2.113921,-2.8931 2.757971,-4.1188 0.64402,-1.2258 1.592299,-2.9879 2.325499,-4.0251 2.31455,-3.2738 1.083477,-2.9533 -0.157213,-5.39277 -0.83805,-1.64781 -0.902857,-1.85345 -3.727697,-2.41665 -2.52342,-0.50309 -5.832701,-2.50281 -8.162291,-4.0068 -1.03215,-0.66637 -1.709679,0.11464 -2.487789,-0.0105 -1.76439,-0.28373 -2.424917,-1.06344 -3.744617,-0.0186 -1.93223,1.5297 -3.491117,1.33277 -4.503807,1.57862 -4.86724,1.18163 -2.18836,-4.92137 -1.90072,-9.77599 0.1899,-3.20569 1.508274,-6.81485 1.511084,-8.12947 0.002,-1.4491 -0.85025,-8.15617 -0.51751,-8.78571 0.208485,-1.57567 -0.459482,-3.23966 0.272561,-6.93123 -0.11166,-1.22571 0.213908,-4.13655 0.127408,-4.40383 -0.31326,-0.96781 4.410481,-1.03905 7.673511,-0.38725 l 3.01377,0.60198 c 2.34789,0.72004 4.649971,1.26151 9.073081,3.23154 1.078777,0.69439 3.999617,1.83213 7.763354,5.28013 0.48774,0.60869 3.077486,3.16947 3.077486,3.46953 0,0.30008 -2.749756,1.31259 -3.542216,2.50694 -1.96113,2.95563 -1.665051,2.39504 0.434489,4.57171 1.45265,1.50603 1.09368,0.75249 2.13745,0.55379 0.63524,-0.12095 1.710732,-2.86642 2.717332,-3.59116 2.50409,-1.80291 3.565495,1.63525 4.583185,2.54525 0.46448,0.41535 2.898081,3.16625 2.898081,3.49406 0,0.32784 -2.579703,1.8934 -3.768393,3.04251 -2.44302,2.36173 -1.181408,0.36524 -0.196978,3.96261 0.90365,3.30224 8.600747,1.13614 8.983774,5.38195 0.524417,5.81309 0.747821,5.95268 -0.390666,16.63814 -0.141452,1.3276 -1.113954,4.8587 -1.732724,7.0273 -2.143401,5.3103 -2.490424,7.5747 -5.2675,12.0146 -2.495009,4.3318 -3.528289,5.7477 -7.591901,9.3424 -4.076478,3.606 -4.819116,3.9964 -8.542759,5.6928 -3.160275,1.4398 -5.843349,1.6521 -7.753889,-1.8085 -0.72455,-1.3124 -1.4649,-2.3863 -1.64524,-2.3863 -0.54561,0 -0.576798,1.2771 -0.837638,3.2385 -0.45317,3.4076 -2.898108,3.1112 -4.544328,3.1136 -1.26609,0 -11.175285,-0.4293 -12.524555,-0.01 -0.59434,0.1852 -1.8498,0.4346 -2.7899,0.5542 -1.02461,0.1304 -2.1276,0.5526 -2.75356,1.0539 -1.16453,0.9327 -1.40622,0.9455 -5.96809,0.316 z"
       id="path4018-4-5"
       inkscape:connector-curvature="0"
       sodipodi:nodetypes="csssscsssssssssssssssssssssssssccscsscsssssssssssscccsscccsssssssssssccssssscssscc" />
    <path
       style="color:#000000;fill:#5aa02c;fill-opacity:1;fill-rule:nonzero;stroke:#5aa02c;stroke-width:1;stroke-miterlimit:4;stroke-dasharray:none;marker:none;visibility:visible;display:inline;overflow:visible;enable-background:accumulate"
       d="m 13.79398,1007.512 c -0.562705,-0.9934 -0.929962,-1.1851 -1.598007,-2.0802 -0.38648,-0.58 -2.2335108,-3.5017 -1.274241,-3.0618 0.96537,0.4424 4.984756,3.7612 5.230326,4.4157 0.089,0.2373 0.722045,4.3184 0.670045,4.9956 -0.771379,-1.245 -2.288494,-2.9913 -3.028123,-4.2693 z"
       id="path4032-0-0"
       inkscape:connector-curvature="0"
       sodipodi:nodetypes="cccccc" />
    <path
       style="color:#000000;fill:#b3b3b3;fill-opacity:1;fill-rule:nonzero;stroke:#b3b3b3;stroke-width:1;stroke-miterlimit:4;stroke-dasharray:none;marker:none;visibility:visible;display:inline;overflow:visible;enable-background:accumulate"
       d="m 13.56959,1018.3208 c -2.553812,-1.3535 -1.35446,-0.9405 -2.83525,-2.4562 -0.6351,-0.65 -2.5514286,-1.3233 -3.7128786,-2.2601 -2.03145,-1.6384 -3.1516828,-2.3948 -3.6247328,-3.2453 -0.12249,-0.2202 -0.8686284,-0.1089 -0.8236884,-0.1517 0.11943,-0.1137 3.3575298,-0.6122 4.8134798,0.086 1.91069,0.9159 3.06503,1.8384 7.39359,5.9086 2.89899,2.7259 11.32891,12.0579 11.74251,12.7774 0.33097,0.5758 0.700074,1.7433 0.574014,1.7414 -0.03515,0 -1.193188,-0.7527 -2.818592,-2.2588 -3.861218,-3.5779 -10.359898,-9.9563 -10.708452,-10.141 z"
       id="path4034-9-5"
       inkscape:connector-curvature="0"
       sodipodi:nodetypes="sssssssscss" />
    <path
       style="color:#000000;fill:#b3b3b3;fill-opacity:1;fill-rule:nonzero;stroke:#b3b3b3;stroke-width:1;stroke-miterlimit:4;stroke-dasharray:none;marker:none;visibility:visible;display:inline;overflow:visible;enable-background:accumulate"
       d="m 46.57954,984.82903 c -2.46648,-8.0521 -4.34154,-11.78003 -5.20355,-13.2433 -0.64425,-1.09366 -2.15309,-3.62188 -3.45282,-5.69954 -0.53084,-0.84857 -4.830782,-6.18559 -4.431959,-6.9331 l 0.2555,-0.47888 0.51776,0.12147 c 1.888309,0.44301 6.226909,7.77133 8.707529,11.7599 1.77512,2.85417 4.22932,7.1473 4.92213,8.86659 0.25896,0.64264 0.76254,2.16853 1.08354,3.03139 0.44048,7.35865 1.6201,12.89612 1.17409,14.9325 -1.54513,0.1156 -1.73178,-6.02607 -3.57222,-12.35696 z"
       id="path4038-9-5"
       inkscape:connector-curvature="0"
       sodipodi:nodetypes="cssscssscccc" />
    <path
       style="color:#000000;fill:#b3b3b3;fill-opacity:1;fill-rule:nonzero;stroke:none;stroke-width:0.98399234;marker:none;visibility:visible;display:inline;overflow:visible;enable-background:accumulate"
       d="m 50.567893,997.60556 c 0.004,-1.46143 -0.0142,-0.28622 0.0659,-0.8048 0.0969,-0.62803 0.0855,-1.39946 -0.0718,-2.3143 -1.23388,-7.17821 -0.121243,-17.42627 0.180567,-22.63877 0.0477,-0.82423 -0.0269,-2.61677 0.0556,-4.61553 0.17179,-4.1593 1.153804,-9.69906 1.358544,-10.40648 0.44894,-1.55124 1.4915,-0.6391 1.22462,0.51428 -0.0916,0.39572 -0.385534,9.90786 -0.440114,13.39644 -0.0567,3.62244 -0.20755,7.26192 -0.3518,8.4857 -0.40284,3.4178 -0.55233,3.93391 -0.62484,9.08572 0.37459,9.92647 -1.960167,8.65254 -1.396677,9.29774 z"
       id="path4040-6-8"
       inkscape:connector-curvature="0"
       sodipodi:nodetypes="csssssssscc" />
    <path
       style="color:#000000;fill:#ffffff;fill-opacity:1;fill-rule:nonzero;stroke:none;stroke-width:0.5;marker:none;visibility:visible;display:inline;overflow:visible;enable-background:accumulate"
       d="m 69.00343,968.14915 c -0.10758,-0.32626 -0.17231,-1.60975 -0.14778,-2.93134 0.0503,-2.71276 -0.0835,-3.05268 -1.48327,-3.76777 -0.84496,-0.43165 -1.02991,-0.70733 -1.04982,-1.56476 -0.0199,-0.85751 0.42353,-1.33436 1.24087,-1.33436 0.96163,0 2.49215,0.60562 3.27934,1.29763 0.6244,0.5489 0.64746,0.60818 0.46777,1.20238 -0.10401,0.34374 -0.34443,1.75818 -0.53438,3.14322 -0.44655,3.25622 -0.62738,4.02878 -1.00807,4.30716 -0.457,0.33416 -0.55285,0.29001 -0.76466,-0.35218 z"
       id="path4062-1-1"
       inkscape:connector-curvature="0" />
    <path
       style="color:#000000;fill:#ffffff;fill-opacity:1;fill-rule:nonzero;stroke:#ffffff;stroke-width:0.5;marker:none;visibility:visible;display:inline;overflow:visible;enable-background:accumulate"
       d="m 46.79789,1047.9994 c -1.80215,-0.2638 -7.841255,-0.7807 -7.565095,-1.0569 0.19616,-0.1961 5.501785,-2.7662 7.263955,-3.1325 0.89396,-0.1856 6.501605,0.2965 9.143355,-0.01 5.18239,-0.599 7.908935,-0.2691 8.342645,-0.7051 0.21322,-0.2144 0.27368,-0.7173 0.27368,-2.2763 0,-1.1006 0.063,-2.1732 0.13984,-2.3836 0.17298,-0.4731 0.84231,-0.6973 0.84231,-0.2821 0,0.6428 0.77877,1.8423 1.57578,2.4271 0.45922,0.337 1.57898,0.9333 2.48835,1.3253 0.90939,0.3919 1.87057,0.8549 2.13594,1.0288 l 0.48252,0.3161 -1.32636,0.6032 c -4.69109,2.1333 -10.08773,3.521 -15.83316,4.0714 -2.99687,0.2871 -6.29624,0.3174 -7.96376,0.073 z"
       id="path4064-9-9"
       inkscape:connector-curvature="0"
       sodipodi:nodetypes="cccccscscccccscc" />
    <path
       style="color:#000000;fill:#5aa02c;fill-opacity:1;fill-rule:nonzero;stroke:#5aa02c;stroke-width:1.50187491999999989;stroke-miterlimit:4;stroke-dasharray:none;marker:none;visibility:visible;display:inline;overflow:visible;enable-background:accumulate"
       d="m 63.7866,1027.9882 c -0.44406,-0.4228 -0.54109,-1.452 -0.50897,-5.3993 0.0718,-8.8101 -2.10891,-13.1289 -7.1528,-15.9327 -3.38844,-1.8837 -3.83559,-2.4208 -3.52521,-4.2349 0.13783,-0.8058 0.68828,-2.77415 0.84128,-4.31981 0.15301,-1.54566 0.47615,-3.03733 0.7181,-3.31484 0.24196,-0.27747 1.53495,-1.13427 2.87331,-1.90398 1.76967,-1.01774 2.82049,-1.39739 3.85257,-1.39191 1.46401,0.008 4.20029,0.99712 4.64286,1.67871 0.44503,0.68539 4.24468,2.30723 7.96838,3.40123 2.11717,0.62201 3.91359,1.36649 4.31432,1.78797 1.19546,1.25733 0.89131,2.94563 -1.14383,6.34903 -1.00677,1.6837 -2.37208,3.9813 -3.03401,5.1059 -0.66194,1.1246 -1.72874,2.598 -2.37066,3.2743 -1.41086,1.4865 -2.27563,3.5045 -3.94512,9.207 -0.69741,2.3821 -1.35162,4.6013 -1.45379,4.9315 -0.29779,0.9624 -1.42948,1.3775 -2.07643,0.7618 z"
       id="path3248-6-5"
       inkscape:connector-curvature="0"
       sodipodi:nodetypes="cscsssscssscscsccc" />
    <path
       style="color:#000000;fill:#5aa02c;fill-opacity:1;fill-rule:nonzero;stroke:#5aa02c;stroke-width:1.50187491999999967;stroke-miterlimit:4;stroke-dasharray:none;marker:none;visibility:visible;display:inline;overflow:visible;enable-background:accumulate"
       d="m 43.55123,992.12795 c -2.73406,-1.63604 -6.48444,-3.8482 -10.4067,-6.8769 -2.52169,-1.94718 -3.46153,-2.92224 -4.2306,-4.38904 -2.72857,-5.20404 -1.82737,-11.34793 2.48986,-16.9748 l 2.00459,-2.61268 0.77846,0.69608 c 0.42816,0.38288 1.3375,1.74291 2.02078,3.02234 0.68326,1.27941 2.02303,3.55825 2.97725,5.06408 2.09809,3.31095 3.95616,6.77626 3.19211,7.79463 -0.1882,0.25084 -1.19958,0.25936 -1.5075,0.26226 -0.30791,0.003 -1.321,0.4647 -2.25131,1.02625 -1.66578,1.00553 -1.69145,1.04845 -1.6909,2.82857 7.9e-4,2.54778 0.87726,4.03334 2.93093,4.96774 0.91893,0.4181 2.83053,1.81628 4.23246,3.1223 4.01667,3.74188 4.2656,4.94446 -0.53943,2.06917 z"
       id="path4022-9-7"
       inkscape:connector-curvature="0"
       sodipodi:nodetypes="sssscsssscsssss" />
    <path
       style="color:#000000;fill:#5aa02c;fill-opacity:1;fill-rule:nonzero;stroke:#5aa02c;stroke-width:1.50187491999999967;stroke-miterlimit:4;stroke-dasharray:none;marker:none;visibility:visible;display:inline;overflow:visible;enable-background:accumulate"
       d="m 4.82944,1018.7745 c -0.83271,-1.1628 -2.6840641,-7.0058 -2.8876129,-7.8064 -0.34537,-1.3584 2.1288426,0.553 3.0442858,1.6076 0.8893441,1.0245 2.0731128,2.0666 2.6651671,2.3521 2.0392706,0.9835 5.071712,2.9038 4.846581,4.088 -0.2123,1.1167 -3.3801623,2.3925 -5.5456896,3.2654 -0.8436998,0.34 -1.5542214,-2.4249 -2.1227314,-3.5067 z"
       id="path4024-9-0"
       inkscape:connector-curvature="0"
       sodipodi:nodetypes="csssssc" />
    <path
       style="color:#000000;fill:#5aa02c;fill-opacity:1;fill-rule:nonzero;stroke:#5aa02c;stroke-width:1.50187491999999967;stroke-miterlimit:4;stroke-dasharray:none;marker:none;visibility:visible;display:inline;overflow:visible;enable-background:accumulate"
       d="m 79.63257,975.03845 c -0.76686,-1.4115 0.30468,-2.2942 1.52629,-4.01015 0.59075,-0.82982 2.23478,-1.4491 2.23478,-1.70359 0,-1.34876 3.85237,1.44905 4.17674,3.06168 0.19705,0.97964 -0.89566,0.84227 -2.00763,2.22143 -2.65153,3.28865 -5.10952,2.34079 -5.93018,0.43063 z"
       id="path4026-8-1"
       inkscape:connector-curvature="0"
       sodipodi:nodetypes="ccsssc" />
    <path
       style="color:#000000;fill:#5aa02c;fill-opacity:1;fill-rule:nonzero;stroke:#5aa02c;stroke-width:1.50187491999999989;stroke-miterlimit:4;stroke-dasharray:none;marker:none;visibility:visible;display:inline;overflow:visible;enable-background:accumulate"
       d="m 53.98323,968.65003 c -0.19052,-3.9902 0.70363,-5.72044 3.86901,-5.45044 1.30241,0.11115 1.97062,0.13389 2.32435,0.77889 0.64199,1.17047 -1.19826,3.54849 -3.10943,4.72283 -0.69446,0.4267 -2.07073,1.91034 -2.35955,2.0806 -0.56974,0.33587 -0.67707,-1.14113 -0.72438,-2.13188 z"
       id="path4028-1-3"
       inkscape:connector-curvature="0"
       sodipodi:nodetypes="ssssss" />
    <path
       style="color:#000000;fill:#5aa02c;fill-opacity:1;fill-rule:nonzero;stroke:#5aa02c;stroke-width:1.50187491999999967;stroke-miterlimit:4;stroke-dasharray:none;marker:none;visibility:visible;display:inline;overflow:visible;enable-background:accumulate"
       d="m 96.39033,993.58673 c -0.40717,-0.54426 -1.36311,-1.22677 -2.12431,-1.51667 -3.17904,-1.21073 -7.00612,-5.70352 -6.2293,-9.25447 0.39613,-1.81071 4.17185,-3.42826 4.94294,-3.6729 0.85456,-0.27113 3.39938,5.66304 4.80742,11.05145 0.41885,1.60287 -0.22588,3.45217 -0.12321,3.78216 0.29059,0.93399 -0.4537,0.70631 -1.27354,-0.38957 z"
       id="path4030-9-3"
       inkscape:connector-curvature="0"
       sodipodi:nodetypes="sssssss" />
  </g>
</svg>
