<?xml version="1.0" encoding="UTF-8" standalone="no"?>
<!-- Created with Inkscape (http://www.inkscape.org/) -->

<svg
   xmlns:dc="http://purl.org/dc/elements/1.1/"
   xmlns:cc="http://creativecommons.org/ns#"
   xmlns:rdf="http://www.w3.org/1999/02/22-rdf-syntax-ns#"
   xmlns:svg="http://www.w3.org/2000/svg"
   xmlns="http://www.w3.org/2000/svg"
   xmlns:sodipodi="http://sodipodi.sourceforge.net/DTD/sodipodi-0.dtd"
   xmlns:inkscape="http://www.inkscape.org/namespaces/inkscape"
   width="100"
   height="100"
   id="svg2"
   version="1.1"
   inkscape:version="0.48.4 r9939"
   sodipodi:docname="fatiando-logo.svg"
   inkscape:export-filename="/home/leo/src/fatiando-logo/fatiando-logo.png"
   inkscape:export-xdpi="150"
   inkscape:export-ydpi="150">
  <defs
     id="defs4" />
  <sodipodi:namedview
     id="base"
     pagecolor="#ffffff"
     bordercolor="#666666"
     borderopacity="1.0"
     inkscape:pageopacity="0.0"
     inkscape:pageshadow="2"
     inkscape:zoom="0.9899495"
     inkscape:cx="54.440249"
     inkscape:cy="39.198862"
     inkscape:document-units="px"
     inkscape:current-layer="layer1"
     showgrid="false"
     inkscape:window-width="749"
     inkscape:window-height="417"
     inkscape:window-x="413"
     inkscape:window-y="138"
     inkscape:window-maximized="0" />
  <metadata
     id="metadata7">
    <rdf:RDF>
      <cc:Work
         rdf:about="">
        <dc:format>image/svg+xml</dc:format>
        <dc:type
           rdf:resource="http://purl.org/dc/dcmitype/StillImage" />
        <dc:title />
      </cc:Work>
    </rdf:RDF>
  </metadata>
  <g
     inkscape:label="Layer 1"
     inkscape:groupmode="layer"
     id="layer1"
     transform="translate(0,-952.36218)">
    <path
       style="color:#000000;fill:#b3b3b3;fill-opacity:1;fill-rule:nonzero;stroke:#b3b3b3;stroke-width:0.99875158;stroke-miterlimit:4;stroke-dasharray:none;marker:none;visibility:visible;display:inline;overflow:visible;enable-background:accumulate"
       d="m 34.934115,1015.6084 c -1.168269,-1.025 -7.309063,-13.4794 -9.507166,-17.46027 -1.396514,-2.52915 -2.795216,-4.29689 -4.63191,-6.76239 -1.36771,-1.83597 -3.2004,-4.27945 -4.072649,-5.50394 -0.87225,-1.22451 -1.973683,-2.66976 -2.214432,-2.98973 -0.506827,-0.67359 0.0832,-1.25565 0.47952,-1.40039 0.438253,-0.16007 1.143721,0.2309 1.480869,0.8207 0.16855,0.29488 1.484964,1.66247 2.925364,3.03911 2.791241,2.66771 3.753867,3.74743 6.124125,6.86897 2.849767,3.75306 3.716144,5.11856 4.866097,7.66941 1.06373,2.35953 5.22433,13.86543 5.227096,15.10093 0.004,1.7697 0.389473,1.5533 -0.676914,0.6176 z"
       id="path4036"
       inkscape:connector-curvature="0"
       sodipodi:nodetypes="cssssssssscc" />
    <path
       style="color:#000000;fill:#003380;fill-opacity:1;fill-rule:nonzero;stroke:#003380;stroke-width:0.99875157999999997;stroke-miterlimit:4;stroke-dasharray:none;marker:none;visibility:visible;display:inline;overflow:visible;enable-background:accumulate"
       d="m 44.51415,988.43628 c -0.355745,-0.44393 -0.719301,-1.15219 -0.80791,-1.57387 -0.154666,-0.73606 -0.211086,-0.76671 -1.411376,-0.76671 -1.393737,0 -3.094132,-0.69628 -3.511001,-1.43768 -0.420844,-0.74848 -0.304699,-2.37776 0.242247,-3.39821 0.603666,-1.12629 0.809898,-1.26372 2.197044,-1.46408 1.053453,-0.15218 1.074177,-0.14098 1.602417,0.86576 0.694702,1.32401 2.818267,7.40413 2.818267,8.06918 0,0.73447 -0.385788,0.63394 -1.129688,-0.29439 l 0,0 z"
       id="path4020"
       inkscape:connector-curvature="0" />
    <path
       style="color:#000000;fill:#003380;fill-opacity:1;fill-rule:nonzero;stroke:#003380;stroke-width:1;stroke-miterlimit:4;stroke-dasharray:none;marker:none;visibility:visible;display:inline;overflow:visible;enable-background:accumulate"
       d="m 35.195389,1046.4077 c -2.749354,-0.3793 -3.9119,-0.7721 -7.914697,-2.6739 -4.912739,-2.3343 -8.087391,-4.612 -10.80788,-7.7541 -0.791471,-0.9142 -2.572275,-2.8839 -3.957354,-4.3772 -5.2055428,-5.6121 -6.4074803,-7.8229 -4.9402144,-9.0868 0.8803995,-0.7584 3.6965494,-1.9387 4.6473304,-1.9478 1.23238,-0.3143 7.893574,5.8635 11.785179,9.5918 1.39212,1.3337 2.967341,2.0904 3.181094,2.0184 0.681947,-0.2298 0.331396,-3.328 -0.497269,-4.3948 -0.417987,-0.5381 -5.364035,-6.9415 -6.212914,-8.6817 -0.848888,-1.7402 -2.010437,-3.8574 -2.581223,-4.7049 -0.904629,-1.3432 -1.03991,-1.8745 -1.054282,-4.1406 -0.01448,-2.2785 -0.150752,-2.8071 -1.10386,-4.2803 -0.862083,-1.3326 -1.54471,-1.8936 -3.294862,-2.708 -1.915675,-0.8915 -2.4456628,-1.3668 -4.0092084,-3.59555 -1.8956604,-2.70213 -3.7629264,-6.08421 -4.5878852,-8.30975 -0.4553907,-1.22853 -0.420774,-1.49936 0.4702322,-3.67921 1.1774782,-2.88072 3.7107616,-7.27414 4.6312111,-7.4373 1.2925043,-0.22911 2.7359503,1.1007 6.3559353,5.68997 4.829413,6.12257 8.012774,10.70154 10.620904,15.27724 4.042197,7.0915 10.523436,19.8108 10.968369,19.8108 1.378208,0 -3.729957,-22.89895 -6.013722,-28.64824 -0.509324,-1.28221 -1.651276,-3.54785 -2.537688,-5.03476 -0.886402,-1.48691 -2.838173,-5.06063 -4.337269,-7.94159 -1.499086,-2.88097 -3.060364,-5.57871 -3.469493,-5.99499 -0.982881,-1.00004 -0.713099,-3.0965 0.611116,-4.74901 0.918532,-1.14626 8.935311,-8.40156 9.647011,-8.6553 0.187586,-0.0669 -1.15973,1.92936 -2.059645,3.18049 -2.559351,3.55825 -3.267526,6.19785 -3.267526,12.1792 0,5.48164 0.278912,6.39937 2.763376,9.09271 2.780465,3.01424 13.002267,9.51458 16.205244,10.3054 1.021303,0.25216 1.963096,0.57501 2.092884,0.71745 0.885193,0.9715 1.521438,3.88064 1.941782,8.87854 -0.224709,1.5167 0.434238,2.3862 1.107107,2.5331 0.675096,0.1475 1.364214,-0.4323 1.188864,-1.8156 -0.0838,-2.1775 1.862891,1.9976 4.601428,3.5262 4.059995,2.2661 6.228934,7.896 5.80805,15.3654 -0.101493,1.8011 -0.106887,3.7634 -0.01199,4.3605 0.242287,1.5245 1.31961,2.5098 2.74416,2.5098 1.973653,0 2.844334,-1.2718 4.52735,-6.6133 1.937728,-6.15 2.590862,-7.6831 4.290427,-10.072 0.773663,-1.0874 1.932944,-2.9787 2.57618,-4.2029 0.643226,-1.2242 1.768659,-3.0733 2.500954,-4.1092 2.311661,-3.2698 2.687261,-5.2682 1.44811,-7.70463 -0.837004,-1.64576 -2.506867,-2.65371 -5.32817,-3.21621 -2.52027,-0.50247 -6.271291,-2.05381 -8.597983,-3.55593 -1.030851,-0.66553 -2.510112,-1.31229 -3.28725,-1.43726 -1.762188,-0.28338 -4.027017,0.27551 -5.345079,1.319 -1.929808,1.5278 -2.538577,1.68793 -3.110192,0.81813 -0.424889,-0.64655 -0.452515,-1.74901 -0.165284,-6.59756 0.189663,-3.2017 0.347126,-6.89553 0.349923,-8.2085 0.003,-1.44729 0.220904,-2.79553 0.553238,-3.42429 0.301483,-0.57039 2.069853,-2.42392 3.929718,-4.11894 3.35206,-3.05497 3.381533,-3.09619 3.377239,-4.72396 -0.006,-2.18953 -1.252665,-3.51041 -2.993678,-3.1713 -2.950772,0.57476 -2.925933,0.58945 -3.149324,-1.86397 -0.11147,-1.22418 -0.678092,-2.61541 -0.764494,-2.88236 -0.312859,-0.96661 2.353967,-1.03776 5.612924,-0.38678 l 3.010007,0.60124 0.14433,2.15741 c 0.112519,1.68188 0.398771,2.54703 1.298677,3.92493 0.98376,1.50629 1.154357,2.08948 1.154357,3.94608 0,2.62311 0.500714,3.25479 2.579985,3.25479 1.168569,0 1.686262,-0.22553 2.672499,-1.16425 1.163476,-1.10743 1.223181,-1.28405 1.223181,-3.61802 0,-2.45202 0.398752,-3.77845 1.13589,-3.77845 0.58427,0 4.876335,3.40147 5.893094,4.67029 0.487141,0.60793 0.885713,1.3505 0.885713,1.65018 0,0.2997 -0.647561,1.52084 -1.439031,2.71369 -1.958672,2.95194 -1.930487,3.9972 0.166422,6.17115 1.450846,1.50415 1.716544,1.64328 2.759011,1.44484 0.634447,-0.12078 1.97611,-0.81183 2.981463,-1.53567 2.500954,-1.80065 3.025988,-1.93376 4.042407,-1.02489 0.4639,0.41482 0.843466,1.02211 0.843466,1.34951 0,0.32742 -0.971346,1.53433 -2.158552,2.68202 -2.43997,2.35877 -2.606722,3.04 -1.623531,6.63288 0.902532,3.29812 2.289129,4.96904 5.940635,7.15871 4.625777,2.77392 6.29547,8.34212 4.177488,13.93132 -0.47254,1.247 -1.364784,4.0393 -1.982782,6.2052 -0.713937,5.6603 -2.96826,9.5487 -4.404255,12.8238 -4.542901,6.8232 -2.653433,5.1395 -7.67161,9.1523 -6.945169,5.5538 -6.418227,5.4182 -8.532085,5.4182 -3.468455,0 -6.103581,-1.6939 -8.011735,-5.1502 -0.723636,-1.3108 -1.463072,-2.3833 -1.643187,-2.3833 -0.544928,0 -1.017458,1.1493 -1.277982,3.1083 -0.452594,3.4033 -1.713588,5.4515 -3.357743,5.4539 -1.264519,0 -11.098277,1.589 -12.445873,2.0087 -0.593598,0.185 -1.84749,0.4341 -2.786417,0.5536 -1.023321,0.1302 -2.124934,0.5519 -2.750122,1.0525 -1.163076,0.9316 -1.404464,0.9444 -5.960639,0.3156 z"
       id="path4018"
       inkscape:connector-curvature="0"
       sodipodi:nodetypes="csssscsssssssssssssssssssssssssccscsscsssssssssssscssssssscsssssssssssssssssssccssssscsssc" />
    <path
       style="color:#000000;fill:#217821;fill-opacity:1;fill-rule:nonzero;stroke:#1a1a1a;stroke-width:0.99875157999999997;stroke-miterlimit:4;stroke-dasharray:none;marker:none;visibility:visible;display:inline;overflow:visible;enable-background:accumulate"
       d="m 14.441541,1009.2482 c -0.195586,-0.1635 -0.508495,-0.6239 -0.980694,-1.443 -0.475856,-0.8255 -0.442877,-0.7819 -0.96862,-1.2796 -0.251905,-0.2384 -0.52004,-0.5266 -0.595855,-0.6404 -0.385997,-0.5793 0.07081,-0.6913 1.028874,-0.252 0.964165,0.4419 1.699646,1.1082 1.944909,1.7619 0.08889,0.237 0.09059,0.2775 0.03865,0.9538 -0.05323,0.6942 -0.124894,0.9778 -0.256769,1.0165 -0.02856,0.01 -0.123326,-0.044 -0.210527,-0.1172 z"
       id="path4032"
       inkscape:connector-curvature="0" />
    <path
       style="color:#000000;fill:#b3b3b3;fill-opacity:1;fill-rule:nonzero;stroke:#b3b3b3;stroke-width:0.99875158;stroke-miterlimit:4;stroke-dasharray:none;marker:none;visibility:visible;display:inline;overflow:visible;enable-background:accumulate"
       d="m 25.409022,1029.7473 c -2.550692,-1.3517 -13.525054,-12.0861 -15.003996,-13.5999 -0.6342967,-0.6492 -2.1023617,-1.9459 -3.2623717,-2.8815 -2.0289039,-1.6364 -3.1031511,-2.704 -3.5756105,-3.5534 -0.1223271,-0.2199 -0.1856879,-0.4349 -0.140804,-0.4776 0.1193308,-0.1136 2.1810237,0.651 3.6351561,1.348 1.9082946,0.9148 3.0611931,1.8361 7.3843601,5.9012 2.89537,2.7225 11.314756,12.0429 11.72784,12.7615 0.330557,0.5751 0.476274,0.9832 0.350372,0.9813 -0.118552,0 -0.620285,-0.2175 -1.114946,-0.4796 z"
       id="path4034"
       inkscape:connector-curvature="0"
       sodipodi:nodetypes="sssssssscs" />
    <path
       style="color:#000000;fill:#b3b3b3;fill-opacity:1;fill-rule:nonzero;stroke:#b3b3b3;stroke-width:0.99875158;stroke-miterlimit:4;stroke-dasharray:none;marker:none;visibility:visible;display:inline;overflow:visible;enable-background:accumulate"
       d="m 46.205486,985.15051 c -2.463411,-8.04206 -4.33612,-11.76533 -5.197054,-13.22678 -0.643455,-1.09229 -2.150412,-3.61735 -3.448509,-5.69242 -0.530177,-0.84751 -2.506227,-2.96759 -2.107905,-3.71416 l 0.255191,-0.47829 0.517114,0.12125 c 1.886012,0.4422 3.900594,4.55136 6.378127,8.53495 1.772904,2.85061 4.22404,7.13838 4.915985,8.85552 0.258637,0.64184 0.761578,2.16583 1.082177,3.02761 0.43994,7.34946 1.845404,15.83518 1.39995,17.86901 -1.543201,0.1155 -1.956943,-8.9737 -3.795076,-15.29669 z"
       id="path4038"
       inkscape:connector-curvature="0"
       sodipodi:nodetypes="cssscsssccc" />
    <path
       style="color:#000000;fill:#b3b3b3;fill-opacity:1;fill-rule:nonzero;stroke:none;stroke-width:0.98399234;marker:none;visibility:visible;display:inline;overflow:visible;enable-background:accumulate"
       d="m 50.567184,995.72679 c 0.004,-1.45959 -0.01418,-2.95686 0.06582,-3.4748 0.09678,-0.62723 0.08539,-1.3977 -0.07171,-2.3114 -1.232329,-7.16926 -0.499415,-12.54922 -0.197992,-17.75522 0.04764,-0.8232 -0.02687,-2.6135 0.05553,-4.60977 0.171575,-4.1541 1.241538,-6.92254 1.446012,-7.62908 0.44839,-1.54931 1.489648,-0.6383 1.223091,0.51364 -0.09148,0.39523 -0.474227,7.13109 -0.528729,10.61531 -0.05663,3.61791 -0.207291,7.25285 -0.351361,8.47511 -0.402347,3.41353 -0.55164,3.929 -0.62406,9.07437 -0.109952,7.81317 -0.09388,9.68115 -0.491465,9.95218 -0.325464,0.2219 -1.179246,0.32573 -0.525164,-2.85035 z"
       id="path4040"
       inkscape:connector-curvature="0"
       sodipodi:nodetypes="cssssssssssc" />
    <path
       style="color:#000000;fill:#ffffff;fill-opacity:1;fill-rule:nonzero;stroke:none;stroke-width:0.5;marker:none;visibility:visible;display:inline;overflow:visible;enable-background:accumulate"
       d="m 68.601381,968.49144 c -0.107465,-0.32585 -0.172094,-1.60773 -0.147595,-2.92768 0.05034,-2.70937 -0.0834,-3.04886 -1.481418,-3.76306 -0.843905,-0.43111 -1.028634,-0.70645 -1.04852,-1.5628 -0.01988,-0.85645 0.423002,-1.3327 1.239331,-1.3327 0.96043,0 2.489039,0.60486 3.275246,1.29601 0.623621,0.54821 0.646652,0.60742 0.467176,1.20087 -0.10383,0.34332 -0.34399,1.756 -0.533703,3.1393 -0.446002,3.25216 -0.626596,4.02375 -1.006821,4.30179 -0.45642,0.33374 -0.55216,0.28964 -0.763696,-0.35174 z"
       id="path4062"
       inkscape:connector-curvature="0" />
    <path
       style="color:#000000;fill:#ffffff;fill-opacity:1;fill-rule:nonzero;stroke:#1a1a1a;stroke-width:0.49937578999999999;marker:none;visibility:visible;display:inline;overflow:visible;enable-background:accumulate"
       d="m 46.423554,1048.242 c -1.799891,-0.2634 -3.039231,-0.702 -2.763406,-0.9778 0.195915,-0.1959 3.477133,-1.138 5.237103,-1.5038 0.892834,-0.1854 3.782083,-0.5867 6.420545,-0.8916 5.17592,-0.5983 7.836005,-1.0885 8.269173,-1.5239 0.212944,-0.2142 0.273339,-0.7164 0.273339,-2.2735 0,-1.0992 0.06282,-2.1705 0.139665,-2.3806 0.172764,-0.4725 0.841249,-0.6964 0.841249,-0.2818 0,0.642 0.777807,1.84 1.573822,2.4241 0.458637,0.3366 1.576999,0.9321 2.485244,1.3237 0.908255,0.3914 1.868225,0.8538 2.133273,1.0275 l 0.481908,0.3157 -1.324704,0.6024 c -4.685234,2.1307 -10.075136,3.5166 -15.813384,4.0663 -2.993138,0.2868 -6.288379,0.3171 -7.953827,0.073 z"
       id="path4064"
       inkscape:connector-curvature="0" />
    <path
       style="fill:#1a1a1a"
       d="m 44.363049,1050.1832 c -5.38406,-1.1442 -11.105328,-1.4059 -15.950891,-4.0941 -8.407361,-2.6377 -13.578717,-9.9047 -19.1287097,-16.0155 -3.002377,-3.3644 -4.4438352,-7.5059 -6.3806642,-11.4732 -1.195206,-3.1668 -5.5162347,-10.9053 -0.3906916,-10.9459 4.6092085,0.8232 9.3474755,4.872 11.8277955,5.5777 -2.021054,-4.3507 -4.762537,-8.3191 -7.2415683,-12.4325 -1.2590462,-4.04593 -6.87376782,-7.723 -5.1731136,-11.69263 1.9518402,-3.97557 3.3594607,-8.37295 6.9275606,-11.29176 0.4574881,-0.3045 1.2318703,-0.48743 1.9189013,-0.27282 6.253853,2.28323 10.597513,7.60053 14.689628,12.45247 1.042028,1.4003 4.878352,7.28737 2.958053,2.26801 -2.122078,-3.80476 -3.365014,-7.95994 -5.534362,-11.72177 -0.866747,-3.73889 -3.231211,-5.85799 -4.222213,-8.25431 -0.309063,-0.56696 -0.01608,-2.10403 0.150952,-2.58157 0.162217,-1.20162 8.70398,-9.65973 12.154397,-11.4837 0.859995,-0.53539 1.838222,-0.48006 2.520299,-0.14901 2.563077,1.11853 5.57652,4.98416 7.601748,7.4622 4.791551,6.87761 7.255841,13.52142 7.739256,13.56159 0.220804,-6.26039 -0.414402,-16.8273 1.88855,-22.26532 1.472439,-2.93106 7.122377,-2.49759 9.96809,-2.18562 5.857638,0.93187 11.313118,3.49096 15.946497,7.01282 5.609807,3.52724 9.856239,7.69517 14.644145,13.00644 2.429972,2.52221 3.211435,4.58143 4.622152,7.23253 1.240979,2.74162 2.557473,5.69569 2.916245,8.46434 0.124554,3.67321 0.734462,5.22517 1.122477,10.47081 -0.343381,10.4312 -6.405743,25.2481 -9.436894,29.4245 -3.330487,5.2327 -8.375102,8.6692 -13.238462,12.3986 -3.849698,2.6933 -8.350622,4.4829 -13.081599,5.6165 -6.381882,1.8611 -13.181293,2.2723 -19.817528,1.9112 z m 9.396105,-1.8417 c 6.23247,-0.4889 12.350013,-2.0787 17.896979,-4.7912 -1.284325,-1.6514 -6.413773,-1.6294 -6.778197,-5.4942 -2.651626,-0.014 0.44796,5.0411 -2.057758,5.595 -5.666976,1.4136 -11.652495,0.957 -17.373114,2.8833 -5.469952,1.1495 2.027835,2.1346 4.081219,1.9765 1.412554,0.045 2.824819,-0.048 4.230871,-0.1694 z m -12.613573,-2.0686 c 1.914876,-1.7783 4.537149,-0.7117 6.888539,-2.0472 3.167032,-0.1805 7.001608,-1.2965 10.506387,-1.5743 2.08823,0.3133 3.117703,-0.8852 3.793589,-3.4514 0.364644,-2.5701 0.670521,-7.9778 2.73576,-3.0164 1.317843,4.1411 8.225957,7.5315 11.803456,4.4057 1.108764,-4.3815 14.389024,-17.6982 14.649218,-18.5235 2.493104,-5.1917 3.06432,-10.9554 5.441379,-16.1941 1.016119,-4.8921 -0.877913,-10.69043 -6.026947,-12.71915 -3.830002,-2.01791 -5.286911,-6.09362 -5.537208,-10.02195 0.760879,-2.98143 7.338656,-4.89901 3.416699,-7.51636 -2.981523,-2.15339 -6.514867,6.53276 -9.845144,1.20832 -3.664689,-2.77496 0.466657,-5.46506 1.666747,-8.05012 0.66343,-1.65104 -4.082198,-5.20522 -6.735661,-7.03579 -1.629283,-0.61118 -1.974731,3.04433 -1.660634,4.32479 0.645004,2.51568 -2.065708,4.87426 -4.612335,4.42285 -2.922486,-0.63341 -0.435725,-4.1677 -1.817937,-5.94242 -1.850307,-2.34909 -3.039251,-4.85068 -1.875865,-7.24417 -2.45666,-0.59514 -8.393369,-2.34167 -9.493364,-0.12809 2.131885,1.11516 -0.44762,5.67212 2.307236,5.26929 4.073858,-2.8579 6.656809,3.18876 3.334173,5.51384 -3.103162,3.03575 -7.731157,4.60123 -6.281978,9.74106 -0.311581,3.92038 -1.049129,7.79305 -0.711161,11.73845 -0.725503,3.16426 0.914577,4.74114 3.410357,2.10232 3.249468,-2.47124 7.141673,-1.89273 9.972604,0.93201 4.355995,1.79233 4.594298,2.201 9.238283,3.04679 4.701393,1.29534 5.205523,6.50503 2.227345,9.69623 -2.118901,2.4407 -2.897907,5.6759 -4.859825,8.1577 -2.870662,3.4121 -3.022322,5.2588 -4.451945,9.5287 -1.305358,2.9464 -1.041828,7.7977 -4.996005,7.84 -3.734302,-0.4948 -1.975431,-5.707 -2.311131,-8.1921 0.277673,-4.5004 -0.80532,-9.3676 -3.827872,-12.9152 -2.721508,-1.523 -7.13042,-5.0071 -6.03471,0.7375 -2.769778,3.9473 -2.689778,-5.2733 -2.868754,-7.1299 0.02257,-2.8859 -0.554687,-5.80544 -2.062382,-8.31964 -3.803955,0.0939 -6.567181,-2.68673 -9.774182,-4.2077 -3.875806,-3.1506 -9.243946,-5.313 -10.8726,-10.31129 -1.251955,-5.36051 -0.422671,-11.30349 2.213583,-16.19251 1.20827,-1.16588 5.193658,-6.38698 1.216809,-2.98147 -3.278901,3.21084 -10.715705,6.90897 -9.575181,11.57049 1.753338,1.71725 2.282088,2.98141 3.251386,5.19909 2.287271,4.16847 4.353458,8.43878 6.978267,12.40753 2.845363,6.58884 5.867765,19.0815 6.753289,26.0719 0.620963,1.5674 0.708774,5.1537 -1.974213,2.1744 -2.547565,-3.5305 -8.203086,-10.934 -10.174082,-18.84716 -2.376699,-4.02899 -5.017948,-7.63845 -7.862952,-11.42581 -2.547935,-2.49965 -4.7993,-9.04921 -8.0782818,-8.16955 -2.2199351,3.05571 -4.7461174,6.35878 -5.4763046,10.00165 1.4795006,4.433 4.1648939,8.91783 7.2170284,12.40707 4.519062,0.8396 7.985139,5.5643 6.132575,9.853 2.335311,3.2899 9.550631,13.5104 11.313828,17.1127 1.817997,1.3077 2.588734,6.9586 -0.444735,3.7796 -3.248569,-2.0133 -11.585847,-12.3908 -15.435485,-13.145 -3.5894636,1.1252 -7.6860828,2.8764 -3.7132289,6.5173 2.4531739,4.1799 6.5863869,7.1244 9.4819079,11.0057 2.365233,1.914 4.499156,4.0904 7.410257,5.2603 3.470612,1.5232 6.848889,3.7802 10.831681,3.596 1.565243,-0.048 4.210966,1.4399 5.19972,-0.32 z m 28.655581,-31.4638 c 3.241957,-2.427 4.116734,-6.3667 6.465298,-9.4285 1.609488,-2.1162 3.527281,-5.59708 0.52782,-7.53453 -4.781692,-1.73024 -5.688449,-1.33408 -10.329018,-3.60431 -3.162817,-2.90118 -7.178278,-3.98696 -10.562707,-0.70306 -4.481998,0.99066 -2.23173,5.01687 -3.414102,7.9642 -2.330707,4.3839 4.341742,5.2006 6.520918,7.5694 4.164565,5.178 4.20874,12.0657 3.499626,18.2315 0.832559,2.4926 2.75962,1.4058 3.122766,0.3316 1.444635,-4.2734 2.394697,-9.2721 4.169399,-12.8263 z m -43.420006,15.3575 c -1.628444,-3.6858 -12.17598,-13.7581 -14.98395,-16.6339 -2.1794256,-2.3747 -5.3069362,-3.6874 -8.3946266,-4.6344 1.1943271,3.1495 6.1236155,5.3107 8.3642946,8.4307 2.193608,1.5338 13.833958,13.1303 15.014282,12.8376 z m -20.0723194,-8.8798 c 5.6309314,-0.8316 4.0141124,-5.4485 -0.085793,-6.8991 -1.7626966,-1.2382 -6.41630965,-5.836 -4.411206,-0.8736 1.1484544,2.5965 1.9499126,6.079 3.9801349,7.9333 z m 8.6004194,-12.9984 c 0.883446,-2.3285 -5.8668064,-4.5891 -1.968919,-1.3126 0.499576,0.7026 2.044015,4.16 1.968919,1.3126 z m 20.461593,7.7163 c 0.377778,-3.2365 -4.877733,-15.7242 -5.849947,-18.26228 -1.399401,-2.70539 -3.304669,-4.4738 -5.315646,-7.45388 -2.038981,-2.57632 -4.573713,-5.00554 -7.118991,-7.20119 -1.401179,-3.00932 -3.951311,-1.83126 -1.323795,0.50195 2.525633,3.83522 5.305068,7.2697 7.961138,10.93478 1.97604,3.44292 9.562008,19.38512 11.647241,21.48062 z m 15.932025,-18.54863 c 0.478253,-6.4344 -0.104259,-12.77477 0.970597,-19.25193 -0.289568,-4.86694 0.201578,-10.06537 0.628365,-14.97861 -1.743071,-0.87551 -2.479111,5.37757 -2.466937,8.01626 -0.06961,7.10062 -0.668084,13.47852 0.459436,19.98384 -0.524644,2.37228 -0.105488,4.95728 -0.316235,7.07114 0.417489,0.85341 0.773194,-0.71794 0.724774,-0.8407 z m 46.306528,-2.29077 c -1.313129,-5.28654 -2.413094,-10.90526 -5.67262,-15.47164 -2.277293,-0.0558 -2.715405,3.37603 -3.019905,5.18234 0.03086,3.1642 1.430003,6.73964 4.937648,7.7033 1.451616,0.10961 2.797404,3.20702 3.754877,2.586 z m -50.846543,-1.58355 c -1.123945,-2.57968 -4.047241,-4.32677 -6.175201,-6.12978 -2.770357,-0.36279 -4.309043,-3.12032 -3.88784,-5.59779 -0.871131,-3.49734 13.068415,-5.36319 4.853473,-2.0955 -1.811405,-0.64089 -3.220025,1.58637 -3.225747,3.07145 -0.675007,2.59749 2.774441,3.9767 5.006372,3.2551 0.15165,2.65967 3.820933,5.45875 2.126192,1.02188 -1.308724,-2.60028 -1.326142,-5.1293 -2.982132,-7.24607 -0.290118,-3.23819 -1.682997,-7.55327 -3.951501,-10.31065 -2.093593,-2.52808 -2.980065,-5.88589 -5.442397,-8.18161 -2.461094,2.97576 -5.27236,6.0003 -5.758193,9.94677 -0.939825,3.36605 -0.683775,7.10622 1.019426,10.19761 1.457309,3.00618 5.28854,4.43718 7.653873,6.79231 3.18435,2.20904 7.664419,5.19648 10.846652,5.78556 l -0.04375,-0.26861 -0.03915,-0.24067 z m 2.134552,-3.01991 c -0.282037,-3.12832 -0.08569,-6.28855 -1.222402,-9.28718 -1.385987,-3.3656 -3.073458,-7.64854 -5.671361,-11.77269 -1.772674,-2.40637 -3.741573,-7.55985 -6.437922,-7.51677 2.461523,3.19179 3.789962,6.92981 6.306886,10.23494 3.166023,5.66752 5.145299,10.12305 5.942073,16.21118 -0.02017,-0.009 1.11194,3.24694 1.082726,2.13052 z m 35.498597,-15.55715 c 4.265828,-1.41439 0.863281,-6.28563 -1.605683,-6.01916 0.452515,2.38275 -3.201198,3.26937 -2.013603,5.72085 0.732465,2.47847 2.182223,2.13923 3.619286,0.29831 z M 56.94673,968.83841 c 3.425568,-1.04236 4.044724,-7.2907 -0.632999,-4.93457 -3.146137,-0.0347 -2.529378,5.89052 -1.390921,6.47692 0.723875,-0.45356 1.364923,-1.01035 2.02392,-1.54235 z m 12.847421,-0.20207 c 0.672519,-2.45366 0.602836,-5.69271 1.400329,-7.93394 -1.712939,-1.9943 -6.693573,-3.46261 -5.083406,0.81701 4.196325,1.13678 1.209658,5.13804 2.598522,7.55151 0.412315,0.1089 0.861723,-0.0994 1.084555,-0.43458 z"
       id="path2996"
       inkscape:connector-curvature="0"
       sodipodi:nodetypes="cccccccccccccccccccccccccccccccccccccccccccccccccccccccccccccccccccccccccccccccccccccccccccccccccccccccsccccccccccccccccccccccccccccccccccccccccccccccccccccccccccccccccccccccc" />
    <path
       style="color:#000000;fill:#217821;fill-opacity:1;fill-rule:nonzero;stroke:#1a1a1a;stroke-width:1.5;stroke-miterlimit:4;stroke-dasharray:none;marker:none;visibility:visible;display:inline;overflow:visible;enable-background:accumulate"
       d="m 63.391054,1028.2558 c -0.443495,-0.4222 -0.540404,-1.4502 -0.508324,-5.3925 0.07161,-8.7991 -2.106287,-13.1125 -7.14387,-15.9128 -3.38421,-1.8814 -3.830802,-2.4178 -3.520819,-4.2297 0.137657,-0.8047 0.68743,-2.77067 0.840239,-4.31441 0.152809,-1.54373 0.475546,-3.03354 0.717204,-3.31069 0.241648,-0.27714 1.533023,-1.13287 2.869723,-1.90161 1.76746,-1.01647 2.816958,-1.39565 3.84776,-1.39018 1.462182,0.008 4.195046,0.99588 4.637064,1.67663 0.444474,0.68452 4.23938,2.30434 7.958432,3.39697 2.114527,0.62124 3.908704,1.36479 4.308934,1.78574 1.193967,1.25576 0.890187,2.94195 -1.142412,6.34115 -1.005504,1.6816 -2.369109,3.9763 -3.030213,5.0995 -0.661113,1.1232 -1.726591,2.5948 -2.36771,3.2702 -1.409089,1.4847 -2.272779,3.5002 -3.940185,9.1955 -0.696539,2.3792 -1.349932,4.5956 -1.451975,4.9254 -0.297428,0.9612 -1.427695,1.3758 -2.073848,0.7608 z"
       id="path3248"
       inkscape:connector-curvature="0"
       sodipodi:nodetypes="cscsssscssscscsccc" />
    <path
       style="color:#000000;fill:#217821;fill-opacity:1;fill-rule:nonzero;stroke:#1a1a1a;stroke-width:1.5;stroke-miterlimit:4;stroke-dasharray:none;marker:none;visibility:visible;display:inline;overflow:visible;enable-background:accumulate"
       d="m 43.180957,992.44031 c -2.730647,-1.634 -6.476345,-3.84339 -10.393718,-6.86832 -2.518532,-1.94475 -3.457209,-2.91859 -4.225309,-4.38356 -2.725163,-5.19754 -1.825098,-11.33375 2.486752,-16.95361 l 2.002077,-2.60942 0.777499,0.69523 c 0.427625,0.38239 1.33583,1.74072 2.018247,3.01855 0.682417,1.27782 2.020504,3.55382 2.973533,5.05776 2.095471,3.30682 3.951231,6.7678 3.188135,7.7849 -0.187965,0.25052 -1.198093,0.25904 -1.505618,0.26193 -0.307536,0.003 -1.319351,0.46412 -2.2485,1.02498 -1.6637,1.00427 -1.689338,1.04714 -1.688789,2.82504 7.89e-4,2.54459 0.876165,4.0283 2.927271,4.96153 0.917773,0.41758 2.826997,1.81402 4.227176,3.1184 4.011656,3.73722 4.260275,4.93829 -0.538756,2.06659 z"
       id="path4022"
       inkscape:connector-curvature="0"
       sodipodi:nodetypes="sssscsssscsssss" />
    <path
       style="color:#000000;fill:#217821;fill-opacity:1;fill-rule:nonzero;stroke:#1a1a1a;stroke-width:1.5;stroke-miterlimit:4;stroke-dasharray:none;marker:none;visibility:visible;display:inline;overflow:visible;enable-background:accumulate"
       d="m 4.5074982,1019.0536 c -0.8316704,-1.1613 -2.6361448,-6.1052 -2.8394207,-6.9048 -0.3449289,-1.3567 0.5585618,-0.6106 2.639211,1.0259 1.0650587,0.8376 2.427246,1.7518 3.0185269,2.037 3.9573836,1.9086 3.5797856,4.6562 -0.8765843,6.4525 -0.8426267,0.3396 -1.3739226,-1.5301 -1.9417329,-2.6106 z"
       id="path4024"
       inkscape:connector-curvature="0"
       sodipodi:nodetypes="cssssc" />
    <path
       style="color:#000000;fill:#217821;fill-opacity:1;fill-rule:nonzero;stroke:#1a1a1a;stroke-width:1.5;stroke-miterlimit:4;stroke-dasharray:none;marker:none;visibility:visible;display:inline;overflow:visible;enable-background:accumulate"
       d="m 81.357437,975.37215 c -0.765913,-1.40974 -0.676625,-2.02381 0.54346,-3.73763 0.590003,-0.82878 1.072729,-1.71481 1.072729,-1.96898 0,-1.34707 2.777469,0.9122 3.101434,2.52281 0.196804,0.97842 0.05243,1.24638 -1.291736,2.39701 -2.179855,1.86601 -2.766382,2.00072 -3.425887,0.78679 l 0,0 z"
       id="path4026"
       inkscape:connector-curvature="0" />
    <path
       style="color:#000000;fill:#217821;fill-opacity:1;fill-rule:nonzero;stroke:#1a1a1a;stroke-width:1.5;stroke-miterlimit:4;stroke-dasharray:none;marker:none;visibility:visible;display:inline;overflow:visible;enable-background:accumulate"
       d="m 54.419659,969.11782 c -0.598872,-2.91347 0.175161,-4.995 2.886811,-5.25447 1.299556,-0.12435 1.558292,-0.11847 1.911591,0.52568 0.641178,1.16902 -0.629264,3.48102 -2.538048,4.65389 -0.693593,0.42617 -1.343031,1.21432 -1.631471,1.38439 -0.568898,0.33542 -0.449508,-0.43683 -0.628883,-1.30949 z"
       id="path4028"
       inkscape:connector-curvature="0"
       sodipodi:nodetypes="ssssss" />
    <path
       style="color:#000000;fill:#217821;fill-opacity:1;fill-rule:nonzero;stroke:#1a1a1a;stroke-width:1.5;stroke-miterlimit:4;stroke-dasharray:none;marker:none;visibility:visible;display:inline;overflow:visible;enable-background:accumulate"
       d="m 95.954091,993.89727 c -0.406662,-0.54358 -1.361408,-1.22524 -2.121658,-1.51478 -3.175081,-1.20922 -5.213893,-5.25052 -4.438033,-8.79704 0.395626,-1.80845 1.313059,-3.42398 2.083186,-3.66832 0.853484,-0.27079 3.395137,5.47763 4.801419,10.85932 0.418327,1.60086 0.844484,3.18032 0.947026,3.5099 0.290227,0.93283 -0.453134,0.70543 -1.27194,-0.38909 z"
       id="path4030"
       inkscape:connector-curvature="0" />
  </g>
</svg>
