<?xml version="1.0" encoding="UTF-8" standalone="no"?>
<!-- Created with Inkscape (http://www.inkscape.org/) -->

<svg
   xmlns:dc="http://purl.org/dc/elements/1.1/"
   xmlns:cc="http://creativecommons.org/ns#"
   xmlns:rdf="http://www.w3.org/1999/02/22-rdf-syntax-ns#"
   xmlns:svg="http://www.w3.org/2000/svg"
   xmlns="http://www.w3.org/2000/svg"
   xmlns:sodipodi="http://sodipodi.sourceforge.net/DTD/sodipodi-0.dtd"
   xmlns:inkscape="http://www.inkscape.org/namespaces/inkscape"
   width="100"
   height="100"
   id="svg2"
   version="1.1"
   inkscape:version="0.48.4 r9939"
   sodipodi:docname="fatiando-logo.svg"
   inkscape:export-filename="fatiando-logo.png"
   inkscape:export-xdpi="150"
   inkscape:export-ydpi="150">
  <defs
     id="defs4" />
  <sodipodi:namedview
     id="base"
     pagecolor="#ffffff"
     bordercolor="#666666"
     borderopacity="1.0"
     inkscape:pageopacity="0.0"
     inkscape:pageshadow="2"
     inkscape:zoom="1.4"
     inkscape:cx="76.825143"
     inkscape:cy="60.081895"
     inkscape:document-units="px"
     inkscape:current-layer="layer1"
     showgrid="false"
     inkscape:window-width="1366"
     inkscape:window-height="719"
     inkscape:window-x="0"
     inkscape:window-y="25"
     inkscape:window-maximized="1" />
  <metadata
     id="metadata7">
    <rdf:RDF>
      <cc:Work
         rdf:about="">
        <dc:format>image/svg+xml</dc:format>
        <dc:type
           rdf:resource="http://purl.org/dc/dcmitype/StillImage" />
        <dc:title></dc:title>
      </cc:Work>
    </rdf:RDF>
  </metadata>
  <g
     inkscape:label="Layer 1"
     inkscape:groupmode="layer"
     id="layer1"
     transform="translate(0,-952.36218)">
    <g
       id="g2998"
       transform="translate(216.55145,14.852333)">
      <path
         sodipodi:nodetypes="cssssssssscc"
         inkscape:connector-curvature="0"
         id="path4036-2-4"
         d="m -181.25736,1000.4727 c -1.16974,-1.02629 -7.3182,-13.49629 -9.51905,-17.48213 -1.39826,-2.5323 -2.79872,-4.30225 -4.6377,-6.77084 -1.36943,-1.83827 -3.20441,-4.2848 -4.07774,-5.51082 -0.87334,-1.22604 -1.97615,-2.67309 -2.2172,-2.99347 -0.50746,-0.67443 0.0832,-1.25721 0.48011,-1.40213 0.4388,-0.16028 1.14515,0.23118 1.48272,0.82172 0.16877,0.29525 1.48683,1.66454 2.92902,3.0429 2.79473,2.67105 3.75857,3.75212 6.13178,6.87757 2.85333,3.75775 3.72079,5.12496 4.87218,7.67899 1.06506,2.36252 5.23087,13.88272 5.23363,15.11982 0.004,1.77189 0.38996,1.55519 -0.67775,0.61839 z"
         style="color:#000000;fill:#b3b3b3;fill-opacity:1;fill-rule:nonzero;stroke:#b3b3b3;stroke-width:1;stroke-miterlimit:4;stroke-dasharray:none;marker:none;visibility:visible;display:inline;overflow:visible;enable-background:accumulate" />
      <path
         inkscape:connector-curvature="0"
         id="path4020-0-9"
         d="m -171.66536,973.26658 c -0.35618,-0.44448 -0.7202,-1.15362 -0.80891,-1.57583 -0.15487,-0.73699 -0.21136,-0.76767 -1.41315,-0.76767 -1.39547,0 -3.098,-0.69716 -3.51539,-1.43947 -0.42136,-0.74942 -0.30508,-2.38074 0.24256,-3.40247 0.60442,-1.1277 0.8109,-1.2653 2.19979,-1.46591 1.05477,-0.15236 1.07552,-0.14116 1.60442,0.86685 0.69556,1.32566 2.82178,7.41338 2.82178,8.07926 0,0.73539 -0.38627,0.63473 -1.1311,-0.29476 l 0,0 z"
         style="color:#000000;fill:#164184;fill-opacity:1;fill-rule:nonzero;stroke:#164184;stroke-width:1;stroke-miterlimit:4;stroke-dasharray:none;marker:none;visibility:visible;display:inline;overflow:visible;enable-background:accumulate" />
      <path
         sodipodi:nodetypes="csssscsssssssssssssssssssssssssccscsscsssssssssssscssssssscsssssssssssssssssssccssssscssscc"
         inkscape:connector-curvature="0"
         id="path4018-4-5"
         d="m -180.99577,1031.3105 c -2.75278,-0.3798 -3.91678,-0.7731 -7.92458,-2.6773 -4.91889,-2.3372 -8.09751,-4.6177 -10.82139,-7.7638 -0.79246,-0.9153 -2.57549,-2.8875 -3.9623,-4.3826 -5.21205,-5.6192 -6.41549,-7.8327 -4.94639,-9.0982 0.8815,-0.7594 3.70116,-1.9411 4.65313,-1.9502 1.23393,-0.3147 7.90344,5.8708 11.79992,9.6037 1.39386,1.3354 2.97104,2.0931 3.18507,2.021 0.68279,-0.2301 0.33181,-3.3322 -0.49789,-4.4003 -0.41851,-0.5388 -5.37074,-6.9502 -6.22069,-8.6926 -0.84995,-1.7424 -2.01294,-3.8622 -2.58444,-4.71079 -0.90576,-1.3448 -1.04121,-1.8768 -1.0556,-4.1457 -0.0145,-2.2814 -0.15095,-2.8106 -1.10524,-4.2857 -0.86316,-1.3342 -1.54665,-1.8959 -3.29898,-2.7114 -1.91807,-0.8926 -2.44873,-1.3685 -4.01423,-3.60001 -1.89803,-2.7055 -3.76763,-6.09182 -4.59362,-8.32013 -0.45596,-1.23008 -0.4213,-1.50125 0.47082,-3.68382 1.17895,-2.88432 3.71541,-7.28324 4.63701,-7.4466 1.29411,-0.22939 2.73936,1.10208 6.36388,5.69708 4.83544,6.13023 8.02279,10.71493 10.63417,15.29638 4.04725,7.1003 10.5366,19.83549 10.98208,19.83549 1.37994,0 -3.73462,-22.92754 -6.02124,-28.68402 -0.50996,-1.28381 -1.65333,-3.55227 -2.54085,-5.04105 -0.88752,-1.48876 -2.84172,-5.06695 -4.3427,-7.95151 -1.50096,-2.88458 -3.06419,-5.58569 -3.47383,-6.00249 -0.9841,-1.00129 -0.71399,-3.10036 0.61188,-4.75494 0.91969,-1.14769 8.94648,-8.41207 9.65907,-8.66612 0.18783,-0.067 -1.16118,1.93177 -2.06222,3.18446 -2.56255,3.5627 -3.2716,6.2056 -3.2716,12.19442 0,5.4885 0.27926,6.40737 2.76683,9.10409 2.78393,3.01801 13.01852,9.52646 16.2255,10.31827 1.02257,0.25248 1.96554,0.57573 2.0955,0.71836 0.88629,0.97271 1.52333,3.88549 1.9442,8.88964 -0.22499,1.5186 0.43478,2.3892 1.10849,2.5363 0.67594,0.1476 1.36592,-0.4329 1.19036,-1.8179 -0.0839,-2.1802 1.86521,2.0001 4.60717,3.5306 4.06507,2.2689 6.23672,7.90589 5.81532,15.38459 -0.10159,1.8034 -0.10707,3.7681 -0.0115,4.366 0.24259,1.5264 1.32125,2.5129 2.74759,2.5129 1.97611,0 2.84789,-1.2734 4.533,-6.6216 1.94015,-6.1577 2.5941,-7.6927 4.2958,-10.08459 0.77463,-1.0887 1.93535,-2.9824 2.5794,-4.2081 0.64402,-1.2258 1.77087,-3.0772 2.50407,-4.1144 2.31455,-3.2738 2.69062,-5.2747 1.44993,-7.71422 -0.83805,-1.64781 -2.51,-2.65703 -5.33484,-3.22023 -2.52342,-0.50309 -6.27913,-2.05638 -8.60872,-3.56037 -1.03215,-0.66637 -2.51325,-1.31393 -3.29136,-1.43906 -1.76439,-0.28373 -4.03206,0.27585 -5.35176,1.32065 -1.93223,1.5297 -3.70853,1.73401 -4.72122,1.97986 -4.86724,1.18163 0.17191,-2.9119 0.45955,-7.76652 0.1899,-3.20569 0.34756,-6.99342 0.35037,-8.30804 0.002,-1.4491 1.02475,-3.95974 1.35749,-4.58928 0.30186,-0.5711 2.25102,-1.17695 4.11321,-2.8741 3.35625,-3.05878 3.38575,-3.10005 3.38146,-4.72986 -0.006,-2.19227 -1.25423,-3.51479 -2.99743,-3.17527 -2.95445,0.57549 -2.92959,0.5902 -3.15325,-1.86629 -0.11166,-1.22571 -0.67895,-2.61869 -0.76545,-2.88597 -0.31326,-0.96781 2.35691,-1.03905 5.61994,-0.38725 l 3.01377,0.60198 c 2.34789,0.72004 0.0964,1.44008 0.14451,2.16011 0.11267,1.68398 0.39926,2.55022 1.30029,3.92984 0.985,1.50816 1.15581,2.09209 1.15581,3.951 0,2.6264 0.50134,3.25887 2.58321,3.25887 1.17003,0 1.68836,-0.22582 2.67583,-1.16571 1.16493,-1.10881 1.22471,-1.28566 1.22471,-3.62254 0,-2.45509 0.39925,-3.78317 1.13731,-3.78317 0.58501,0 5.59672,2.51285 6.61476,3.78327 0.48774,0.60869 1.7382,2.09804 1.7382,2.3981 0,0.30008 -1.41047,2.38402 -2.20293,3.57837 -1.96113,2.95563 -2.73648,3.2879 -0.63694,5.46457 1.45265,1.50603 1.71868,1.64534 2.76245,1.44664 0.63524,-0.12095 1.97859,-0.81284 2.98519,-1.53758 2.50409,-1.80291 3.02978,-1.93618 4.04747,-1.02618 0.46448,0.41535 0.84451,1.02339 0.84451,1.3512 0,0.32784 -0.97256,1.53626 -2.16125,2.68537 -2.44302,2.36173 -2.60998,3.04381 -1.62555,6.64118 0.90365,3.30224 2.29198,4.97525 5.94806,7.16766 4.63156,2.77738 7.44425,8.80987 5.32362,14.40607 -0.47314,1.2485 -1.20324,4.8587 -1.82201,7.02729 -0.71483,5.6674 -3.82971,8.7354 -5.2675,12.0146 -4.54858,6.8318 -3.01389,5.146 -8.03833,9.1638 -6.95386,5.5607 -5.97983,5.8714 -8.09633,5.8714 -3.47279,0 -6.64692,-2.589 -8.55746,-6.0496 -0.72455,-1.3124 -1.4649,-2.3863 -1.64524,-2.3863 -0.54561,0 -1.01874,1.1508 -1.27958,3.1122 -0.45317,3.4076 -1.71573,5.4583 -3.36195,5.4607 -1.26609,0 -11.11215,1.591 -12.46142,2.0113 -0.59434,0.1852 -1.8498,0.4346 -2.7899,0.5542 -1.02461,0.1304 -2.1276,0.5526 -2.75356,1.0539 -1.16453,0.9327 -1.40622,0.9455 -5.96809,0.316 z"
         style="color:#000000;fill:#164184;fill-opacity:1;fill-rule:nonzero;stroke:#164184;stroke-width:1.00125003;stroke-miterlimit:4;stroke-dasharray:none;marker:none;visibility:visible;display:inline;overflow:visible;enable-background:accumulate" />
      <path
         inkscape:connector-curvature="0"
         id="path4032-0-0"
         d="m -201.77556,994.10451 c -0.19583,-0.1637 -0.50913,-0.6247 -0.98191,-1.4448 -0.47645,-0.8265 -0.44343,-0.7829 -0.96983,-1.2812 -0.25223,-0.2387 -0.5207,-0.5273 -0.59661,-0.6412 -0.38648,-0.58 0.0709,-0.6922 1.03017,-0.2523 0.96537,0.4424 1.70176,1.1096 1.94733,1.7641 0.089,0.2373 0.0907,0.2778 0.0387,0.955 -0.0533,0.695 -0.12503,0.979 -0.25708,1.0178 -0.0285,0.01 -0.12351,-0.044 -0.21079,-0.1174 z"
         style="color:#000000;fill:#217821;fill-opacity:1;fill-rule:nonzero;stroke:#1a1a1a;stroke-width:1;stroke-miterlimit:4;stroke-dasharray:none;marker:none;visibility:visible;display:inline;overflow:visible;enable-background:accumulate" />
      <path
         sodipodi:nodetypes="sssssssscs"
         inkscape:connector-curvature="0"
         id="path4034-9-5"
         d="m -190.79436,1014.6292 c -2.55388,-1.3534 -13.54196,-12.1012 -15.02275,-13.6169 -0.6351,-0.65 -2.105,-1.94829 -3.26645,-2.88509 -2.03145,-1.6384 -3.10704,-2.7073 -3.58009,-3.5578 -0.12249,-0.2202 -0.18591,-0.4354 -0.14097,-0.4782 0.11943,-0.1137 2.18374,0.6518 3.63969,1.3497 1.91069,0.9159 3.06503,1.8384 7.39359,5.90859 2.89899,2.7259 11.32891,12.0579 11.74251,12.7774 0.33097,0.5758 0.47686,0.9844 0.3508,0.9825 -0.11866,0 -0.62105,-0.2177 -1.11633,-0.4802 z"
         style="color:#000000;fill:#b3b3b3;fill-opacity:1;fill-rule:nonzero;stroke:#b3b3b3;stroke-width:1;stroke-miterlimit:4;stroke-dasharray:none;marker:none;visibility:visible;display:inline;overflow:visible;enable-background:accumulate" />
      <path
         sodipodi:nodetypes="cssscssscccc"
         inkscape:connector-curvature="0"
         id="path4038-9-5"
         d="m -169.97191,969.9767 c -2.46648,-8.0521 -4.34154,-11.78003 -5.20355,-13.2433 -0.64425,-1.09366 -2.15309,-3.62188 -3.45282,-5.69954 -0.53084,-0.84857 -2.50935,-2.9713 -2.11053,-3.71881 l 0.2555,-0.47888 0.51776,0.12147 c 1.88837,0.44275 3.90548,4.55704 6.3861,8.54561 1.77512,2.85417 4.22932,7.1473 4.92213,8.86659 0.25896,0.64264 0.76254,2.16853 1.08354,3.03139 0.44048,7.35865 1.6201,12.89612 1.17409,14.9325 -1.54513,0.1156 -1.73178,-6.02607 -3.57222,-12.35696 z"
         style="color:#000000;fill:#b3b3b3;fill-opacity:1;fill-rule:nonzero;stroke:#b3b3b3;stroke-width:1;stroke-miterlimit:4;stroke-dasharray:none;marker:none;visibility:visible;display:inline;overflow:visible;enable-background:accumulate" />
      <path
         sodipodi:nodetypes="csssssssscc"
         inkscape:connector-curvature="0"
         id="path4040-6-8"
         d="m -165.60475,977.89187 c 0.004,-1.46143 -0.0142,-0.28622 0.0659,-0.8048 0.0969,-0.62803 0.0855,-1.39946 -0.0718,-2.3143 -1.23388,-7.17821 -0.50005,-12.56491 -0.19824,-17.77741 0.0477,-0.82423 -0.0269,-2.61677 0.0556,-4.61553 0.17179,-4.1593 1.24309,-6.9312 1.44783,-7.63862 0.44894,-1.55124 1.4915,-0.6391 1.22462,0.51428 -0.0916,0.39572 -0.47482,7.14 -0.5294,10.62858 -0.0567,3.62244 -0.20755,7.26192 -0.3518,8.4857 -0.40284,3.4178 -0.55233,3.93391 -0.62484,9.08572 0.37459,9.92647 2.45925,7.07418 -1.01788,4.43638 z"
         style="color:#000000;fill:#b3b3b3;fill-opacity:1;fill-rule:nonzero;stroke:none;stroke-width:0.98399234;marker:none;visibility:visible;display:inline;overflow:visible;enable-background:accumulate" />
      <path
         inkscape:connector-curvature="0"
         id="path4062-1-1"
         d="m -147.54802,953.29682 c -0.10758,-0.32626 -0.17231,-1.60975 -0.14778,-2.93134 0.0503,-2.71276 -0.0835,-3.05268 -1.48327,-3.76777 -0.84496,-0.43165 -1.02991,-0.70733 -1.04982,-1.56476 -0.0199,-0.85751 0.42353,-1.33436 1.24087,-1.33436 0.96163,0 2.49215,0.60562 3.27934,1.29763 0.6244,0.5489 0.64746,0.60818 0.46777,1.20238 -0.10401,0.34374 -0.34443,1.75818 -0.53438,3.14322 -0.44655,3.25622 -0.62738,4.02878 -1.00807,4.30716 -0.457,0.33416 -0.55285,0.29001 -0.76466,-0.35218 z"
         style="color:#000000;fill:#ffffff;fill-opacity:1;fill-rule:nonzero;stroke:none;stroke-width:0.5;marker:none;visibility:visible;display:inline;overflow:visible;enable-background:accumulate" />
      <path
         inkscape:connector-curvature="0"
         id="path4064-9-9"
         d="m -169.75356,1033.1471 c -1.80215,-0.2638 -3.04303,-0.7029 -2.76687,-0.9791 0.19616,-0.1961 3.48148,-1.1394 5.24365,-1.5057 0.89396,-0.1856 3.78682,-0.5874 6.42857,-0.8927 5.18239,-0.599 7.8458,-1.0898 8.27951,-1.5258 0.21322,-0.2144 0.27368,-0.7173 0.27368,-2.2763 0,-1.1006 0.063,-2.1732 0.13984,-2.3836 0.17298,-0.4731 0.84231,-0.6973 0.84231,-0.2821 0,0.6428 0.77877,1.8423 1.57578,2.4271 0.45922,0.337 1.57898,0.9333 2.48835,1.3253 0.90939,0.3919 1.87057,0.8549 2.13594,1.0288 l 0.48252,0.3161 -1.32636,0.6032 c -4.69109,2.1333 -10.08773,3.521 -15.83316,4.0714 -2.99687,0.2871 -6.29624,0.3174 -7.96376,0.073 z"
         style="color:#000000;fill:#ffffff;fill-opacity:1;fill-rule:nonzero;stroke:#1a1a1a;stroke-width:0.5;marker:none;visibility:visible;display:inline;overflow:visible;enable-background:accumulate" />
      <path
         sodipodi:nodetypes="ccccccccccccccccccccccsccccccccccccccccccccccsscccccccccccccccccsccccccccccccccccccccccccccccccccccccccccccsccccccccccccccccccccccccssccccccccccccccccccccccccccccccccccccccccccc"
         inkscape:connector-curvature="0"
         id="path2996-2-2"
         d="m -171.81665,1035.0907 c -5.39079,-1.1457 -11.1192,-1.4077 -15.97083,-4.0992 -8.41787,-2.641 -13.59569,-9.9171 -19.15261,-16.0356 -3.00614,-3.3686 -4.4494,-7.5152 -6.38865,-11.4875 -1.19669,-3.1708 -5.52313,-10.91889 -0.39117,-10.95959 4.61496,0.8242 9.35915,4.8781 11.84258,5.5847 -2.02358,-4.3561 -4.7685,-8.3295 -7.25063,-12.4481 -1.26061,-4.05094 -6.88235,-7.7326 -5.17957,-11.7072 1.95428,-3.98054 3.36365,-8.38342 6.93622,-11.30587 0.45806,-0.30488 1.2334,-0.48804 1.92129,-0.27316 6.26167,2.28608 10.61077,7.61003 14.70799,12.46803 1.04333,1.40205 4.88445,7.29648 2.96175,2.27085 -2.12473,-3.80952 -3.36922,-7.9699 -5.54127,-11.73642 -0.86784,-3.74357 -3.23525,-5.86531 -4.22749,-8.26463 -0.30946,-0.56767 -0.0161,-2.10667 0.15114,-2.5848 0.16242,-1.20312 8.71485,-9.67181 12.16958,-11.49806 0.86107,-0.53605 1.84053,-0.48066 2.52345,-0.14919 2.56628,1.11993 5.58349,4.99039 7.61125,7.47153 4.79755,6.88621 7.26491,13.53832 7.74893,13.57854 0.22108,-6.26821 -0.41491,-16.84834 1.89091,-22.29316 1.77495,-2.33338 7.13686,-1.8582 9.98055,-1.55699 5.86496,0.93303 10.70226,2.23898 16.05572,5.9438 1.85864,1.16864 3.51998,2.5338 5.14877,3.86116 3.29344,2.68394 5.83802,6.23919 9.04558,9.79737 2.05514,2.7301 3.23713,4.39776 4.64961,7.05217 1.24252,2.74504 2.01859,5.47195 2.64568,8.60119 0.9454,6.83453 0.6091,4.72663 0.99761,9.97887 -0.30724,10.4808 -2.91709,19.43586 -8.50616,27.89366 -5.16501,6.8464 -8.57049,10.6264 -13.43992,14.3605 -3.85452,2.6966 -8.36107,4.4885 -13.09795,5.6235 -6.38986,1.8634 -13.19778,2.2751 -19.84231,1.9136 z m 9.40785,-1.844 c 6.24026,-0.4895 12.36545,-2.0813 17.91936,-4.7972 -1.28594,-1.6535 -6.4218,-1.6315 -6.78667,-5.5011 -2.65495,-0.014 0.44851,5.0474 -2.06033,5.602 -5.67406,1.4154 -11.66707,0.9582 -17.39484,2.8869 -5.47678,1.1509 2.03037,2.1373 4.08633,1.979 1.41431,0.045 2.82835,-0.048 4.23615,-0.1696 z m -12.62934,-2.0712 c 1.91727,-1.7805 4.54282,-0.7126 6.89716,-2.0498 3.17098,-0.1807 7.01036,-1.2981 10.51952,-1.5762 2.09084,0.3137 3.12159,-0.8863 3.79832,-3.4558 0.3651,-2.5733 0.67136,-7.9877 2.73918,-3.0201 1.31949,4.1463 8.23625,7.5409 11.81821,4.4112 1.54949,-0.3437 2.82834,-1.996 4.53782,-3.5699 1.73721,-1.5995 3.27953,-3.2694 4.78304,-5.4824 2.40218,-3.5358 4.33865,-5.1916 6.06096,-9.1372 2.60799,-5.105 3.95833,-9.64699 5.18032,-15.85719 1.01739,-4.8982 -1.32544,-11.41811 -6.4809,-13.44936 -3.8348,-2.02043 -5.29352,-6.10124 -5.54413,-10.03448 0.76183,-2.98515 7.34782,-4.90513 3.42097,-7.52575 -2.98526,-2.15609 -6.52302,6.54092 -9.85745,1.20983 -3.66928,-2.77844 1.44937,-5.73976 2.65096,-8.32804 0.66426,-1.65311 -5.06944,-4.94388 -7.72622,-6.77673 -1.63132,-0.61194 -1.97719,3.04813 -1.6627,4.3302 0.6458,2.51881 -2.06829,4.88035 -4.61811,4.42837 -2.92614,-0.63419 -0.43627,-4.17291 -1.82021,-5.94984 -1.85262,-2.35203 -3.04304,-3.84659 -1.87821,-6.24308 -2.45973,-0.59588 -8.53012,-2.34459 -9.63149,-0.12824 2.13454,1.11654 -0.32191,4.66905 2.43639,4.26572 4.07894,-2.86147 6.66513,3.19274 3.33834,5.52073 -3.10704,3.03955 -7.18523,3.2842 -7.34363,9.3961 -0.31198,3.92528 -0.2645,5.65991 -0.55112,9.43169 0.16661,1.74554 -0.56664,4.69758 0.11229,5.78587 0.727,1.16534 2.90304,0.36387 4.1952,-1.00235 3.25353,-2.47433 7.15061,-1.8951 9.98508,0.93318 4.36143,1.79456 4.60003,2.20374 9.24983,3.05058 4.70727,1.29697 5.21203,6.5132 2.23013,9.7084 -2.12155,2.4437 -2.90153,5.683 -4.86591,8.1679 -2.87425,3.41629 -3.0261,5.26529 -4.45751,9.54059 -1.30698,2.9501 -1.04313,7.8074 -5.00224,7.8498 -3.73898,-0.4954 -1.9779,-5.7142 -2.31402,-8.2024 0.27801,-4.506 -0.80633,-9.37929 -3.83266,-12.93129 -2.72491,-1.5249 -7.13934,-5.0134 -6.04225,0.7384 -2.77324,3.9522 -2.69315,-5.2799 -2.87234,-7.1388 0.0226,-2.8895 -0.55539,-5.8127 -2.06496,-8.33004 -3.80872,0.0941 -6.57539,-2.69009 -9.7864,-4.21296 -3.88066,-3.15454 -9.2555,-5.31964 -10.88619,-10.32418 -1.25353,-5.36722 -0.4232,-11.31763 2.21635,-16.21275 1.20978,-1.16734 5.20015,-6.39497 1.21832,-2.9852 -3.28299,3.21485 -10.7291,6.91761 -9.58715,11.58495 1.75554,1.7194 2.28495,2.98514 3.25545,5.20559 2.29014,4.17368 4.3589,8.44933 6.98699,12.42304 2.84892,6.59708 5.8751,19.10535 6.76174,26.10444 0.62173,1.5694 0.70965,5.1602 -1.97669,2.1772 -2.55074,-3.53499 -8.21333,-10.94769 -10.1868,-18.87076 -2.37966,-4.03401 -5.02421,-7.64799 -7.87277,-11.44008 -2.55113,-2.50278 -4.80531,-9.06052 -8.08838,-8.17977 -2.22272,3.05954 -4.75205,6.36674 -5.48315,10.01416 1.48134,4.43853 4.1701,8.92897 7.22604,12.42256 4.52472,0.8407 7.99512,5.5713 6.14024,9.8653 2.33824,3.29399 9.56258,13.52729 11.32798,17.13409 1.82027,1.3094 2.59197,6.9673 -0.44529,3.7843 -3.25263,-2.0158 -11.60033,-12.4062 -15.45478,-13.1614 -3.59396,1.1266 -7.69569,2.88 -3.71787,6.5255 2.45623,4.1851 6.59462,7.1333 9.49376,11.0194 2.36819,1.9164 4.50477,4.0955 7.41951,5.2669 3.47495,1.5251 6.85745,3.7849 10.84523,3.6005 1.56719,-0.048 4.21622,1.4417 5.20622,-0.3204 z m 28.6914,-31.50309 c 3.24601,-2.4301 4.12189,-6.3747 6.47338,-9.4403 1.61151,-2.1189 3.53169,-5.60411 0.52848,-7.54397 -4.78767,-1.7324 -5.69555,-1.33575 -10.34193,-3.60882 -3.16677,-2.9048 -7.18725,-3.99194 -10.57591,-0.70394 -4.48759,0.99189 -2.23452,5.02315 -3.41837,7.97413 -2.33362,4.3894 4.34717,5.2071 6.52907,7.5789 4.16977,5.1845 4.214,12.08079 3.50401,18.25429 0.83359,2.4957 2.76307,1.4075 3.12667,0.332 1.44643,-4.2787 2.39768,-9.2837 4.1746,-12.84229 z m -43.47427,15.37669 c -1.63049,-3.6905 -12.1912,-13.7753 -15.00269,-16.65469 -2.18215,-2.3777 -5.31356,-3.692 -8.40511,-4.6402 1.19581,3.1534 6.13127,5.3173 8.37475,8.44119 2.19635,1.5357 13.85124,13.1467 15.03305,12.8537 z m -20.09742,-8.8909 c 5.63797,-0.8327 4.01913,-5.4554 -0.0859,-6.90779 -1.76491,-1.2397 -6.42434,-5.8433 -4.41673,-0.8747 1.14989,2.59979 1.95236,6.08659 3.98511,7.94329 z m 8.61118,-13.01469 c 0.88455,-2.3314 -5.87415,-4.5948 -1.97139,-1.3142 0.5002,0.7034 2.04658,4.1652 1.97139,1.3142 z m 20.48717,7.72589 c 0.37824,-3.24049 -4.88384,-15.74379 -5.85726,-18.28504 -1.40115,-2.70877 -3.30881,-4.4794 -5.32229,-7.4632 -2.04154,-2.57954 -4.57944,-5.0118 -7.12789,-7.21019 -1.40294,-3.01309 -3.95626,-1.83355 -1.32545,0.50257 2.52878,3.84002 5.31169,7.27879 7.97109,10.94846 1.97851,3.44722 9.57396,19.40931 11.6618,21.5074 z m 16.50677,-54.61542 c -1.20546,-0.39679 -1.36358,7.21907 -1.4239,9.79662 -0.15663,4.00654 -0.40515,3.21425 -0.20626,3.67521 0.18657,0.43242 0.44297,4.11345 0.56711,3.76822 0.69855,-1.94249 0.81228,-13.33803 1.06305,-17.24005 z m 45.80958,33.75004 c -1.31477,-5.29316 -2.41611,-10.9189 -5.67972,-15.49098 -2.28013,-0.0558 -2.71879,3.38024 -3.02367,5.18881 0.0308,3.16816 1.43179,6.74807 4.94381,7.71293 1.45344,0.10974 2.8009,3.21103 3.75958,2.58924 z m -50.9101,-1.58553 c -1.12536,-2.58291 -4.05231,-4.33219 -6.18293,-6.13744 -2.77381,-0.36325 -4.31443,-3.12422 -3.89269,-5.60479 -0.87223,-3.50172 13.08474,-5.3699 4.85954,-2.09812 -1.81367,-0.64169 -3.22406,1.58835 -3.22978,3.07529 -0.67585,2.60074 2.7779,3.98167 5.01263,3.25916 0.15184,2.663 3.82571,5.46558 2.12884,1.02316 -1.31036,-2.60353 -1.32779,-5.1357 -2.98586,-7.25512 -0.29048,-3.24225 -1.6851,-7.56272 -3.95644,-10.32354 -2.0962,-2.53125 -2.98378,-5.89325 -5.4492,-8.19184 -2.46416,2.97948 -5.27895,6.0078 -5.76538,9.9592 -0.941,3.37026 -0.68463,7.11511 1.02069,10.21036 1.45914,3.00994 5.29516,4.44273 7.66344,6.8008 3.18833,2.21181 7.674,5.20297 10.86021,5.79279 l -0.0438,-0.26894 -0.0391,-0.24097 z m 2.12034,-10.95448 c -1.38773,-3.3698 -4.28436,-9.0261 -6.8855,-13.1554 -1.7749,-2.40938 -4.22908,-8.21306 -6.9288,-8.16993 0.73185,3.7156 3.53767,8.11801 6.2343,11.37432 3.16998,5.67461 7.35204,18.72552 8.14982,24.82126 0.49477,-2.18277 -0.40037,-13.02239 -0.56982,-14.87025 z m 35.55984,-7.6458 c 4.27117,-1.41617 0.86437,-6.29349 -1.60769,-6.02669 0.45308,2.38573 -3.20519,3.27346 -2.01612,5.728 0.73338,2.48157 2.18496,2.1419 3.62381,0.29869 z m -27.48359,-6.17399 c 3.42985,-1.04367 4.04978,-7.29981 -0.63379,-4.94074 -3.15007,-0.0348 -2.84821,5.92946 -1.70834,6.51658 0.72478,-0.45412 1.68231,-1.04318 2.34213,-1.57584 z m 12.86348,-0.20233 c 0.67336,-2.45672 0.60359,-5.69982 1.40208,-7.94386 -1.71508,-1.99678 -6.70194,-3.46693 -5.08976,0.81804 4.20158,1.13819 1.21117,5.14447 2.60177,7.56095 0.41284,0.1091 0.8628,-0.0996 1.08591,-0.43513 z"
         style="fill:#1a1a1a" />
      <path
         sodipodi:nodetypes="cscsssscssscscsccc"
         inkscape:connector-curvature="0"
         id="path3248-6-5"
         d="m -152.76485,1013.1359 c -0.44406,-0.4228 -0.54109,-1.452 -0.50897,-5.3993 0.0718,-8.81009 -2.10891,-13.12889 -7.1528,-15.93269 -3.38844,-1.8837 -3.83559,-2.4208 -3.52521,-4.2349 0.13783,-0.8058 0.68828,-2.77419 0.84128,-4.31985 0.15301,-1.54566 0.47615,-3.03733 0.7181,-3.31484 0.24196,-0.27747 1.53495,-1.13427 2.87331,-1.90398 1.76967,-1.01774 2.82049,-1.39739 3.85257,-1.39191 1.46401,0.008 4.20029,0.99712 4.64286,1.67871 0.44503,0.68539 4.24468,2.30723 7.96838,3.40123 2.11717,0.62201 3.91359,1.36649 4.31432,1.78797 1.19546,1.25733 0.89131,2.94567 -1.14383,6.34907 -1.00677,1.6837 -2.37208,3.9813 -3.03401,5.1059 -0.66194,1.1246 -1.72874,2.598 -2.37066,3.2743 -1.41086,1.4865 -2.27563,3.50449 -3.94512,9.20699 -0.69741,2.3821 -1.35162,4.6013 -1.45379,4.9315 -0.29779,0.9624 -1.42948,1.3775 -2.07643,0.7618 z"
         style="color:#000000;fill:#5aa02c;fill-opacity:1;fill-rule:nonzero;stroke:#1a1a1a;stroke-width:1.50187492;stroke-miterlimit:4;stroke-dasharray:none;marker:none;visibility:visible;display:inline;overflow:visible;enable-background:accumulate" />
      <path
         sodipodi:nodetypes="sssscsssscsssss"
         inkscape:connector-curvature="0"
         id="path4022-9-7"
         d="m -173.00022,977.27562 c -2.73406,-1.63604 -6.48444,-3.8482 -10.4067,-6.8769 -2.52169,-1.94718 -3.46153,-2.92224 -4.2306,-4.38904 -2.72857,-5.20404 -1.82737,-11.34793 2.48986,-16.9748 l 2.00459,-2.61268 0.77846,0.69608 c 0.42816,0.38288 1.3375,1.74291 2.02078,3.02234 0.68326,1.27941 2.02303,3.55825 2.97725,5.06408 2.09809,3.31095 3.95616,6.77626 3.19211,7.79463 -0.1882,0.25084 -1.19958,0.25936 -1.5075,0.26226 -0.30791,0.003 -1.321,0.4647 -2.25131,1.02625 -1.66578,1.00553 -1.69145,1.04845 -1.6909,2.82857 7.9e-4,2.54778 0.87726,4.03334 2.93093,4.96774 0.91893,0.4181 2.83053,1.81628 4.23246,3.1223 4.01667,3.74188 4.2656,4.94446 -0.53943,2.06917 z"
         style="color:#000000;fill:#5aa02c;fill-opacity:1;fill-rule:nonzero;stroke:#1a1a1a;stroke-width:1.50187492;stroke-miterlimit:4;stroke-dasharray:none;marker:none;visibility:visible;display:inline;overflow:visible;enable-background:accumulate" />
      <path
         sodipodi:nodetypes="cssssc"
         inkscape:connector-curvature="0"
         id="path4024-9-0"
         d="m -211.72201,1003.9222 c -0.83271,-1.1628 -2.63945,-6.11289 -2.84297,-6.91349 -0.34537,-1.3584 0.55926,-0.6113 2.6425,1.0272 1.06639,0.8387 2.43029,1.754 3.02231,2.03959 3.96232,1.9109 3.58425,4.662 -0.87768,6.4605 -0.84369,0.3401 -1.37565,-1.532 -1.94416,-2.6138 z"
         style="color:#000000;fill:#5aa02c;fill-opacity:1;fill-rule:nonzero;stroke:#1a1a1a;stroke-width:1.50187492;stroke-miterlimit:4;stroke-dasharray:none;marker:none;visibility:visible;display:inline;overflow:visible;enable-background:accumulate" />
      <path
         sodipodi:nodetypes="ccsssc"
         inkscape:connector-curvature="0"
         id="path4026-8-1"
         d="m -136.91888,960.18612 c -0.76686,-1.4115 0.30468,-2.2942 1.52629,-4.01015 0.59075,-0.82982 2.23478,-1.4491 2.23478,-1.70359 0,-1.34876 3.85237,1.44905 4.17674,3.06168 0.19705,0.97964 -0.89566,0.84227 -2.00763,2.22143 -2.65153,3.28865 -5.10952,2.34079 -5.93018,0.43063 z"
         style="color:#000000;fill:#5aa02c;fill-opacity:1;fill-rule:nonzero;stroke:#1a1a1a;stroke-width:1.50187492;stroke-miterlimit:4;stroke-dasharray:none;marker:none;visibility:visible;display:inline;overflow:visible;enable-background:accumulate" />
      <path
         sodipodi:nodetypes="ssssss"
         inkscape:connector-curvature="0"
         id="path4028-1-3"
         d="m -162.56822,953.7977 c -0.19052,-3.9902 0.70363,-5.72044 3.86901,-5.45044 1.30241,0.11115 1.97062,0.13389 2.32435,0.77889 0.64199,1.17047 -1.19826,3.54849 -3.10943,4.72283 -0.69446,0.4267 -2.07073,1.91034 -2.35955,2.0806 -0.56974,0.33587 -0.67707,-1.14113 -0.72438,-2.13188 z"
         style="color:#000000;fill:#5aa02c;fill-opacity:1;fill-rule:nonzero;stroke:#1a1a1a;stroke-width:1.50187492;stroke-miterlimit:4;stroke-dasharray:none;marker:none;visibility:visible;display:inline;overflow:visible;enable-background:accumulate" />
      <path
         sodipodi:nodetypes="sssssss"
         inkscape:connector-curvature="0"
         id="path4030-9-3"
         d="m -120.16112,978.7344 c -0.40717,-0.54426 -1.36311,-1.22677 -2.12431,-1.51667 -3.17904,-1.21073 -7.00612,-5.70352 -6.2293,-9.25447 0.39613,-1.81071 4.17185,-3.42826 4.94294,-3.6729 0.85456,-0.27113 3.39938,5.66304 4.80742,11.05145 0.41885,1.60287 -0.22588,3.45217 -0.12321,3.78216 0.29059,0.93399 -0.4537,0.70631 -1.27354,-0.38957 z"
         style="color:#000000;fill:#5aa02c;fill-opacity:1;fill-rule:nonzero;stroke:#1a1a1a;stroke-width:1.50187492;stroke-miterlimit:4;stroke-dasharray:none;marker:none;visibility:visible;display:inline;overflow:visible;enable-background:accumulate" />
    </g>
  </g>
</svg>
