<?xml version="1.0" encoding="UTF-8" standalone="no"?>
<!-- Created with Inkscape (http://www.inkscape.org/) -->

<svg
   xmlns:dc="http://purl.org/dc/elements/1.1/"
   xmlns:cc="http://creativecommons.org/ns#"
   xmlns:rdf="http://www.w3.org/1999/02/22-rdf-syntax-ns#"
   xmlns:svg="http://www.w3.org/2000/svg"
   xmlns="http://www.w3.org/2000/svg"
   xmlns:sodipodi="http://sodipodi.sourceforge.net/DTD/sodipodi-0.dtd"
   xmlns:inkscape="http://www.inkscape.org/namespaces/inkscape"
   width="100"
   height="100"
   id="svg2"
   version="1.1"
   inkscape:version="0.48.5 r10040"
   sodipodi:docname="fatiando-logo.svg"
   inkscape:export-filename="fatiando-logo.png"
   inkscape:export-xdpi="180"
   inkscape:export-ydpi="180">
  <defs
     id="defs4">
    <clipPath
       id="p47e16dad32">
      <rect
         id="rect3287"
         y="72.0"
         x="90.0"
         width="558.0"
         height="558.0" />
    </clipPath>
    <style
       id="style3002"
       type="text/css">
*{stroke-linecap:butt;stroke-linejoin:round;stroke-miterlimit:100000;}
  </style>
    <clipPath
       id="clipPath3492"
       clipPathUnits="userSpaceOnUse">
      <path
         id="path3494"
         d="m 900,900 5580,0 0,5580 -5580,0 0,-5580 z" />
    </clipPath>
    <clipPath
       clipPathUnits="userSpaceOnUse"
       id="clipPath4635">
      <path
         style="fill:none;stroke:#000000;stroke-width:0.10879931;stroke-linecap:butt;stroke-linejoin:round;stroke-miterlimit:100"
         d="M -8.7940731,946.36218 50,946.73717 l 0,111.25003 -58.7940731,-0.375 z"
         id="path4637"
         inkscape:connector-curvature="0"
         sodipodi:nodetypes="ccccc" />
    </clipPath>
    <clipPath
       clipPathUnits="userSpaceOnUse"
       id="clipPath4730">
      <path
         style="fill:none;stroke:#000000;stroke-width:0.05146059;stroke-linecap:butt;stroke-linejoin:round;stroke-miterlimit:100"
         d="M 63.153185,946.36218 50,946.73717 l 0,111.25003 13.153185,-0.375 z"
         id="path4732"
         inkscape:connector-curvature="0"
         sodipodi:nodetypes="ccccc" />
    </clipPath>
    <clipPath
       clipPathUnits="userSpaceOnUse"
       id="clipPath4767">
      <path
         style="fill:none;stroke:#000000;stroke-width:0.05146059;stroke-linecap:butt;stroke-linejoin:round;stroke-miterlimit:100"
         d="m 76.40318,946.36218 -13.15318,0.37499 0,111.25003 13.15319,-0.375 z"
         id="path4769"
         inkscape:connector-curvature="0"
         sodipodi:nodetypes="ccccc" />
    </clipPath>
    <clipPath
       clipPathUnits="userSpaceOnUse"
       id="clipPath4798">
      <path
         style="fill:none;stroke:#000000;stroke-width:0.05146059;stroke-linecap:butt;stroke-linejoin:round;stroke-miterlimit:100"
         d="m 89.40318,946.36218 -13.15318,0.37499 0,111.25003 13.15319,-0.375 z"
         id="path4800"
         inkscape:connector-curvature="0"
         sodipodi:nodetypes="ccccc" />
    </clipPath>
    <clipPath
       clipPathUnits="userSpaceOnUse"
       id="clipPath4865">
      <path
         style="fill:none;stroke:#000000;stroke-width:1px;stroke-linecap:butt;stroke-linejoin:miter;stroke-miterlimit:100000;stroke-opacity:1"
         d="m 107.33231,968.32203 c -4.59619,1.41421 -57.6292,35.35537 -57.6292,35.35537 l 57.98276,41.7193 z"
         id="path4867"
         inkscape:connector-curvature="0"
         sodipodi:nodetypes="cccc" />
    </clipPath>
  </defs>
  <sodipodi:namedview
     id="base"
     pagecolor="#ffffff"
     bordercolor="#666666"
     borderopacity="1.0"
     inkscape:pageopacity="0"
     inkscape:pageshadow="2"
     inkscape:zoom="3.9999998"
     inkscape:cx="46.581398"
     inkscape:cy="45.751128"
     inkscape:document-units="px"
     inkscape:current-layer="layer1"
     showgrid="false"
     inkscape:window-width="1366"
     inkscape:window-height="743"
     inkscape:window-x="0"
     inkscape:window-y="6"
     inkscape:window-maximized="1"
     showguides="true"
     inkscape:guide-bbox="true" />
  <metadata
     id="metadata7">
    <rdf:RDF>
      <cc:Work
         rdf:about="">
        <dc:format>image/svg+xml</dc:format>
        <dc:type
           rdf:resource="http://purl.org/dc/dcmitype/StillImage" />
        <dc:title />
      </cc:Work>
    </rdf:RDF>
  </metadata>
  <g
     inkscape:label="Layer 1"
     inkscape:groupmode="layer"
     id="layer1"
     transform="translate(0,-952.36218)">
    <g
       id="g4734"
       transform="translate(0.05823665,0.00371545)"
       style="stroke-linecap:butt;stroke-linejoin:round;stroke-miterlimit:100000">
      <path
         transform="matrix(0.99928796,0,0,1.0006431,0.0710486,-0.67677284)"
         d="m 49.90625,952.5 c -13.225297,0 -25.898318,5.27329 -35.25,14.625 -9.3516819,9.35161 -14.625,22.02464 -14.625,35.25 0,13.2253 5.2733511,25.9296 14.625,35.2812 9.351682,9.3518 22.024703,14.625 35.25,14.625 13.225298,0 25.89833,-5.2732 35.25,-14.625 9.351657,-9.3516 14.625,-22.0559 14.625,-35.2812 0,-13.22536 -5.27331,-25.89839 -14.625,-35.25 -9.35167,-9.35171 -22.024702,-14.625 -35.25,-14.625 z"
         id="path4363"
         style="fill:#aa8f8f;fill-opacity:1;fill-rule:nonzero;stroke:none"
         inkscape:original="M 49.90625 952.46875 C 36.669755 952.46875 23.984572 957.73415 14.625 967.09375 C 5.265428 976.45325 0 989.13844 0 1002.375 C 0 1015.6115 5.265428 1028.3279 14.625 1037.6875 C 23.984572 1047.0471 36.669755 1052.3125 49.90625 1052.3125 C 63.142746 1052.3125 75.82794 1047.0471 85.1875 1037.6875 C 94.54708 1028.3279 99.8125 1015.6115 99.8125 1002.375 C 99.8125 989.13844 94.54708 976.45325 85.1875 967.09375 C 75.82794 957.73415 63.142746 952.46875 49.90625 952.46875 z "
         inkscape:radius="-0.042225514"
         sodipodi:type="inkscape:offset" />
      <path
         d="m 49.90625,956.4375 c -12.193551,0 -23.873818,4.8738 -32.5,13.5 -8.6261691,8.6261 -13.5,20.30642 -13.5,32.5 0,12.1936 4.8768435,23.9083 13.5,32.5313 8.626176,8.6263 20.306437,13.5 32.5,13.5 12.193565,0 23.873839,-4.8737 32.5,-13.5 8.623163,-8.623 13.5,-20.3377 13.5,-32.5313 0,-12.19359 -4.873824,-23.8739 -13.5,-32.5 -8.626167,-8.6262 -20.306447,-13.5 -32.5,-13.5 z"
         id="path3264"
         style="fill:#d46767;fill-opacity:1;fill-rule:nonzero;stroke:none"
         inkscape:original="M 49.90625 954.75 C 37.263464 954.75 25.157618 959.81111 16.21875 968.75 C 7.2798891 977.68879 2.21875 989.79468 2.21875 1002.4375 C 2.21875 1015.0805 7.2814546 1027.2191 16.21875 1036.1562 C 25.157617 1045.0952 37.263462 1050.1562 49.90625 1050.1562 C 62.54904 1050.1562 74.654897 1045.0952 83.59375 1036.1562 C 92.531053 1027.2191 97.59375 1015.0805 97.59375 1002.4375 C 97.59375 989.79467 92.532618 977.68879 83.59375 968.75 C 74.654896 959.81111 62.549038 954.75 49.90625 954.75 z "
         inkscape:radius="-1.6833005"
         sodipodi:type="inkscape:offset" />
      <path
         d="m 49.90625,974.90625 c -7.295136,0 -14.280717,2.87445 -19.46875,8.0625 -5.187948,5.18791 -8.0625,12.17361 -8.0625,19.46875 0,7.2908 2.895656,14.3333 8.0625,19.5 5.188011,5.1882 12.17358,8.0625 19.46875,8.0625 7.295173,0 14.280769,-2.8744 19.46875,-8.0625 5.166846,-5.1667 8.0625,-12.2092 8.0625,-19.5 0,-7.29516 -2.874545,-14.28084 -8.0625,-19.46875 -5.188005,-5.18803 -12.173615,-8.0625 -19.46875,-8.0625 z"
         id="path4220"
         style="fill:#ffd42a;fill-opacity:1;fill-rule:nonzero;stroke:none"
         inkscape:original="M 49.90625 968.40625 C 40.898132 968.40625 32.247057 971.97167 25.84375 978.375 C 19.440497 984.7782 15.875 993.42935 15.875 1002.4375 C 15.875 1011.4467 19.452124 1020.1397 25.84375 1026.5312 C 32.247069 1032.9347 40.898152 1036.5 49.90625 1036.5 C 58.914351 1036.5 67.565452 1032.9347 73.96875 1026.5312 C 80.360379 1020.1397 83.9375 1011.4467 83.9375 1002.4375 C 83.9375 993.42933 80.372007 984.7782 73.96875 978.375 C 67.565467 971.97169 58.914375 968.40625 49.90625 968.40625 z "
         inkscape:radius="-6.4918342"
         sodipodi:type="inkscape:offset" />
      <path
         d="m 49.90625,988.8125 c -3.573892,0 -6.988864,1.42636 -9.59375,4.03125 -2.604751,2.60473 -4.03125,6.01987 -4.03125,9.59375 0,3.5687 1.459032,7.0528 4.03125,9.625 2.604918,2.6049 6.019912,4.0313 9.59375,4.0313 3.573842,0 6.988872,-1.4264 9.59375,-4.0313 2.572213,-2.5722 4.03125,-6.0563 4.03125,-9.625 0,-3.57391 -1.426495,-6.98902 -4.03125,-9.59375 -2.604847,-2.60486 -6.019855,-4.03125 -9.59375,-4.03125 z"
         id="path3234-5"
         style="fill:#ffeeaa;fill-opacity:1;fill-rule:nonzero;stroke:none"
         inkscape:original="M 49.90625 956.21875 C 37.651419 956.21875 25.917909 961.11332 17.25 969.78125 C 8.5821036 978.44908 3.6875 990.18264 3.6875 1002.4375 C 3.6875 1014.6923 8.5849938 1026.46 17.25 1035.125 C 25.917909 1043.7929 37.651419 1048.6875 49.90625 1048.6875 C 62.161083 1048.6875 73.894606 1043.7929 82.5625 1035.125 C 91.227513 1026.46 96.125 1014.6923 96.125 1002.4375 C 96.125 990.18263 91.230403 978.44908 82.5625 969.78125 C 73.894606 961.11332 62.161083 956.21875 49.90625 956.21875 z "
         inkscape:radius="-32.602489"
         sodipodi:type="inkscape:offset" />
    </g>
    <g
       id="g4582-2-4"
       style="stroke-linecap:butt;stroke-linejoin:round;stroke-miterlimit:100000"
       transform="translate(0.05823665,-0.01136615)"
       clip-path="none">
      <path
         transform="matrix(0.99928796,0,0,1.0006431,0.0710486,-0.67677275)"
         d="m 49.90625,952.5 c -13.225297,0 -25.898318,5.27329 -35.25,14.625 -9.3516819,9.35161 -14.625,22.02464 -14.625,35.25 0,13.2253 5.2733511,25.9296 14.625,35.2812 9.351682,9.3518 22.024703,14.625 35.25,14.625 13.225298,0 25.89833,-5.2732 35.25,-14.625 9.351657,-9.3516 14.625,-22.0559 14.625,-35.2812 0,-13.22536 -5.27331,-25.89839 -14.625,-35.25 -9.35167,-9.35171 -22.024702,-14.625 -35.25,-14.625 z"
         id="path4363-2-8-7"
         style="fill:#1b50a2;fill-opacity:1;fill-rule:nonzero;stroke:none"
         inkscape:original="M 49.90625 952.46875 C 36.669755 952.46875 23.984572 957.73415 14.625 967.09375 C 5.265428 976.45325 0 989.13844 0 1002.375 C 0 1015.6115 5.265428 1028.3279 14.625 1037.6875 C 23.984572 1047.0471 36.669755 1052.3125 49.90625 1052.3125 C 63.142746 1052.3125 75.82794 1047.0471 85.1875 1037.6875 C 94.54708 1028.3279 99.8125 1015.6115 99.8125 1002.375 C 99.8125 989.13844 94.54708 976.45325 85.1875 967.09375 C 75.82794 957.73415 63.142746 952.46875 49.90625 952.46875 z "
         inkscape:radius="-0.042225514"
         sodipodi:type="inkscape:offset" />
      <path
         inkscape:connector-curvature="0"
         d="m 44.000002,2.3749959 c -1.395456,0.9172409 -3.011949,1.563953 -4.1875,2.7500001 -1.02922,1.0384091 -2.744337,2.2728706 -2.375,3.6875002 0.291933,1.1181585 1.964344,1.2650608 3.0625,1.6249998 1.500663,0.491868 3.268819,1.381236 4.6875,0.6875 1.290692,-0.631149 1.479695,-2.4663265 2.125,-3.7499999 0.879772,-1.7500876 3.147257,-3.574882 2.375,-5.3750002 -0.46245,-1.07796463 -2.1478,-1.32657218 -3.3125,-1.18750008 -0.940946,0.11235454 -1.583119,1.04199248 -2.375,1.56250008 z M 39.875,88.09375 c -0.222437,0.03464 -0.203035,0.205125 -0.375,0.84375 -0.229285,0.8515 1.372487,2.997878 0.65625,4.15625 -0.716147,1.158228 -3.14482,0.207316 -3.8125,1.1875 -0.667634,0.980116 -0.895281,2.049375 0.21875,3.15625 0.521071,0.517724 0.596831,0.840009 1.05619,0.980813 1.251652,0.383658 3.012586,0.668326 4.53756,0.894187 2.035755,0.301512 4.086435,0.547547 6.143345,0.613341 2.204272,0.07051 4.416923,-0.02225 6.612017,-0.2352 2.326199,-0.225672 4.651026,-0.559181 6.924174,-1.102253 2.446804,-0.58456 4.686702,-1.162468 7.184578,-2.310604 C 70.124131,95.770443 67.625,94.5 67.375,93 c -0.25,-1.5 -5.918508,0.11645 -8.875,0.25 -4.358137,0.196865 -8.543972,1.984435 -13.0625,0.8125 -1.230914,-0.3662 -1.358502,-0.657727 -2.0625,-1.3125 -0.703948,-0.654727 -1.473255,-1.876835 -2,-2.65625 -0.526792,-0.779485 -0.616836,-1.95998 -1.1875,-2 -0.142667,-0.01001 -0.238354,-0.01155 -0.3125,0 z"
         style="fill:#fafafa;fill-opacity:1;stroke-linecap:butt;stroke-linejoin:round;stroke-miterlimit:100000"
         transform="translate(0,952.36218)"
         id="path4574-9-8" />
      <path
         inkscape:connector-curvature="0"
         d="m 62.733632,2.7507163 c -0.569396,0.1590245 -1.080396,0.9598275 -0.90598,1.5246991 0.139026,0.4502568 0.820755,0.4983748 1.281631,0.5966214 0.461102,0.098295 0.948849,-0.097675 1.414214,-0.022097 0.724312,0.1176319 1.347131,0.6545547 2.077126,0.7292039 0.384466,0.039315 1.080719,0.2257029 1.149048,-0.1546796 C 67.863275,4.7920379 66.615253,4.8206682 66.048196,4.5184835 64.943143,3.9296002 63.939649,2.4138925 62.733632,2.7507163 z m 7.516371,31.2492807 c 0.85055,0.38029 1.829865,0.353689 2.75,0.5 0.913671,0.145284 1.824946,0.361682 2.75,0.375 1.173222,0.01689 2.350953,-0.612542 3.5,-0.375 1.078026,0.22286 2.133639,0.811249 2.875,1.625 0.89179,0.978868 1.201147,2.37048 1.625,3.625 0.876691,2.594832 1.841822,5.261272 1.875001,8.000001 0.03455,2.851752 -1.45678,5.538153 -1.750001,8.375 -0.282738,2.735427 0.244554,5.510896 0,8.250001 -0.188246,2.108427 -2.31034,4.496184 -1.125,6.25 0.690954,1.022327 2.436501,1.081718 3.625001,0.75 3.066944,-0.856004 5.111306,-3.936463 7,-6.5 2.056078,-2.790729 3.516702,-6.051035 4.5,-9.375001 1.090369,-3.685912 1.552324,-7.594602 1.46875,-11.4375 -0.04919,-2.261706 -0.587004,-4.498051 -1.15625,-6.687501 -0.656967,-2.526843 -1.505583,-5.01735 -2.59375,-7.390625 -1.540387,-3.359558 -3.316841,-6.714584 -5.53125,-9.609375 C 87.700567,17.28735 85.021082,14.233393 82.000003,11.687496 79.125949,9.265498 75.860626,7.226475 72.55492,5.5290252 70.11614,4.2767334 65.306801,2.1688523 64.808061,2.4785493 c -1.376863,0.8549764 4.136636,1.3773701 3.941942,3.0214468 -0.09652,0.8150431 -2.08928,0.195152 -2.25,1 -0.21355,1.0694076 2.750829,1.4062861 2.25,2.3750001 -0.541239,1.0468761 -2.705801,-1.3707105 -3.5,-0.5 -0.606146,0.6645409 0.01135,1.9673828 0.625,2.6249998 0.953041,1.021324 2.60336,1.278034 4,1.25 0.619295,-0.01243 1.32807,-0.171507 1.75,-0.625 0.530221,-0.569884 -0.02882,-1.8275951 0.625,-2.2499998 0.920655,-0.5947975 2.251726,0.04741 3.25,0.5000001 1.239012,0.5617337 1.926184,1.9819337 3.125,2.6249997 0.650637,0.349013 1.498829,0.233785 2.125,0.625 1.10056,0.687601 1.544471,2.156332 2.625,2.875001 1.031518,0.686071 2.490829,0.531463 3.500001,1.25 0.826937,0.588784 2.047799,1.369786 1.90625,2.375 -0.03022,0.214639 -0.315016,0.359951 -0.53125,0.375 -1.542994,0.107386 -2.75552,-1.406053 -4.125001,-2.125 -1.799025,-0.944448 -3.551653,-1.978409 -5.375,-2.875001 -1.640083,-0.806476 -3.213054,-1.866459 -5,-2.25 -1.588815,-0.341015 -3.350254,-0.561938 -4.875,0 -1.747117,0.643891 -3.24294,2.058845 -4.25,3.625001 -0.984363,1.530859 -1.373011,3.434408 -1.5,5.25 -0.126221,1.804616 0.09607,3.688303 0.75,5.375 0.639193,1.648687 1.787701,3.087729 3,4.375 0.977116,1.037543 2.073909,2.043269 3.375,2.625 z m 28.187501,24.375001 c -0.68273,-0.223471 -0.688664,1.261563 -1.0625,1.875 -0.336786,0.552641 -0.761755,1.051947 -1.0625,1.625 -0.512378,0.97631 -0.862297,2.030319 -1.25,3.062501 -0.247882,0.659937 -0.52233,1.314667 -0.6875,2 -0.103546,0.42964 -0.375189,0.912393 -0.1875,1.3125 0.135055,0.287904 0.519124,0.622715 0.8125,0.5 0.256423,-0.107258 0.06751,-0.561784 0.1875,-0.8125 0.160132,-0.334581 0.494297,-0.558363 0.6875,-0.875 0.286485,-0.469514 0.485657,-0.988359 0.6875,-1.5 0.21759,-0.551559 0.329904,-1.1421 0.5625,-1.687501 0.175473,-0.411456 0.417056,-0.791462 0.625,-1.1875 0.229596,-0.437275 0.585007,-0.829366 0.6875,-1.3125 0.134305,-0.633087 -0.142045,-1.290548 -0.125,-1.9375 0.0094,-0.356486 0.463916,-0.951566 0.125,-1.0625 z M 34.731767,2.67086 c -2.745347,0.18842 -6.428386,2.35254 -8.620318,3.47045 -3.989293,2.03459 -6.261868,3.89244 -9.623409,6.84712 -1.934529,1.70039 -3.69788,3.41697 -5.328924,5.40891 -1.4994737,1.83126 -3.1053836,4.2386 -4.0750588,6.03422 -0.9696752,1.79563 -1.9084699,3.1045 -1.7867567,4.81487 0.057691,0.8107 0.4526595,1.75351 1.1598245,2.15731 0.7517937,0.42928 1.7999753,-0.42092 2.6017686,-0.0938 1.5245044,0.62198 1.8719034,2.91617 3.3854334,3.56426 1.047428,-0.10155 2.046289,0.18773 2.789849,0.53151 0.789939,1.39945 -0.645861,3.16793 -0.909052,4.75234 -0.345052,2.0772 -1.341906,4.19909 -0.877705,6.25307 0.677318,2.997 2.861871,5.5265 5.078151,7.66 0.781029,0.7519 2.156173,0.8406 2.789848,1.7196 1.323276,1.8356 1.078423,4.3827 1.535984,6.597 0.637106,3.0832 0.847605,6.2528 1.692717,9.2858 0.700766,2.515 1.307442,5.175 2.758501,7.3474 0.81964,1.2271 1.969342,2.2605 3.228701,3.0327 1.351518,0.8287 3.56346,2.8843 4.482565,1.5946 0.934597,-1.3115 -2.358916,-2.2936 -3.040621,-3.7519 -0.925329,-1.9795 -1.713137,-4.3052 -1.253864,-6.4406 0.521174,-2.4234 2.994711,-3.9532 4.294485,-6.0655 1.236411,-2.0094 2.254662,-4.1499 3.322741,-6.2531 0.494726,-0.9742 0.69252,-2.1428 1.441944,-2.939 1.079752,-1.147 3.150916,-1.0617 4.106406,-2.3136 1.565712,-2.0514 0.76012,-5.1804 1.880796,-7.5037 0.618699,-1.28262 2.241817,-2.03056 2.601769,-3.40791 0.319475,-1.22246 0.199834,-2.72138 -0.532893,-3.75184 -1.01191,-1.42309 -3.030079,-1.80219 -4.670644,-2.40743 -2.214118,-0.81685 -4.952332,-0.2898 -6.896254,-1.6258 -2.358833,-4.09874 -6.0804,-5.94206 -10.563808,-6.78459 -2.261032,-0.41471 -4.791428,-0.82839 -6.896254,0.0938 -1.314833,0.57607 -1.512946,3.04276 -2.946581,3.12654 -0.780007,0.0456 -2.20456,0.57313 -3.134661,0.28139 -1.282816,-0.40237 0.982478,-2.97461 0.156733,-4.03323 -0.542881,-0.69599 -2.188688,0.26386 -2.570422,-0.53151 -0.5649704,-1.17716 2.245517,-2.24822 1.786757,-3.47046 -0.169099,-0.45052 -0.880329,-0.68076 -1.347905,-0.56278 -1.3562739,0.34221 -1.4514023,3.85794 -2.6958079,3.22034 -1.3718924,-0.70293 0.4019077,-3.13118 1.1598245,-4.47095 0.8403314,-1.48546 2.1990514,-2.68697 3.6048604,-3.65805 1.098956,-0.75913 2.47665,-2.20018 3.667553,-1.59454 0.626,0.31836 -0.255666,1.95702 0.438853,2.06352 0.47579,0.0729 0.488265,-0.83031 0.720972,-1.25062 0.490682,-0.88625 0.781369,-1.92015 1.441944,-2.68882 0.87429,-1.01736 2.195507,-1.51471 3.197354,-2.40743 1.070952,-0.9543 1.91779,-2.1603 2.977928,-3.12654 0.784765,-0.71526 1.569467,-1.47124 2.507728,-1.96972 C 28.714405,8.92394 29.842245,8.86404 30.81344,8.4237 31.605797,8.06444 33.061008,7.9784 33.03905,7.11055 33.02625,6.60451 31.637536,6.89482 31.691146,6.39145 31.920725,4.23581 37.518704,6.73183 37.960467,4.60932 38.180347,3.55288 36.925253,2.92258 35.860245,2.7334 35.513997,2.6719 35.123959,2.644 34.731767,2.6709 z M 16.29996,23.02462 c -0.823609,0.0301 -1.871598,0.22935 -2.350995,0.50025 -0.639197,0.36119 -0.429896,0.71016 -0.407506,0.84416 0.02239,0.134 0.376155,0.0425 0.626932,-0.0313 0.250777,-0.0737 0.423536,-0.39113 0.815012,-0.46898 0.391475,-0.0778 1.086569,0.0655 1.441944,0.1876 0.355375,0.12209 0.580923,0.18245 0.689625,0.40645 0.108702,0.224 -0.340849,0.46724 -0.09404,0.68783 0.24681,0.2206 1.141913,-0.26802 1.253865,-0.31265 0.111952,-0.0446 1.081784,-0.34899 1.097131,-0.7191 0.01535,-0.37011 -0.631407,-0.51815 -0.720972,-0.56278 -0.08957,-0.0446 -0.851852,-0.37844 -1.630024,-0.50025 -0.194542,-0.0304 -0.446436,-0.0413 -0.720972,-0.0313 z m 5.485657,0.87543 c -0.273736,0.0239 -0.672165,0.0367 -1.003092,0.15633 -0.330926,0.11962 -0.610854,0.35477 -0.940398,0.56277 -0.329543,0.20801 -0.855634,0.44162 -1.034438,0.68784 -0.178804,0.24622 -0.294458,0.37467 -0.156733,0.56278 0.137726,0.18811 0.553793,0.0971 0.815012,0.0313 0.261219,-0.0658 0.395481,-0.3408 0.689625,-0.40645 0.294145,-0.0656 0.913527,0.11612 1.003092,0.0938 0.08957,-0.0223 0.819489,-0.51364 1.065785,-0.62531 0.246295,-0.11166 0.925859,-0.61046 0.658278,-0.75037 -0.26758,-0.13991 -0.823395,-0.33658 -1.097131,-0.31265 z"
         style="fill:#6abb33;fill-opacity:1;stroke:#000000;stroke-width:0;stroke-linecap:butt;stroke-linejoin:miter;stroke-miterlimit:100;stroke-opacity:1;stroke-dasharray:none"
         transform="translate(0,952.36218)"
         id="path4576-7-4" />
    </g>
    <rect
       style="fill:#666666;stroke:#1a1a1a;stroke-width:0.1;stroke-linecap:butt;stroke-linejoin:round;stroke-miterlimit:100;stroke-dasharray:none"
       id="rect4566"
       width="155.25"
       height="132.25"
       x="163.86458"
       y="905.4223" />
  </g>
</svg>
