<?xml version="1.0" encoding="UTF-8" standalone="no"?>
<!-- Created with Inkscape (http://www.inkscape.org/) -->

<svg
   xmlns:dc="http://purl.org/dc/elements/1.1/"
   xmlns:cc="http://creativecommons.org/ns#"
   xmlns:rdf="http://www.w3.org/1999/02/22-rdf-syntax-ns#"
   xmlns:svg="http://www.w3.org/2000/svg"
   xmlns="http://www.w3.org/2000/svg"
   xmlns:sodipodi="http://sodipodi.sourceforge.net/DTD/sodipodi-0.dtd"
   xmlns:inkscape="http://www.inkscape.org/namespaces/inkscape"
   width="100"
   height="100"
   id="svg2"
   version="1.1"
   inkscape:version="0.48.4 r9939"
   sodipodi:docname="fatiando-logo.svg"
   inkscape:export-filename="/home/leo/src/fatiando-logo/fatiando-logo.png"
   inkscape:export-xdpi="150"
   inkscape:export-ydpi="150">
  <defs
     id="defs4" />
  <sodipodi:namedview
     id="base"
     pagecolor="#ffffff"
     bordercolor="#666666"
     borderopacity="1.0"
     inkscape:pageopacity="0.0"
     inkscape:pageshadow="2"
     inkscape:zoom="1.979899"
     inkscape:cx="7.9944287"
     inkscape:cy="57.631842"
     inkscape:document-units="px"
     inkscape:current-layer="layer1"
     showgrid="false"
     inkscape:window-width="1366"
     inkscape:window-height="719"
     inkscape:window-x="0"
     inkscape:window-y="25"
     inkscape:window-maximized="1" />
  <metadata
     id="metadata7">
    <rdf:RDF>
      <cc:Work
         rdf:about="">
        <dc:format>image/svg+xml</dc:format>
        <dc:type
           rdf:resource="http://purl.org/dc/dcmitype/StillImage" />
        <dc:title />
      </cc:Work>
    </rdf:RDF>
  </metadata>
  <g
     inkscape:label="Layer 1"
     inkscape:groupmode="layer"
     id="layer1"
     transform="translate(0,-952.36218)">
    <path
       style="color:#000000;fill:#b3b3b3;fill-opacity:1;fill-rule:nonzero;stroke:#b3b3b3;stroke-width:1;stroke-miterlimit:4;stroke-dasharray:none;marker:none;visibility:visible;display:inline;overflow:visible;enable-background:accumulate"
       d="m 34.915279,1015.625 c -1.169737,-1.0263 -7.3182,-13.4963 -9.519049,-17.48214 -1.398256,-2.5323 -2.798717,-4.30225 -4.637699,-6.77084 -1.369426,-1.83827 -3.204405,-4.2848 -4.077737,-5.51082 -0.873345,-1.22604 -1.976153,-2.67309 -2.217202,-2.99347 -0.507462,-0.67443 0.08323,-1.25721 0.48011,-1.40213 0.438801,-0.16028 1.14515,0.23118 1.482723,0.82172 0.168768,0.29525 1.486827,1.66454 2.929019,3.0429 2.794728,2.67105 3.758568,3.75212 6.131779,6.87757 2.853333,3.75775 3.720789,5.12496 4.872184,7.67899 1.065055,2.36252 5.230866,13.88272 5.233631,15.11982 0.0038,1.7719 0.389959,1.5552 -0.677759,0.6184 z"
       id="path4036-2-4"
       inkscape:connector-curvature="0"
       sodipodi:nodetypes="cssssssssscc" />
    <path
       style="color:#000000;fill:#164184;fill-opacity:1;fill-rule:nonzero;stroke:#164184;stroke-width:1;stroke-miterlimit:4;stroke-dasharray:none;marker:none;visibility:visible;display:inline;overflow:visible;enable-background:accumulate"
       d="m 44.507284,988.41887 c -0.356182,-0.44448 -0.720203,-1.15362 -0.808914,-1.57583 -0.154862,-0.73699 -0.211352,-0.76767 -1.413144,-0.76767 -1.395477,0 -3.098002,-0.69716 -3.51539,-1.43947 -0.421365,-0.74942 -0.305084,-2.38074 0.242553,-3.40247 0.60442,-1.1277 0.810903,-1.2653 2.199791,-1.46591 1.054769,-0.15236 1.075519,-0.14116 1.60442,0.86685 0.695566,1.32566 2.821788,7.41338 2.821788,8.07926 0,0.73539 -0.386275,0.63473 -1.131104,-0.29476 l 0,0 z"
       id="path4020-0-9"
       inkscape:connector-curvature="0" />
    <path
       style="color:#000000;fill:#164184;fill-opacity:1;fill-rule:nonzero;stroke:#164184;stroke-width:1.00125003;stroke-miterlimit:4;stroke-dasharray:none;marker:none;visibility:visible;display:inline;overflow:visible;enable-background:accumulate"
       d="m 35.176874,1046.4628 c -2.752782,-0.3798 -3.916782,-0.7731 -7.924583,-2.6773 -4.918885,-2.3372 -8.097505,-4.6177 -10.821392,-7.7638 -0.792459,-0.9153 -2.575487,-2.8875 -3.962298,-4.3826 -5.212052,-5.6192 -6.4154882,-7.8327 -4.9463905,-9.0982 0.8815019,-0.7594 3.7011615,-1.9411 4.6531345,-1.9502 1.233925,-0.3147 7.903438,5.8708 11.799916,9.6037 1.393859,1.3354 2.971041,2.0931 3.185069,2.021 0.682795,-0.2301 0.331813,-3.3322 -0.49789,-4.4003 -0.41851,-0.5388 -5.370738,-6.9502 -6.220682,-8.6926 -0.849956,-1.7424 -2.012949,-3.8622 -2.584447,-4.7108 -0.905757,-1.3448 -1.041207,-1.8768 -1.055597,-4.1457 -0.01453,-2.2814 -0.150949,-2.8106 -1.105243,-4.2857 -0.86316,-1.3342 -1.546643,-1.8959 -3.298979,-2.7114 -1.918069,-0.8926 -2.4487294,-1.3685 -4.0142239,-3.60001 -1.8980333,-2.7055 -3.7676306,-6.09182 -4.5936244,-8.32013 -0.4559568,-1.23008 -0.4213008,-1.50125 0.4708184,-3.68382 1.1789515,-2.88432 3.7154109,-7.28324 4.6370112,-7.4466 1.2941097,-0.22939 2.7393607,1.10208 6.3638807,5.69708 4.835438,6.13023 8.022789,10.71493 10.634169,15.29638 4.047249,7.1003 10.536599,19.8355 10.982079,19.8355 1.37994,0 -3.734619,-22.92755 -6.021234,-28.68403 -0.509961,-1.28381 -1.653339,-3.55227 -2.540857,-5.04105 -0.887518,-1.48876 -2.841722,-5.06695 -4.342697,-7.95151 -1.500963,-2.88458 -3.064188,-5.58569 -3.473827,-6.00249 -0.984106,-1.00129 -0.713996,-3.10036 0.611877,-4.75494 0.919688,-1.14769 8.94648,-8.41207 9.659074,-8.66612 0.187823,-0.067 -1.161184,1.93177 -2.062225,3.18446 -2.56255,3.5627 -3.271601,6.2056 -3.271601,12.19442 0,5.4885 0.279261,6.40737 2.766828,9.10409 2.783932,3.01801 13.018519,9.52646 16.225499,10.31827 1.022572,0.25248 1.965547,0.57573 2.095504,0.71836 0.886294,0.97271 1.523331,3.88549 1.944199,8.88964 -0.22499,1.5186 0.434786,2.3892 1.108492,2.5363 0.675937,0.1476 1.36592,-0.4329 1.190359,-1.8179 -0.08387,-2.1802 1.865213,2.0001 4.607173,3.5306 4.065068,2.2689 6.236716,7.9059 5.815313,15.3846 -0.101584,1.8034 -0.107065,3.7681 -0.01147,4.366 0.242591,1.5264 1.321259,2.5129 2.747594,2.5129 1.976114,0 2.847891,-1.2734 4.533005,-6.6216 1.940146,-6.1577 2.594096,-7.6927 4.295793,-10.0846 0.774628,-1.0887 1.935353,-2.9824 2.5794,-4.2081 0.644022,-1.2258 1.770868,-3.0772 2.504072,-4.1144 2.314555,-3.2738 2.69062,-5.2747 1.449928,-7.71422 -0.838051,-1.64781 -2.509999,-2.65703 -5.334833,-3.22023 -2.52342,-0.50309 -6.279133,-2.05638 -8.608728,-3.56037 -1.032145,-0.66637 -2.513249,-1.31393 -3.291357,-1.43906 -1.764393,-0.28373 -4.032056,0.27585 -5.351759,1.32065 -1.932231,1.5297 -3.708529,1.73401 -4.721223,1.97986 -4.86724,1.18163 0.171915,-2.9119 0.459551,-7.76652 0.1899,-3.20569 0.347566,-6.99342 0.35037,-8.30804 0.0025,-1.4491 1.024752,-3.95974 1.357495,-4.58928 0.30186,-0.5711 2.251017,-1.17695 4.113209,-2.8741 3.356246,-3.05878 3.385752,-3.10005 3.381457,-4.72986 -0.0064,-2.19227 -1.254229,-3.51479 -2.997425,-3.17527 -2.954459,0.57549 -2.929592,0.5902 -3.153256,-1.86629 -0.111654,-1.22571 -0.678945,-2.61869 -0.765451,-2.88597 -0.313255,-0.96781 2.356908,-1.03905 5.619944,-0.38725 l 3.013766,0.60198 c 2.347897,0.72004 0.09636,1.44008 0.144512,2.16011 0.112673,1.68398 0.399263,2.55022 1.300292,3.92984 0.984998,1.50816 1.155805,2.09209 1.155805,3.951 0,2.6264 0.501344,3.25887 2.583211,3.25887 1.170029,0 1.688364,-0.22582 2.675835,-1.16571 1.164931,-1.10881 1.224709,-1.28566 1.224709,-3.62254 0,-2.45509 0.399251,-3.78317 1.137311,-3.78317 0.585008,0 4.882432,3.40571 5.900468,4.67613 0.487744,0.60869 0.886816,1.35218 0.886816,1.65224 0,0.30008 -0.648367,1.52273 -1.440827,2.71708 -1.961125,2.95563 -1.932906,4.00219 0.166626,6.17886 1.452656,1.50603 1.718687,1.64534 2.762456,1.44664 0.63524,-0.12095 1.978587,-0.81284 2.985189,-1.53758 2.504085,-1.80291 3.029775,-1.93618 4.047466,-1.02618 0.464484,0.41535 0.844513,1.02339 0.844513,1.3512 0,0.32784 -0.972558,1.53626 -2.161247,2.68537 -2.44302,2.36173 -2.609978,3.04381 -1.625553,6.64118 0.903654,3.30224 2.291982,4.97525 5.948061,7.16766 4.631556,2.77738 7.444247,8.80987 5.32362,14.40607 -0.473138,1.2485 -1.203242,4.8587 -1.822014,7.0273 -0.714824,5.6674 -3.829705,8.7354 -5.267498,12.0146 -4.548581,6.8318 -3.013885,5.146 -8.038332,9.1638 -6.95386,5.5607 -5.979829,5.8714 -8.096326,5.8714 -3.472794,0 -6.646922,-2.589 -8.557459,-6.0496 -0.724549,-1.3124 -1.464904,-2.3863 -1.645245,-2.3863 -0.545611,0 -1.018736,1.1508 -1.27958,3.1122 -0.453165,3.4076 -1.715729,5.4583 -3.361943,5.4607 -1.266095,0 -11.11215,1.591 -12.461424,2.0113 -0.594339,0.1852 -1.849803,0.4346 -2.789898,0.5542 -1.024612,0.1304 -2.127599,0.5526 -2.753559,1.0539 -1.164536,0.9327 -1.406223,0.9455 -5.968097,0.316 z"
       id="path4018-4-5"
       inkscape:connector-curvature="0"
       sodipodi:nodetypes="csssscsssssssssssssssssssssssssccscsscsssssssssssscssssssscsssssssssssssssssssccssssscssscc" />
    <path
       style="color:#000000;fill:#217821;fill-opacity:1;fill-rule:nonzero;stroke:#1a1a1a;stroke-width:1;stroke-miterlimit:4;stroke-dasharray:none;marker:none;visibility:visible;display:inline;overflow:visible;enable-background:accumulate"
       d="m 14.397084,1009.2568 c -0.195827,-0.1637 -0.509132,-0.6247 -0.981913,-1.4448 -0.476452,-0.8265 -0.443428,-0.7829 -0.969831,-1.2812 -0.252227,-0.2387 -0.520693,-0.5273 -0.596607,-0.6412 -0.386479,-0.58 0.07087,-0.6922 1.03017,-0.2523 0.965369,0.4424 1.70176,1.1096 1.947334,1.7641 0.08897,0.2373 0.09075,0.2778 0.03875,0.955 -0.05328,0.695 -0.125037,0.979 -0.257083,1.0178 -0.02855,0.01 -0.123508,-0.044 -0.210791,-0.1174 z"
       id="path4032-0-0"
       inkscape:connector-curvature="0" />
    <path
       style="color:#000000;fill:#b3b3b3;fill-opacity:1;fill-rule:nonzero;stroke:#b3b3b3;stroke-width:1;stroke-miterlimit:4;stroke-dasharray:none;marker:none;visibility:visible;display:inline;overflow:visible;enable-background:accumulate"
       d="m 25.378284,1029.7815 c -2.553883,-1.3534 -13.541965,-12.1012 -15.022751,-13.6169 -0.6350993,-0.65 -2.105,-1.9483 -3.2664515,-2.8851 -2.0314439,-1.6384 -3.1070394,-2.7073 -3.5800884,-3.5578 -0.1224874,-0.2202 -0.1859107,-0.4354 -0.1409689,-0.4782 0.1194285,-0.1137 2.1837439,0.6518 3.6396879,1.3497 1.9106899,0.9159 3.0650289,1.8384 7.3935909,5.9086 2.89899,2.7259 11.328906,12.0579 11.742509,12.7774 0.330971,0.5758 0.47686,0.9844 0.350803,0.9825 -0.118663,0 -0.621053,-0.2177 -1.116331,-0.4802 z"
       id="path4034-9-5"
       inkscape:connector-curvature="0"
       sodipodi:nodetypes="sssssssscs" />
    <path
       style="color:#000000;fill:#b3b3b3;fill-opacity:1;fill-rule:nonzero;stroke:#b3b3b3;stroke-width:1;stroke-miterlimit:4;stroke-dasharray:none;marker:none;visibility:visible;display:inline;overflow:visible;enable-background:accumulate"
       d="m 46.200734,985.12899 c -2.466485,-8.0521 -4.341537,-11.78003 -5.203551,-13.2433 -0.644251,-1.09366 -2.15309,-3.62188 -3.452821,-5.69954 -0.530838,-0.84857 -2.509349,-2.9713 -2.110532,-3.71881 l 0.255503,-0.47888 0.517762,0.12147 c 1.888371,0.44275 3.905476,4.55704 6.386096,8.54561 1.775125,2.85417 4.229323,7.1473 4.922136,8.86659 0.258957,0.64264 0.762532,2.16853 1.083536,3.03139 0.440483,7.35865 1.620098,12.89612 1.174095,14.9325 -1.545139,0.1156 -1.731789,-6.02607 -3.572224,-12.35696 z"
       id="path4038-9-5"
       inkscape:connector-curvature="0"
       sodipodi:nodetypes="cssscssscccc" />
    <path
       style="color:#000000;fill:#b3b3b3;fill-opacity:1;fill-rule:nonzero;stroke:none;stroke-width:0.98399234;marker:none;visibility:visible;display:inline;overflow:visible;enable-background:accumulate"
       d="m 50.567891,993.04416 c 0.0038,-1.46143 -0.01415,-0.28622 0.0659,-0.8048 0.09687,-0.62803 0.08552,-1.39946 -0.07176,-2.3143 -1.233873,-7.17821 -0.500044,-12.56491 -0.198236,-17.77741 0.04767,-0.82423 -0.02689,-2.61677 0.05557,-4.61553 0.171789,-4.1593 1.243089,-6.9312 1.447825,-7.63862 0.448947,-1.55124 1.491505,-0.6391 1.22462,0.51428 -0.09164,0.39572 -0.474821,7.14 -0.529398,10.62858 -0.05672,3.62244 -0.207553,7.26192 -0.351798,8.4857 -0.402845,3.4178 -0.552328,3.93391 -0.624839,9.08572 0.374587,9.92647 2.459245,7.07418 -1.017882,4.43638 z"
       id="path4040-6-8"
       inkscape:connector-curvature="0"
       sodipodi:nodetypes="csssssssscc" />
    <path
       style="color:#000000;fill:#ffffff;fill-opacity:1;fill-rule:nonzero;stroke:none;stroke-width:0.5;marker:none;visibility:visible;display:inline;overflow:visible;enable-background:accumulate"
       d="m 68.624622,968.44911 c -0.107575,-0.32626 -0.172311,-1.60975 -0.147775,-2.93134 0.05035,-2.71276 -0.08349,-3.05268 -1.483271,-3.76777 -0.84496,-0.43165 -1.029915,-0.70733 -1.049824,-1.56476 -0.01988,-0.85751 0.423531,-1.33436 1.240871,-1.33436 0.961635,0 2.492155,0.60562 3.279338,1.29763 0.624405,0.5489 0.647462,0.60818 0.467772,1.20238 -0.104006,0.34374 -0.344431,1.75818 -0.534382,3.14322 -0.446551,3.25622 -0.627376,4.02878 -1.008068,4.30716 -0.457002,0.33416 -0.552851,0.29001 -0.764661,-0.35218 z"
       id="path4062-1-1"
       inkscape:connector-curvature="0" />
    <path
       style="color:#000000;fill:#ffffff;fill-opacity:1;fill-rule:nonzero;stroke:#1a1a1a;stroke-width:0.5;marker:none;visibility:visible;display:inline;overflow:visible;enable-background:accumulate"
       d="m 46.419083,1048.2994 c -1.802146,-0.2638 -3.04303,-0.7029 -2.766866,-0.9791 0.196159,-0.1961 3.481474,-1.1394 5.243649,-1.5057 0.893955,-0.1856 3.786813,-0.5874 6.428566,-0.8927 5.182393,-0.599 7.845801,-1.0898 8.279516,-1.5258 0.213213,-0.2144 0.273679,-0.7173 0.273679,-2.2763 0,-1.1006 0.06296,-2.1732 0.139834,-2.3836 0.172987,-0.4731 0.842309,-0.6973 0.842309,-0.2821 0,0.6428 0.77877,1.8423 1.57578,2.4271 0.45922,0.337 1.57898,0.9333 2.488357,1.3253 0.90939,0.3919 1.870566,0.8549 2.135934,1.0288 l 0.482519,0.3161 -1.326357,0.6032 c -4.691092,2.1333 -10.087729,3.521 -15.833157,4.0714 -2.996877,0.2871 -6.296238,0.3174 -7.963763,0.073 z"
       id="path4064-9-9"
       inkscape:connector-curvature="0" />
    <path
       style="fill:#1a1a1a"
       d="m 44.355991,1050.243 c -5.390787,-1.1457 -11.119199,-1.4077 -15.970824,-4.0992 -8.417872,-2.641 -13.595689,-9.9171 -19.1526184,-16.0356 -3.0061307,-3.3686 -4.4493926,-7.5152 -6.3886459,-11.4875 -1.1966937,-3.1708 -5.5231272,-10.9189 -0.3911696,-10.9596 4.6149609,0.8242 9.3591519,4.8781 11.8425759,5.5847 -2.02358,-4.3561 -4.7684973,-8.3295 -7.2506212,-12.4481 -1.2606141,-4.05094 -6.8823558,-7.7326 -5.179576,-11.7072 1.9542807,-3.98054 3.3636514,-8.38342 6.9362197,-11.30587 0.4580598,-0.30488 1.2334015,-0.48804 1.9212945,-0.27316 6.261672,2.28608 10.610767,7.61003 14.707992,12.46803 1.043324,1.40205 4.884447,7.29648 2.96175,2.27085 -2.124731,-3.80952 -3.369221,-7.9699 -5.541277,-11.73642 -0.867838,-3.74357 -3.23525,-5.86531 -4.227488,-8.26463 -0.309456,-0.56767 -0.01606,-2.10667 0.15114,-2.5848 0.162421,-1.20312 8.71485,-9.67181 12.169584,-11.49806 0.86107,-0.53605 1.840524,-0.48066 2.523445,-0.14919 2.566285,1.11993 5.583492,4.99039 7.611252,7.47153 4.797545,6.88621 7.26491,13.53832 7.748933,13.57854 0.221076,-6.26821 -0.414916,-16.84834 1.890908,-22.29316 1.474285,-2.93471 7.131282,-2.5007 9.98055,-2.18834 5.864957,0.93303 11.327261,3.49533 15.966427,7.02158 5.616822,3.53165 9.868564,7.70479 14.662451,13.0227 2.433015,2.52537 3.215456,4.58716 4.627937,7.24157 1.242527,2.74504 2.560663,5.70282 2.919892,8.47492 0.124654,3.6778 0.735371,5.23171 1.123877,10.48391 -0.307239,10.4808 -3.049705,19.5928 -9.263776,27.5149 -4.584654,7.2035 -8.57049,10.6264 -13.439921,14.3605 -3.854519,2.6966 -8.361064,4.4885 -13.097952,5.6235 -6.389856,1.8634 -13.197777,2.2751 -19.842308,1.9136 z m 9.407854,-1.844 c 6.240259,-0.4895 12.365448,-2.0813 17.919357,-4.7972 -1.28594,-1.6535 -6.421798,-1.6315 -6.786673,-5.5011 -2.654945,-0.014 0.448513,5.0474 -2.060326,5.602 -5.674064,1.4154 -11.667066,0.9582 -17.39484,2.8869 -5.476784,1.1509 2.030373,2.1373 4.086327,1.979 1.414316,0.045 2.828352,-0.048 4.236155,-0.1696 z m -12.629338,-2.0712 c 1.917267,-1.7805 4.542819,-0.7126 6.897154,-2.0498 3.170985,-0.1807 7.010362,-1.2981 10.51952,-1.5762 2.090839,0.3137 3.121595,-0.8863 3.798322,-3.4558 0.365105,-2.5733 0.671362,-7.9877 2.739182,-3.0201 1.319487,4.1463 8.236244,7.5409 11.818206,4.4112 1.549491,-0.3437 2.828344,-1.996 4.537823,-3.5699 1.737212,-1.5995 3.279533,-3.2694 4.783039,-5.4824 2.402177,-3.5358 4.338655,-5.1916 6.060961,-9.1372 2.607991,-5.105 3.958326,-9.647 5.180324,-15.8572 1.017385,-4.8982 -1.325445,-11.41811 -6.480905,-13.44936 -3.834802,-2.02043 -5.293524,-6.10124 -5.544133,-10.03448 0.761832,-2.98515 7.347821,-4.90513 3.42097,-7.52575 -2.985253,-2.15609 -6.523013,6.54092 -9.857451,1.20983 -3.669271,-2.77844 0.467237,-5.4719 1.668825,-8.06018 0.664262,-1.65311 -4.087296,-5.21174 -6.744076,-7.04459 -1.631327,-0.61194 -1.977198,3.04813 -1.662707,4.3302 0.645806,2.51881 -2.068292,4.88035 -4.618109,4.42837 -2.926138,-0.63419 -0.436265,-4.17291 -1.820207,-5.94984 -1.85262,-2.35203 -3.043043,-4.85674 -1.878214,-7.25323 -2.459729,-0.59588 -8.403851,-2.34459 -9.505219,-0.12824 2.134545,1.11654 -0.448182,5.6792 2.310119,5.27587 4.078947,-2.86147 6.665128,3.19274 3.338338,5.52073 -3.10704,3.03955 -7.185222,3.2842 -7.343628,9.3961 -0.311979,3.92528 -0.264501,5.65991 -0.551117,9.43169 0.166614,1.74554 -0.566641,4.69758 0.112291,5.78587 0.726997,1.16534 2.903042,0.36387 4.195202,-1.00235 3.253528,-2.47433 7.150605,-1.8951 9.985075,0.93318 4.361433,1.79456 4.600035,2.20374 9.249831,3.05058 4.707266,1.29697 5.212027,6.5132 2.230126,9.7084 -2.121545,2.4437 -2.901526,5.683 -4.865901,8.1679 -2.87425,3.4163 -3.026104,5.2653 -4.457512,9.5406 -1.306983,2.9501 -1.043132,7.8074 -5.002243,7.8498 -3.738978,-0.4954 -1.977899,-5.7142 -2.314019,-8.2024 0.278012,-4.506 -0.806327,-9.3793 -3.83266,-12.9313 -2.724907,-1.5249 -7.139337,-5.0134 -6.042252,0.7384 -2.773239,3.9522 -2.693144,-5.2799 -2.872338,-7.1388 0.02256,-2.8895 -0.555387,-5.8127 -2.064965,-8.33004 -3.808711,0.0941 -6.575385,-2.69009 -9.786393,-4.21296 -3.88066,-3.15454 -9.255503,-5.31964 -10.886192,-10.32418 -1.253527,-5.36722 -0.4232,-11.31763 2.216348,-16.21275 1.209784,-1.16734 5.200148,-6.39497 1.218323,-2.9852 -3.282995,3.21485 -10.7291,6.91761 -9.587149,11.58495 1.755535,1.7194 2.284946,2.98514 3.255452,5.20559 2.290133,4.17368 4.358897,8.44933 6.986986,12.42304 2.848924,6.59708 5.875104,19.10535 6.761742,26.10445 0.621729,1.5694 0.70965,5.1602 -1.976688,2.1772 -2.550747,-3.535 -8.213339,-10.9477 -10.186803,-18.87077 -2.37966,-4.03401 -5.024216,-7.64799 -7.87277,-11.44008 -2.55113,-2.50278 -4.805308,-9.06052 -8.0883798,-8.17977 -2.2227207,3.05954 -4.7520552,6.36674 -5.4831563,10.01416 1.4813465,4.43853 4.1701058,8.92897 7.2260471,12.42256 4.524721,0.8407 7.995118,5.5713 6.140242,9.8653 2.338237,3.294 9.562576,13.5273 11.327976,17.1341 1.820271,1.3094 2.591968,6.9673 -0.445288,3.7843 -3.252636,-2.0158 -11.600329,-12.4062 -15.454784,-13.1614 -3.5939561,1.1266 -7.6956933,2.88 -3.7178711,6.5255 2.4562371,4.1851 6.5946181,7.1333 9.4937611,11.0194 2.368188,1.9164 4.504773,4.0955 7.419516,5.2669 3.474948,1.5251 6.85745,3.7849 10.845227,3.6005 1.56719,-0.048 4.21622,1.4417 5.206215,-0.3204 z m 28.691397,-31.5031 c 3.246007,-2.4301 4.121888,-6.3747 6.47338,-9.4403 1.611507,-2.1189 3.531693,-5.60411 0.528481,-7.54397 -4.787667,-1.7324 -5.695553,-1.33575 -10.341933,-3.60882 -3.166766,-2.9048 -7.187248,-3.99194 -10.575907,-0.70394 -4.487592,0.99189 -2.234523,5.02315 -3.418369,7.97413 -2.333622,4.3894 4.347171,5.2071 6.529066,7.5789 4.169775,5.1845 4.214003,12.0808 3.504009,18.2543 0.83359,2.4957 2.763068,1.4075 3.126668,0.332 1.446436,-4.2787 2.397683,-9.2837 4.174605,-12.8423 z m -43.474271,15.3767 c -1.630486,-3.6905 -12.1912,-13.7753 -15.002689,-16.6547 -2.1821512,-2.3777 -5.3135607,-3.692 -8.4051139,-4.6402 1.1958142,3.1534 6.1312692,5.3173 8.3747529,8.4412 2.196349,1.5357 13.851243,13.1467 15.03305,12.8537 z m -20.0974164,-8.8909 c 5.6379674,-0.8327 4.0191314,-5.4554 -0.085907,-6.9078 -1.7649031,-1.2397 -6.42433424,-5.8433 -4.416725,-0.8747 1.149891,2.5998 1.952356,6.0866 3.9851127,7.9433 z m 8.6111754,-13.0147 c 0.884548,-2.3314 -5.8741476,-4.5948 -1.971386,-1.3142 0.500198,0.7034 2.046574,4.1652 1.971386,1.3142 z m 20.487171,7.7259 c 0.378245,-3.2405 -4.883835,-15.7438 -5.857259,-18.28505 -1.40115,-2.70877 -3.308807,-4.4794 -5.322292,-7.4632 -2.041538,-2.57954 -4.579438,-5.0118 -7.127891,-7.21019 -1.402934,-3.01309 -3.956256,-1.83355 -1.325452,0.50257 2.528786,3.84002 5.311699,7.27879 7.971092,10.94846 1.978511,3.44722 9.573958,19.40931 11.661802,21.50741 z m 16.506774,-54.61543 c -1.205463,-0.39679 -1.363588,7.21907 -1.423901,9.79662 -0.156634,4.00654 -0.405152,3.21425 -0.206266,3.67521 0.186574,0.43242 0.442969,4.11345 0.567113,3.76822 0.698548,-1.94249 0.812279,-13.33803 1.063054,-17.24005 z m 45.809576,33.75004 c -1.314771,-5.29316 -2.416113,-10.9189 -5.679723,-15.49098 -2.280127,-0.0558 -2.718788,3.38024 -3.023669,5.18881 0.03084,3.16816 1.431791,6.74807 4.943817,7.71293 1.453433,0.10974 2.800897,3.21103 3.759575,2.58924 z m -50.910102,-1.58553 c -1.125356,-2.58291 -4.052309,-4.33219 -6.182929,-6.13744 -2.773812,-0.36325 -4.314426,-3.12422 -3.892692,-5.60479 -0.872223,-3.50172 13.084746,-5.3699 4.85954,-2.09812 -1.813668,-0.64169 -3.224058,1.58835 -3.229781,3.07529 -0.675848,2.60074 2.777903,3.98167 5.012631,3.25916 0.151841,2.663 3.825713,5.46558 2.128847,1.02316 -1.310361,-2.60353 -1.327797,-5.1357 -2.985865,-7.25512 -0.290477,-3.24225 -1.685101,-7.56272 -3.956434,-10.32354 -2.096206,-2.53125 -2.983787,-5.89325 -5.449202,-8.19184 -2.464165,2.97948 -5.278955,6.0078 -5.765387,9.9592 -0.940999,3.37026 -0.68463,7.11511 1.020699,10.21036 1.459131,3.00994 5.295156,4.44273 7.663434,6.8008 3.188332,2.21181 7.673999,5.20297 10.860216,5.79279 l -0.04385,-0.26894 -0.03913,-0.24097 z m 2.120346,-10.95448 c -1.387729,-3.3698 -4.28436,-9.0261 -6.885504,-13.1554 -1.774896,-2.40938 -4.229081,-8.21306 -6.928802,-8.16993 0.731853,3.7156 3.53767,8.11801 6.234307,11.37432 3.169978,5.67461 7.352039,18.72552 8.149814,24.82126 0.494768,-2.18277 -0.400372,-13.02239 -0.569815,-14.87025 z m 35.559834,-7.6458 c 4.271168,-1.41617 0.864372,-6.29349 -1.607683,-6.02669 0.453076,2.38573 -3.205195,3.27346 -2.016123,5.728 0.733382,2.48157 2.184954,2.1419 3.623806,0.29869 z m -27.483589,-6.17399 c 3.429853,-1.04367 4.049785,-7.29981 -0.633787,-4.94074 -3.150069,-0.0348 -2.848209,5.92946 -1.708337,6.51658 0.72478,-0.45412 1.68231,-1.04318 2.342124,-1.57584 z m 12.863479,-0.20233 c 0.673363,-2.45672 0.603592,-5.69982 1.40208,-7.94386 -1.715079,-1.99678 -6.701938,-3.46693 -5.089756,0.81804 4.201575,1.13819 1.211173,5.14447 2.601769,7.56095 0.412838,0.1091 0.862804,-0.0996 1.085907,-0.43513 z"
       id="path2996-2-2"
       inkscape:connector-curvature="0"
       sodipodi:nodetypes="ccccccccccccccccccccccccccccccccccccccccccccsscccccccccccccccccsccccccccccccccccccccccccccccccccccccccccccsccccccccccccccccccccccccssccccccccccccccccccccccccccccccccccccccccccc" />
    <path
       style="color:#000000;fill:#5aa02c;fill-opacity:1;fill-rule:nonzero;stroke:#1a1a1a;stroke-width:1.50187492;stroke-miterlimit:4;stroke-dasharray:none;marker:none;visibility:visible;display:inline;overflow:visible;enable-background:accumulate"
       d="m 63.40779,1028.2882 c -0.444052,-0.4228 -0.541086,-1.452 -0.508967,-5.3993 0.07176,-8.8101 -2.108913,-13.1289 -7.152797,-15.9327 -3.388442,-1.8837 -3.835591,-2.4208 -3.525217,-4.2349 0.137833,-0.8058 0.688288,-2.77419 0.841289,-4.31985 0.153001,-1.54566 0.476146,-3.03733 0.7181,-3.31484 0.241954,-0.27747 1.534943,-1.13427 2.873306,-1.90398 1.76967,-1.01774 2.820488,-1.39739 3.852569,-1.39191 1.464012,0.008 4.200288,0.99712 4.642862,1.67871 0.445033,0.68539 4.244681,2.30723 7.968377,3.40123 2.117172,0.62201 3.913596,1.36649 4.314325,1.78797 1.195457,1.25733 0.891303,2.94567 -1.143837,6.34907 -1.006768,1.6837 -2.372076,3.9813 -3.034006,5.1059 -0.661942,1.1246 -1.728743,2.598 -2.370661,3.2743 -1.410862,1.4865 -2.275629,3.5045 -3.945117,9.207 -0.697413,2.3821 -1.351619,4.6013 -1.453789,4.9315 -0.297794,0.9624 -1.429484,1.3775 -2.076437,0.7618 z"
       id="path3248-6-5"
       inkscape:connector-curvature="0"
       sodipodi:nodetypes="cscsssscssscscsccc" />
    <path
       style="color:#000000;fill:#5aa02c;fill-opacity:1;fill-rule:nonzero;stroke:#1a1a1a;stroke-width:1.50187492;stroke-miterlimit:4;stroke-dasharray:none;marker:none;visibility:visible;display:inline;overflow:visible;enable-background:accumulate"
       d="m 43.172426,992.42791 c -2.734058,-1.63604 -6.484444,-3.8482 -10.406707,-6.8769 -2.521687,-1.94718 -3.461527,-2.92224 -4.230597,-4.38904 -2.728565,-5.20404 -1.827371,-11.34793 2.48986,-16.9748 l 2.004589,-2.61268 0.778464,0.69608 c 0.428158,0.38288 1.337497,1.74291 2.020776,3.02234 0.683266,1.27941 2.023032,3.55825 2.977249,5.06408 2.098091,3.31095 3.956166,6.77626 3.192117,7.79463 -0.188205,0.25084 -1.199587,0.25936 -1.5075,0.26226 -0.307914,0.003 -1.321004,0.4647 -2.25131,1.02625 -1.665779,1.00553 -1.691449,1.04845 -1.690901,2.82857 7.9e-4,2.54778 0.877258,4.03334 2.93093,4.96774 0.918924,0.4181 2.830532,1.81628 4.232459,3.1223 4.016671,3.74188 4.265598,4.94446 -0.539429,2.06917 z"
       id="path4022-9-7"
       inkscape:connector-curvature="0"
       sodipodi:nodetypes="sssscsssscsssss" />
    <path
       style="color:#000000;fill:#5aa02c;fill-opacity:1;fill-rule:nonzero;stroke:#1a1a1a;stroke-width:1.50187492;stroke-miterlimit:4;stroke-dasharray:none;marker:none;visibility:visible;display:inline;overflow:visible;enable-background:accumulate"
       d="m 4.4506299,1019.0745 c -0.8327108,-1.1628 -2.6394457,-6.1129 -2.8429712,-6.9135 -0.3453611,-1.3584 0.5592618,-0.6113 2.6425048,1.0272 1.066393,0.8387 2.4302866,1.754 3.0223051,2.0396 3.9623234,1.9109 3.5842564,4.662 -0.8776782,6.4605 -0.8436851,0.3401 -1.3756452,-1.532 -1.9441605,-2.6138 z"
       id="path4024-9-0"
       inkscape:connector-curvature="0"
       sodipodi:nodetypes="cssssc" />
    <path
       style="color:#000000;fill:#5aa02c;fill-opacity:1;fill-rule:nonzero;stroke:#1a1a1a;stroke-width:1.50187492;stroke-miterlimit:4;stroke-dasharray:none;marker:none;visibility:visible;display:inline;overflow:visible;enable-background:accumulate"
       d="m 81.396624,975.33841 c -0.766866,-1.4115 -0.677467,-2.02634 0.544145,-3.74229 0.590744,-0.82982 1.074066,-1.71696 1.074066,-1.97145 0,-1.34876 2.780938,0.91334 3.105306,2.52597 0.197051,0.97964 0.05251,1.24793 -1.293345,2.4 -2.182584,1.86835 -2.769836,2.00322 -3.430172,0.78777 l 0,0 z"
       id="path4026-8-1"
       inkscape:connector-curvature="0" />
    <path
       style="color:#000000;fill:#5aa02c;fill-opacity:1;fill-rule:nonzero;stroke:#1a1a1a;stroke-width:1.50187492;stroke-miterlimit:4;stroke-dasharray:none;marker:none;visibility:visible;display:inline;overflow:visible;enable-background:accumulate"
       d="m 53.60442,968.94999 c -0.190512,-3.9902 0.703634,-5.72044 3.869011,-5.45044 1.302408,0.11115 1.970621,0.13389 2.324356,0.77889 0.641982,1.17047 -1.198261,3.54849 -3.109436,4.72283 -0.694457,0.4267 -2.070726,1.91034 -2.359547,2.0806 -0.569739,0.33587 -0.677071,-1.14113 -0.724384,-2.13188 z"
       id="path4028-1-3"
       inkscape:connector-curvature="0"
       sodipodi:nodetypes="ssssss" />
    <path
       style="color:#000000;fill:#5aa02c;fill-opacity:1;fill-rule:nonzero;stroke:#1a1a1a;stroke-width:1.50187492;stroke-miterlimit:4;stroke-dasharray:none;marker:none;visibility:visible;display:inline;overflow:visible;enable-background:accumulate"
       d="m 96.011521,993.88669 c -0.407166,-0.54426 -1.363103,-1.22677 -2.12431,-1.51667 -3.179041,-1.21073 -5.220401,-5.25709 -4.443581,-8.80804 0.396128,-1.81071 1.314708,-3.42826 2.085793,-3.6729 0.854557,-0.27113 3.399378,5.48447 4.807423,10.87288 0.418853,1.60287 0.845546,3.18431 0.948213,3.5143 0.290593,0.93399 -0.4537,0.70631 -1.273538,-0.38958 z"
       id="path4030-9-3"
       inkscape:connector-curvature="0" />
  </g>
</svg>
