<?xml version="1.0" encoding="UTF-8" standalone="no"?>
<!-- Created with Inkscape (http://www.inkscape.org/) -->

<svg
   xmlns:dc="http://purl.org/dc/elements/1.1/"
   xmlns:cc="http://creativecommons.org/ns#"
   xmlns:rdf="http://www.w3.org/1999/02/22-rdf-syntax-ns#"
   xmlns:svg="http://www.w3.org/2000/svg"
   xmlns="http://www.w3.org/2000/svg"
   xmlns:xlink="http://www.w3.org/1999/xlink"
   xmlns:sodipodi="http://sodipodi.sourceforge.net/DTD/sodipodi-0.dtd"
   xmlns:inkscape="http://www.inkscape.org/namespaces/inkscape"
   width="1280"
   height="640"
   viewBox="0 0 338.66666 169.33334"
   version="1.1"
   id="svg8"
   inkscape:version="0.92.4 5da689c313, 2019-01-14"
   sodipodi:docname="pooch-social-banner.svg"
   inkscape:export-filename="pooch-social-banner.png"
   inkscape:export-xdpi="96"
   inkscape:export-ydpi="96">
  <defs
     id="defs2">
    <clipPath
       clipPathUnits="userSpaceOnUse"
       id="clipPath878">
      <rect
         style="fill:none;fill-opacity:1;fill-rule:nonzero;stroke:#000000;stroke-width:0.82255763;stroke-linecap:round;stroke-miterlimit:0;stroke-dasharray:none;stroke-dashoffset:0"
         id="rect880"
         width="184.0878"
         height="144.50725"
         x="-2448.1824"
         y="1528.1724" />
    </clipPath>
    <clipPath
       clipPathUnits="userSpaceOnUse"
       id="clipPath843">
      <rect
         style="fill:#ffffff;fill-opacity:0.61858191;fill-rule:nonzero;stroke:none;stroke-width:0.19956125;stroke-linecap:round;stroke-miterlimit:0;stroke-dasharray:none;stroke-dashoffset:0"
         id="rect845"
         width="338.66666"
         height="169.33333"
         x="-2441.2671"
         y="1389.6095" />
    </clipPath>
    <linearGradient
       id="linearGradient2795">
      <stop
         style="stop-color:#b8b8b8;stop-opacity:0.49803922;"
         offset="0"
         id="stop2797" />
      <stop
         style="stop-color:#7f7f7f;stop-opacity:0;"
         offset="1"
         id="stop2799" />
    </linearGradient>
    <linearGradient
       id="linearGradient2787">
      <stop
         style="stop-color:#7f7f7f;stop-opacity:0.5;"
         offset="0"
         id="stop2789" />
      <stop
         style="stop-color:#7f7f7f;stop-opacity:0;"
         offset="1"
         id="stop2791" />
    </linearGradient>
    <linearGradient
       id="linearGradient3676">
      <stop
         style="stop-color:#b2b2b2;stop-opacity:0.5;"
         offset="0"
         id="stop3678" />
      <stop
         style="stop-color:#b3b3b3;stop-opacity:0;"
         offset="1"
         id="stop3680" />
    </linearGradient>
    <linearGradient
       id="linearGradient3236">
      <stop
         style="stop-color:#f4f4f4;stop-opacity:1"
         offset="0"
         id="stop3244" />
      <stop
         style="stop-color:white;stop-opacity:1"
         offset="1"
         id="stop3240" />
    </linearGradient>
    <linearGradient
       id="linearGradient4671">
      <stop
         style="stop-color:#ffd43b;stop-opacity:1;"
         offset="0"
         id="stop4673" />
      <stop
         style="stop-color:#ffe873;stop-opacity:1"
         offset="1"
         id="stop4675" />
    </linearGradient>
    <linearGradient
       id="linearGradient4689">
      <stop
         style="stop-color:#5a9fd4;stop-opacity:1;"
         offset="0"
         id="stop4691" />
      <stop
         style="stop-color:#306998;stop-opacity:1;"
         offset="1"
         id="stop4693" />
    </linearGradient>
    <linearGradient
       x1="224.23996"
       y1="144.75717"
       x2="-65.308502"
       y2="144.75717"
       id="linearGradient2987"
       xlink:href="#linearGradient4671"
       gradientUnits="userSpaceOnUse"
       gradientTransform="translate(100.2702,99.61116)" />
    <linearGradient
       x1="172.94208"
       y1="77.475983"
       x2="26.670298"
       y2="76.313133"
       id="linearGradient2990"
       xlink:href="#linearGradient4689"
       gradientUnits="userSpaceOnUse"
       gradientTransform="translate(100.2702,99.61116)" />
    <linearGradient
       inkscape:collect="always"
       xlink:href="#linearGradient4671"
       id="linearGradient2255"
       gradientUnits="userSpaceOnUse"
       gradientTransform="matrix(0.562541,0,0,0.567972,-11.5974,-7.60954)"
       x1="224.23996"
       y1="144.75717"
       x2="-65.308502"
       y2="144.75717" />
    <linearGradient
       inkscape:collect="always"
       xlink:href="#linearGradient4689"
       id="linearGradient2258"
       gradientUnits="userSpaceOnUse"
       gradientTransform="matrix(0.562541,0,0,0.567972,-11.5974,-7.60954)"
       x1="172.94208"
       y1="76.176224"
       x2="26.670298"
       y2="76.313133" />
    <radialGradient
       inkscape:collect="always"
       xlink:href="#linearGradient2795"
       id="radialGradient2801"
       cx="61.518883"
       cy="132.28575"
       fx="61.518883"
       fy="132.28575"
       r="29.036913"
       gradientTransform="matrix(1,0,0,0.177966,0,108.7434)"
       gradientUnits="userSpaceOnUse" />
    <radialGradient
       inkscape:collect="always"
       xlink:href="#linearGradient2795"
       id="radialGradient2801-3"
       cx="61.518883"
       cy="132.28575"
       fx="61.518883"
       fy="132.28575"
       r="29.036913"
       gradientTransform="matrix(1,0,0,0.177966,0,108.7434)"
       gradientUnits="userSpaceOnUse" />
  </defs>
  <sodipodi:namedview
     id="base"
     pagecolor="#ffffff"
     bordercolor="#666666"
     borderopacity="1.0"
     inkscape:pageopacity="0.0"
     inkscape:pageshadow="2"
     inkscape:zoom="0.56900296"
     inkscape:cx="899.57593"
     inkscape:cy="29.384429"
     inkscape:document-units="mm"
     inkscape:current-layer="layer1-5"
     showgrid="false"
     inkscape:window-width="1596"
     inkscape:window-height="1796"
     inkscape:window-x="1600"
     inkscape:window-y="0"
     inkscape:window-maximized="0"
     fit-margin-top="0"
     fit-margin-left="0"
     fit-margin-right="0"
     fit-margin-bottom="0"
     units="px" />
  <metadata
     id="metadata5">
    <rdf:RDF>
      <cc:Work
         rdf:about="">
        <dc:format>image/svg+xml</dc:format>
        <dc:type
           rdf:resource="http://purl.org/dc/dcmitype/StillImage" />
        <dc:title />
      </cc:Work>
    </rdf:RDF>
  </metadata>
  <g
     inkscape:label="Layer 1"
     inkscape:groupmode="layer"
     id="layer1"
     transform="translate(111.36749,266.3535)">
    <g
       transform="translate(2329.8996,-1655.963)"
       id="layer1-5"
       inkscape:label="Layer 1">
      <rect
         style="fill:#333333;fill-opacity:1;fill-rule:nonzero;stroke:none;stroke-width:0.1;stroke-linecap:round;stroke-miterlimit:0;stroke-dasharray:none;stroke-dashoffset:0"
         id="rect992"
         width="338.66666"
         height="169.33333"
         x="-2441.2671"
         y="1389.6095" />
      <flowRoot
         xml:space="preserve"
         id="flowRoot868"
         style="font-style:normal;font-variant:normal;font-weight:normal;font-stretch:normal;font-size:21.33333397px;line-height:1.25;font-family:Arial;-inkscape-font-specification:Arial;letter-spacing:0px;word-spacing:0px;fill:#000000;fill-opacity:1;stroke:none"
         transform="matrix(0.26458333,0,0,0.26458333,-2329.8996,1655.963)"><flowRegion
           id="flowRegion870"><rect
             id="rect872"
             width="174.29614"
             height="36.927151"
             x="-83.45536"
             y="-257.81717" /></flowRegion><flowPara
           id="flowPara874" /></flowRoot>      <g
         id="g943"
         transform="matrix(0.9184293,0,0,0.9184293,-2470.2309,1262.7667)">
        <path
           inkscape:connector-curvature="0"
           id="path1076-4-6"
           d="M 118.58514,230.29485 Z"
           style="fill:none;stroke:#000000;stroke-width:0.24802677px;stroke-linecap:butt;stroke-linejoin:miter;stroke-opacity:1" />
        <path
           id="path1395-9-7"
           d="m 108.93845,180.02407 -18.365531,9.37935 0.513203,3.15203 c -0.107408,0.0187 -0.209781,0.0594 -0.300681,0.11964 -1.903862,1.22952 -2.839298,1.02948 -4.108386,0.79263 -1.20476,-0.22482 -2.758505,-0.4807 -4.718405,0.52069 l -2.72069,-0.46559 c -1.054703,-0.20198 -1.329248,1.39563 -0.267621,1.55733 l 1.816285,0.31091 -1.030737,1.75529 c -0.565203,0.91642 0.837533,1.74015 1.362508,0.80011 l 1.471134,-2.50345 c 1.629232,-0.87699 2.52549,-0.6581 3.797472,-0.42072 1.259763,0.2351 2.885476,0.39528 4.963594,-0.84103 l 0.503365,3.08158 20.3605,2.86316 4.72234,-6.19859 c 11.0987,-1.84651 19.60737,-0.0989 25.36581,4.28391 5.75843,4.38277 9.3876,11.68705 9.69106,23.03199 0.4135,15.45925 -8.00819,25.23374 -20.22394,32.76791 -12.05537,7.40862 -26.59007,11.23951 -41.192483,14.36735 -0.004,8.1e-4 -0.0078,0.002 -0.0118,0.003 -8.910909,1.84221 -19.849997,2.48182 -29.596593,2.47512 l -0.0059,9.70875 c 10.171905,0.007 21.602178,-0.6121 31.602969,-2.68368 l 0.01653,-0.004 0.01614,-0.003 c 14.882987,-3.18753 30.532747,-7.15725 44.261477,-15.59605 l 0.003,-0.003 0.002,-0.002 c 13.89135,-8.56759 25.3477,-22.01472 24.83214,-41.28927 -0.35847,-13.402 -5.08519,-24.08166 -13.51528,-30.49784 -6.32258,-4.81215 -14.37926,-7.06466 -23.45311,-6.98493 -3.02462,0.0266 -6.16186,0.31289 -9.38604,0.84931 z"
           style="color:#000000;font-style:normal;font-variant:normal;font-weight:normal;font-stretch:normal;font-size:medium;line-height:normal;font-family:sans-serif;font-variant-ligatures:normal;font-variant-position:normal;font-variant-caps:normal;font-variant-numeric:normal;font-variant-alternates:normal;font-feature-settings:normal;text-indent:0;text-align:start;text-decoration:none;text-decoration-line:none;text-decoration-style:solid;text-decoration-color:#000000;letter-spacing:normal;word-spacing:normal;text-transform:none;writing-mode:lr-tb;direction:ltr;text-orientation:mixed;dominant-baseline:auto;baseline-shift:baseline;text-anchor:start;white-space:normal;shape-padding:0;clip-rule:nonzero;display:inline;overflow:visible;visibility:visible;opacity:1;isolation:auto;mix-blend-mode:normal;color-interpolation:sRGB;color-interpolation-filters:linearRGB;solid-color:#000000;solid-opacity:1;vector-effect:none;fill:#3180bd;fill-opacity:1;fill-rule:nonzero;stroke:none;stroke-width:1.5802778;stroke-linecap:round;stroke-linejoin:miter;stroke-miterlimit:4;stroke-dasharray:none;stroke-dashoffset:0;stroke-opacity:1;color-rendering:auto;image-rendering:auto;shape-rendering:auto;text-rendering:auto;enable-background:accumulate"
           inkscape:connector-curvature="0" />
        <path
           d="m 113.9142,270.68871 c 0.91221,-1.41157 11.85162,-5.32437 13.81343,-4.85896 2.77337,0.65795 -2.76801,5.73151 -5.45926,6.67816 -2.69126,0.94667 -9.9174,0.59974 -8.35417,-1.8192 z m 10.00556,-64.76478 c -1.85917,0.013 -3.71788,0.16107 -5.5685,0.48212 l -0.54272,0.10311 c 8.04335,9.58729 15.61889,19.86475 26.16001,26.73068 -0.60845,-8.34113 -2.44079,-16.51803 -3.50111,-24.80026 -5.38751,-1.37687 -10.97017,-2.55463 -16.54768,-2.51565 z m -7.84171,3.15794 c -4.96711,0.81971 -10.32091,2.112 -14.42953,3.36574 l -0.009,-0.028 c -4.080762,1.49703 -9.295766,3.78631 -13.880118,6.22024 -0.331292,5.47721 -0.531913,11.01692 -1.014992,16.50163 -0.02088,0.24367 -0.04292,0.487 -0.06494,0.73045 -0.0104,0.1119 -0.02121,0.22386 -0.03188,0.33571 -0.38048,4.09815 -0.932878,8.16208 -1.844229,12.11815 l 7.558345,10.90282 c 7.463018,7.96666 15.525914,13.51954 25.593294,3.65579 13.90909,1.78976 17.09423,-7.57237 18.37262,-18.50446 l -0.37782,-13.3307 c -3.06244,-2.61239 -5.90094,-5.52987 -8.62214,-8.57924 -0.0745,-0.0831 -0.14882,-0.16588 -0.22315,-0.24913 -0.16119,-0.18151 -0.32248,-0.36312 -0.4829,-0.54548 -3.62097,-4.09698 -7.04848,-8.41017 -10.54351,-12.59357 z m -31.221215,8.5517 -0.495495,0.24794 c -6.683766,3.47885 -11.838615,9.25014 -16.507139,15.09347 4.034955,7.27641 7.389543,14.93864 11.821006,21.98708 4.390641,-11.91484 4.395454,-24.75566 5.181628,-37.32849 z m 33.847055,25.64484 -3.06073,12.47353 -9.82132,-8.1357 c 4.24542,-1.63581 8.55128,-2.95247 12.88205,-4.33783 z"
           style="fill:#ffd21d;fill-opacity:1;stroke-width:0.76439416"
           id="path900-9"
           inkscape:connector-curvature="0" />
      </g>
      <g
         id="g1053"
         transform="translate(0,0.79385317)">
        <g
           transform="matrix(2.7072134,0,0,2.7072134,4118.1143,-2578.6635)"
           id="text820"
           style="font-style:normal;font-variant:normal;font-weight:normal;font-stretch:normal;font-size:28.29571724px;line-height:1.29999995;font-family:'EB Garamond';-inkscape-font-specification:'EB Garamond';text-align:center;letter-spacing:0px;word-spacing:0px;text-anchor:middle;fill:#f2f2f2;fill-opacity:1;stroke:none;stroke-width:0.70739293"
           aria-label="Pooch">
          <path
             inkscape:connector-curvature="0"
             id="path822"
             style="fill:#f2f2f2;stroke-width:0.70739293"
             d="m -2373.8965,1500.8119 q -0.8206,0 -0.8206,-0.3113 0,-0.198 0.2264,-0.3112 0.2263,-0.1132 0.7074,-0.1981 1.1035,-0.1981 1.5845,-0.6508 0.481,-0.481 0.481,-1.4997 V 1485.9 q 0,-1.3581 -0.3678,-2.009 -0.3396,-0.6508 -1.3582,-0.8205 -0.9338,-0.1698 -0.9338,-0.5659 0,-0.3113 0.8206,-0.3113 1.2167,0 1.5846,0.028 h 1.1884 q 0.4244,0 0.9904,-0.028 0.5659,-0.028 0.8488,-0.057 0.7357,-0.085 1.3016,-0.085 3.254,0 5.2064,1.3582 1.9524,1.3299 1.9524,3.6785 0,1.7826 -0.7074,3.254 -0.679,1.4431 -2.1221,2.2919 -1.4148,0.8489 -3.5087,0.8489 -0.5659,0 -0.9338,-0.1698 -0.3395,-0.1698 -0.3395,-0.3678 0,-0.1132 0.1415,-0.2547 0.1697,-0.1415 0.3112,-0.1415 0.085,0 0.4245,0.028 0.3678,0.028 0.8771,0.028 1.6695,0 2.5466,-1.3865 0.8772,-1.3864 0.8772,-3.9331 0,-2.1787 -1.3016,-3.3106 -1.2733,-1.1318 -3.4238,-1.1318 -1.8109,0 -1.8109,1.1884 v 13.4971 q 0,1.0752 0.4244,1.6694 0.4528,0.5942 1.4714,0.7923 0.481,0.085 0.7074,0.1981 0.2264,0.1132 0.2264,0.3112 0,0.3113 -0.8206,0.3113 -0.9055,0 -1.6412,-0.1132 -0.5093,-0.085 -1.1318,-0.085 -0.5093,0 -1.0469,0.057 -0.5094,0.028 -0.7357,0.028 -1.1318,0.1132 -1.8958,0.1132 z" />
          <path
             inkscape:connector-curvature="0"
             id="path824"
             style="fill:#f2f2f2;stroke-width:0.70739293"
             d="m -2354.5719,1501.0666 q -1.5562,0 -2.8578,-0.7357 -1.2734,-0.7357 -2.0373,-2.0373 -0.7357,-1.3016 -0.7357,-2.9145 0,-1.5563 0.8205,-3.0559 0.8489,-1.4997 2.2637,-2.4335 1.4431,-0.9337 3.1125,-0.9337 1.6129,0 2.9428,0.7923 1.3299,0.7639 2.0939,2.0938 0.7923,1.3016 0.7923,2.8013 0,1.6978 -0.7357,3.1691 -0.7357,1.4714 -2.1788,2.3769 -1.4431,0.8772 -3.4804,0.8772 z m 0.5942,-0.8489 q 2.1222,0 2.9145,-1.5563 0.5659,-1.1035 0.5659,-3.3389 0,-1.3582 -0.5093,-2.6315 -0.5093,-1.2733 -1.4148,-2.0656 -0.9055,-0.7922 -2.0656,-0.7922 -0.8206,0 -1.4148,0.2546 -0.5942,0.2547 -1.0752,0.8772 -0.5093,0.6508 -0.7074,1.6128 -0.1981,0.9338 -0.1981,2.1505 0,1.4148 0.5093,2.6881 0.5094,1.245 1.3865,2.0373 0.9055,0.764 2.009,0.764 z" />
          <path
             inkscape:connector-curvature="0"
             id="path826"
             style="fill:#f2f2f2;stroke-width:0.70739293"
             d="m -2340.5898,1501.0666 q -1.5563,0 -2.8579,-0.7357 -1.2733,-0.7357 -2.0373,-2.0373 -0.7357,-1.3016 -0.7357,-2.9145 0,-1.5563 0.8206,-3.0559 0.8489,-1.4997 2.2637,-2.4335 1.4431,-0.9337 3.1125,-0.9337 1.6129,0 2.9428,0.7923 1.3299,0.7639 2.0938,2.0938 0.7923,1.3016 0.7923,2.8013 0,1.6978 -0.7357,3.1691 -0.7357,1.4714 -2.1787,2.3769 -1.4431,0.8772 -3.4804,0.8772 z m 0.5942,-0.8489 q 2.1222,0 2.9145,-1.5563 0.5659,-1.1035 0.5659,-3.3389 0,-1.3582 -0.5094,-2.6315 -0.5093,-1.2733 -1.4147,-2.0656 -0.9055,-0.7922 -2.0656,-0.7922 -0.8206,0 -1.4148,0.2546 -0.5942,0.2547 -1.0753,0.8772 -0.5093,0.6508 -0.7073,1.6128 -0.1981,0.9338 -0.1981,2.1505 0,1.4148 0.5093,2.6881 0.5093,1.245 1.3865,2.0373 0.9055,0.764 2.009,0.764 z" />
          <path
             inkscape:connector-curvature="0"
             id="path828"
             style="fill:#f2f2f2;stroke-width:0.70739293"
             d="m -2327.202,1501.0948 q -1.4147,0 -2.5749,-0.7073 -1.1318,-0.7357 -1.8109,-1.9807 -0.6508,-1.2734 -0.6508,-2.8296 0,-1.8109 0.7923,-3.3106 0.8206,-1.528 2.1788,-2.4052 1.3581,-0.9054 2.9993,-0.9054 1.8392,0 3.2257,0.9903 0.3396,0.2547 0.3396,0.5377 0,0.3678 -0.4245,0.7639 -0.4244,0.3962 -0.7923,0.3962 -0.1414,0 -0.2829,-0.085 -0.1415,-0.1132 -0.3113,-0.2264 -0.7074,-0.5376 -1.4431,-0.9337 -0.7356,-0.3962 -1.2167,-0.3962 -1.3865,0 -2.2636,1.3016 -0.8489,1.3016 -0.8489,3.3672 0,1.3016 0.5659,2.4052 0.5659,1.0752 1.5563,1.6977 0.9903,0.6225 2.1788,0.6225 0.8205,0 1.4147,-0.2547 0.5942,-0.2829 1.2733,-0.962 0.1415,-0.1415 0.283,-0.1415 0.1415,0 0.2264,0.1132 0.085,0.1132 0.085,0.2829 0,0.3113 -0.4245,0.8772 -0.6791,0.8772 -1.726,1.3299 -1.047,0.4527 -2.3486,0.4527 z" />
          <path
             inkscape:connector-curvature="0"
             id="path830"
             style="fill:#f2f2f2;stroke-width:0.70739293"
             d="m -2320.6303,1500.7553 q -0.5659,0 -0.5659,-0.3113 0,-0.1697 0.1415,-0.2546 0.1415,-0.085 0.5093,-0.1981 0.5659,-0.1698 0.8772,-0.3961 0.3112,-0.2547 0.3395,-0.764 v -14.1762 q 0,-1.8109 -1.245,-2.0373 -0.2547,-0.056 -0.2547,-0.3961 0,-0.2547 0.2264,-0.3395 2.2354,-0.7074 3.1408,-1.1036 0.1132,-0.057 0.1698,-0.057 0.1981,0 0.1981,0.1981 0,0.1415 -0.1415,0.8772 -0.1132,0.7074 -0.1132,2.971 v 4.9235 q 0,0.4244 0.028,0.6508 0.057,0.198 0.1698,0.3961 2.4051,-1.7826 4.3009,-1.7826 1.3865,0 2.292,1.1035 0.9337,1.1035 0.9337,2.7447 v 5.9421 q 0,0.9055 1.1602,1.245 0.3395,0.085 0.481,0.1981 0.1698,0.085 0.1698,0.2546 0,0.3113 -0.5659,0.3113 -0.7074,0 -1.1885,-0.085 -0.5659,-0.057 -1.0186,-0.057 -0.4527,0 -1.0187,0.057 -0.4527,0.085 -1.1884,0.085 -0.5659,0 -0.5659,-0.3113 0,-0.1697 0.1132,-0.2263 0.1415,-0.085 0.5376,-0.2264 0.5093,-0.1698 0.7923,-0.4527 0.3112,-0.283 0.3112,-0.7923 v -5.7723 q 0,-0.6791 -0.3961,-1.245 -0.3961,-0.5942 -1.0186,-0.9338 -0.5942,-0.3678 -1.2168,-0.3678 -0.5942,0 -1.3016,0.1697 -0.6791,0.1698 -1.0469,0.4528 -0.4527,0.3678 -0.6225,0.7922 -0.1415,0.3962 -0.1415,1.2451 v 5.744 q 0.028,0.5093 0.3113,0.764 0.2829,0.2263 0.7923,0.3961 0.3112,0.085 0.4527,0.1981 0.1698,0.085 0.1698,0.2546 0,0.1698 -0.1415,0.2264 -0.1132,0.085 -0.4245,0.085 -0.7356,0 -1.1601,-0.085 -0.5093,-0.057 -0.9903,-0.057 -0.4528,0 -1.0753,0.057 -0.4527,0.085 -1.2167,0.085 z" />
        </g>
        <text
           id="text856"
           y="1514.1036"
           x="-2219.9238"
           style="font-style:normal;font-variant:normal;font-weight:normal;font-stretch:normal;font-size:12.06417847px;line-height:1.29999995;font-family:'EB Garamond';-inkscape-font-specification:'EB Garamond';text-align:center;letter-spacing:0px;word-spacing:0px;text-anchor:middle;fill:#cccccc;fill-opacity:1;stroke:none;stroke-width:0.30160445"
           xml:space="preserve"><tspan
             dx="0"
             style="font-style:normal;font-variant:normal;font-weight:normal;font-stretch:normal;font-family:'Noto Serif';-inkscape-font-specification:'Noto Serif';letter-spacing:0px;word-spacing:0.45734763px;fill:#cccccc;stroke-width:0.30160445"
             y="1514.1036"
             x="-2219.9238"
             id="tspan854"
             sodipodi:role="line">A friend to fetch your data files</tspan></text>
      </g>
    </g>
  </g>
</svg>
