<?xml version="1.0" encoding="UTF-8" standalone="no"?>
<svg
   inkscape:export-ydpi="96"
   inkscape:export-xdpi="96"
   inkscape:export-filename="pooch-social-banner.png"
   sodipodi:docname="pooch-social-banner.svg"
   inkscape:version="1.1.2 (0a00cf5339, 2022-02-04, custom)"
   id="svg8"
   version="1.1"
   viewBox="0 0 338.66666 169.33334"
   height="640"
   width="1280"
   xmlns:inkscape="http://www.inkscape.org/namespaces/inkscape"
   xmlns:sodipodi="http://sodipodi.sourceforge.net/DTD/sodipodi-0.dtd"
   xmlns:xlink="http://www.w3.org/1999/xlink"
   xmlns="http://www.w3.org/2000/svg"
   xmlns:svg="http://www.w3.org/2000/svg"
   xmlns:rdf="http://www.w3.org/1999/02/22-rdf-syntax-ns#"
   xmlns:cc="http://creativecommons.org/ns#"
   xmlns:dc="http://purl.org/dc/elements/1.1/">
  <defs
     id="defs2">
    <clipPath
       id="clipPath878"
       clipPathUnits="userSpaceOnUse">
      <rect
         y="1528.1724"
         x="-2448.1824"
         height="144.50725"
         width="184.0878"
         id="rect880"
         style="fill:none;fill-opacity:1;fill-rule:nonzero;stroke:#000000;stroke-width:0.82255763;stroke-linecap:round;stroke-miterlimit:0;stroke-dasharray:none;stroke-dashoffset:0" />
    </clipPath>
    <clipPath
       id="clipPath843"
       clipPathUnits="userSpaceOnUse">
      <rect
         y="1389.6095"
         x="-2441.2671"
         height="169.33333"
         width="338.66666"
         id="rect845"
         style="fill:#ffffff;fill-opacity:0.61858191;fill-rule:nonzero;stroke:none;stroke-width:0.19956125;stroke-linecap:round;stroke-miterlimit:0;stroke-dasharray:none;stroke-dashoffset:0" />
    </clipPath>
    <linearGradient
       id="linearGradient2795">
      <stop
         id="stop2797"
         offset="0"
         style="stop-color:#b8b8b8;stop-opacity:0.49803922;" />
      <stop
         id="stop2799"
         offset="1"
         style="stop-color:#7f7f7f;stop-opacity:0;" />
    </linearGradient>
    <linearGradient
       id="linearGradient2787">
      <stop
         id="stop2789"
         offset="0"
         style="stop-color:#7f7f7f;stop-opacity:0.5;" />
      <stop
         id="stop2791"
         offset="1"
         style="stop-color:#7f7f7f;stop-opacity:0;" />
    </linearGradient>
    <linearGradient
       id="linearGradient3676">
      <stop
         id="stop3678"
         offset="0"
         style="stop-color:#b2b2b2;stop-opacity:0.5;" />
      <stop
         id="stop3680"
         offset="1"
         style="stop-color:#b3b3b3;stop-opacity:0;" />
    </linearGradient>
    <linearGradient
       id="linearGradient3236">
      <stop
         id="stop3244"
         offset="0"
         style="stop-color:#f4f4f4;stop-opacity:1" />
      <stop
         id="stop3240"
         offset="1"
         style="stop-color:white;stop-opacity:1" />
    </linearGradient>
    <linearGradient
       id="linearGradient4671">
      <stop
         id="stop4673"
         offset="0"
         style="stop-color:#ffd43b;stop-opacity:1;" />
      <stop
         id="stop4675"
         offset="1"
         style="stop-color:#ffe873;stop-opacity:1" />
    </linearGradient>
    <linearGradient
       id="linearGradient4689">
      <stop
         id="stop4691"
         offset="0"
         style="stop-color:#5a9fd4;stop-opacity:1;" />
      <stop
         id="stop4693"
         offset="1"
         style="stop-color:#306998;stop-opacity:1;" />
    </linearGradient>
    <linearGradient
       gradientTransform="translate(100.2702,99.61116)"
       gradientUnits="userSpaceOnUse"
       xlink:href="#linearGradient4671"
       id="linearGradient2987"
       y2="144.75717"
       x2="-65.308502"
       y1="144.75717"
       x1="224.23996" />
    <linearGradient
       gradientTransform="translate(100.2702,99.61116)"
       gradientUnits="userSpaceOnUse"
       xlink:href="#linearGradient4689"
       id="linearGradient2990"
       y2="76.313133"
       x2="26.670298"
       y1="77.475983"
       x1="172.94208" />
    <linearGradient
       y2="144.75717"
       x2="-65.308502"
       y1="144.75717"
       x1="224.23996"
       gradientTransform="matrix(0.562541,0,0,0.567972,-11.5974,-7.60954)"
       gradientUnits="userSpaceOnUse"
       id="linearGradient2255"
       xlink:href="#linearGradient4671"
       inkscape:collect="always" />
    <linearGradient
       y2="76.313133"
       x2="26.670298"
       y1="76.176224"
       x1="172.94208"
       gradientTransform="matrix(0.562541,0,0,0.567972,-11.5974,-7.60954)"
       gradientUnits="userSpaceOnUse"
       id="linearGradient2258"
       xlink:href="#linearGradient4689"
       inkscape:collect="always" />
    <radialGradient
       gradientUnits="userSpaceOnUse"
       gradientTransform="matrix(1,0,0,0.177966,0,108.7434)"
       r="29.036913"
       fy="132.28575"
       fx="61.518883"
       cy="132.28575"
       cx="61.518883"
       id="radialGradient2801"
       xlink:href="#linearGradient2795"
       inkscape:collect="always" />
    <radialGradient
       gradientUnits="userSpaceOnUse"
       gradientTransform="matrix(1,0,0,0.177966,0,108.7434)"
       r="29.036913"
       fy="132.28575"
       fx="61.518883"
       cy="132.28575"
       cx="61.518883"
       id="radialGradient2801-3"
       xlink:href="#linearGradient2795"
       inkscape:collect="always" />
  </defs>
  <sodipodi:namedview
     inkscape:document-rotation="0"
     units="px"
     fit-margin-bottom="0"
     fit-margin-right="0"
     fit-margin-left="0"
     fit-margin-top="0"
     inkscape:window-maximized="0"
     inkscape:window-y="21"
     inkscape:window-x="2560"
     inkscape:window-height="1044"
     inkscape:window-width="958"
     showgrid="false"
     inkscape:current-layer="layer1-5"
     inkscape:document-units="mm"
     inkscape:cy="-18.076153"
     inkscape:cx="778.56575"
     inkscape:zoom="0.38725053"
     inkscape:pageshadow="2"
     inkscape:pageopacity="0.0"
     borderopacity="1.0"
     bordercolor="#666666"
     pagecolor="#ffffff"
     id="base"
     inkscape:pagecheckerboard="0" />
  <metadata
     id="metadata5">
    <rdf:RDF>
      <cc:Work
         rdf:about="">
        <dc:format>image/svg+xml</dc:format>
        <dc:type
           rdf:resource="http://purl.org/dc/dcmitype/StillImage" />
        <dc:title />
      </cc:Work>
    </rdf:RDF>
  </metadata>
  <g
     transform="translate(111.36749,266.3535)"
     id="layer1"
     inkscape:groupmode="layer"
     inkscape:label="Layer 1">
    <g
       inkscape:label="Layer 1"
       id="layer1-5"
       transform="translate(2329.8996,-1655.963)">
      <rect
         y="1389.6095"
         x="-2441.2671"
         height="169.33333"
         width="338.66666"
         id="rect992"
         style="fill:#1a1a1a;fill-opacity:1;fill-rule:nonzero;stroke:none;stroke-width:0.1;stroke-linecap:round;stroke-miterlimit:0;stroke-dasharray:none;stroke-dashoffset:0" />
      <flowRoot
         transform="matrix(0.26458333,0,0,0.26458333,-2329.8996,1655.963)"
         style="font-style:normal;font-variant:normal;font-weight:normal;font-stretch:normal;font-size:21.3333px;line-height:1.25;font-family:Arial;-inkscape-font-specification:Arial;letter-spacing:0px;word-spacing:0px;fill:#000000;fill-opacity:1;stroke:none"
         id="flowRoot868"
         xml:space="preserve"><flowRegion
           id="flowRegion870"><rect
             y="-257.81717"
             x="-83.45536"
             height="36.927151"
             width="174.29614"
             id="rect872" /></flowRegion><flowPara
           id="flowPara874" /></flowRoot>
      <g
         transform="matrix(0.9184293,0,0,0.9184293,-2470.2309,1262.7667)"
         id="g943">
        <path
           style="fill:none;stroke:#000000;stroke-width:0.24802677px;stroke-linecap:butt;stroke-linejoin:miter;stroke-opacity:1"
           d="M 118.58514,230.29485 Z"
           id="path1076-4-6"
           inkscape:connector-curvature="0" />
        <path
           inkscape:connector-curvature="0"
           style="color:#000000;font-style:normal;font-variant:normal;font-weight:normal;font-stretch:normal;font-size:medium;line-height:normal;font-family:sans-serif;font-variant-ligatures:normal;font-variant-position:normal;font-variant-caps:normal;font-variant-numeric:normal;font-variant-alternates:normal;font-feature-settings:normal;text-indent:0;text-align:start;text-decoration:none;text-decoration-line:none;text-decoration-style:solid;text-decoration-color:#000000;letter-spacing:normal;word-spacing:normal;text-transform:none;writing-mode:lr-tb;direction:ltr;text-orientation:mixed;dominant-baseline:auto;baseline-shift:baseline;text-anchor:start;white-space:normal;shape-padding:0;clip-rule:nonzero;display:inline;overflow:visible;visibility:visible;opacity:1;isolation:auto;mix-blend-mode:normal;color-interpolation:sRGB;color-interpolation-filters:linearRGB;solid-color:#000000;solid-opacity:1;vector-effect:none;fill:#3180bd;fill-opacity:1;fill-rule:nonzero;stroke:none;stroke-width:1.5802778;stroke-linecap:round;stroke-linejoin:miter;stroke-miterlimit:4;stroke-dasharray:none;stroke-dashoffset:0;stroke-opacity:1;color-rendering:auto;image-rendering:auto;shape-rendering:auto;text-rendering:auto;enable-background:accumulate"
           d="m 108.93845,180.02407 -18.365531,9.37935 0.513203,3.15203 c -0.107408,0.0187 -0.209781,0.0594 -0.300681,0.11964 -1.903862,1.22952 -2.839298,1.02948 -4.108386,0.79263 -1.20476,-0.22482 -2.758505,-0.4807 -4.718405,0.52069 l -2.72069,-0.46559 c -1.054703,-0.20198 -1.329248,1.39563 -0.267621,1.55733 l 1.816285,0.31091 -1.030737,1.75529 c -0.565203,0.91642 0.837533,1.74015 1.362508,0.80011 l 1.471134,-2.50345 c 1.629232,-0.87699 2.52549,-0.6581 3.797472,-0.42072 1.259763,0.2351 2.885476,0.39528 4.963594,-0.84103 l 0.503365,3.08158 20.3605,2.86316 4.72234,-6.19859 c 11.0987,-1.84651 19.60737,-0.0989 25.36581,4.28391 5.75843,4.38277 9.3876,11.68705 9.69106,23.03199 0.4135,15.45925 -8.00819,25.23374 -20.22394,32.76791 -12.05537,7.40862 -26.59007,11.23951 -41.192483,14.36735 -0.004,8.1e-4 -0.0078,0.002 -0.0118,0.003 -8.910909,1.84221 -19.849997,2.48182 -29.596593,2.47512 l -0.0059,9.70875 c 10.171905,0.007 21.602178,-0.6121 31.602969,-2.68368 l 0.01653,-0.004 0.01614,-0.003 c 14.882987,-3.18753 30.532747,-7.15725 44.261477,-15.59605 l 0.003,-0.003 0.002,-0.002 c 13.89135,-8.56759 25.3477,-22.01472 24.83214,-41.28927 -0.35847,-13.402 -5.08519,-24.08166 -13.51528,-30.49784 -6.32258,-4.81215 -14.37926,-7.06466 -23.45311,-6.98493 -3.02462,0.0266 -6.16186,0.31289 -9.38604,0.84931 z"
           id="path1395-9-7" />
        <path
           inkscape:connector-curvature="0"
           id="path900-9"
           style="fill:#ffd21d;fill-opacity:1;stroke-width:0.76439416"
           d="m 113.9142,270.68871 c 0.91221,-1.41157 11.85162,-5.32437 13.81343,-4.85896 2.77337,0.65795 -2.76801,5.73151 -5.45926,6.67816 -2.69126,0.94667 -9.9174,0.59974 -8.35417,-1.8192 z m 10.00556,-64.76478 c -1.85917,0.013 -3.71788,0.16107 -5.5685,0.48212 l -0.54272,0.10311 c 8.04335,9.58729 15.61889,19.86475 26.16001,26.73068 -0.60845,-8.34113 -2.44079,-16.51803 -3.50111,-24.80026 -5.38751,-1.37687 -10.97017,-2.55463 -16.54768,-2.51565 z m -7.84171,3.15794 c -4.96711,0.81971 -10.32091,2.112 -14.42953,3.36574 l -0.009,-0.028 c -4.080762,1.49703 -9.295766,3.78631 -13.880118,6.22024 -0.331292,5.47721 -0.531913,11.01692 -1.014992,16.50163 -0.02088,0.24367 -0.04292,0.487 -0.06494,0.73045 -0.0104,0.1119 -0.02121,0.22386 -0.03188,0.33571 -0.38048,4.09815 -0.932878,8.16208 -1.844229,12.11815 l 7.558345,10.90282 c 7.463018,7.96666 15.525914,13.51954 25.593294,3.65579 13.90909,1.78976 17.09423,-7.57237 18.37262,-18.50446 l -0.37782,-13.3307 c -3.06244,-2.61239 -5.90094,-5.52987 -8.62214,-8.57924 -0.0745,-0.0831 -0.14882,-0.16588 -0.22315,-0.24913 -0.16119,-0.18151 -0.32248,-0.36312 -0.4829,-0.54548 -3.62097,-4.09698 -7.04848,-8.41017 -10.54351,-12.59357 z m -31.221215,8.5517 -0.495495,0.24794 c -6.683766,3.47885 -11.838615,9.25014 -16.507139,15.09347 4.034955,7.27641 7.389543,14.93864 11.821006,21.98708 4.390641,-11.91484 4.395454,-24.75566 5.181628,-37.32849 z m 33.847055,25.64484 -3.06073,12.47353 -9.82132,-8.1357 c 4.24542,-1.63581 8.55128,-2.95247 12.88205,-4.33783 z" />
      </g>
      <g
         transform="translate(0,-10.762527)"
         id="g1020">
        <g
           aria-label="Pooch"
           style="font-style:normal;font-variant:normal;font-weight:normal;font-stretch:normal;font-size:28.2957px;line-height:1.3;font-family:'EB Garamond';-inkscape-font-specification:'EB Garamond';text-align:center;letter-spacing:0px;word-spacing:0px;text-anchor:middle;fill:#f2f2f2;fill-opacity:1;stroke:none;stroke-width:0.707393"
           id="text820"
           transform="matrix(2.7072134,0,0,2.7072134,4118.1143,-2577.8696)">
          <path
             d="m -2373.8965,1500.8119 q -0.8206,0 -0.8206,-0.3113 0,-0.198 0.2264,-0.3112 0.2263,-0.1132 0.7074,-0.1981 1.1035,-0.1981 1.5845,-0.6508 0.481,-0.481 0.481,-1.4997 V 1485.9 q 0,-1.3581 -0.3678,-2.009 -0.3396,-0.6508 -1.3582,-0.8205 -0.9338,-0.1698 -0.9338,-0.5659 0,-0.3113 0.8206,-0.3113 1.2167,0 1.5846,0.028 h 1.1884 q 0.4244,0 0.9904,-0.028 0.5659,-0.028 0.8488,-0.057 0.7357,-0.085 1.3016,-0.085 3.254,0 5.2064,1.3582 1.9524,1.3299 1.9524,3.6785 0,1.7826 -0.7074,3.254 -0.679,1.4431 -2.1221,2.2919 -1.4148,0.8489 -3.5087,0.8489 -0.5659,0 -0.9338,-0.1698 -0.3395,-0.1698 -0.3395,-0.3678 0,-0.1132 0.1415,-0.2547 0.1697,-0.1415 0.3112,-0.1415 0.085,0 0.4245,0.028 0.3678,0.028 0.8771,0.028 1.6695,0 2.5466,-1.3865 0.8772,-1.3864 0.8772,-3.9331 0,-2.1787 -1.3016,-3.3106 -1.2733,-1.1318 -3.4238,-1.1318 -1.8109,0 -1.8109,1.1884 v 13.4971 q 0,1.0752 0.4244,1.6694 0.4528,0.5942 1.4714,0.7923 0.481,0.085 0.7074,0.1981 0.2264,0.1132 0.2264,0.3112 0,0.3113 -0.8206,0.3113 -0.9055,0 -1.6412,-0.1132 -0.5093,-0.085 -1.1318,-0.085 -0.5093,0 -1.0469,0.057 -0.5094,0.028 -0.7357,0.028 -1.1318,0.1132 -1.8958,0.1132 z"
             style="fill:#f2f2f2;stroke-width:0.707393"
             id="path822"
             inkscape:connector-curvature="0" />
          <path
             d="m -2354.5719,1501.0666 q -1.5562,0 -2.8578,-0.7357 -1.2734,-0.7357 -2.0373,-2.0373 -0.7357,-1.3016 -0.7357,-2.9145 0,-1.5563 0.8205,-3.0559 0.8489,-1.4997 2.2637,-2.4335 1.4431,-0.9337 3.1125,-0.9337 1.6129,0 2.9428,0.7923 1.3299,0.7639 2.0939,2.0938 0.7923,1.3016 0.7923,2.8013 0,1.6978 -0.7357,3.1691 -0.7357,1.4714 -2.1788,2.3769 -1.4431,0.8772 -3.4804,0.8772 z m 0.5942,-0.8489 q 2.1222,0 2.9145,-1.5563 0.5659,-1.1035 0.5659,-3.3389 0,-1.3582 -0.5093,-2.6315 -0.5093,-1.2733 -1.4148,-2.0656 -0.9055,-0.7922 -2.0656,-0.7922 -0.8206,0 -1.4148,0.2546 -0.5942,0.2547 -1.0752,0.8772 -0.5093,0.6508 -0.7074,1.6128 -0.1981,0.9338 -0.1981,2.1505 0,1.4148 0.5093,2.6881 0.5094,1.245 1.3865,2.0373 0.9055,0.764 2.009,0.764 z"
             style="fill:#f2f2f2;stroke-width:0.707393"
             id="path824"
             inkscape:connector-curvature="0" />
          <path
             d="m -2340.5898,1501.0666 q -1.5563,0 -2.8579,-0.7357 -1.2733,-0.7357 -2.0373,-2.0373 -0.7357,-1.3016 -0.7357,-2.9145 0,-1.5563 0.8206,-3.0559 0.8489,-1.4997 2.2637,-2.4335 1.4431,-0.9337 3.1125,-0.9337 1.6129,0 2.9428,0.7923 1.3299,0.7639 2.0938,2.0938 0.7923,1.3016 0.7923,2.8013 0,1.6978 -0.7357,3.1691 -0.7357,1.4714 -2.1787,2.3769 -1.4431,0.8772 -3.4804,0.8772 z m 0.5942,-0.8489 q 2.1222,0 2.9145,-1.5563 0.5659,-1.1035 0.5659,-3.3389 0,-1.3582 -0.5094,-2.6315 -0.5093,-1.2733 -1.4147,-2.0656 -0.9055,-0.7922 -2.0656,-0.7922 -0.8206,0 -1.4148,0.2546 -0.5942,0.2547 -1.0753,0.8772 -0.5093,0.6508 -0.7073,1.6128 -0.1981,0.9338 -0.1981,2.1505 0,1.4148 0.5093,2.6881 0.5093,1.245 1.3865,2.0373 0.9055,0.764 2.009,0.764 z"
             style="fill:#f2f2f2;stroke-width:0.707393"
             id="path826"
             inkscape:connector-curvature="0" />
          <path
             d="m -2327.202,1501.0948 q -1.4147,0 -2.5749,-0.7073 -1.1318,-0.7357 -1.8109,-1.9807 -0.6508,-1.2734 -0.6508,-2.8296 0,-1.8109 0.7923,-3.3106 0.8206,-1.528 2.1788,-2.4052 1.3581,-0.9054 2.9993,-0.9054 1.8392,0 3.2257,0.9903 0.3396,0.2547 0.3396,0.5377 0,0.3678 -0.4245,0.7639 -0.4244,0.3962 -0.7923,0.3962 -0.1414,0 -0.2829,-0.085 -0.1415,-0.1132 -0.3113,-0.2264 -0.7074,-0.5376 -1.4431,-0.9337 -0.7356,-0.3962 -1.2167,-0.3962 -1.3865,0 -2.2636,1.3016 -0.8489,1.3016 -0.8489,3.3672 0,1.3016 0.5659,2.4052 0.5659,1.0752 1.5563,1.6977 0.9903,0.6225 2.1788,0.6225 0.8205,0 1.4147,-0.2547 0.5942,-0.2829 1.2733,-0.962 0.1415,-0.1415 0.283,-0.1415 0.1415,0 0.2264,0.1132 0.085,0.1132 0.085,0.2829 0,0.3113 -0.4245,0.8772 -0.6791,0.8772 -1.726,1.3299 -1.047,0.4527 -2.3486,0.4527 z"
             style="fill:#f2f2f2;stroke-width:0.707393"
             id="path828"
             inkscape:connector-curvature="0" />
          <path
             d="m -2320.6303,1500.7553 q -0.5659,0 -0.5659,-0.3113 0,-0.1697 0.1415,-0.2546 0.1415,-0.085 0.5093,-0.1981 0.5659,-0.1698 0.8772,-0.3961 0.3112,-0.2547 0.3395,-0.764 v -14.1762 q 0,-1.8109 -1.245,-2.0373 -0.2547,-0.056 -0.2547,-0.3961 0,-0.2547 0.2264,-0.3395 2.2354,-0.7074 3.1408,-1.1036 0.1132,-0.057 0.1698,-0.057 0.1981,0 0.1981,0.1981 0,0.1415 -0.1415,0.8772 -0.1132,0.7074 -0.1132,2.971 v 4.9235 q 0,0.4244 0.028,0.6508 0.057,0.198 0.1698,0.3961 2.4051,-1.7826 4.3009,-1.7826 1.3865,0 2.292,1.1035 0.9337,1.1035 0.9337,2.7447 v 5.9421 q 0,0.9055 1.1602,1.245 0.3395,0.085 0.481,0.1981 0.1698,0.085 0.1698,0.2546 0,0.3113 -0.5659,0.3113 -0.7074,0 -1.1885,-0.085 -0.5659,-0.057 -1.0186,-0.057 -0.4527,0 -1.0187,0.057 -0.4527,0.085 -1.1884,0.085 -0.5659,0 -0.5659,-0.3113 0,-0.1697 0.1132,-0.2263 0.1415,-0.085 0.5376,-0.2264 0.5093,-0.1698 0.7923,-0.4527 0.3112,-0.283 0.3112,-0.7923 v -5.7723 q 0,-0.6791 -0.3961,-1.245 -0.3961,-0.5942 -1.0186,-0.9338 -0.5942,-0.3678 -1.2168,-0.3678 -0.5942,0 -1.3016,0.1697 -0.6791,0.1698 -1.0469,0.4528 -0.4527,0.3678 -0.6225,0.7922 -0.1415,0.3962 -0.1415,1.2451 v 5.744 q 0.028,0.5093 0.3113,0.764 0.2829,0.2263 0.7923,0.3961 0.3112,0.085 0.4527,0.1981 0.1698,0.085 0.1698,0.2546 0,0.1698 -0.1415,0.2264 -0.1132,0.085 -0.4245,0.085 -0.7356,0 -1.1601,-0.085 -0.5093,-0.057 -0.9903,-0.057 -0.4528,0 -1.0753,0.057 -0.4527,0.085 -1.2167,0.085 z"
             style="fill:#f2f2f2;stroke-width:0.707393"
             id="path830"
             inkscape:connector-curvature="0" />
        </g>
        <g
           aria-label="A friend to fetch your data files"
           id="text856"
           style="font-style:normal;font-variant:normal;font-weight:normal;font-stretch:normal;font-size:12.0642px;line-height:1.3;font-family:'EB Garamond';-inkscape-font-specification:'EB Garamond';text-align:center;letter-spacing:0px;word-spacing:0px;text-anchor:middle;fill:#cccccc;fill-opacity:1;stroke:none;stroke-width:0.301604">
          <path
             d="m -2310.7517,1514.8975 v -0.5067 h 0.2292 q 0.3499,0 0.5188,-0.181 0.1809,-0.181 0.3981,-0.76 l 2.6782,-7.1662 h 0.941 l 2.7265,7.4678 q 0.1328,0.374 0.3137,0.5067 0.193,0.1327 0.5429,0.1327 h 0.1568 v 0.5067 h -3.3176 v -0.5067 h 0.2775 q 0.7238,0 0.7238,-0.5791 0,-0.096 -0.024,-0.2051 -0.024,-0.1086 -0.072,-0.2413 l -0.4826,-1.3512 h -3.1729 l -0.4584,1.2668 q -0.1086,0.2895 -0.1086,0.5187 0,0.5912 0.7963,0.5912 h 0.2774 v 0.5067 z m 2.6662,-3.4866 h 2.7265 l -0.748,-2.1112 q -0.193,-0.5309 -0.3499,-1.0014 -0.1568,-0.4705 -0.2533,-0.9048 -0.084,0.4343 -0.2172,0.8325 -0.1327,0.3981 -0.3378,0.9651 z"
             style="font-style:normal;font-variant:normal;font-weight:normal;font-stretch:normal;font-family:'Noto Serif';-inkscape-font-specification:'Noto Serif';letter-spacing:0px;word-spacing:0.457348px;fill:#cccccc;stroke-width:0.301604"
             id="path878" />
          <path
             d="m -2298.3267,1514.8975 v -0.5067 h 0.1568 q 0.4102,0 0.6997,-0.1448 0.2896,-0.1568 0.2896,-0.7239 v -4.524 h -1.0979 v -0.5671 h 1.0979 v -0.6032 q 0,-1.0737 0.567,-1.6407 0.5791,-0.5791 1.5684,-0.5791 0.941,0 1.315,0.2413 0.3739,0.2292 0.3739,0.6032 0,0.3258 -0.2774,0.5067 -0.2775,0.1689 -0.7118,0.1689 0,-0.3619 -0.1689,-0.6635 -0.1689,-0.3016 -0.6274,-0.3016 -0.5187,0 -0.7117,0.3981 -0.1931,0.3981 -0.1931,1.1582 v 0.7117 h 1.7011 v 0.5671 h -1.7011 v 4.524 q 0,0.5671 0.2896,0.7239 0.2895,0.1448 0.6997,0.1448 h 0.4584 v 0.5067 z"
             style="font-style:normal;font-variant:normal;font-weight:normal;font-stretch:normal;font-family:'Noto Serif';-inkscape-font-specification:'Noto Serif';letter-spacing:0px;word-spacing:0.457348px;fill:#cccccc;stroke-width:0.301604"
             id="path880" />
          <path
             d="m -2293.8026,1514.8975 v -0.5067 h 0.036 q 0.4101,0 0.6997,-0.1448 0.2895,-0.1568 0.2895,-0.7239 v -3.764 q 0,-0.5308 -0.3016,-0.6756 -0.2895,-0.1448 -0.6876,-0.1448 h -0.036 v -0.5067 h 1.8578 l 0.2293,1.1944 h 0.06 q 0.1568,-0.3619 0.3378,-0.6635 0.1809,-0.3016 0.4826,-0.4705 0.3016,-0.181 0.8324,-0.181 0.6635,0 0.9772,0.2292 0.3257,0.2292 0.3257,0.6515 0,0.374 -0.2654,0.6153 -0.2533,0.2413 -0.8566,0.2413 0,-0.4947 -0.1447,-0.7118 -0.1448,-0.2293 -0.4947,-0.2293 -0.3378,0 -0.567,0.2655 -0.2292,0.2654 -0.3619,0.6756 -0.1327,0.4101 -0.193,0.8565 -0.06,0.4343 -0.06,0.7842 v 1.8941 q 0,0.5308 0.2895,0.6756 0.3016,0.1327 0.6997,0.1327 h 0.3378 v 0.5067 z"
             style="font-style:normal;font-variant:normal;font-weight:normal;font-stretch:normal;font-family:'Noto Serif';-inkscape-font-specification:'Noto Serif';letter-spacing:0px;word-spacing:0.457348px;fill:#cccccc;stroke-width:0.301604"
             id="path882" />
          <path
             d="m -2286.5762,1507.2246 q -0.2895,0 -0.4946,-0.1689 -0.1931,-0.1689 -0.1931,-0.5791 0,-0.4222 0.1931,-0.579 0.2051,-0.1689 0.4946,-0.1689 0.2775,0 0.4826,0.1689 0.2051,0.1568 0.2051,0.579 0,0.4102 -0.2051,0.5791 -0.2051,0.1689 -0.4826,0.1689 z m -1.6649,7.6729 v -0.5067 h 0.1569 q 0.3981,0 0.6876,-0.1327 0.3016,-0.1448 0.3016,-0.6756 v -3.8244 q 0,-0.5308 -0.3016,-0.6756 -0.2895,-0.1448 -0.6876,-0.1448 h -0.036 v -0.5067 h 2.1595 v 5.0911 q 0,0.5671 0.2895,0.7239 0.2896,0.1448 0.6997,0.1448 h 0.1569 v 0.5067 z"
             style="font-style:normal;font-variant:normal;font-weight:normal;font-stretch:normal;font-family:'Noto Serif';-inkscape-font-specification:'Noto Serif';letter-spacing:0px;word-spacing:0.457348px;fill:#cccccc;stroke-width:0.301604"
             id="path884" />
          <path
             d="m -2281.1956,1515.0181 q -1.315,0 -2.0629,-0.8686 -0.736,-0.8686 -0.736,-2.437 0,-1.689 0.6998,-2.5455 0.6997,-0.8566 1.9785,-0.8566 1.1702,0 1.8337,0.7239 0.6756,0.7238 0.6756,2.1595 v 0.5549 h -4.0173 q 0.024,1.315 0.4705,1.9182 0.4584,0.5912 1.327,0.5912 0.6274,0 1.0617,-0.2534 0.4464,-0.2654 0.6635,-0.5911 0.084,0.036 0.1568,0.1447 0.072,0.1086 0.072,0.2654 0,0.2413 -0.2292,0.5188 -0.2292,0.2775 -0.6997,0.4826 -0.4705,0.193 -1.1944,0.193 z m -1.6045,-3.9209 h 2.7748 q 0,-0.9651 -0.3016,-1.5442 -0.2896,-0.5911 -1.0134,-0.5911 -0.6636,0 -1.0376,0.5549 -0.3619,0.5429 -0.4222,1.5804 z"
             style="font-style:normal;font-variant:normal;font-weight:normal;font-stretch:normal;font-family:'Noto Serif';-inkscape-font-specification:'Noto Serif';letter-spacing:0px;word-spacing:0.457348px;fill:#cccccc;stroke-width:0.301604"
             id="path886" />
          <path
             d="m -2277.8659,1514.8975 v -0.5067 h 0.097 q 0.4101,0 0.6997,-0.1448 0.2895,-0.1568 0.2895,-0.7239 v -3.764 q 0,-0.5308 -0.2895,-0.6756 -0.2775,-0.1448 -0.6756,-0.1448 h -0.06 v -0.5067 h 1.9544 l 0.1568,0.9772 h 0.06 q 0.374,-0.6755 0.8325,-0.8806 0.4705,-0.2172 1.0495,-0.2172 0.9531,0 1.4839,0.567 0.5429,0.555 0.5429,1.7976 v 2.8471 q 0,0.5671 0.2413,0.7239 0.2534,0.1448 0.6635,0.1448 h 0.06 v 0.5067 h -2.0992 v -4.1622 q 0,-0.7842 -0.3016,-1.2185 -0.2896,-0.4343 -1.0255,-0.4343 -0.5429,0 -0.8686,0.2775 -0.3137,0.2654 -0.4584,0.7118 -0.1327,0.4464 -0.1327,0.9651 v 2.5456 q 0,0.5308 0.2774,0.6756 0.2896,0.1327 0.6877,0.1327 h 0.06 v 0.5067 z"
             style="font-style:normal;font-variant:normal;font-weight:normal;font-stretch:normal;font-family:'Noto Serif';-inkscape-font-specification:'Noto Serif';letter-spacing:0px;word-spacing:0.457348px;fill:#cccccc;stroke-width:0.301604"
             id="path888" />
          <path
             d="m -2267.2976,1515.0181 q -1.1944,0 -1.8338,-0.7962 -0.6273,-0.8083 -0.6273,-2.5456 0,-1.7493 0.6273,-2.5576 0.6394,-0.8083 1.8338,-0.8083 0.6997,0 1.134,0.3016 0.4464,0.2896 0.7118,0.7601 h 0.072 q -0.036,-0.3016 -0.06,-0.6636 -0.012,-0.374 -0.012,-0.6635 v -0.9893 q 0,-0.5308 -0.3016,-0.6756 -0.2896,-0.1447 -0.6877,-0.1447 h -0.097 v -0.5067 h 2.2198 v 7.8417 q 0,0.5308 0.2896,0.6756 0.3016,0.1448 0.6997,0.1448 h 0.097 v 0.5067 h -2.0388 l -0.1328,-1.0858 h -0.048 q -0.2654,0.5549 -0.6997,0.8807 -0.4343,0.3257 -1.1461,0.3257 z m 0.2051,-0.7721 q 0.941,0 1.2908,-0.6273 0.3499,-0.6394 0.3499,-1.9424 0,-1.2547 -0.3499,-1.9182 -0.3498,-0.6756 -1.3029,-0.6756 -0.7962,0 -1.1461,0.6756 -0.3378,0.6635 -0.3378,1.9303 0,1.2788 0.3378,1.9182 0.3499,0.6394 1.1582,0.6394 z"
             style="font-style:normal;font-variant:normal;font-weight:normal;font-stretch:normal;font-family:'Noto Serif';-inkscape-font-specification:'Noto Serif';letter-spacing:0px;word-spacing:0.457348px;fill:#cccccc;stroke-width:0.301604"
             id="path890" />
          <path
             d="m -2256.5254,1515.0181 q -0.9169,0 -1.3392,-0.4102 -0.4101,-0.4222 -0.4101,-1.4597 v -4.0295 h -0.9169 v -0.4826 q 0.2171,0 0.4825,-0.084 0.2655,-0.096 0.4585,-0.3016 0.2051,-0.2172 0.3378,-0.5308 0.1327,-0.3137 0.2171,-0.7721 h 0.555 v 1.4838 h 1.5804 v 0.6877 h -1.5804 v 4.0656 q 0,0.6153 0.2533,0.9049 0.2534,0.2895 0.6636,0.2895 0.2171,0 0.3981,-0.024 0.181,-0.024 0.374,-0.06 v 0.5308 q -0.1569,0.072 -0.4705,0.1327 -0.3137,0.06 -0.6032,0.06 z"
             style="font-style:normal;font-variant:normal;font-weight:normal;font-stretch:normal;font-family:'Noto Serif';-inkscape-font-specification:'Noto Serif';letter-spacing:0px;word-spacing:0.457348px;fill:#cccccc;stroke-width:0.301604"
             id="path892" />
          <path
             d="m -2251.7118,1515.0181 q -1.303,0 -2.0509,-0.8324 -0.748,-0.8325 -0.748,-2.5335 0,-1.689 0.7118,-2.5094 0.7238,-0.8324 2.1233,-0.8324 1.3029,0 2.0509,0.8324 0.748,0.8204 0.748,2.5094 0,1.701 -0.7239,2.5335 -0.7118,0.8324 -2.1112,0.8324 z m 0.024,-0.6273 q 0.9048,0 1.2667,-0.6877 0.374,-0.6997 0.374,-2.0509 0,-1.3512 -0.374,-2.0268 -0.3739,-0.6756 -1.2788,-0.6756 -0.9048,0 -1.2788,0.6756 -0.3619,0.6756 -0.3619,2.0268 0,1.3512 0.374,2.0509 0.374,0.6877 1.2788,0.6877 z"
             style="font-style:normal;font-variant:normal;font-weight:normal;font-stretch:normal;font-family:'Noto Serif';-inkscape-font-specification:'Noto Serif';letter-spacing:0px;word-spacing:0.457348px;fill:#cccccc;stroke-width:0.301604"
             id="path894" />
          <path
             d="m -2244.2935,1514.8975 v -0.5067 h 0.1569 q 0.4102,0 0.6997,-0.1448 0.2895,-0.1568 0.2895,-0.7239 v -4.524 h -1.0978 v -0.5671 h 1.0978 v -0.6032 q 0,-1.0737 0.5671,-1.6407 0.579,-0.5791 1.5683,-0.5791 0.941,0 1.315,0.2413 0.374,0.2292 0.374,0.6032 0,0.3258 -0.2775,0.5067 -0.2775,0.1689 -0.7118,0.1689 0,-0.3619 -0.1689,-0.6635 -0.1689,-0.3016 -0.6273,-0.3016 -0.5188,0 -0.7118,0.3981 -0.193,0.3981 -0.193,1.1582 v 0.7117 h 1.701 v 0.5671 h -1.701 v 4.524 q 0,0.5671 0.2895,0.7239 0.2896,0.1448 0.6997,0.1448 h 0.4585 v 0.5067 z"
             style="font-style:normal;font-variant:normal;font-weight:normal;font-stretch:normal;font-family:'Noto Serif';-inkscape-font-specification:'Noto Serif';letter-spacing:0px;word-spacing:0.457348px;fill:#cccccc;stroke-width:0.301604"
             id="path896" />
          <path
             d="m -2236.7051,1515.0181 q -1.315,0 -2.063,-0.8686 -0.7359,-0.8686 -0.7359,-2.437 0,-1.689 0.6997,-2.5455 0.6998,-0.8566 1.9786,-0.8566 1.1702,0 1.8337,0.7239 0.6756,0.7238 0.6756,2.1595 v 0.5549 h -4.0174 q 0.024,1.315 0.4706,1.9182 0.4584,0.5912 1.327,0.5912 0.6274,0 1.0617,-0.2534 0.4463,-0.2654 0.6635,-0.5911 0.084,0.036 0.1568,0.1447 0.072,0.1086 0.072,0.2654 0,0.2413 -0.2292,0.5188 -0.2292,0.2775 -0.6997,0.4826 -0.4705,0.193 -1.1944,0.193 z m -1.6045,-3.9209 h 2.7747 q 0,-0.9651 -0.3016,-1.5442 -0.2895,-0.5911 -1.0134,-0.5911 -0.6635,0 -1.0375,0.5549 -0.3619,0.5429 -0.4222,1.5804 z"
             style="font-style:normal;font-variant:normal;font-weight:normal;font-stretch:normal;font-family:'Noto Serif';-inkscape-font-specification:'Noto Serif';letter-spacing:0px;word-spacing:0.457348px;fill:#cccccc;stroke-width:0.301604"
             id="path898" />
          <path
             d="m -2230.8178,1515.0181 q -0.9168,0 -1.3391,-0.4102 -0.4102,-0.4222 -0.4102,-1.4597 v -4.0295 h -0.9168 v -0.4826 q 0.2171,0 0.4825,-0.084 0.2654,-0.096 0.4585,-0.3016 0.2051,-0.2172 0.3378,-0.5308 0.1327,-0.3137 0.2171,-0.7721 h 0.555 v 1.4838 h 1.5804 v 0.6877 h -1.5804 v 4.0656 q 0,0.6153 0.2533,0.9049 0.2534,0.2895 0.6636,0.2895 0.2171,0 0.3981,-0.024 0.1809,-0.024 0.374,-0.06 v 0.5308 q -0.1569,0.072 -0.4705,0.1327 -0.3137,0.06 -0.6033,0.06 z"
             style="font-style:normal;font-variant:normal;font-weight:normal;font-stretch:normal;font-family:'Noto Serif';-inkscape-font-specification:'Noto Serif';letter-spacing:0px;word-spacing:0.457348px;fill:#cccccc;stroke-width:0.301604"
             id="path900" />
          <path
             d="m -2226.0524,1515.0181 q -0.7962,0 -1.4236,-0.3378 -0.6153,-0.3378 -0.9772,-1.0616 -0.3498,-0.736 -0.3498,-1.9183 0,-1.2908 0.3498,-2.0267 0.3619,-0.748 0.9652,-1.0496 0.6152,-0.3137 1.3753,-0.3137 0.5067,0 0.9892,0.1327 0.4826,0.1327 0.7963,0.4102 0.3136,0.2654 0.3136,0.6877 0,0.4101 -0.2774,0.5911 -0.2654,0.1689 -0.7963,0.1689 0,-0.567 -0.2171,-0.9772 -0.2051,-0.4102 -0.8083,-0.4102 -0.4585,0 -0.8083,0.2413 -0.3378,0.2413 -0.5309,0.8445 -0.1809,0.6032 -0.1809,1.689 0,1.2788 0.4222,1.9182 0.4343,0.6273 1.3995,0.6273 0.567,0 0.9772,-0.2292 0.4222,-0.2413 0.6273,-0.6153 0.2051,0.1689 0.2051,0.4705 0,0.2775 -0.2292,0.5429 -0.2292,0.2654 -0.6877,0.4464 -0.4463,0.1689 -1.134,0.1689 z"
             style="font-style:normal;font-variant:normal;font-weight:normal;font-stretch:normal;font-family:'Noto Serif';-inkscape-font-specification:'Noto Serif';letter-spacing:0px;word-spacing:0.457348px;fill:#cccccc;stroke-width:0.301604"
             id="path902" />
          <path
             d="m -2223.3138,1514.8975 v -0.5067 h 0.097 q 0.4102,0 0.6997,-0.1448 0.2895,-0.1568 0.2895,-0.7239 v -6.4664 q 0,-0.5308 -0.3016,-0.6756 -0.2895,-0.1447 -0.6876,-0.1447 h -0.097 v -0.5067 h 2.2198 v 2.6541 q 0,0.2171 -0.012,0.4584 -0.012,0.2293 -0.024,0.3982 -0.012,0.1688 -0.012,0.1688 h 0.06 q 0.555,-1.0978 1.7735,-1.0978 1.0375,0 1.5804,0.567 0.5549,0.555 0.5549,1.7976 v 2.8471 q 0,0.5671 0.2534,0.7239 0.2654,0.1448 0.6756,0.1448 h 0.036 v 0.5067 h -2.0992 v -4.1622 q 0,-0.7842 -0.3016,-1.2185 -0.2895,-0.4343 -1.0255,-0.4343 -0.7479,0 -1.1099,0.5308 -0.3498,0.5309 -0.3498,1.4236 v 2.5456 q 0,0.5308 0.2895,0.6756 0.3016,0.1327 0.6997,0.1327 h 0.036 v 0.5067 z"
             style="font-style:normal;font-variant:normal;font-weight:normal;font-stretch:normal;font-family:'Noto Serif';-inkscape-font-specification:'Noto Serif';letter-spacing:0px;word-spacing:0.457348px;fill:#cccccc;stroke-width:0.301604"
             id="path904" />
          <path
             d="m -2211.8178,1517.7929 v -0.567 q 0.8204,0 1.3391,-0.3137 0.5309,-0.3137 0.8566,-0.8566 0.3257,-0.5308 0.5187,-1.2064 l -2.2318,-5.2721 q -0.1569,-0.3739 -0.3378,-0.5066 -0.1689,-0.1328 -0.5188,-0.1328 h -0.036 v -0.5067 h 2.8954 v 0.5067 h -0.036 q -0.7238,0 -0.7238,0.5791 0,0.2051 0.097,0.4464 l 0.8807,2.1474 q 0.1206,0.2775 0.2292,0.6153 0.1206,0.3257 0.2172,0.6273 0.096,0.3016 0.1327,0.5067 0.084,-0.3498 0.2171,-0.7238 0.1448,-0.374 0.2654,-0.7359 l 0.8083,-2.3525 q 0.1086,-0.2896 0.1086,-0.5188 0,-0.5912 -0.7962,-0.5912 h -0.036 v -0.5067 h 2.5093 v 0.5067 h -0.036 q -0.3498,0 -0.5308,0.181 -0.1809,0.181 -0.386,0.7601 l -1.8338,5.0669 q -0.3137,0.8807 -0.6032,1.4357 -0.2895,0.5549 -0.6515,0.8565 -0.3498,0.3137 -0.8807,0.4343 -0.5308,0.1207 -1.327,0.1207 z"
             style="font-style:normal;font-variant:normal;font-weight:normal;font-stretch:normal;font-family:'Noto Serif';-inkscape-font-specification:'Noto Serif';letter-spacing:0px;word-spacing:0.457348px;fill:#cccccc;stroke-width:0.301604"
             id="path906" />
          <path
             d="m -2201.9975,1515.0181 q -1.303,0 -2.051,-0.8324 -0.7479,-0.8325 -0.7479,-2.5335 0,-1.689 0.7117,-2.5094 0.7239,-0.8324 2.1233,-0.8324 1.303,0 2.051,0.8324 0.7479,0.8204 0.7479,2.5094 0,1.701 -0.7238,2.5335 -0.7118,0.8324 -2.1112,0.8324 z m 0.024,-0.6273 q 0.9048,0 1.2667,-0.6877 0.374,-0.6997 0.374,-2.0509 0,-1.3512 -0.374,-2.0268 -0.374,-0.6756 -1.2788,-0.6756 -0.9048,0 -1.2788,0.6756 -0.3619,0.6756 -0.3619,2.0268 0,1.3512 0.374,2.0509 0.374,0.6877 1.2788,0.6877 z"
             style="font-style:normal;font-variant:normal;font-weight:normal;font-stretch:normal;font-family:'Noto Serif';-inkscape-font-specification:'Noto Serif';letter-spacing:0px;word-spacing:0.457348px;fill:#cccccc;stroke-width:0.301604"
             id="path908" />
          <path
             d="m -2195.2054,1515.0181 q -0.9531,0 -1.4718,-0.555 -0.5188,-0.567 -0.5188,-1.8096 v -2.8954 q 0,-0.5308 -0.3016,-0.6756 -0.2895,-0.1448 -0.6877,-0.1448 h -0.036 v -0.5067 h 2.1595 v 4.1622 q 0,0.7842 0.2654,1.2185 0.2655,0.4343 1.0014,0.4343 0.7962,0 1.1581,-0.5308 0.362,-0.5429 0.362,-1.4236 v -2.4852 q 0,-0.567 -0.2896,-0.7118 -0.2895,-0.1569 -0.6997,-0.1569 h -0.036 v -0.5067 h 2.1595 v 5.1515 q 0,0.5308 0.2895,0.6756 0.3016,0.1327 0.6998,0.1327 h 0.036 v 0.5067 h -1.9183 l -0.1568,-0.9772 h -0.06 q -0.374,0.6756 -0.8686,0.8927 -0.4947,0.2051 -1.0858,0.2051 z"
             style="font-style:normal;font-variant:normal;font-weight:normal;font-stretch:normal;font-family:'Noto Serif';-inkscape-font-specification:'Noto Serif';letter-spacing:0px;word-spacing:0.457348px;fill:#cccccc;stroke-width:0.301604"
             id="path910" />
          <path
             d="m -2190.4401,1514.8975 v -0.5067 h 0.036 q 0.4102,0 0.6997,-0.1448 0.2896,-0.1568 0.2896,-0.7239 v -3.764 q 0,-0.5308 -0.3016,-0.6756 -0.2896,-0.1448 -0.6877,-0.1448 h -0.036 v -0.5067 h 1.8579 l 0.2292,1.1944 h 0.06 q 0.1568,-0.3619 0.3378,-0.6635 0.1809,-0.3016 0.4825,-0.4705 0.3016,-0.181 0.8324,-0.181 0.6636,0 0.9772,0.2292 0.3258,0.2292 0.3258,0.6515 0,0.374 -0.2654,0.6153 -0.2534,0.2413 -0.8566,0.2413 0,-0.4947 -0.1448,-0.7118 -0.1447,-0.2293 -0.4946,-0.2293 -0.3378,0 -0.567,0.2655 -0.2292,0.2654 -0.3619,0.6756 -0.1327,0.4101 -0.1931,0.8565 -0.06,0.4343 -0.06,0.7842 v 1.8941 q 0,0.5308 0.2896,0.6756 0.3016,0.1327 0.6997,0.1327 h 0.3378 v 0.5067 z"
             style="font-style:normal;font-variant:normal;font-weight:normal;font-stretch:normal;font-family:'Noto Serif';-inkscape-font-specification:'Noto Serif';letter-spacing:0px;word-spacing:0.457348px;fill:#cccccc;stroke-width:0.301604"
             id="path912" />
          <path
             d="m -2178.4373,1515.0181 q -1.1944,0 -1.8338,-0.7962 -0.6273,-0.8083 -0.6273,-2.5456 0,-1.7493 0.6273,-2.5576 0.6394,-0.8083 1.8338,-0.8083 0.6997,0 1.134,0.3016 0.4464,0.2896 0.7118,0.7601 h 0.072 q -0.036,-0.3016 -0.06,-0.6636 -0.012,-0.374 -0.012,-0.6635 v -0.9893 q 0,-0.5308 -0.3016,-0.6756 -0.2895,-0.1447 -0.6877,-0.1447 h -0.096 v -0.5067 h 2.2198 v 7.8417 q 0,0.5308 0.2896,0.6756 0.3016,0.1448 0.6997,0.1448 h 0.096 v 0.5067 h -2.0388 l -0.1327,-1.0858 h -0.048 q -0.2654,0.5549 -0.6997,0.8807 -0.4343,0.3257 -1.1461,0.3257 z m 0.2051,-0.7721 q 0.941,0 1.2908,-0.6273 0.3499,-0.6394 0.3499,-1.9424 0,-1.2547 -0.3499,-1.9182 -0.3498,-0.6756 -1.3029,-0.6756 -0.7962,0 -1.1461,0.6756 -0.3378,0.6635 -0.3378,1.9303 0,1.2788 0.3378,1.9182 0.3499,0.6394 1.1582,0.6394 z"
             style="font-style:normal;font-variant:normal;font-weight:normal;font-stretch:normal;font-family:'Noto Serif';-inkscape-font-specification:'Noto Serif';letter-spacing:0px;word-spacing:0.457348px;fill:#cccccc;stroke-width:0.301604"
             id="path914" />
          <path
             d="m -2171.6814,1515.0181 q -0.8083,0 -1.3391,-0.4705 -0.5308,-0.4705 -0.5308,-1.4598 0,-0.9651 0.6756,-1.4235 0.6876,-0.4585 2.075,-0.5067 l 1.0013,-0.036 v -0.7239 q 0,-0.4343 -0.072,-0.76 -0.072,-0.3378 -0.3136,-0.5309 -0.2413,-0.193 -0.7359,-0.193 -0.4585,0 -0.6998,0.1689 -0.2413,0.1689 -0.3257,0.4705 -0.072,0.2896 -0.072,0.6756 -0.5067,0 -0.7721,-0.1689 -0.2533,-0.1809 -0.2533,-0.5911 0,-0.4223 0.2895,-0.6756 0.3016,-0.2534 0.7962,-0.362 0.4947,-0.1206 1.0858,-0.1206 1.1099,0 1.6528,0.4705 0.555,0.4705 0.555,1.6166 v 3.1246 q 0,0.5067 0.1689,0.6877 0.1689,0.181 0.579,0.181 h 0.036 v 0.5067 h -1.6286 l -0.1931,-1.0376 h -0.096 q -0.2533,0.3378 -0.4946,0.6032 -0.2413,0.2534 -0.567,0.4102 -0.3137,0.1448 -0.8204,0.1448 z m 0.2775,-0.748 q 0.7359,0 1.1702,-0.4464 0.4343,-0.4584 0.4343,-1.2305 v -0.9772 l -0.7721,0.036 q -1.0254,0.048 -1.4236,0.4222 -0.386,0.362 -0.386,1.0738 0,1.1219 0.9772,1.1219 z"
             style="font-style:normal;font-variant:normal;font-weight:normal;font-stretch:normal;font-family:'Noto Serif';-inkscape-font-specification:'Noto Serif';letter-spacing:0px;word-spacing:0.457348px;fill:#cccccc;stroke-width:0.301604"
             id="path916" />
          <path
             d="m -2164.467,1515.0181 q -0.9169,0 -1.3391,-0.4102 -0.4102,-0.4222 -0.4102,-1.4597 v -4.0295 h -0.9169 v -0.4826 q 0.2172,0 0.4826,-0.084 0.2654,-0.096 0.4584,-0.3016 0.2051,-0.2172 0.3378,-0.5308 0.1327,-0.3137 0.2172,-0.7721 h 0.5549 v 1.4838 h 1.5804 v 0.6877 h -1.5804 v 4.0656 q 0,0.6153 0.2534,0.9049 0.2533,0.2895 0.6635,0.2895 0.2172,0 0.3981,-0.024 0.181,-0.024 0.374,-0.06 v 0.5308 q -0.1568,0.072 -0.4705,0.1327 -0.3137,0.06 -0.6032,0.06 z"
             style="font-style:normal;font-variant:normal;font-weight:normal;font-stretch:normal;font-family:'Noto Serif';-inkscape-font-specification:'Noto Serif';letter-spacing:0px;word-spacing:0.457348px;fill:#cccccc;stroke-width:0.301604"
             id="path918" />
          <path
             d="m -2160.6427,1515.0181 q -0.8083,0 -1.3391,-0.4705 -0.5308,-0.4705 -0.5308,-1.4598 0,-0.9651 0.6756,-1.4235 0.6877,-0.4585 2.075,-0.5067 l 1.0014,-0.036 v -0.7239 q 0,-0.4343 -0.072,-0.76 -0.072,-0.3378 -0.3137,-0.5309 -0.2413,-0.193 -0.7359,-0.193 -0.4584,0 -0.6997,0.1689 -0.2413,0.1689 -0.3258,0.4705 -0.072,0.2896 -0.072,0.6756 -0.5067,0 -0.7722,-0.1689 -0.2533,-0.1809 -0.2533,-0.5911 0,-0.4223 0.2895,-0.6756 0.3016,-0.2534 0.7963,-0.362 0.4946,-0.1206 1.0858,-0.1206 1.1099,0 1.6527,0.4705 0.555,0.4705 0.555,1.6166 v 3.1246 q 0,0.5067 0.1689,0.6877 0.1689,0.181 0.5791,0.181 h 0.036 v 0.5067 h -1.6287 l -0.193,-1.0376 h -0.097 q -0.2534,0.3378 -0.4947,0.6032 -0.2413,0.2534 -0.567,0.4102 -0.3137,0.1448 -0.8204,0.1448 z m 0.2775,-0.748 q 0.7359,0 1.1703,-0.4464 0.4343,-0.4584 0.4343,-1.2305 v -0.9772 l -0.7721,0.036 q -1.0255,0.048 -1.4236,0.4222 -0.3861,0.362 -0.3861,1.0738 0,1.1219 0.9772,1.1219 z"
             style="font-style:normal;font-variant:normal;font-weight:normal;font-stretch:normal;font-family:'Noto Serif';-inkscape-font-specification:'Noto Serif';letter-spacing:0px;word-spacing:0.457348px;fill:#cccccc;stroke-width:0.301604"
             id="path920" />
          <path
             d="m -2152.4039,1514.8975 v -0.5067 h 0.1568 q 0.4102,0 0.6997,-0.1448 0.2896,-0.1568 0.2896,-0.7239 v -4.524 h -1.0979 v -0.5671 h 1.0979 v -0.3619 q 0,-1.1099 0.6997,-1.8096 0.6997,-0.7118 2.1836,-0.7118 1.122,0 1.689,0.2775 0.567,0.2654 0.567,0.7238 0,0.3499 -0.3016,0.5791 -0.3016,0.2172 -0.7962,0.2172 0,-0.2413 -0.1207,-0.5309 -0.1206,-0.2895 -0.4222,-0.4946 -0.2895,-0.2171 -0.8204,-0.2171 -0.6152,0 -0.953,0.2895 -0.3378,0.2775 -0.4705,0.7359 -0.1207,0.4464 -0.1207,0.9531 v 0.3498 h 4.0898 v 5.0911 q 0,0.5671 0.2895,0.7239 0.2896,0.1448 0.6997,0.1448 h 0.1569 v 0.5067 h -3.3056 v -0.5067 h 0.036 q 0.3981,0 0.6876,-0.1327 0.3016,-0.1448 0.3016,-0.6756 v -4.5844 h -2.9557 v 4.524 q 0,0.5671 0.2896,0.7239 0.2895,0.1448 0.6997,0.1448 h 0.2171 v 0.5067 z"
             style="font-style:normal;font-variant:normal;font-weight:normal;font-stretch:normal;font-family:'Noto Serif';-inkscape-font-specification:'Noto Serif';letter-spacing:0px;word-spacing:0.457348px;fill:#cccccc;stroke-width:0.301604"
             id="path922" />
          <path
             d="m -2144.5743,1514.8975 v -0.5067 h 0.1569 q 0.4101,0 0.6997,-0.1448 0.2895,-0.1568 0.2895,-0.7239 v -6.4664 q 0,-0.5308 -0.3016,-0.6756 -0.2895,-0.1447 -0.6876,-0.1447 h -0.1569 v -0.5067 h 2.2802 v 7.7934 q 0,0.5671 0.2895,0.7239 0.2895,0.1448 0.6997,0.1448 h 0.1569 v 0.5067 z"
             style="font-style:normal;font-variant:normal;font-weight:normal;font-stretch:normal;font-family:'Noto Serif';-inkscape-font-specification:'Noto Serif';letter-spacing:0px;word-spacing:0.457348px;fill:#cccccc;stroke-width:0.301604"
             id="path924" />
          <path
             d="m -2137.5288,1515.0181 q -1.315,0 -2.063,-0.8686 -0.7359,-0.8686 -0.7359,-2.437 0,-1.689 0.6997,-2.5455 0.6998,-0.8566 1.9786,-0.8566 1.1702,0 1.8337,0.7239 0.6756,0.7238 0.6756,2.1595 v 0.5549 h -4.0174 q 0.024,1.315 0.4706,1.9182 0.4584,0.5912 1.327,0.5912 0.6274,0 1.0617,-0.2534 0.4463,-0.2654 0.6635,-0.5911 0.084,0.036 0.1568,0.1447 0.072,0.1086 0.072,0.2654 0,0.2413 -0.2292,0.5188 -0.2292,0.2775 -0.6997,0.4826 -0.4705,0.193 -1.1944,0.193 z m -1.6045,-3.9209 h 2.7747 q 0,-0.9651 -0.3016,-1.5442 -0.2895,-0.5911 -1.0134,-0.5911 -0.6635,0 -1.0375,0.5549 -0.3619,0.5429 -0.4222,1.5804 z"
             style="font-style:normal;font-variant:normal;font-weight:normal;font-stretch:normal;font-family:'Noto Serif';-inkscape-font-specification:'Noto Serif';letter-spacing:0px;word-spacing:0.457348px;fill:#cccccc;stroke-width:0.301604"
             id="path926" />
          <path
             d="m -2132.0034,1515.0181 q -0.9048,0 -1.4477,-0.3257 -0.5429,-0.3258 -0.5429,-0.9531 0,-0.3257 0.1327,-0.5067 0.1327,-0.181 0.3016,-0.2533 0.181,-0.072 0.3258,-0.072 0,0.6273 0.2774,1.0857 0.2896,0.4464 1.0255,0.4464 0.6394,0 0.9772,-0.3016 0.3499,-0.3137 0.3499,-0.7962 0,-0.3016 -0.1327,-0.4947 -0.1207,-0.193 -0.4464,-0.3739 -0.3137,-0.1931 -0.9048,-0.4464 -0.6153,-0.2775 -1.0255,-0.5308 -0.3981,-0.2655 -0.6032,-0.6033 -0.193,-0.3498 -0.193,-0.8686 0,-0.8203 0.6152,-1.2547 0.6274,-0.4463 1.6528,-0.4463 0.8687,0 1.315,0.3257 0.4464,0.3257 0.4464,0.7842 0,0.3257 -0.2292,0.5308 -0.2172,0.193 -0.6394,0.193 0,-0.6032 -0.2534,-0.941 -0.2533,-0.3378 -0.7841,-0.3378 -0.6153,0 -0.8807,0.2775 -0.2654,0.2654 -0.2654,0.6877 0,0.4584 0.3378,0.7117 0.3498,0.2413 1.1581,0.5671 0.6394,0.2654 1.0376,0.5308 0.3981,0.2654 0.579,0.6153 0.1931,0.3498 0.1931,0.8565 0,0.941 -0.6515,1.4236 -0.6515,0.4705 -1.7252,0.4705 z"
             style="font-style:normal;font-variant:normal;font-weight:normal;font-stretch:normal;font-family:'Noto Serif';-inkscape-font-specification:'Noto Serif';letter-spacing:0px;word-spacing:0.457348px;fill:#cccccc;stroke-width:0.301604"
             id="path928" />
        </g>
        <g
           aria-label="fatiando.org/pooch"
           id="text856-6"
           style="font-style:normal;font-variant:normal;font-weight:normal;font-stretch:normal;font-size:12.0642px;line-height:1.3;font-family:'EB Garamond';-inkscape-font-specification:'EB Garamond';text-align:center;letter-spacing:0px;word-spacing:0px;text-anchor:middle;fill:#cccccc;fill-opacity:1;stroke:none;stroke-width:0.301604">
          <path
             d="m -2283.6492,1536.4222 v -0.5067 h 0.1568 q 0.4102,0 0.6997,-0.1447 0.2896,-0.1569 0.2896,-0.7239 v -4.5241 h -1.0979 v -0.567 h 1.0979 v -0.6032 q 0,-1.0737 0.567,-1.6407 0.5791,-0.5791 1.5683,-0.5791 0.941,0 1.315,0.2413 0.374,0.2292 0.374,0.6032 0,0.3257 -0.2775,0.5067 -0.2774,0.1689 -0.7117,0.1689 0,-0.3619 -0.1689,-0.6635 -0.1689,-0.3016 -0.6274,-0.3016 -0.5187,0 -0.7118,0.3981 -0.193,0.3981 -0.193,1.1581 v 0.7118 h 1.7011 v 0.567 h -1.7011 v 4.5241 q 0,0.567 0.2895,0.7239 0.2896,0.1447 0.6998,0.1447 h 0.4584 v 0.5067 z"
             style="font-style:normal;font-variant:normal;font-weight:normal;font-stretch:normal;font-family:'Noto Serif';-inkscape-font-specification:'Noto Serif';letter-spacing:0px;word-spacing:0.457348px;fill:#cccccc;stroke-width:0.301604"
             id="path931" />
          <path
             d="m -2277.0501,1536.5429 q -0.8083,0 -1.3391,-0.4705 -0.5309,-0.4705 -0.5309,-1.4598 0,-0.9651 0.6756,-1.4236 0.6877,-0.4584 2.0751,-0.5067 l 1.0013,-0.036 v -0.7238 q 0,-0.4343 -0.072,-0.7601 -0.072,-0.3377 -0.3137,-0.5308 -0.2412,-0.193 -0.7359,-0.193 -0.4584,0 -0.6997,0.1689 -0.2413,0.1689 -0.3257,0.4705 -0.072,0.2895 -0.072,0.6756 -0.5067,0 -0.7721,-0.1689 -0.2534,-0.181 -0.2534,-0.5911 0,-0.4223 0.2896,-0.6756 0.3016,-0.2534 0.7962,-0.362 0.4946,-0.1206 1.0858,-0.1206 1.1099,0 1.6528,0.4705 0.5549,0.4705 0.5549,1.6166 v 3.1246 q 0,0.5067 0.1689,0.6877 0.1689,0.1809 0.5791,0.1809 h 0.036 v 0.5067 h -1.6287 l -0.193,-1.0375 h -0.096 q -0.2534,0.3378 -0.4946,0.6032 -0.2413,0.2534 -0.5671,0.4102 -0.3136,0.1448 -0.8203,0.1448 z m 0.2775,-0.748 q 0.7359,0 1.1702,-0.4464 0.4343,-0.4584 0.4343,-1.2305 v -0.9772 l -0.7721,0.036 q -1.0255,0.048 -1.4236,0.4222 -0.386,0.3619 -0.386,1.0737 0,1.122 0.9772,1.122 z"
             style="font-style:normal;font-variant:normal;font-weight:normal;font-stretch:normal;font-family:'Noto Serif';-inkscape-font-specification:'Noto Serif';letter-spacing:0px;word-spacing:0.457348px;fill:#cccccc;stroke-width:0.301604"
             id="path933" />
          <path
             d="m -2269.8357,1536.5429 q -0.9169,0 -1.3392,-0.4102 -0.4101,-0.4222 -0.4101,-1.4598 v -4.0294 h -0.9169 v -0.4826 q 0.2171,0 0.4825,-0.084 0.2655,-0.096 0.4585,-0.3016 0.2051,-0.2172 0.3378,-0.5309 0.1327,-0.3136 0.2171,-0.7721 h 0.555 v 1.4839 h 1.5804 v 0.6877 h -1.5804 v 4.0656 q 0,0.6153 0.2533,0.9048 0.2534,0.2896 0.6636,0.2896 0.2171,0 0.3981,-0.024 0.181,-0.024 0.374,-0.06 v 0.5309 q -0.1569,0.072 -0.4705,0.1327 -0.3137,0.06 -0.6032,0.06 z"
             style="font-style:normal;font-variant:normal;font-weight:normal;font-stretch:normal;font-family:'Noto Serif';-inkscape-font-specification:'Noto Serif';letter-spacing:0px;word-spacing:0.457348px;fill:#cccccc;stroke-width:0.301604"
             id="path935" />
          <path
             d="m -2266.5422,1528.7494 q -0.2896,0 -0.4946,-0.1689 -0.1931,-0.1689 -0.1931,-0.5791 0,-0.4222 0.1931,-0.5791 0.205,-0.1689 0.4946,-0.1689 0.2775,0 0.4826,0.1689 0.205,0.1569 0.205,0.5791 0,0.4102 -0.205,0.5791 -0.2051,0.1689 -0.4826,0.1689 z m -1.6649,7.6728 v -0.5067 h 0.1569 q 0.3981,0 0.6876,-0.1327 0.3016,-0.1447 0.3016,-0.6756 v -3.8243 q 0,-0.5308 -0.3016,-0.6756 -0.2895,-0.1448 -0.6876,-0.1448 h -0.036 v -0.5067 h 2.1595 v 5.0911 q 0,0.567 0.2895,0.7239 0.2895,0.1447 0.6997,0.1447 h 0.1569 v 0.5067 z"
             style="font-style:normal;font-variant:normal;font-weight:normal;font-stretch:normal;font-family:'Noto Serif';-inkscape-font-specification:'Noto Serif';letter-spacing:0px;word-spacing:0.457348px;fill:#cccccc;stroke-width:0.301604"
             id="path937" />
          <path
             d="m -2262.1509,1536.5429 q -0.8083,0 -1.3391,-0.4705 -0.5308,-0.4705 -0.5308,-1.4598 0,-0.9651 0.6756,-1.4236 0.6877,-0.4584 2.075,-0.5067 l 1.0014,-0.036 v -0.7238 q 0,-0.4343 -0.072,-0.7601 -0.072,-0.3377 -0.3137,-0.5308 -0.2413,-0.193 -0.7359,-0.193 -0.4584,0 -0.6997,0.1689 -0.2413,0.1689 -0.3258,0.4705 -0.072,0.2895 -0.072,0.6756 -0.5067,0 -0.7722,-0.1689 -0.2533,-0.181 -0.2533,-0.5911 0,-0.4223 0.2895,-0.6756 0.3016,-0.2534 0.7963,-0.362 0.4946,-0.1206 1.0858,-0.1206 1.1099,0 1.6527,0.4705 0.555,0.4705 0.555,1.6166 v 3.1246 q 0,0.5067 0.1689,0.6877 0.1689,0.1809 0.5791,0.1809 h 0.036 v 0.5067 h -1.6287 l -0.193,-1.0375 h -0.096 q -0.2534,0.3378 -0.4947,0.6032 -0.2413,0.2534 -0.567,0.4102 -0.3137,0.1448 -0.8204,0.1448 z m 0.2775,-0.748 q 0.7359,0 1.1703,-0.4464 0.4343,-0.4584 0.4343,-1.2305 v -0.9772 l -0.7721,0.036 q -1.0255,0.048 -1.4236,0.4222 -0.3861,0.3619 -0.3861,1.0737 0,1.122 0.9772,1.122 z"
             style="font-style:normal;font-variant:normal;font-weight:normal;font-stretch:normal;font-family:'Noto Serif';-inkscape-font-specification:'Noto Serif';letter-spacing:0px;word-spacing:0.457348px;fill:#cccccc;stroke-width:0.301604"
             id="path939" />
          <path
             d="m -2257.4941,1536.4222 v -0.5067 h 0.097 q 0.4102,0 0.6998,-0.1447 0.2895,-0.1569 0.2895,-0.7239 v -3.764 q 0,-0.5308 -0.2895,-0.6756 -0.2775,-0.1448 -0.6756,-0.1448 h -0.06 v -0.5067 h 1.9544 l 0.1569,0.9772 h 0.06 q 0.374,-0.6756 0.8324,-0.8807 0.4705,-0.2171 1.0496,-0.2171 0.9531,0 1.4839,0.567 0.5429,0.555 0.5429,1.7976 v 2.8471 q 0,0.567 0.2413,0.7239 0.2533,0.1447 0.6635,0.1447 h 0.06 v 0.5067 h -2.0991 v -4.1621 q 0,-0.7842 -0.3016,-1.2185 -0.2896,-0.4343 -1.0255,-0.4343 -0.5429,0 -0.8686,0.2775 -0.3137,0.2654 -0.4585,0.7118 -0.1327,0.4463 -0.1327,0.9651 v 2.5455 q 0,0.5309 0.2775,0.6756 0.2896,0.1327 0.6877,0.1327 h 0.06 v 0.5067 z"
             style="font-style:normal;font-variant:normal;font-weight:normal;font-stretch:normal;font-family:'Noto Serif';-inkscape-font-specification:'Noto Serif';letter-spacing:0px;word-spacing:0.457348px;fill:#cccccc;stroke-width:0.301604"
             id="path941" />
          <path
             d="m -2246.9259,1536.5429 q -1.1943,0 -1.8337,-0.7963 -0.6273,-0.8083 -0.6273,-2.5455 0,-1.7493 0.6273,-2.5576 0.6394,-0.8083 1.8337,-0.8083 0.6998,0 1.1341,0.3016 0.4464,0.2895 0.7118,0.76 h 0.072 q -0.036,-0.3016 -0.06,-0.6635 -0.012,-0.374 -0.012,-0.6635 v -0.9893 q 0,-0.5308 -0.3016,-0.6756 -0.2896,-0.1448 -0.6877,-0.1448 h -0.097 v -0.5067 h 2.2198 v 7.8418 q 0,0.5308 0.2895,0.6756 0.3017,0.1447 0.6998,0.1447 h 0.097 v 0.5067 h -2.0389 l -0.1327,-1.0857 h -0.048 q -0.2654,0.5549 -0.6998,0.8806 -0.4343,0.3258 -1.1461,0.3258 z m 0.2051,-0.7721 q 0.941,0 1.2909,-0.6274 0.3499,-0.6394 0.3499,-1.9423 0,-1.2547 -0.3499,-1.9182 -0.3499,-0.6756 -1.3029,-0.6756 -0.7963,0 -1.1461,0.6756 -0.3378,0.6635 -0.3378,1.9303 0,1.2788 0.3378,1.9182 0.3498,0.6394 1.1581,0.6394 z"
             style="font-style:normal;font-variant:normal;font-weight:normal;font-stretch:normal;font-family:'Noto Serif';-inkscape-font-specification:'Noto Serif';letter-spacing:0px;word-spacing:0.457348px;fill:#cccccc;stroke-width:0.301604"
             id="path943" />
          <path
             d="m -2239.1807,1536.5429 q -1.3029,0 -2.0509,-0.8324 -0.748,-0.8325 -0.748,-2.5335 0,-1.689 0.7118,-2.5094 0.7239,-0.8324 2.1233,-0.8324 1.303,0 2.051,0.8324 0.7479,0.8204 0.7479,2.5094 0,1.701 -0.7238,2.5335 -0.7118,0.8324 -2.1113,0.8324 z m 0.024,-0.6274 q 0.9048,0 1.2667,-0.6876 0.374,-0.6997 0.374,-2.0509 0,-1.3512 -0.374,-2.0268 -0.374,-0.6756 -1.2788,-0.6756 -0.9048,0 -1.2788,0.6756 -0.3619,0.6756 -0.3619,2.0268 0,1.3512 0.374,2.0509 0.374,0.6876 1.2788,0.6876 z"
             style="font-style:normal;font-variant:normal;font-weight:normal;font-stretch:normal;font-family:'Noto Serif';-inkscape-font-specification:'Noto Serif';letter-spacing:0px;word-spacing:0.457348px;fill:#cccccc;stroke-width:0.301604"
             id="path945" />
          <path
             d="m -2234.174,1536.5067 q -0.3137,0 -0.5429,-0.181 -0.2172,-0.1809 -0.2172,-0.6394 0,-0.4705 0.2172,-0.6394 0.2292,-0.1809 0.5429,-0.1809 0.3137,0 0.5308,0.1809 0.2292,0.1689 0.2292,0.6394 0,0.4585 -0.2292,0.6394 -0.2171,0.181 -0.5308,0.181 z"
             style="font-style:normal;font-variant:normal;font-weight:normal;font-stretch:normal;font-family:'Noto Serif';-inkscape-font-specification:'Noto Serif';letter-spacing:0px;word-spacing:0.457348px;fill:#cccccc;stroke-width:0.301604"
             id="path947" />
          <path
             d="m -2229.2036,1536.5429 q -1.3029,0 -2.0509,-0.8324 -0.748,-0.8325 -0.748,-2.5335 0,-1.689 0.7118,-2.5094 0.7239,-0.8324 2.1233,-0.8324 1.3029,0 2.0509,0.8324 0.748,0.8204 0.748,2.5094 0,1.701 -0.7239,2.5335 -0.7117,0.8324 -2.1112,0.8324 z m 0.024,-0.6274 q 0.9049,0 1.2668,-0.6876 0.374,-0.6997 0.374,-2.0509 0,-1.3512 -0.374,-2.0268 -0.374,-0.6756 -1.2788,-0.6756 -0.9048,0 -1.2788,0.6756 -0.362,0.6756 -0.362,2.0268 0,1.3512 0.374,2.0509 0.374,0.6876 1.2788,0.6876 z"
             style="font-style:normal;font-variant:normal;font-weight:normal;font-stretch:normal;font-family:'Noto Serif';-inkscape-font-specification:'Noto Serif';letter-spacing:0px;word-spacing:0.457348px;fill:#cccccc;stroke-width:0.301604"
             id="path949" />
          <path
             d="m -2225.3069,1536.4222 v -0.5067 h 0.036 q 0.4102,0 0.6998,-0.1447 0.2895,-0.1569 0.2895,-0.7239 v -3.764 q 0,-0.5308 -0.3016,-0.6756 -0.2895,-0.1448 -0.6877,-0.1448 h -0.036 v -0.5067 h 1.8579 l 0.2293,1.1944 h 0.06 q 0.1568,-0.3619 0.3378,-0.6635 0.1809,-0.3017 0.4825,-0.4705 0.3016,-0.181 0.8325,-0.181 0.6635,0 0.9772,0.2292 0.3257,0.2292 0.3257,0.6515 0,0.374 -0.2654,0.6152 -0.2534,0.2413 -0.8566,0.2413 0,-0.4946 -0.1447,-0.7118 -0.1448,-0.2292 -0.4947,-0.2292 -0.3378,0 -0.567,0.2654 -0.2292,0.2654 -0.3619,0.6756 -0.1327,0.4102 -0.193,0.8566 -0.06,0.4343 -0.06,0.7842 v 1.894 q 0,0.5309 0.2896,0.6756 0.3016,0.1327 0.6997,0.1327 h 0.3378 v 0.5067 z"
             style="font-style:normal;font-variant:normal;font-weight:normal;font-stretch:normal;font-family:'Noto Serif';-inkscape-font-specification:'Noto Serif';letter-spacing:0px;word-spacing:0.457348px;fill:#cccccc;stroke-width:0.301604"
             id="path951" />
          <path
             d="m -2217.2359,1539.3176 q -1.2547,0 -1.882,-0.4705 -0.6274,-0.4584 -0.6274,-1.2908 0,-0.7118 0.4585,-1.0737 0.4584,-0.362 1.0496,-0.4705 -0.2413,-0.1086 -0.4585,-0.3499 -0.2051,-0.2534 -0.2051,-0.6394 0,-0.3619 0.181,-0.6273 0.193,-0.2655 0.6032,-0.5067 -0.5188,-0.2172 -0.8083,-0.7118 -0.2775,-0.5067 -0.2775,-1.1099 0,-1.0376 0.567,-1.6287 0.5671,-0.6032 1.7011,-0.6032 0.4343,0 0.8204,0.1206 0.386,0.1207 0.5549,0.2775 0.1689,-0.193 0.4705,-0.4222 0.3016,-0.2293 0.6997,-0.2293 0.362,0 0.5309,0.1931 0.1809,0.1809 0.1809,0.4343 0,0.2533 -0.1568,0.4464 -0.1448,0.1809 -0.4826,0.1809 0,-0.1327 -0.084,-0.2654 -0.072,-0.1448 -0.3137,-0.1448 -0.2775,0 -0.5188,0.1448 0.2051,0.2534 0.3378,0.6032 0.1327,0.3378 0.1327,0.8566 0,0.8927 -0.5428,1.4839 -0.5309,0.5911 -1.6287,0.5911 -0.1448,0 -0.3378,-0.012 -0.181,-0.024 -0.3016,-0.048 -0.2292,0.1206 -0.3981,0.3016 -0.1689,0.181 -0.1689,0.4584 0,0.2172 0.1327,0.3378 0.1447,0.1207 0.6152,0.1207 h 1.3633 q 1.0737,0 1.5322,0.5067 0.4584,0.5067 0.4584,1.2908 0,1.0376 -0.7842,1.6408 -0.7721,0.6152 -2.4128,0.6152 z m 0.2654,-5.7908 q 0.5911,0 0.8324,-0.3619 0.2413,-0.3619 0.2413,-1.1461 0,-0.8204 -0.2533,-1.2064 -0.2413,-0.3861 -0.8325,-0.3861 -0.5791,0 -0.8324,0.3982 -0.2533,0.3981 -0.2533,1.2064 0,0.7721 0.2533,1.134 0.2654,0.3619 0.8445,0.3619 z m -0.2413,5.1997 q 0.8686,0 1.3391,-0.193 0.4705,-0.181 0.6515,-0.5188 0.193,-0.3257 0.193,-0.748 0,-0.5549 -0.3136,-0.7479 -0.3137,-0.181 -0.9169,-0.181 h -1.1823 q -0.3378,0 -0.6394,0.084 -0.3016,0.097 -0.4946,0.3378 -0.1931,0.2413 -0.1931,0.7239 0,0.3499 0.1327,0.6273 0.1327,0.2896 0.4705,0.4464 0.3378,0.1689 0.9531,0.1689 z"
             style="font-style:normal;font-variant:normal;font-weight:normal;font-stretch:normal;font-family:'Noto Serif';-inkscape-font-specification:'Noto Serif';letter-spacing:0px;word-spacing:0.457348px;fill:#cccccc;stroke-width:0.301604"
             id="path953" />
          <path
             d="m -2213.5322,1537.882 2.7747,-10.6286 h 0.6998 l -2.7627,10.6286 z"
             style="font-style:normal;font-variant:normal;font-weight:normal;font-stretch:normal;font-family:'Noto Serif';-inkscape-font-specification:'Noto Serif';letter-spacing:0px;word-spacing:0.457348px;fill:#cccccc;stroke-width:0.301604"
             id="path955" />
          <path
             d="m -2209.8406,1539.3176 v -0.5066 h 0.097 q 0.4102,0 0.6997,-0.1569 0.2896,-0.1448 0.2896,-0.7118 v -6.6594 q 0,-0.5308 -0.3016,-0.6756 -0.2896,-0.1448 -0.6877,-0.1448 h -0.1568 v -0.5067 h 2.1112 l 0.1207,1.0858 h 0.048 q 0.2775,-0.5549 0.7118,-0.8807 0.4343,-0.3257 1.134,-0.3257 1.1944,0 1.8217,0.8083 0.6394,0.7962 0.6394,2.5335 0,1.7493 -0.6394,2.5576 -0.6273,0.8083 -1.8217,0.8083 -0.6997,0 -1.1461,-0.2896 -0.4343,-0.3016 -0.6997,-0.7721 h -0.048 q 0.024,0.3499 0.036,0.748 0.012,0.3861 0.012,0.6153 v 1.1582 q 0,0.5308 0.2895,0.6635 0.3017,0.1448 0.6998,0.1448 h 0.036 v 0.5066 z m 3.8726,-3.5468 q 0.7962,0 1.134,-0.6636 0.3499,-0.6756 0.3499,-1.9423 0,-1.2909 -0.3499,-1.9182 -0.3378,-0.6394 -1.1461,-0.6394 -0.941,0 -1.2908,0.6394 -0.3499,0.6273 -0.3499,1.9303 0,1.2546 0.3499,1.9302 0.3498,0.6636 1.3029,0.6636 z"
             style="font-style:normal;font-variant:normal;font-weight:normal;font-stretch:normal;font-family:'Noto Serif';-inkscape-font-specification:'Noto Serif';letter-spacing:0px;word-spacing:0.457348px;fill:#cccccc;stroke-width:0.301604"
             id="path957" />
          <path
             d="m -2199.1879,1536.5429 q -1.303,0 -2.051,-0.8324 -0.7479,-0.8325 -0.7479,-2.5335 0,-1.689 0.7118,-2.5094 0.7238,-0.8324 2.1233,-0.8324 1.3029,0 2.0509,0.8324 0.7479,0.8204 0.7479,2.5094 0,1.701 -0.7238,2.5335 -0.7118,0.8324 -2.1112,0.8324 z m 0.024,-0.6274 q 0.9048,0 1.2667,-0.6876 0.374,-0.6997 0.374,-2.0509 0,-1.3512 -0.374,-2.0268 -0.374,-0.6756 -1.2788,-0.6756 -0.9048,0 -1.2788,0.6756 -0.3619,0.6756 -0.3619,2.0268 0,1.3512 0.374,2.0509 0.374,0.6876 1.2788,0.6876 z"
             style="font-style:normal;font-variant:normal;font-weight:normal;font-stretch:normal;font-family:'Noto Serif';-inkscape-font-specification:'Noto Serif';letter-spacing:0px;word-spacing:0.457348px;fill:#cccccc;stroke-width:0.301604"
             id="path959" />
          <path
             d="m -2192.2269,1536.5429 q -1.3029,0 -2.0509,-0.8324 -0.748,-0.8325 -0.748,-2.5335 0,-1.689 0.7118,-2.5094 0.7238,-0.8324 2.1233,-0.8324 1.3029,0 2.0509,0.8324 0.748,0.8204 0.748,2.5094 0,1.701 -0.7239,2.5335 -0.7118,0.8324 -2.1112,0.8324 z m 0.024,-0.6274 q 0.9048,0 1.2668,-0.6876 0.374,-0.6997 0.374,-2.0509 0,-1.3512 -0.374,-2.0268 -0.374,-0.6756 -1.2788,-0.6756 -0.9048,0 -1.2788,0.6756 -0.362,0.6756 -0.362,2.0268 0,1.3512 0.374,2.0509 0.374,0.6876 1.2788,0.6876 z"
             style="font-style:normal;font-variant:normal;font-weight:normal;font-stretch:normal;font-family:'Noto Serif';-inkscape-font-specification:'Noto Serif';letter-spacing:0px;word-spacing:0.457348px;fill:#cccccc;stroke-width:0.301604"
             id="path961" />
          <path
             d="m -2185.3141,1536.5429 q -0.7963,0 -1.4236,-0.3378 -0.6153,-0.3378 -0.9772,-1.0617 -0.3499,-0.7359 -0.3499,-1.9182 0,-1.2908 0.3499,-2.0268 0.3619,-0.7479 0.9651,-1.0495 0.6153,-0.3137 1.3754,-0.3137 0.5067,0 0.9892,0.1327 0.4826,0.1327 0.7963,0.4102 0.3136,0.2654 0.3136,0.6876 0,0.4102 -0.2774,0.5912 -0.2655,0.1689 -0.7963,0.1689 0,-0.567 -0.2171,-0.9772 -0.2051,-0.4102 -0.8083,-0.4102 -0.4585,0 -0.8083,0.2413 -0.3378,0.2413 -0.5309,0.8445 -0.1809,0.6032 -0.1809,1.689 0,1.2788 0.4222,1.9182 0.4343,0.6273 1.3995,0.6273 0.567,0 0.9772,-0.2292 0.4222,-0.2413 0.6273,-0.6153 0.2051,0.1689 0.2051,0.4705 0,0.2775 -0.2292,0.5429 -0.2292,0.2654 -0.6877,0.4464 -0.4464,0.1689 -1.134,0.1689 z"
             style="font-style:normal;font-variant:normal;font-weight:normal;font-stretch:normal;font-family:'Noto Serif';-inkscape-font-specification:'Noto Serif';letter-spacing:0px;word-spacing:0.457348px;fill:#cccccc;stroke-width:0.301604"
             id="path963" />
          <path
             d="m -2182.5756,1536.4222 v -0.5067 h 0.097 q 0.4101,0 0.6997,-0.1447 0.2895,-0.1569 0.2895,-0.7239 v -6.4664 q 0,-0.5308 -0.3016,-0.6756 -0.2895,-0.1448 -0.6876,-0.1448 h -0.097 v -0.5067 h 2.2199 v 2.6542 q 0,0.2171 -0.012,0.4584 -0.012,0.2292 -0.024,0.3981 -0.012,0.1689 -0.012,0.1689 h 0.06 q 0.555,-1.0978 1.7735,-1.0978 1.0375,0 1.5804,0.567 0.5549,0.555 0.5549,1.7976 v 2.8471 q 0,0.567 0.2534,0.7239 0.2654,0.1447 0.6756,0.1447 h 0.036 v 0.5067 h -2.0992 v -4.1621 q 0,-0.7842 -0.3016,-1.2185 -0.2896,-0.4343 -1.0255,-0.4343 -0.748,0 -1.1099,0.5308 -0.3498,0.5308 -0.3498,1.4236 v 2.5455 q 0,0.5309 0.2895,0.6756 0.3016,0.1327 0.6997,0.1327 h 0.036 v 0.5067 z"
             style="font-style:normal;font-variant:normal;font-weight:normal;font-stretch:normal;font-family:'Noto Serif';-inkscape-font-specification:'Noto Serif';letter-spacing:0px;word-spacing:0.457348px;fill:#cccccc;stroke-width:0.301604"
             id="path965" />
        </g>
      </g>
    </g>
  </g>
</svg>
